<?xml version="1.0" encoding="UTF-8" standalone="no"?>
<!-- Created with Inkscape (http://www.inkscape.org/) -->

<svg
   width="800"
   height="800"
   viewBox="0 0 211.66667 211.66667"
   version="1.1"
   id="svg1"
   xml:space="preserve"
   xmlns="http://www.w3.org/2000/svg"
   xmlns:svg="http://www.w3.org/2000/svg"><defs
     id="defs1"><filter
       style="color-interpolation-filters:sRGB"
       id="filter11"
       x="-0.64551771"
       y="-2.1335128"
       width="2.2910354"
       height="5.2670255"><feGaussianBlur
         stdDeviation="6"
         in="SourceGraphic"
         result="result0"
         id="feGaussianBlur8" /><feDiffuseLighting
         lighting-color="#ffffff"
         diffuseConstant="1"
         surfaceScale="4"
         result="result5"
         id="feDiffuseLighting8"><feDistantLight
           elevation="45"
           azimuth="235"
           id="feDistantLight8" /></feDiffuseLighting><feComposite
         k1="1.4"
         in2="SourceGraphic"
         in="result5"
         result="fbSourceGraphic"
         operator="arithmetic"
         id="feComposite9"
         k2="0"
         k3="0"
         k4="0" /><feGaussianBlur
         result="result0"
         in="fbSourceGraphic"
         stdDeviation="6"
         id="feGaussianBlur9" /><feSpecularLighting
         specularExponent="25"
         specularConstant="1"
         surfaceScale="4"
         lighting-color="#ffffff"
         result="result1"
         in="result0"
         id="feSpecularLighting9"><feDistantLight
           azimuth="235"
           elevation="45"
           id="feDistantLight9" /></feSpecularLighting><feComposite
         k3="1"
         k2="1"
         operator="arithmetic"
         in="fbSourceGraphic"
         in2="result1"
         result="result4"
         id="feComposite10"
         k1="0"
         k4="0" /><feComposite
         operator="in"
         result="result2"
         in2="SourceGraphic"
         in="result4"
         id="feComposite11" /><feGaussianBlur
         stdDeviation="1"
         id="feGaussianBlur1" /><feComposite
         id="feComposite1"
         in2="SourceGraphic"
         operator="atop" /></filter></defs><g
     id="layer1"
     transform="translate(-37.203808,-80.76667)"><path
       id="rect1"
       style="fill:#ffffff;stroke-width:0.413411;stroke-linecap:round;stroke-linejoin:round"
       d="M 37.203808,80.905106 H 248.87048 V 292.57178 H 37.203808 Z" /><path
       style="display:inline;fill:#0000ff;stroke:#cccccc;stroke-width:0.15625;stroke-linejoin:round"
       d="M 143.03712,116.42291 65.309812,87.405853 84.967084,180.36922 37.835739,174.10322 143.03712,285.78083 248.26593,174.12418 203.37176,184.35099 221.01721,87.280113 Z"
       id="path1" /><path
       id="path5"
       style="fill:none;stroke:#0000ff;stroke-width:4.6875;stroke-linecap:round;stroke-linejoin:round;stroke-dasharray:none"
       d="m 191.90935,281.55219 40.42497,-28.92986 m -59.86689,30.28908 63.30478,-60.10397 M 52.377992,252.84055 93.04006,281.84447 m -44.415535,-60.1687 63.924755,60.90703" /><g
       aria-label="COLD"
       transform="matrix(1.5624999,0,0,1.5624999,-20.927139,-45.292814)"
       id="text5"
       style="font-size:19.7556px;font-family:'Arial Rounded MT Bold';-inkscape-font-specification:'Arial Rounded MT Bold, ';fill:#f9f9f9;stroke-width:3;stroke-linecap:round;stroke-linejoin:round;filter:url(#filter11)"><path
         d="m 90.779236,177.80809 q 0,0.67524 -0.33762,1.46624 -0.327974,0.78135 -1.0418,1.5434 -0.713825,0.75241 -1.823148,1.22508 -1.109323,0.47267 -2.585206,0.47267 -1.118969,0 -2.035367,-0.21222 -0.916397,-0.21222 -1.668808,-0.65595 -0.742764,-0.45337 -1.369773,-1.18649 -0.559485,-0.66559 -0.954982,-1.48553 -0.395498,-0.82958 -0.59807,-1.76527 -0.192926,-0.93569 -0.192926,-1.98713 0,-1.7074 0.491961,-3.05788 0.501607,-1.35048 1.42765,-2.30546 0.926044,-0.96463 2.170415,-1.46624 1.244372,-0.5016 2.65273,-0.5016 1.717039,0 3.057874,0.68488 1.340834,0.68489 2.054659,1.69775 0.713826,1.00321 0.713826,1.90032 0,0.49196 -0.347267,0.86816 -0.347266,0.37621 -0.839227,0.37621 -0.549838,0 -0.829581,-0.26045 -0.270096,-0.26045 -0.607716,-0.89711 -0.559485,-1.05144 -1.321542,-1.57234 -0.75241,-0.5209 -1.861733,-0.5209 -1.765271,0 -2.816717,1.34083 -1.041799,1.34084 -1.041799,3.81029 0,1.64951 0.463022,2.74919 0.463022,1.09003 1.311895,1.63022 0.848874,0.5402 1.987136,0.5402 1.234725,0 2.083598,-0.60772 0.85852,-0.61736 1.292603,-1.80386 0.183279,-0.55948 0.453375,-0.90675 0.270097,-0.35691 0.868166,-0.35691 0.511254,0 0.877813,0.35691 0.366559,0.35691 0.366559,0.88746 z"
         id="path27" /><path
         d="m 99.576652,167.89171 q 2.199358,0 3.771698,0.8971 1.58199,0.88746 2.39228,2.53697 0.81029,1.63987 0.81029,3.85852 0,1.63987 -0.44373,2.9807 -0.44373,1.34084 -1.33119,2.32476 -0.88746,0.98392 -2.18006,1.50482 -1.2926,0.5209 -2.961411,0.5209 -1.659161,0 -2.971057,-0.53055 -1.311895,-0.54019 -2.189707,-1.51446 -0.877813,-0.97428 -1.331188,-2.34405 -0.443729,-1.36977 -0.443729,-2.96141 0,-1.63023 0.463021,-2.99035 0.472669,-1.36013 1.360127,-2.31511 0.887459,-0.95498 2.160769,-1.45659 1.27331,-0.51125 2.893887,-0.51125 z m 4.070738,7.2733 q 0,-1.55306 -0.50161,-2.69132 -0.50161,-1.13826 -1.4373,-1.71704 -0.92604,-0.58842 -2.131828,-0.58842 -0.85852,0 -1.591638,0.32797 -0.723472,0.31833 -1.254018,0.93569 -0.520899,0.61737 -0.82958,1.582 -0.299035,0.95498 -0.299035,2.15112 0,1.20578 0.299035,2.18006 0.308681,0.97427 0.858519,1.62058 0.559485,0.63665 1.27331,0.95498 0.723472,0.31833 1.581992,0.31833 1.099673,0 2.016073,-0.54984 0.92604,-0.54984 1.46624,-1.69775 0.54984,-1.14791 0.54984,-2.82636 z"
         id="path29" /><path
         d="m 111.80815,169.62804 v 10.29259 h 5.80706 q 0.69454,0 1.06109,0.33762 0.37621,0.33762 0.37621,0.84887 0,0.5209 -0.36656,0.84887 -0.36656,0.31833 -1.07074,0.31833 h -6.91639 q -0.93569,0 -1.35048,-0.41479 -0.40514,-0.41479 -0.40514,-1.34083 v -10.89066 q 0,-0.86817 0.38585,-1.30225 0.3955,-0.43408 1.03215,-0.43408 0.6463,0 1.0418,0.43408 0.40515,0.42444 0.40515,1.30225 z"
         id="path31" /><path
         d="m 122.70845,168.13286 h 3.73312 q 1.45659,0 2.49839,0.2701 1.04179,0.27009 1.89067,1.01286 2.209,1.89067 2.209,5.74919 0,1.27331 -0.22187,2.32475 -0.22186,1.05145 -0.68488,1.90032 -0.46302,0.83923 -1.1865,1.50482 -0.56913,0.51126 -1.24437,0.81994 -0.67524,0.30868 -1.45659,0.43408 -0.7717,0.1254 -1.74598,0.1254 h -3.73311 q -0.78135,0 -1.17685,-0.23151 -0.39549,-0.24116 -0.5209,-0.66559 -0.11575,-0.43409 -0.11575,-1.11897 v -10.36976 q 0,-0.92605 0.41479,-1.34084 0.41479,-0.41479 1.34083,-0.41479 z m 1.10933,2.26688 v 9.59806 h 2.17041 q 0.71383,0 1.11897,-0.0386 0.40514,-0.0386 0.83923,-0.19292 0.43408,-0.15434 0.75241,-0.43409 1.4373,-1.21543 1.4373,-4.18649 0,-2.09324 -0.63666,-3.13504 -0.62701,-1.0418 -1.55305,-1.32154 -0.92605,-0.28939 -2.23794,-0.28939 z"
         id="path33" /></g><g
       id="text6"
       style="font-size:79.375px;font-family:'Arial Rounded MT Bold';-inkscape-font-specification:'Arial Rounded MT Bold, ';display:none;fill:#f9f9f9;stroke-width:4.6875;stroke-linecap:round;stroke-linejoin:round" /><path
       style="fill:#f9f9f9;filter:url(#filter11)"
       d="m 105.73089,158.10601 c -1.02715,-0.3671 -1.05834,-0.68284 -1.05834,-10.71487 v -9.73902 l -2.71197,-0.0405 c -1.49159,-0.0223 -3.366831,-0.0131 -4.167196,0.0204 -1.690936,0.0708 -2.768662,-0.27588 -3.443894,-1.10792 l -0.480215,-0.59174 -0.169327,0.79375 c -0.823525,3.8604 -3.625517,13.01354 -4.981207,16.27188 -1.380483,3.31792 -1.99987,3.96875 -3.777036,3.96875 -2.289436,0 -3.552486,-1.01223 -3.552486,-2.84702 0,-0.41615 0.604144,-2.23777 1.342541,-4.04804 1.603913,-3.93219 2.865739,-7.67267 4.100385,-12.15494 1.060279,-3.84925 1.505897,-4.83335 2.40701,-5.31561 0.919408,-0.49205 2.609245,-0.36616 3.696584,0.27538 1.133887,0.66901 1.062692,0.67547 1.26092,-0.11434 0.370694,-1.47696 0.45335,-1.48416 16.101951,-1.40255 13.94002,0.0727 14.37991,0.0905 15.39781,0.62448 0.68354,0.35857 1.25846,0.94795 1.65365,1.69527 0.5887,1.11325 0.60581,1.3501 0.60581,8.38852 0,7.86105 -0.0889,8.44515 -1.51197,9.93084 -1.21801,1.27162 -2.87584,1.62467 -6.80535,1.44926 -3.82371,-0.17068 -5.78968,-0.63883 -7.01596,-1.67067 -0.69914,-0.58829 -0.8063,-0.85289 -0.8063,-1.99099 0,-1.64278 0.58081,-2.81023 1.5147,-3.04463 0.39123,-0.0982 1.60946,-0.0131 2.70717,0.18917 1.09771,0.20223 2.76975,0.37014 3.71563,0.37313 l 1.71979,0.005 0.0726,-4.61054 c 0.0399,-2.53579 -0.0217,-4.70478 -0.13686,-4.81998 -0.1152,-0.1152 -2.56071,-0.24311 -5.43447,-0.28426 l -5.22504,-0.0748 -0.0621,9.74649 -0.0621,9.74649 -0.74236,0.6384 c -0.60576,0.52094 -1.01958,0.63457 -2.24896,0.61752 -0.82863,-0.0115 -1.68519,-0.0847 -1.90347,-0.16272 z M 87.142332,126.56812 c -0.35416,-0.42089 -1.144077,-2.22399 -1.755371,-4.00688 -0.611294,-1.78289 -1.701329,-4.49218 -2.422301,-6.02064 -0.720972,-1.52846 -1.310858,-3.03683 -1.310858,-3.35195 0,-1.09439 1.993072,-2.52401 3.5188,-2.52401 1.803322,0 2.889338,1.53392 5.108745,7.21577 1.350705,3.4579 1.691205,4.09065 1.691205,3.14275 0,-1.28804 0.735567,-2.10246 2.711568,-3.00224 6.31242,-2.87439 10.3016,-5.07722 14.05222,-7.75969 1.58703,-1.13505 3.19635,-1.24441 4.707,-0.31985 3.63834,2.22677 8.89099,5.31822 10.67608,6.2834 3.48978,1.8869 4.8462,2.83883 5.30253,3.72129 0.39952,0.77257 0.39998,0.92438 0.006,1.95592 -0.2349,0.61508 -0.71782,1.39145 -1.07314,1.72525 -0.55751,0.52376 -0.82851,0.58532 -1.97771,0.44921 l -1.33168,-0.15772 v 0.89882 c 0,0.56854 -0.23457,1.17162 -0.63833,1.64118 l -0.63833,0.74236 -12.52468,0.07 c -9.80043,0.0548 -12.667613,-0.004 -13.181759,-0.2702 -0.628399,-0.32541 -0.876805,-0.81825 -1.181346,-2.34381 -0.13269,-0.6647 -0.178577,-0.6811 -1.167252,-0.4172 -1.226856,0.32746 -2.572028,-0.10921 -2.828824,-0.9183 -0.08995,-0.28341 -0.302266,-0.46615 -0.471818,-0.40609 -0.316898,0.11224 -0.319041,0.30698 -0.01753,1.59267 0.368169,1.56992 -1.149635,2.82518 -3.416072,2.82518 -0.991168,0 -1.302323,-0.1296 -1.837191,-0.76526 z m 31.970398,-5.55175 c -0.0787,-0.12737 -1.00848,-0.74253 -2.06613,-1.36702 -1.05765,-0.62449 -2.78831,-1.71594 -3.8459,-2.42545 l -1.9229,-1.29003 -2.57502,1.69542 c -1.41626,0.93248 -3.2001,2.02801 -3.96408,2.43451 -0.76398,0.40651 -1.38906,0.83924 -1.38906,0.96163 0,0.1224 3.5789,0.22254 7.95311,0.22254 4.47945,0 7.8906,-0.10115 7.80998,-0.2316 z"
       id="path6"
       transform="matrix(1.5624999,0,0,1.5624999,-20.927139,-45.292814)" /></g></svg>
