<?xml version="1.0" encoding="UTF-8" standalone="no"?>
<!-- Created with Inkscape (http://www.inkscape.org/) -->

<svg
   width="800.00012"
   height="800.00012"
   viewBox="0 0 211.66669 211.66669"
   version="1.1"
   id="svg1"
   xml:space="preserve"
   xmlns="http://www.w3.org/2000/svg"
   xmlns:svg="http://www.w3.org/2000/svg"><defs
     id="defs1"><filter
       style="color-interpolation-filters:sRGB"
       id="filter5"
       x="-0.26116326"
       y="-0.18434802"
       width="1.5223265"
       height="1.368696"><feGaussianBlur
         stdDeviation="6"
         in="SourceGraphic"
         result="result0"
         id="feGaussianBlur3" /><feDiffuseLighting
         lighting-color="#ffffff"
         diffuseConstant="1"
         surfaceScale="4"
         result="result5"
         id="feDiffuseLighting3"><feDistantLight
           elevation="45"
           azimuth="235"
           id="feDistantLight3" /></feDiffuseLighting><feComposite
         k1="1.4"
         in2="SourceGraphic"
         in="result5"
         result="fbSourceGraphic"
         operator="arithmetic"
         id="feComposite3"
         k2="0"
         k3="0"
         k4="0" /><feGaussianBlur
         result="result0"
         in="fbSourceGraphic"
         stdDeviation="6"
         id="feGaussianBlur4" /><feSpecularLighting
         specularExponent="25"
         specularConstant="1"
         surfaceScale="4"
         lighting-color="#ffffff"
         result="result1"
         in="result0"
         id="feSpecularLighting4"><feDistantLight
           azimuth="235"
           elevation="45"
           id="feDistantLight4" /></feSpecularLighting><feComposite
         k3="1"
         k2="1"
         operator="arithmetic"
         in="fbSourceGraphic"
         in2="result1"
         result="result4"
         id="feComposite4"
         k1="0"
         k4="0" /><feComposite
         operator="in"
         result="result2"
         in2="SourceGraphic"
         in="result4"
         id="feComposite5" /><feGaussianBlur
         stdDeviation="1"
         id="feGaussianBlur1" /><feComposite
         id="feComposite1"
         in2="SourceGraphic"
         operator="atop" /></filter><clipPath
       clipPathUnits="userSpaceOnUse"
       id="clipPath5"><rect
         style="fill:#ffffff;stroke-width:0.275833"
         id="rect6"
         width="211.66667"
         height="211.66667"
         x="2.3227334"
         y="-101.11224" /></clipPath><clipPath
       clipPathUnits="userSpaceOnUse"
       id="clipPath9"><rect
         style="fill:#ffffff;stroke-width:0.275833"
         id="rect10"
         width="211.66667"
         height="211.66667"
         x="2.3227334"
         y="-101.11224"
         clip-path="url(#clipPath5)"
         transform="matrix(0.95590598,0,0,1.046128,209.6722,105.77634)" /></clipPath><clipPath
       clipPathUnits="userSpaceOnUse"
       id="clipPath10"><rect
         style="fill:#ffffff;stroke-width:0.275833"
         id="rect11"
         width="211.66667"
         height="211.66667"
         x="2.3227334"
         y="-101.11224"
         clip-path="url(#clipPath5)"
         transform="matrix(0.84333501,0,0,1.1857684,184.98044,119.8957)" /></clipPath><clipPath
       clipPathUnits="userSpaceOnUse"
       id="clipPath11"><rect
         style="fill:#ffffff;stroke-width:0.275833"
         id="rect12"
         width="211.66667"
         height="211.66667"
         x="2.3227334"
         y="-101.11224"
         clip-path="url(#clipPath5)"
         transform="translate(221.66669)" /></clipPath><clipPath
       clipPathUnits="userSpaceOnUse"
       id="clipPath12"><rect
         style="fill:#ffffff;stroke-width:0.275833"
         id="rect13"
         width="211.66667"
         height="211.66667"
         x="2.3227334"
         y="-101.11224"
         clip-path="url(#clipPath5)" /></clipPath></defs><g
     id="layer4"
     transform="translate(-221.66669)"><path
       id="rect7"
       clip-path="url(#clipPath5)"
       style="fill:#ffffff;stroke-width:0.275833"
       transform="translate(219.34396,101.11224)"
       d="M 2.3227334,-101.11224 H 213.98941 V 110.55443 H 2.3227334 Z" /><path
       id="path6"
       style="fill:#f4a421;fill-opacity:1;filter:url(#filter5)"
       d="m 309.80687,-91.745849 c -0.09,0.05161 -0.217,0.161303 -0.39,0.31626 -1.666,1.496417 -3.734,5.395668 -4.897,9.235095 -0.664,2.190904 -0.723,2.751368 -0.736,7.011459 -0.02,5.223522 0.434,7.911911 2.145,12.821956 2.553,7.322453 3.217,12.492794 2.327,18.134294 -0.218,1.382446 -0.472,3.108855 -0.564,3.836458 -0.198,1.554111 0.07,1.429376 0.716,-0.329696 0.252,-0.691673 0.764,-2.076397 1.136,-3.076814 1.453,-3.907582 1.842,-6.094119 1.864,-10.484115 0.02,-4.049109 0,-4.141248 -0.99,-7.276042 -2.775,-8.713247 -3.705,-14.562279 -3.118,-19.622575 0.344,-2.961233 1.263,-6.835238 2.163,-9.11934 0.487,-1.234522 0.606,-1.60178 0.344,-1.44694 z m -52.877,11.006564 c -0.415,0 -0.508,0.459766 -0.237,1.16737 0.225,0.586938 0.634,0.250906 0.634,-0.521415 0,-0.397694 -0.153,-0.645955 -0.397,-0.645955 z m 0.531,2.128552 c -0.137,0.03241 -0.255,0.259224 -0.221,0.649573 0.03,0.29104 0.182,1.12448 0.348,1.852083 0.45,1.977752 0.973,5.872224 1.033,7.698755 0.126,3.834718 -0.967,9.234099 -2.661,13.134082 -1.355,3.120502 -2.988,7.894492 -3.69,10.784871 -2.353,9.684092 -1.82,18.179572 1.394,22.246188 0.579,0.732645 1.313,1.436862 1.63,1.564762 0.318,0.127901 0.798,0.240397 1.067,0.249597 0.689,0.02363 1.868,-1.328359 2.239,-2.568835 0.408,-1.359287 0.413,-8.598287 0.01,-15.860014 -0.482,-8.741905 0.237,-14.350756 2.528,-19.712492 0.553,-1.294893 0.554,-5.381545 0,-8.541081 -0.452,-2.584895 -1.8,-6.934904 -3.036,-9.789583 -0.126,-0.291042 -0.264,-0.826823 -0.306,-1.190625 -0.04,-0.38769 -0.202,-0.549689 -0.34,-0.517281 z m 20.314,4.519104 c -0.268,-0.06903 -0.361,0.06083 -0.23,0.401526 0.37,0.965064 0.724,10.328238 0.567,15.043526 -0.206,6.236156 -1.14,15.721499 -2.019,20.505208 -0.355,1.933588 -2.105,10.733327 -2.367,11.90625 -0.114,0.509323 -0.319,1.467441 -0.454,2.129069 -0.136,0.661628 -0.697,1.971317 -1.248,2.910417 -0.887,1.511775 -3.87,7.520254 -4.986,10.041763 -1.025,2.3175389 -2.746,7.1104991 -3.372,9.392709 -1.909,6.9649389 -2.417,10.2131938 -2.566,16.424838 -0.101,4.160004 -0.03,5.923435 0.313,8.129219 1.297,8.269846 4.767,14.507973 10.157,18.259868 2.513,1.749404 3.641,2.270178 7.908,3.65404 4.905,1.590412 7.217,2.855455 9.231,5.049305 2.293,2.496829 3.018,4.553145 3.005,8.525061 0,2.907776 -0.52,5.688922 -2.31,12.585795 -0.586,2.25557 -1.148,4.607058 -1.249,5.22552 -0.122,0.746338 -0.09,1.12448 0.105,1.12448 0.158,0 0.287,-0.178594 0.287,-0.396875 0,-0.218281 0.09,-0.396875 0.208,-0.396875 0.114,0 0.419,-0.358101 0.678,-0.795817 0.258,-0.437717 1.385,-1.899122 2.504,-3.247347 1.119,-1.348226 2.487,-3.011082 3.039,-3.695382 0.552,-0.6843 1.153,-1.395788 1.333,-1.581299 0.662,-0.679007 3.911,-5.004185 5.187,-6.902938 2.818,-4.194986 4.918,-9.283787 5.642,-13.675134 0.462,-2.803842 0.159,-8.694818 -0.606,-11.768274 -0.983,-3.947546 -1.698,-5.523996 -3.455,-7.611422 -2.215,-2.63257 -6.751,-8.658782 -8.253,-10.964188 -2.869,-4.405225 -5.038,-9.1434138 -5.911,-12.9154916 -0.582,-2.51697733 -0.66,-8.1942699 -0.143,-10.4510417 0.764,-3.3346727 0.96,-4.0123567 2.257,-7.8052077 1.61522,-3.228595 1.357,-6.413032 1.357,-9.921875 0,-6.024729 -0.146,-7.573143 -1.346,-15.035775 -2.606,-16.209095 -7.483,-29.798963 -11.969,-33.351969 -0.574,-0.454812 -1.018,-0.722651 -1.287,-0.791683 z m 59.33,20.943424 c -0.1,-0.06552 -0.306,0.03308 -0.554,0.341582 -0.859,1.069735 -1.955,3.755284 -2.22,5.445145 -0.349,2.214498 0,4.971705 1.047,8.158159 1.062,3.251286 1.431,6.055751 1.08,8.2057 -0.155,0.945885 -0.282,1.928151 -0.283,2.182813 0,0.254661 0.117,0.463021 0.262,0.463021 0.146,0 0.265,-0.20836 0.265,-0.463021 0,-0.254662 0.249,-1.117866 0.554,-1.918229 0.341,-0.897062 0.607,-2.368539 0.693,-3.836459 0.127,-2.164147 0.05,-2.690493 -0.809,-5.772774 -1.235,-4.414823 -1.43,-6.583526 -0.849,-9.450069 0.246,-1.216384 0.568,-2.436673 0.716,-2.711462 0.186,-0.349105 0.196,-0.578884 0.1,-0.644406 z m -29.772,14.213086 c -0.146,0 -0.265,0.357189 -0.265,0.79375 0,0.436563 0.119,0.79375 0.265,0.79375 0.145,0 0.264,-0.357187 0.264,-0.79375 0,-0.436561 -0.119,-0.79375 -0.264,-0.79375 z m -0.529,2.116667 c -0.146,0 -0.265,0.178594 -0.265,0.396875 0,0.218281 0.119,0.396875 0.265,0.396875 0.145,0 0.264,-0.178594 0.264,-0.396875 0,-0.218281 -0.119,-0.396875 -0.264,-0.396875 z m 18.587,4.240051 c -0.109,0.0037 -0.597,0.98593 -1.083,2.182813 -3.318,8.16491 -3.214,7.999034 -9.784,15.623336 -2.797,3.245463 -4.633,6.1409706 -6.486,10.2329661 -0.952,2.1026624 -2.273,9.2538238 -1.914,10.3631917 0.06,0.1937265 0.19,1.2454032 0.282,2.3368083 0.552,6.4990119 3.809,14.6033899 9.783,24.3416669 2.163,3.526742 2.582,4.88711 2.57,8.334375 -0.01,3.945851 -0.701,6.467335 -3.023,11.1125 -3.238,6.478859 -8.368,13.121672 -15.938,20.6375 -1.758,1.746249 -3.372,3.404605 -3.586,3.685047 -0.236,0.309637 0.235,0.11043 1.199,-0.506946 1.777,-1.138051 10.427,-6.220809 10.586,-6.220809 0.06,0 0.633,-0.357187 1.279,-0.79375 0.647,-0.436562 1.24,-0.79375 1.318,-0.79375 0.194,0 4.373,-2.783913 6.818,-4.541842 8.631,-6.205432 14.106,-12.989294 15.874,-19.667533 0.71,-2.683191 0.871,-7.180787 0.352,-9.87795 -1.043,-5.428054 -4.202,-11.879487 -8.572,-17.506425 -4.354,-5.60556 -6.927,-14.4889573 -6.121,-21.1341111 0.387,-3.1965873 0.993,-5.1478186 2.575,-8.2976839 2.084,-4.149614 3.047,-6.983662 3.666,-10.784872 0.504,-3.098182 0.637,-8.739022 0.205,-8.724532 z m 22.159,3.962032 c -0.146,0 -0.265,0.274051 -0.265,0.608749 0,0.334697 -0.102,0.721651 -0.225,0.859896 -0.124,0.138244 -0.551,1.084585 -0.949,2.10323 -0.397,1.018644 -0.903,2.268803 -1.124,2.778125 -0.221,0.509323 -0.493,1.164167 -0.604,1.455209 -0.111,0.291041 -0.326,0.826823 -0.478,1.190625 -1.782,4.276618 -3.152,8.61762 -3.756,11.9062491 -0.173,0.9458844 -0.413,2.2369626 -0.532,2.8690755 -0.119,0.6321129 -0.233,2.7838495 -0.255,4.78162027 -0.05,4.34041033 0.611,8.54468193 1.967,12.59974813 1.36,4.064837 1.724,5.958802 1.715,8.936406 0,2.834241 -0.138,3.447889 -1.971,9.310026 -0.76,2.432238 -1.025,3.78677 -1.131,5.78931 -0.111,2.072024 -0.07,2.590349 0.204,2.499589 0.189,-0.06298 0.384,-0.380659 0.434,-0.705383 0.05,-0.324724 1.164,-2.670394 2.477,-5.212602 4.819,-9.332663 7.255,-16.167605 7.962,-22.346956 0.394,-3.4503161 0.154,-5.537895 -1.353,-11.73416816 -2.05,-8.43009114 -2.483,-11.80973584 -2.499,-19.53937484 -0.01,-4.890878 0.07,-6.618629 0.316,-6.866248 0.395,-0.39509 0.441,-1.283126 0.07,-1.283126 z m -11.642,0.926042 c -0.146,-0.08994 -0.265,0.08174 -0.265,0.381372 0,0.29963 0.119,0.54467 0.265,0.54467 0.145,0 0.264,-0.17168 0.264,-0.381372 0,-0.209693 -0.119,-0.45473 -0.264,-0.54467 z m -95.002,9.270235 c -0.156,0.0967 -0.22,0.342018 -0.143,0.54467 0.252,0.656983 1.72,9.9264213 2.17,13.7035555 0.36,3.0253188 0.385,4.13285857 0.142,6.2652507 -0.42,3.6983117 -0.792,4.7631644 -3.036,8.6940438 -4.569,8.001994 -7.053,14.915575 -7.995,22.250321 -0.396,3.088493 -0.413,3.937545 -0.129,6.343799 0.562,4.746597 1.18,6.884406 3.094,10.698572 1.12,2.231171 1.989,3.391751 4.436,5.927803 4.67,4.839335 11.023,7.705033 18.631,8.403622 1.068,0.09799 3.925,0.0266 6.35,-0.158647 5.072,-0.387359 7.026,-0.194378 9.563,0.944129 1.699,0.762342 3.092,2.086455 3.935,3.739823 0.48,0.941797 1.322,3.512505 2.3,7.023344 0.633,2.272248 0.85,2.099272 1.746,-1.389063 2.516,-9.796736 1.209,-15.711761 -4.042,-18.292423 -1.314,-0.64601 -1.998,-0.871233 -4.859,-1.599903 -5.655,-1.440706 -10.641,-4.144625 -14.515,-7.872387 -3.562,-3.427925 -5.688,-6.702129 -7.016,-10.806059 -1.06,-3.276438 -1.198,-4.599385 -0.797,-7.679635 0.543,-4.177806 0.47,-15.461801 -0.125,-19.2339682 -0.557,-3.5297882 -0.51,-3.2927885 -1.377,-6.8791667 -1.385,-5.730275 -2.835,-9.5949512 -6.4,-17.0656241 -0.729,-1.527968 -1.398,-2.993798 -1.487,-3.257683 -0.09,-0.263885 -0.289,-0.401074 -0.446,-0.304374 z"
       transform="translate(-2.3227334,101.11224)"
       clip-path="url(#clipPath11)" /><g
       aria-label="Yellow"
       transform="scale(1.1857684,0.84333498)"
       id="text6"
       clip-path="url(#clipPath10)"
       style="font-weight:bold;font-stretch:condensed;font-size:40.1409px;font-family:'Arial Narrow';-inkscape-font-specification:'Arial Narrow Bold Condensed';fill:#f4a421;stroke:#f4a421;stroke-width:0.915514"><path
         d="M 266.81529,238.25093 V 226.1577 l -8.62402,-16.64044 h 5.56641 l 5.54682,11.36803 5.44881,-11.36803 h 5.46841 l -8.66322,16.67964 v 12.05403 z"
         id="path35" /><path
         d="m 290.64895,231.62611 4.48841,0.92121 q -0.9016,3.136 -2.80281,4.66481 -1.9012,1.5092 -4.62561,1.5092 -3.78281,0 -5.84081,-2.5284 -2.43041,-2.94001 -2.43041,-8.23202 0,-5.21362 2.45001,-8.34963 2.0776,-2.646 5.37041,-2.646 3.66521,0 5.74282,2.7048 2.3912,3.09681 2.3912,9.13363 l -0.0196,0.6272 h -11.30923 q 0.0392,2.46961 1.09761,3.82201 1.078,1.3524 2.5872,1.3524 2.17561,0 2.90081,-2.97921 z m 0.2548,-5.56641 q -0.0588,-2.43041 -1.0388,-3.64561 -0.98,-1.2348 -2.33241,-1.2348 -1.4308,0 -2.4108,1.274 -0.99961,1.2936 -0.98001,3.60641 z"
         id="path37" /><path
         d="m 299.05737,238.25093 v -28.73367 h 4.52761 v 28.73367 z"
         id="path39" /><path
         d="m 308.2106,238.25093 v -28.73367 h 4.52761 v 28.73367 z"
         id="path41" /><path
         d="m 316.30541,227.5493 q 0,-3.0576 1.21521,-5.56641 1.2152,-2.50881 3.1752,-3.76321 1.96001,-1.2544 4.41002,-1.2544 4.11601,0 6.46801,3.23401 2.35201,3.2144 2.35201,7.52641 0,3.21441 -1.23481,5.80162 -1.2152,2.58721 -3.2144,3.90041 -1.97961,1.2936 -4.35121,1.2936 -3.80241,0 -6.31122,-2.90081 -2.50881,-2.9008 -2.50881,-8.27122 z m 4.62562,0.294 q 0,3.15561 1.2348,4.78242 1.2348,1.6072 2.97921,1.6072 1.7052,0 2.9204,-1.6268 1.21521,-1.62681 1.21521,-4.80202 0,-3.0968 -1.23481,-4.72361 -1.2348,-1.6268 -2.9596,-1.6268 -1.70521,0 -2.94001,1.6268 -1.2152,1.62681 -1.2152,4.76281 z"
         id="path43" /><path
         d="m 340.66827,238.25093 -5.40961,-20.81525 h 4.39041 l 3.19481,13.64163 2.94001,-13.64163 h 4.35121 l 2.842,13.64163 3.27321,-13.64163 h 4.44921 l -5.48801,20.81525 h -4.33161 l -2.94001,-13.38683 -2.90081,13.38683 z"
         id="path45" /></g><g
       aria-label="黃"
       transform="scale(1.046128,0.95590598)"
       id="text6-0"
       clip-path="url(#clipPath9)"
       style="font-size:74.3144px;font-family:'Yu Gothic';-inkscape-font-specification:'Yu Gothic';fill:#f4a421;stroke-width:0.292576"><path
         d="m 341.60524,111.52836 h 15.09511 v -4.93494 h 5.80581 v 4.93494 h 21.7718 v -4.93494 h 5.80581 v 4.93494 h 15.3854 v 5.22523 h -15.3854 v 8.99901 h -33.38342 v -8.99901 h -15.09511 z m 42.67272,9.57959 v -4.35436 h -21.7718 v 4.35436 z m -43.5436,7.54756 h 65.31539 v 5.22523 h -65.31539 z m 7.83785,8.70872 h 50.22028 v 24.38441 h -50.22028 z m 5.80581,9.86988 h 16.54657 v -4.93494 h -16.54657 z m 22.06209,-4.93494 v 4.93494 h 16.54657 v -4.93494 z m -22.06209,14.51453 h 16.54657 v -4.93494 h -16.54657 z m 22.06209,-4.93494 v 4.93494 h 16.54657 v -4.93494 z m -14.22424,10.45046 3.77378,4.35436 q -7.83785,4.06407 -22.64267,6.67668 l -2.61262,-5.51552 q 13.64366,-2.03203 21.48151,-5.51552 z m 20.61063,0 22.93296,4.93494 -2.61261,5.51552 -22.64267,-5.51552 z"
         style="font-weight:bold;-inkscape-font-specification:'Yu Gothic Bold'"
         id="path48" /></g></g></svg>
