<?xml version="1.0" encoding="UTF-8" standalone="no"?>
<!-- Created with Inkscape (http://www.inkscape.org/) -->

<svg
   width="800"
   height="800"
   viewBox="0 0 211.66667 211.66667"
   version="1.1"
   id="svg1"
   xml:space="preserve"
   xmlns="http://www.w3.org/2000/svg"
   xmlns:svg="http://www.w3.org/2000/svg"><defs
     id="defs1"><filter
       style="color-interpolation-filters:sRGB"
       id="filter4"
       x="-0.27830214"
       y="-0.27902929"
       width="1.5566043"
       height="1.5580586"><feGaussianBlur
         stdDeviation="6"
         in="SourceGraphic"
         result="result0"
         id="feGaussianBlur2" /><feDiffuseLighting
         lighting-color="#ffffff"
         diffuseConstant="1"
         surfaceScale="4"
         result="result5"
         id="feDiffuseLighting2"><feDistantLight
           elevation="45"
           azimuth="235"
           id="feDistantLight2" /></feDiffuseLighting><feComposite
         k1="1.4"
         in2="SourceGraphic"
         in="result5"
         result="fbSourceGraphic"
         operator="arithmetic"
         id="feComposite2"
         k2="0"
         k3="0"
         k4="0" /><feGaussianBlur
         result="result0"
         in="fbSourceGraphic"
         stdDeviation="6"
         id="feGaussianBlur3" /><feSpecularLighting
         specularExponent="25"
         specularConstant="1"
         surfaceScale="4"
         lighting-color="#ffffff"
         result="result1"
         in="result0"
         id="feSpecularLighting3"><feDistantLight
           azimuth="235"
           elevation="45"
           id="feDistantLight3" /></feSpecularLighting><feComposite
         k3="1"
         k2="1"
         operator="arithmetic"
         in="fbSourceGraphic"
         in2="result1"
         result="result4"
         id="feComposite3"
         k1="0"
         k4="0" /><feComposite
         operator="in"
         result="result2"
         in2="SourceGraphic"
         in="result4"
         id="feComposite4" /><feGaussianBlur
         stdDeviation="1"
         id="feGaussianBlur1" /><feComposite
         id="feComposite1"
         in2="SourceGraphic"
         operator="atop" /></filter><clipPath
       clipPathUnits="userSpaceOnUse"
       id="clipPath2"><rect
         style="fill:#ffffff;stroke-width:0.264583;stroke-linecap:round;stroke-linejoin:round"
         id="rect3"
         width="135.46667"
         height="135.46667"
         x="37.203808"
         y="80.76667" /></clipPath></defs><g
     id="layer1"
     transform="translate(-37.203808,-80.76667)"><path
       id="rect1"
       style="fill:#ffffff;stroke-width:0.413411;stroke-linecap:round;stroke-linejoin:round"
       d="M 37.203808,80.76667 H 248.87048 V 292.43334 H 37.203808 Z" /><path
       style="fill:#ff0000;filter:url(#filter4)"
       d="M 69.569405,184.29533 49.068817,163.78881 52.05241,152.71494 c 1.640976,-6.09062 3.985562,-14.80349 5.210191,-19.36193 3.136974,-11.67675 3.98152,-14.78478 4.814875,-17.71931 0.401747,-1.41468 1.031916,-3.73819 1.400377,-5.16335 l 0.669928,-2.59119 12.106697,-3.26927 c 6.658684,-1.79809 18.842395,-5.070879 27.074912,-7.272854 8.23252,-2.201975 15.36792,-4.156972 15.85645,-4.344437 0.62609,-0.240254 6.95354,5.71911 21.43979,20.192591 l 20.55156,20.53344 -1.4272,5.3902 c -0.78495,2.96461 -2.69472,10.02992 -4.24391,15.70069 -1.5492,5.67076 -3.45161,12.7442 -4.22757,15.71874 -0.77597,2.97454 -2.17154,8.32881 -3.10127,11.89838 -0.92973,3.56956 -1.94579,6.74549 -2.25792,7.05762 -0.31213,0.31213 -7.21723,2.34632 -15.34465,4.52042 -8.12743,2.17409 -20.48651,5.49286 -27.46463,7.37503 -6.978121,1.88218 -12.766816,3.42214 -12.863769,3.42214 -0.09695,0 -9.401543,-9.22793 -20.676866,-20.50652 z m 38.797445,7.21648 c 2.82937,-0.79289 8.81784,-2.40938 13.3077,-3.5922 l 8.16338,-2.15059 -0.38959,-6.51655 -0.3896,-6.51655 6.53128,0.39048 6.53127,0.39047 0.74558,-3.0771 c 0.41007,-1.69241 1.08821,-4.23458 1.50699,-5.64927 1.81979,-6.1476 5.03561,-18.87602 4.81612,-19.06253 -0.1321,-0.11226 -2.74804,-1.42211 -5.81318,-2.91078 -3.78354,-1.83758 -5.43534,-2.92614 -5.14431,-3.39018 0.23576,-0.37594 1.77905,-2.65641 3.42952,-5.06771 1.65047,-2.41131 3.00085,-4.58605 3.00085,-4.83275 0,-0.59169 -19.57316,-20.18034 -20.16437,-20.18034 -0.25121,0 -2.77235,1.557 -5.60254,3.46001 l -5.14578,3.46002 -2.69166,-5.7319 c -1.65099,-3.51579 -3.02315,-5.73218 -3.54905,-5.73261 -1.80767,-0.001 -27.146658,7.23848 -27.074261,7.73576 0.04196,0.28823 0.258263,3.19966 0.48067,6.46985 l 0.404377,5.9458 -6.557457,-0.39204 -6.557457,-0.39204 -1.264727,4.73487 c -0.695599,2.60419 -2.362375,8.80157 -3.703946,13.77197 l -2.439219,9.03709 5.6367,2.82863 c 3.100185,1.55574 5.6367,3.04257 5.6367,3.30406 0,0.26149 -1.569653,2.73976 -3.488118,5.50727 l -3.488118,5.03183 10.219967,10.21997 10.219968,10.21996 5.081644,-3.4676 c 2.794905,-1.90718 5.375237,-3.35494 5.734073,-3.21725 0.358835,0.1377 1.794678,2.71857 3.190762,5.73526 1.396082,3.01669 2.795552,5.39341 3.109922,5.2816 0.31438,-0.11181 2.88654,-0.85202 5.71591,-1.64491 z"
       id="path1"
       clip-path="url(#clipPath2)"
       transform="matrix(1.5624999,0,0,1.5624999,-20.927139,-45.431246)" /><g
       aria-label="Frost"
       id="text1"
       style="font-weight:900;font-size:30.5614px;line-height:1;font-family:Arial;-inkscape-font-specification:'Arial Heavy';fill:#ff0000;stroke-width:0.12032;stroke-linecap:round;stroke-linejoin:round"><path
         d="m 95.508417,204.81065 h 16.713263 v 4.7006 h -9.9235 v 3.82018 h 8.47601 v 4.41708 h -8.47601 v 8.93861 h -6.789763 z"
         id="path27" /><path
         d="m 114.47499,210.83936 h 5.68549 v 2.59653 q 0.82074,-1.68625 1.68625,-2.313 0.88043,-0.64167 2.16377,-0.64167 1.34303,0 2.93975,0.83566 l -1.88024,4.32755 q -1.07443,-0.44768 -1.70118,-0.44768 -1.1938,0 -1.85039,0.98489 -0.94012,1.3878 -0.94012,5.19305 v 5.31243 h -6.10333 z"
         id="path29" /><path
         d="m 127.72622,218.80801 q 0,-3.62618 2.4473,-5.96903 2.4473,-2.35776 6.61069,-2.35776 4.7603,0 7.19268,2.76067 1.95485,2.22346 1.95485,5.47658 0,3.65603 -2.43237,5.99887 -2.41746,2.32792 -6.70023,2.32792 -3.82018,0 -6.17794,-1.93993 -2.89498,-2.40253 -2.89498,-6.29732 z m 6.08841,-0.0149 q 0,2.119 0.85058,3.13373 0.86551,1.01474 2.16377,1.01474 1.31319,0 2.14885,-0.99982 0.85059,-0.99981 0.85059,-3.20835 0,-2.05931 -0.85059,-3.05912 -0.85058,-1.01473 -2.10408,-1.01473 -1.32811,0 -2.19362,1.02965 -0.8655,1.01474 -0.8655,3.1039 z"
         id="path31" /><path
         d="m 147.78214,222.29989 6.02871,-0.56706 q 0.37307,1.07442 1.04458,1.53702 0.67152,0.4626 1.79071,0.4626 1.22365,0 1.89516,-0.52229 0.52229,-0.38798 0.52229,-0.96996 0,-0.6566 -0.68644,-1.01474 -0.49244,-0.25368 -2.61144,-0.62675 -3.16359,-0.55213 -4.40216,-1.01473 -1.22365,-0.47752 -2.07423,-1.59671 -0.83567,-1.11919 -0.83567,-2.55176 0,-1.56687 0.91028,-2.70098 0.91028,-1.13412 2.50699,-1.68625 1.59671,-0.56706 4.28277,-0.56706 2.83529,0 4.17832,0.43275 1.35795,0.43276 2.25331,1.34303 0.91027,0.91028 1.50717,2.46223 l -5.7601,0.56705 q -0.22384,-0.76105 -0.74613,-1.11919 -0.71628,-0.47752 -1.73102,-0.47752 -1.02965,0 -1.50718,0.37306 -0.4626,0.35815 -0.4626,0.88044 0,0.58197 0.59691,0.88043 0.5969,0.29845 2.59652,0.53721 3.02928,0.34322 4.50661,0.95504 1.47734,0.61183 2.25331,1.74594 0.7909,1.13412 0.7909,2.49207 0,1.37287 -0.83567,2.67114 -0.82074,1.29826 -2.61144,2.07423 -1.77579,0.76105 -4.84984,0.76105 -4.34246,0 -6.19286,-1.23857 -1.83547,-1.23857 -2.35776,-3.52172 z"
         id="path33" /><path
         d="m 174.85166,204.81065 v 6.02871 h 3.34265 v 4.432 h -3.34265 v 5.62581 q 0,1.01473 0.19399,1.34303 0.29845,0.50736 1.04458,0.50736 0.67152,0 1.88024,-0.38798 l 0.44768,4.19324 q -2.25331,0.49244 -4.20816,0.49244 -2.26823,0 -3.34265,-0.58198 -1.07443,-0.58198 -1.59672,-1.76086 -0.50736,-1.19381 -0.50736,-3.85002 v -5.58104 h -2.23839 v -4.432 h 2.23839 v -2.9099 z"
         id="path35" /></g><g
       aria-label="霜"
       id="text2"
       style="font-size:68.4178px;line-height:1;font-family:'Segoe UI Symbol';-inkscape-font-specification:'Segoe UI Symbol';fill:#ff0000;stroke-width:0.269362;stroke-linecap:round;stroke-linejoin:round"><path
         d="m 120.77658,144.34701 h 53.4514 v 4.54337 h -24.05313 v 3.7416 h 26.99296 v 13.36285 h -5.34514 v -8.81948 h -21.64782 v 14.16462 h -5.34514 v -14.16462 h -21.64782 v 8.55222 h -5.34514 v -13.09559 h 26.99296 v -3.7416 h -24.05313 z m 5.07788,15.50091 h 16.30268 v 4.27611 h -16.30268 z m 26.7257,0.26726 h 16.8372 v 4.00885 h -16.8372 z m -26.99296,6.68142 h 16.30268 v 4.00886 H 125.5872 Z m 26.99296,0.26726 h 16.56994 v 4.00885 h -16.56994 z m -34.2089,10.42302 h 11.2248 v -4.81062 h 4.81063 v 4.81062 h 9.88851 v 4.81063 h -9.88851 v 2.13806 l 8.28496,7.75045 -3.47434,4.27611 -4.81062,-6.41417 v 14.69914 h -4.81063 v -16.56994 q -4.00886,8.55223 -9.354,13.36286 l -3.47434,-4.27612 q 6.68143,-5.87965 10.69028,-14.96639 h -9.08674 z m 55.32221,-3.7416 v 31.00182 h -4.81063 v -3.20708 h -18.17347 v 3.20708 h -4.81063 v -31.00182 z m -22.9841,8.01772 h 18.17347 v -3.47435 h -18.17347 z m 0,7.75045 h 18.17347 v -3.7416 h -18.17347 z m 0,8.01771 h 18.17347 v -4.00885 h -18.17347 z"
         id="path38" /></g></g></svg>
