<?xml version="1.0" encoding="UTF-8" standalone="no"?>
<!-- Created with Inkscape (http://www.inkscape.org/) -->

<svg
   width="800"
   height="800"
   viewBox="0 0 211.66667 211.66667"
   version="1.1"
   id="svg1"
   xml:space="preserve"
   xmlns="http://www.w3.org/2000/svg"
   xmlns:svg="http://www.w3.org/2000/svg"><defs
     id="defs1" /><g
     id="layer1"
     transform="translate(-37.203808,-80.76667)"><path
       id="rect1"
       style="fill:#ffffff;stroke-width:0.413411;stroke-linecap:round;stroke-linejoin:round"
       d="M 37.203808,80.76667 H 248.87048 V 292.43334 H 37.203808 Z" /><path
       style="fill:#ff0000;stroke-width:1.5625"
       d="M 132.14018,241.14233 C 114.63579,236.89221 105.05911,229.81659 73.119903,197.53585 L 46.47659,170.60762 46.7791,162.45335 c 0.16638,-4.48484 0.627897,-8.47914 1.025592,-8.87618 0.397695,-0.39707 15.002729,13.45771 32.455633,30.7884 40.492175,40.20861 45.462865,43.61159 63.717805,43.62202 8.52708,0.005 9.81096,-0.23186 13.71947,-2.52963 24.43425,-14.36458 20.27867,-52.80236 -5.72315,-52.93715 -8.40508,-0.0436 -13.87703,3.1225 -17.3128,10.01717 -5.50536,11.04781 0.29521,24.49525 8.30284,19.24843 2.15819,-1.41409 2.42475,-2.20692 2.42475,-7.21153 0,-6.81664 1.94299,-9.38575 7.09835,-9.38575 8.69548,0 11.57734,13.62769 4.82297,22.80683 -10.05339,13.66252 -35.34507,8.63747 -39.12651,-7.7738 -4.22687,-18.3444 3.57711,-32.96968 21.0326,-39.41676 21.9312,-8.10017 45.68344,5.97938 49.70622,29.4642 5.35495,31.26206 -25.11589,58.56152 -56.78269,50.87273 z M 85.1817,153.52204 c -4.702152,-2.30764 -28.22229,-23.78543 -28.22229,-25.77165 0,-0.37338 0.811091,-1.67827 1.802422,-2.89977 l 1.802422,-2.22089 11.132795,11.43497 c 11.898327,12.22128 16.953494,15.60675 23.528103,15.75687 10.100648,0.23064 16.296628,-13.03865 9.337698,-19.99759 -5.922892,-5.92289 -16.113247,0.0994 -13.165672,7.7807 1.079479,2.81308 3.987879,1.75364 4.308276,-1.56936 0.260759,-2.70445 0.620598,-3.05742 3.117019,-3.05742 4.073247,0 4.670987,6.37342 0.92756,9.89019 -5.931396,5.57226 -15.513105,0.75942 -15.50556,-7.78836 0.01313,-14.90812 21.049247,-18.95066 28.050707,-5.39055 8.31331,16.1008 -10.02424,32.21958 -27.11348,23.83286 z m 74.36131,-4.18261 c -6.4568,-1.24322 -13.19138,-4.96434 -20.82772,-11.50814 -6.93103,-5.9394 -45.65328,-45.617564 -44.959977,-46.069882 0.199894,-0.130406 1.845116,-0.920357 3.656046,-1.755431 l 3.292601,-1.518317 24.45932,24.21143 c 24.86446,24.61247 28.67798,27.62773 36.55942,28.90672 13.14811,2.13364 23.85501,-11.89419 17.88703,-23.43499 -5.68002,-10.98393 -21.05008,-8.15481 -21.05008,3.87463 0,5.98826 5.87367,7.80831 6.42687,1.99147 0.84935,-8.9306 9.56577,-7.48455 9.56577,1.58697 0,4.2575 -6.46083,9.70587 -11.5095,9.70587 -13.61884,0 -18.03606,-17.32069 -6.90877,-27.09058 13.38336,-11.750745 33.50872,-1.84149 33.44949,16.46975 -0.0519,16.05258 -14.22742,27.67522 -30.0405,24.6305 z"
       id="path1" /><g
       aria-label="Monsoons"
       id="text1"
       style="font-size:45.4484px;font-family:Arial;-inkscape-font-specification:Arial;stroke-width:0.17893;stroke-linecap:round;stroke-linejoin:round"><path
         d="M 42.473618,282.21759 V 249.6847 h 6.479947 l 7.700486,23.03489 q 1.065197,3.21778 1.553412,4.81557 0.55479,-1.77533 1.730945,-5.21502 L 67.72766,249.6847 h 5.792007 v 32.53289 H 69.369838 V 254.9885 l -9.453622,27.22909 h -3.88353 l -9.409239,-27.69512 v 27.69512 z"
         id="path15" /><path
         d="m 78.468395,270.43385 q 0,-6.54652 3.639422,-9.69773 3.04025,-2.61861 7.411995,-2.61861 4.859961,0 7.944593,3.19559 3.084635,3.1734 3.084635,8.78788 0,4.54927 -1.375882,7.16788 -1.353687,2.59642 -3.972296,4.03887 -2.596418,1.44246 -5.68105,1.44246 -4.948727,0 -8.011168,-3.1734 -3.040249,-3.1734 -3.040249,-9.14294 z m 4.105446,0 q 0,4.52709 1.975052,6.79063 1.975053,2.24135 4.970919,2.24135 2.973674,0 4.948727,-2.26354 1.975052,-2.26354 1.975052,-6.90159 0,-4.37174 -1.997244,-6.6131 -1.975052,-2.26354 -4.926535,-2.26354 -2.995866,0 -4.970919,2.24135 -1.975052,2.24135 -1.975052,6.76844 z"
         id="path17" /><path
         d="m 105.23147,282.21759 v -23.56748 h 3.59503 v 3.35093 q 2.59642,-3.88353 7.50077,-3.88353 2.13039,0 3.90572,0.77671 1.79752,0.75451 2.68518,1.99724 0.88767,1.24273 1.24273,2.95148 0.22192,1.10958 0.22192,3.88353 v 14.49112 h -3.99449 v -14.33577 q 0,-2.44108 -0.46602,-3.63943 -0.46603,-1.22053 -1.66437,-1.93067 -1.17616,-0.73232 -2.77395,-0.73232 -2.55204,0 -4.41613,1.61999 -1.84191,1.61999 -1.84191,6.14707 v 12.87113 z"
         id="path19" /><path
         d="m 128.9099,275.18285 3.95011,-0.62136 q 0.33287,2.3745 1.8419,3.63942 1.53122,1.26492 4.26079,1.26492 2.75176,0 4.08325,-1.10958 1.3315,-1.13177 1.3315,-2.6408 0,-1.35369 -1.17615,-2.13039 -0.82109,-0.5326 -4.08326,-1.35369 -4.39394,-1.10958 -6.10269,-1.90848 -1.68656,-0.82109 -2.57423,-2.24135 -0.86547,-1.44245 -0.86547,-3.1734 0,-1.5756 0.71013,-2.9071 0.73233,-1.35369 1.97506,-2.24135 0.93204,-0.68794 2.52984,-1.15396 1.61999,-0.48822 3.46189,-0.48822 2.77395,0 4.85996,0.7989 2.1082,0.7989 3.10682,2.17478 0.99862,1.35368 1.37588,3.63942 l -3.90572,0.5326 q -0.2663,-1.81971 -1.55341,-2.84053 -1.26492,-1.02081 -3.59504,-1.02081 -2.75176,0 -3.92791,0.90985 -1.17616,0.90986 -1.17616,2.1304 0,0.7767 0.48822,1.39807 0.48821,0.64356 1.53122,1.0652 0.59917,0.22191 3.52846,1.02081 4.2386,1.13177 5.90297,1.86409 1.68656,0.71014 2.6408,2.08601 0.95424,1.37588 0.95424,3.41751 0,1.99724 -1.17616,3.77257 -1.15396,1.75314 -3.35093,2.72957 -2.19697,0.95424 -4.97092,0.95424 -4.59366,0 -7.01255,-1.90848 -2.39669,-1.90848 -3.06244,-5.65886 z"
         id="path21" /><path
         d="m 151.74506,270.43385 q 0,-6.54652 3.63942,-9.69773 3.04025,-2.61861 7.412,-2.61861 4.85996,0 7.94459,3.19559 3.08463,3.1734 3.08463,8.78788 0,4.54927 -1.37588,7.16788 -1.35368,2.59642 -3.97229,4.03887 -2.59642,1.44246 -5.68105,1.44246 -4.94873,0 -8.01117,-3.1734 -3.04025,-3.1734 -3.04025,-9.14294 z m 4.10545,0 q 0,4.52709 1.97505,6.79063 1.97505,2.24135 4.97092,2.24135 2.97367,0 4.94872,-2.26354 1.97506,-2.26354 1.97506,-6.90159 0,-4.37174 -1.99725,-6.6131 -1.97505,-2.26354 -4.92653,-2.26354 -2.99587,0 -4.97092,2.24135 -1.97505,2.24135 -1.97505,6.76844 z"
         id="path23" /><path
         d="m 177.0213,270.43385 q 0,-6.54652 3.63942,-9.69773 3.04025,-2.61861 7.41199,-2.61861 4.85996,0 7.9446,3.19559 3.08463,3.1734 3.08463,8.78788 0,4.54927 -1.37588,7.16788 -1.35369,2.59642 -3.9723,4.03887 -2.59641,1.44246 -5.68105,1.44246 -4.94872,0 -8.01116,-3.1734 -3.04025,-3.1734 -3.04025,-9.14294 z m 4.10544,0 q 0,4.52709 1.97506,6.79063 1.97505,2.24135 4.97091,2.24135 2.97368,0 4.94873,-2.26354 1.97505,-2.26354 1.97505,-6.90159 0,-4.37174 -1.99724,-6.6131 -1.97505,-2.26354 -4.92654,-2.26354 -2.99586,0 -4.97091,2.24135 -1.97506,2.24135 -1.97506,6.76844 z"
         id="path25" /><path
         d="m 203.78436,282.21759 v -23.56748 h 3.59504 v 3.35093 q 2.59642,-3.88353 7.50076,-3.88353 2.1304,0 3.90573,0.77671 1.79752,0.75451 2.68518,1.99724 0.88766,1.24273 1.24273,2.95148 0.22192,1.10958 0.22192,3.88353 v 14.49112 h -3.99449 v -14.33577 q 0,-2.44108 -0.46603,-3.63943 -0.46602,-1.22053 -1.66437,-1.93067 -1.17615,-0.73232 -2.77395,-0.73232 -2.55203,0 -4.41612,1.61999 -1.84191,1.61999 -1.84191,6.14707 v 12.87113 z"
         id="path27" /><path
         d="m 227.4628,275.18285 3.9501,-0.62136 q 0.33288,2.3745 1.84191,3.63942 1.53122,1.26492 4.26078,1.26492 2.75176,0 4.08326,-1.10958 1.33149,-1.13177 1.33149,-2.6408 0,-1.35369 -1.17615,-2.13039 -0.82109,-0.5326 -4.08325,-1.35369 -4.39394,-1.10958 -6.1027,-1.90848 -1.68656,-0.82109 -2.57422,-2.24135 -0.86547,-1.44245 -0.86547,-3.1734 0,-1.5756 0.71013,-2.9071 0.73232,-1.35369 1.97505,-2.24135 0.93205,-0.68794 2.52984,-1.15396 1.61999,-0.48822 3.46189,-0.48822 2.77395,0 4.85996,0.7989 2.10821,0.7989 3.10683,2.17478 0.99862,1.35368 1.37588,3.63942 l -3.90573,0.5326 q -0.26629,-1.81971 -1.55341,-2.84053 -1.26492,-1.02081 -3.59504,-1.02081 -2.75176,0 -3.92791,0.90985 -1.17615,0.90986 -1.17615,2.1304 0,0.7767 0.48821,1.39807 0.48822,0.64356 1.53122,1.0652 0.59917,0.22191 3.52847,1.02081 4.23859,1.13177 5.90296,1.86409 1.68656,0.71014 2.6408,2.08601 0.95424,1.37588 0.95424,3.41751 0,1.99724 -1.17615,3.77257 -1.15397,1.75314 -3.35094,2.72957 -2.19696,0.95424 -4.97091,0.95424 -4.59367,0 -7.01255,-1.90848 -2.39669,-1.90848 -3.06244,-5.65886 z"
         id="path29" /></g><g
       aria-label="季
候
風"
       transform="scale(0.98408587,1.0161715)"
       id="text2"
       style="font-size:51.3878px;line-height:1;font-family:'Segoe UI Symbol';-inkscape-font-specification:'Segoe UI Symbol';stroke-width:0.202314;stroke-linecap:round;stroke-linejoin:round"><path
         d="m 242.40301,87.17442 1.80661,3.412471 -15.45649,1.204402 v 3.613204 h 20.67556 v 3.813938 H 233.9722 q 6.42348,4.215405 15.85796,6.423475 l -2.00734,3.81394 q -11.64255,-3.41247 -18.86896,-10.237415 h -0.20073 v 7.627875 h -4.21541 v -7.627875 h -0.20073 q -6.82494,6.423475 -18.06602,10.237415 l -2.60954,-3.41247 q 8.83228,-2.40881 15.45649,-6.824945 h -15.25575 v -3.813938 h 20.67555 v -3.412471 l -14.05135,0.802934 -1.40513,-3.813938 z m -38.74158,32.71957 h 21.67923 v -3.41247 l 9.23374,-4.01467 h -23.08436 v -3.81394 h 30.11004 v 4.21541 l -12.04402,5.41981 v 1.60586 h 20.2741 v 3.81394 h -20.2741 v 5.62054 q 0,4.01468 -5.62054,4.01468 -2.60953,0 -5.01834,-0.80294 l -0.6022,-4.01467 q 2.00734,0.80293 4.61688,0.80293 2.4088,0 2.4088,-0.80293 v -4.81761 h -21.67923 z"
         id="path32" /><path
         d="m 212.69444,138.83437 3.61321,1.00367 -3.41247,10.83961 v 34.72691 h -3.81394 v -26.49683 l -3.41247,5.4198 -2.00734,-3.81393 q 6.42348,-10.43815 9.03301,-21.67923 z m 3.61321,7.02567 h 3.81394 v 31.71591 h -3.81394 z m 5.01834,3.81394 h 16.66089 l 1.60586,-5.4198 h -15.05502 v -3.41248 h 19.27043 v 3.21174 l -1.60587,5.62054 h 6.42348 v 3.61321 h -27.29977 z m 5.62054,4.41614 3.81394,1.2044 -1.20441,3.01101 h 17.46383 v 3.6132 h -10.03668 l -0.20074,6.02201 v 0.20073 h 12.24475 v 3.61321 h -11.44181 q 4.01467,6.22274 12.24475,9.43448 l -2.00734,4.2154 q -8.23008,-3.41247 -12.24475,-10.43815 -2.81027,6.82495 -13.64988,10.43815 l -2.20807,-3.41247 q 11.24108,-3.6132 12.64621,-10.23741 h -11.24108 v -3.61321 h 12.04402 v -6.22274 h -5.41981 l -3.011,4.61687 -3.41247,-2.4088 q 3.81394,-4.61687 5.62054,-10.03668 z"
         id="path34" /><path
         d="m 243.20595,192.50165 q 0,40.14672 2.60954,40.14672 1.00366,0 1.2044,-7.22641 l 4.01467,1.00367 q -0.6022,7.02567 -1.8066,8.83228 -1.20441,2.00733 -3.41247,2.00733 -3.81394,0 -5.21908,-9.83594 -1.40513,-9.83595 -1.40513,-31.31444 h -27.29977 v 16.66089 q 0,14.05135 -5.01834,24.48949 l -3.61321,-2.20807 q 4.61688,-10.43814 4.81761,-20.87629 v -21.67923 z m -8.23008,6.02201 2.00734,3.61321 -9.63521,2.00733 v 5.01834 h 9.43447 v 14.85429 H 227.348 v 6.22274 l 5.4198,-0.80294 -2.20807,-2.81027 3.41247,-1.60587 q 3.61321,4.21541 6.02201,9.03302 l -3.81394,1.8066 -1.40513,-3.21174 -21.87996,3.21174 -0.80294,-4.01467 11.44182,-1.20441 v -6.6242 h -9.43448 v -14.85429 h 9.43448 v -4.61687 l -9.23375,0.80293 -1.2044,-3.81394 q 10.83961,0 21.87996,-3.011 z m -16.86162,21.87996 h 5.41981 v -7.62787 h -5.41981 z m 9.23375,-7.62787 v 7.62787 h 5.82127 v -7.62787 z"
         id="path36" /></g></g></svg>
