<?xml version="1.0" encoding="UTF-8" standalone="no"?>
<!-- Created with Inkscape (http://www.inkscape.org/) -->

<svg
   width="800"
   height="800"
   viewBox="0 0 211.66666 211.66667"
   version="1.1"
   id="svg1"
   xml:space="preserve"
   xmlns="http://www.w3.org/2000/svg"
   xmlns:svg="http://www.w3.org/2000/svg"><defs
     id="defs1"><filter
       style="color-interpolation-filters:sRGB"
       id="filter3-6"
       x="-0.15478837"
       y="-0.23064783"
       width="1.3095767"
       height="1.4612957"><feGaussianBlur
         stdDeviation="6"
         in="SourceGraphic"
         result="result0"
         id="feGaussianBlur1-2" /><feDiffuseLighting
         lighting-color="#ffffff"
         diffuseConstant="1"
         surfaceScale="4"
         result="result5"
         id="feDiffuseLighting1-4"><feDistantLight
           elevation="45"
           azimuth="235"
           id="feDistantLight1-4" /></feDiffuseLighting><feComposite
         k1="1.4"
         in2="SourceGraphic"
         in="result5"
         result="fbSourceGraphic"
         operator="arithmetic"
         id="feComposite1-1"
         k2="0"
         k3="0"
         k4="0" /><feGaussianBlur
         result="result0"
         in="fbSourceGraphic"
         stdDeviation="6"
         id="feGaussianBlur2-4" /><feSpecularLighting
         specularExponent="25"
         specularConstant="1"
         surfaceScale="4"
         lighting-color="#ffffff"
         result="result1"
         in="result0"
         id="feSpecularLighting2-3"><feDistantLight
           azimuth="235"
           elevation="45"
           id="feDistantLight2-1" /></feSpecularLighting><feComposite
         k3="1"
         k2="1"
         operator="arithmetic"
         in="fbSourceGraphic"
         in2="result1"
         result="result4"
         id="feComposite2-7"
         k1="0"
         k4="0" /><feComposite
         operator="in"
         result="result2"
         in2="SourceGraphic"
         in="result4"
         id="feComposite3-5" /><feGaussianBlur
         stdDeviation="1"
         id="feGaussianBlur1" /><feComposite
         id="feComposite1"
         in2="SourceGraphic"
         operator="atop" /></filter></defs><g
     id="layer2"
     style="display:inline"
     transform="translate(-9.407962e-6,2.9123342e-4)"><path
       id="rect1"
       style="fill:#ffffff;stroke-width:0.413411;stroke-linecap:round;stroke-linejoin:round"
       d="M 8.9353025e-6,-2.9541895e-4 H 211.66668 V 211.66638 H 8.9353025e-6 Z" /><path
       style="fill:#000000;filter:url(#filter3-6)"
       d="m 39.375789,142.08647 c -2.180047,-0.658 -3.657034,-2.90724 -3.657034,-5.56913 0,-2.09322 0.945208,-3.93343 3.937186,-7.66526 1.03903,-1.29596 9.585268,-9.78496 9.853814,-9.78783 0.625367,-0.007 0.402494,10.21455 -0.282763,12.96784 -1.687866,6.78169 -6.025735,11.20903 -9.851203,10.05438 z m 3.264615,-3.45894 c 2.480345,-1.6259 4.591273,-7.004 4.746277,-12.09228 0.07684,-2.52228 0.174508,-2.52818 -2.692356,0.1628 -4.217113,3.9584 -6.034739,6.96235 -6.054528,10.00618 l -0.01063,1.63444 0.727521,0.57227 c 0.871169,0.68526 1.947731,0.59235 3.283711,-0.28341 z m 16.542608,3.34693 c -1.269899,-0.46795 -1.911601,-1.04703 -2.75496,-2.48611 l -0.667109,-1.13834 0.0087,-1.64011 c 0.01348,-2.53993 1.144111,-4.62349 4.703225,-8.66727 1.781032,-2.02357 9.09361,-9.11707 9.145619,-8.87163 0.387167,1.82712 0.297556,9.96634 -0.131346,11.93004 -1.66991,7.64557 -6.171797,12.39618 -10.304137,10.87342 z m 3.753923,-3.54023 c 2.592055,-2.09793 4.06777,-6.1075 4.623745,-12.56289 0.164732,-1.9127 -0.08328,-1.79491 -3.607393,1.71324 l -3.266682,3.25188 c -0.901822,1.35593 -1.67972,2.71186 -1.978536,4.06779 -0.186582,1.00305 -0.351029,2.01875 -0.04682,3.30226 0.295078,0.77689 0.803278,1.18567 1.491718,1.28312 l 0.925566,-0.1502 c 0.509062,-0.0826 1.345344,-0.48995 1.858404,-0.9052 z m 16.354411,3.54223 c -1.269316,-0.47025 -1.912217,-1.05008 -2.750733,-2.4809 l -0.662882,-1.13112 0.02572,-1.71449 c 0.03154,-2.10215 0.390173,-2.9919 2.32324,-5.76381 1.325234,-1.90031 10.70107,-11.55906 11.220485,-11.55906 0.592661,0 0.69668,9.07753 0.133403,11.64177 -1.717788,7.81996 -6.135729,12.54636 -10.289233,11.00761 z m 3.71851,-3.53306 c 1.767487,-1.34813 3.125776,-3.92917 3.900968,-7.41268 0.515573,-2.31685 0.890293,-6.40581 0.603295,-6.58318 -0.123197,-0.0761 -1.690049,1.33022 -3.481894,3.12524 l -3.2579,3.26368 c -1.114047,1.4744 -1.810145,2.87913 -2.01388,4.20181 -0.277072,1.04129 -0.370149,2.08259 -0.04244,3.12388 0.321503,0.84379 0.855959,1.23126 1.531185,1.31707 l 0.930083,-0.17449 c 0.511546,-0.096 1.335309,-0.48356 1.830585,-0.86133 z m 16.076609,3.41531 c -3.500023,-1.66838 -4.276321,-5.62722 -1.847875,-9.42349 2.37398,-3.71112 11.87994,-13.61531 12.48609,-13.00916 0.334,0.334 0.4136,8.79663 0.10018,10.6498 -1.38938,8.21503 -6.48759,13.80911 -10.738395,11.78285 z m 3.698435,-3.17329 c 2.80942,-2.36501 4.25442,-5.88382 4.8325,-11.76795 0.28378,-2.88857 0.2262,-2.92147 -1.83055,-1.04573 -6.262637,5.71149 -8.72657,10.9772 -6.102345,13.04141 l 0.710655,0.559 0.93315,-0.17305 c 0.51324,-0.0952 1.1687,-0.37133 1.45659,-0.61368 z m 16.4099,3.17329 c -2.62767,-1.25255 -3.94079,-4.39946 -3.00956,-7.21246 0.84687,-2.55817 12.61435,-15.98903 13.35761,-15.24577 0.76223,0.76223 0.84627,8.0742 0.13342,11.60883 -1.57279,7.79867 -6.39975,12.79506 -10.48147,10.8494 z m 3.8531,-3.27119 c 2.39221,-1.76863 4.19734,-6.31137 4.63079,-11.65367 l 0.18784,-2.3151 h -0.37739 c -0.55949,0 -5.58392,5.03767 -6.69709,6.71473 -3.41935,5.15147 -1.82682,10.27249 2.25585,7.25404 z m 16.7491,3.58873 c -2.80081,-0.61389 -4.59881,-5.06945 -3.28375,-8.13736 1.20107,-2.80199 11.74803,-14.57952 13.05618,-14.57952 0.72079,0 0.90801,9.72712 0.22916,11.90625 -0.13599,0.43656 -0.40005,1.32953 -0.58678,1.98438 -1.58935,5.57358 -5.88433,9.60006 -9.41481,8.82625 z m 2.3589,-3.09865 c 2.98236,-1.2534 5.09944,-6.02692 5.63048,-12.69544 l 0.16508,-2.07304 -0.5216,0.27916 c -0.28689,0.15353 -1.84295,1.5998 -3.45792,3.21392 l -2.93632,2.93476 -0.9626,1.9477 c -2.17206,4.39486 -1.08702,7.72515 2.08288,6.39294 z M 49.088717,114.64937 c -2.410503,-0.67499 -4.220957,-4.17809 -3.545548,-6.86038 0.517583,-2.05551 3.65774,-6.46596 6.855353,-9.628576 3.998121,-3.954357 6.622609,-6.419152 6.725494,-6.316266 0.06497,0.06497 0.266573,1.453172 0.448013,3.084902 l 0.32989,2.966781 -0.328637,2.976559 c -0.98927,8.96012 -5.679062,15.12263 -10.484565,13.77698 z m 4.008851,-4.09012 c 2.429951,-2.36204 3.886753,-6.71631 4.170397,-12.464982 0.05979,-1.211743 -0.09089,-1.226478 -1.365524,-0.133539 -3.096568,2.655161 -5.38841,5.305061 -6.580003,7.608021 l -0.752952,1.45521 c -0.52001,1.82546 -0.300248,3.59076 -0.0184,4.07721 l 0.529167,0.41655 c 0.36085,0.28405 0.895108,0.3814 1.679647,0.30607 l 1.15048,-0.11049 z m 15.826396,3.97813 c -1.500138,-0.46126 -2.819978,-2.04286 -3.346002,-4.0096 l -0.321717,-1.20286 0.316734,-1.41507 c 0.620703,-2.7731 3.803232,-6.92426 9.40154,-12.262977 2.136354,-2.037292 3.980855,-3.737331 4.098893,-3.777865 0.87654,-0.301001 0.708678,9.856942 -0.219644,13.291442 -1.779804,6.58472 -6.012233,10.58149 -9.929804,9.37693 z m 2.945312,-3.0498 c 2.76849,-1.31373 4.849704,-6.01756 5.282029,-11.938103 0.227828,-3.12002 0.281356,-3.130012 -3.543519,0.661453 l -3.136245,3.10886 -0.956687,1.92272 c -2.302402,4.62729 -1.078363,7.87403 2.354422,6.24507 z m 16.633855,2.901 c -1.230587,-0.65021 -1.722744,-1.17224 -2.441552,-2.58975 l -0.664565,-1.31054 0.127252,-1.77851 c 0.215164,-3.0072 2.544627,-6.23299 9.24852,-12.807149 l 4.577678,-4.489092 0.208905,2.778125 c 0.230269,3.062238 0.05585,7.531056 -0.375786,9.628236 -1.536975,7.46764 -6.76273,12.6387 -10.680452,10.56868 z m 3.51627,-2.97325 c 2.445049,-1.25389 4.14355,-4.70802 4.947663,-10.06171 0.788894,-5.252369 0.784381,-5.253672 -3.468289,-1.001 l -3.250536,3.25053 -0.865231,1.8427 c -0.628599,1.33873 -0.892858,2.31995 -0.966247,3.58775 l -0.101017,1.74507 0.724687,0.57004 c 0.893319,0.70268 1.703344,0.7208 2.97897,0.0666 z m 16.425649,2.88308 c -1.34724,-0.7119 -2.27357,-1.91291 -2.75638,-3.5737 -0.99967,-3.43875 1.00756,-6.75889 8.63561,-14.284087 l 4.8276,-4.7625 0.24916,1.190625 c 0.42121,2.012768 0.32035,8.622132 -0.16554,10.847912 -1.70975,7.83209 -6.71152,12.73712 -10.79045,10.58175 z m 3.44058,-2.75941 c 2.0905,-1.08104 3.83054,-4.07515 4.78005,-8.22513 0.36551,-1.59748 0.76021,-6.210913 0.54287,-6.345237 -0.26718,-0.165126 -4.71694,4.085617 -5.93785,5.672277 -2.24013,2.91122 -2.97866,4.90188 -2.82473,7.61388 0.0791,1.39397 1.90742,2.07657 3.43966,1.28421 z m 16.8157,2.8904 c -4.14829,-1.82126 -4.24918,-6.48327 -0.25536,-11.79898 1.82715,-2.43191 10.50639,-10.908924 10.75587,-10.505261 0.84728,1.370926 0.57657,9.916691 -0.42168,13.311301 -1.95904,6.6619 -6.38776,10.61347 -10.07883,8.99294 z m 2.91233,-2.76894 c 1.94327,-0.73883 3.87587,-3.74458 4.85243,-7.54692 0.68046,-2.64943 1.06017,-7.011459 0.61034,-7.011459 -0.48926,0 -5.26595,4.725749 -6.55217,6.482289 -3.30702,4.51627 -2.63578,9.4924 1.0894,8.07609 z m 17.47906,2.97435 c -2.91537,-0.73256 -4.51776,-5.36497 -2.93571,-8.48698 1.66122,-3.27827 12.44677,-14.854065 13.16801,-14.132824 0.20858,0.208588 0.30772,1.881096 0.31271,5.275926 l 0.007,4.970528 -0.609,2.38125 c -1.74182,6.81072 -5.91496,11.00433 -9.94332,9.9921 z m 3.24659,-3.44367 c 2.82119,-1.90549 4.82302,-7.01183 4.82315,-12.303122 6e-5,-2.291135 0.0781,-2.319009 -3.52307,1.258832 l -3.06459,3.04476 -0.99921,2.02175 -0.9992,2.02175 -0.0949,1.74651 -0.0949,1.7465 0.56176,0.59531 c 0.77757,0.82402 2.04839,0.77444 3.39086,-0.13229 z M 86.386464,88.87652 c -7.549191,-0.317464 -15.958447,-2.258173 -22.245239,-5.133813 -0.797858,-0.364949 -1.518597,-0.663543 -1.601642,-0.663543 -1.090959,0 -9.823442,-5.803579 -12.930203,-8.593369 -0.582083,-0.522696 -1.236927,-0.894621 -1.455208,-0.8265 C 33.736921,78.15863 18.351783,76.669144 10.254467,69.9901 -0.49546794,61.123054 3.3460174,49.867173 18.647545,45.397663 c 3.261227,-0.95259 7.417505,-1.741414 9.175431,-1.741414 h 1.002868 l 1.087178,-2.182813 c 3.451135,-6.929112 9.201205,-13.00481 16.124483,-17.037619 3.223246,-1.87754 6.361947,-3.308262 9.260417,-4.221199 2.3999,-0.755902 2.808087,-0.864106 4.365625,-1.157267 0.873125,-0.16434 2.16213,-0.411818 2.864456,-0.549951 1.728475,-0.339955 9.433318,-0.319066 10.975152,0.02976 4.336251,0.981026 4.446116,1.016534 7.079455,2.28806 l 1.869062,0.902491 2.586562,-2.540723 c 1.422609,-1.397398 2.971877,-2.803554 3.442819,-3.124791 3.486527,-2.378223 5.014414,-3.309065 7.296568,-4.445323 1.433989,-0.713967 2.771063,-1.298121 2.971277,-1.298121 0.200214,0 0.477134,-0.09762 0.615379,-0.216939 0.138245,-0.1193163 1.144323,-0.4908925 2.235733,-0.8257246 1.0914,-0.3348321 2.28203,-0.7025193 2.64583,-0.8170825 0.3638,-0.1145633 1.37583,-0.333661 2.24896,-0.4868838 0.87312,-0.1532229 2.42094,-0.4320537 3.43958,-0.6196242 2.53894,-0.4675124 12.5992,-0.4552101 15.21354,0.018604 9.64028,1.74717 15.09368,3.7657371 20.98859,7.7688921 2.07136,1.406634 2.3581,1.637809 4.35464,3.510749 l 1.68973,1.585116 3.91762,0.03717 c 3.74256,0.03551 7.38144,0.371869 9.66297,0.893194 4.74844,1.085011 7.58213,1.91161 9.65729,2.81707 9.39009,4.097203 14.11802,9.746235 14.36147,17.159416 l 0.0695,2.116667 1.05274,0.21345 c 0.579,0.117398 1.64805,0.334507 2.37565,0.482463 5.50963,1.120372 9.96992,4.558822 11.79613,9.09367 l 0.63929,1.5875 v 2.910416 2.910417 l -0.64409,1.5875 c -2.86707,7.066462 -11.29132,12.947475 -21.59535,15.075831 -1.13137,0.233691 -2.12673,0.465704 -2.21192,0.515586 -0.13135,0.07691 -2.75642,0.468203 -7.29864,1.087932 -0.58208,0.07942 -4.12221,0.185135 -7.86695,0.234926 l -6.80861,0.09053 -1.26118,0.799751 c -12.00342,7.611716 -30.09356,9.419901 -41.35786,4.133891 l -2.05422,-0.963988 -1.22402,0.842148 c -5.26409,3.62179 -15.395264,5.503312 -27.004246,5.015125 z"
       id="path2" /><path
       d="m 117.50378,14.609031 c -1.4853,-0.0018 -3.15861,0.07542 -4.39819,0.141594 -1.23957,0.06617 -2.04548,0.12101 -1.79524,0.07493 -1.048,0.192979 -2.58866,0.470761 -3.50159,0.63097 -0.32177,0.05647 -0.8518,0.185163 -1.19631,0.26665 -0.17225,0.04074 -0.29842,0.06963 -0.32866,0.07183 -0.0302,0.0022 0.0352,-0.02216 0.24546,-0.08837 -0.4524,0.142463 -1.59821,0.496326 -2.69906,0.834057 -0.28883,0.08861 -0.5123,0.16702 -0.74052,0.24598 0.21843,-0.121577 0.45839,-0.25696 1.24023,-0.931726 -0.34019,0.293634 -0.60488,0.475843 -0.84336,0.622184 -0.23848,0.146342 -0.45056,0.256914 -0.68574,0.40721 -0.009,0.0034 -0.0318,0.01024 -0.0408,0.01344 -0.11433,0.04232 -0.19022,0.07548 -0.11162,0.04134 0.011,-0.0048 0.0393,0.0067 0.0413,0.01964 -0.30737,0.188458 -0.67321,0.367714 -1.04334,0.510046 -0.37014,0.142331 -0.74487,0.247714 -1.07022,0.286804 -0.38017,0.169881 -0.870777,0.395447 -1.410247,0.664042 -1.005747,0.50075 -1.757247,0.901785 -2.682007,1.467094 -0.92476,0.565309 -2.02264,1.294631 -3.72019,2.452564 0.41232,-0.28125 0.4116,-0.27592 0.24082,-0.139527 -0.17079,0.136394 -0.51156,0.404019 -0.7798,0.647506 -0.53648,0.486976 -1.22266,1.13627 -1.85932,1.76165 l -6.40219,6.289021 -6.68383,-3.228226 c -1.30403,-0.62966 -1.58593,-0.815386 -2.08256,-0.965833 -0.49664,-0.150447 -1.20778,-0.26574 -3.37034,-0.754993 0.46359,0.104885 0.46412,0.109523 0.24805,0.0832 -0.21607,-0.02632 -0.64916,-0.08372 -1.05317,-0.102837 -0.80801,-0.03824 -1.88293,-0.06376 -2.95692,-0.06666 -1.07401,-0.0029 -2.40651,0.08493 -3.31298,0.14211 -0.45324,0.02859 -0.80007,0.04972 -0.95446,0.04806 -0.15439,-0.0017 -0.11681,-0.02626 0.19895,-0.08837 -0.74422,0.146372 -2.02608,0.39142 -2.9254,0.56069 -0.72989,0.13738 -1.01139,0.185498 -1.4056,0.292488 -0.39421,0.106991 -0.90152,0.272765 -2.08308,0.644922 -0.55706,0.175459 -1.14146,0.381687 -1.74925,0.61805 -0.60778,0.236364 -1.23891,0.503058 -1.88825,0.798918 -1.29868,0.591721 -2.671,1.300577 -4.08089,2.121834 -0.7045,0.410371 -1.39549,0.848854 -2.07068,1.312582 -0.67518,0.463727 -1.33478,0.952771 -1.9761,1.46451 -0.64132,0.511738 -1.26469,1.04653 -1.86759,1.600936 -0.60289,0.554405 -1.18519,1.128581 -1.74511,1.720308 -0.55992,0.591727 -1.09734,1.200992 -1.60972,1.824695 -0.51239,0.623703 -0.99957,1.261693 -1.45986,1.912028 -0.4603,0.650335 -0.89343,1.312754 -1.29708,1.984375 -0.40365,0.671621 -0.7779,1.352623 -1.12035,2.040185 l -3.18378,6.394442 h -5.7087 c 0.25794,0 -0.83435,0.164181 -2.32543,0.425814 -0.74555,0.130816 -1.59066,0.285918 -2.41691,0.457336 -0.82625,0.171419 -1.63346,0.359005 -2.3027,0.554488 -0.77086,0.225166 -1.48201,0.466352 -2.13682,0.718303 -0.65482,0.251951 -1.25318,0.514588 -1.79938,0.782898 -0.54619,0.26831 -1.04018,0.542245 -1.48518,0.816487 -0.44499,0.274243 -0.84096,0.548807 -1.19217,0.818555 -0.35122,0.269748 -0.65756,0.534789 -0.92243,0.789616 -0.26486,0.254827 -0.48844,0.499676 -0.67438,0.729154 -0.18593,0.229479 -0.33412,0.443467 -0.44855,0.637171 -0.11442,0.193704 -0.19512,0.366678 -0.24546,0.51418 -0.10068,0.295004 -0.1883,0.597794 -0.2036,0.934827 -0.008,0.168517 0.003,0.345719 0.0387,0.534851 0.036,0.189132 0.0973,0.390195 0.19172,0.606681 0.0944,0.216487 0.22189,0.448087 0.38964,0.698666 0.16775,0.250579 0.37609,0.519909 0.63201,0.81132 0.25591,0.291411 0.55935,0.605147 0.91829,0.944128 0.35893,0.338981 0.77325,0.703284 1.25005,1.096574 0.30498,0.251565 0.64343,0.49583 1.01286,0.731738 0.36943,0.235909 0.76964,0.463401 1.19889,0.681613 0.8585,0.436423 1.83214,0.835675 2.90215,1.189074 1.07001,0.353399 2.23641,0.661132 3.48092,0.91519 1.24451,0.254058 2.56713,0.454328 3.94912,0.592729 1.38199,0.1384 2.82322,0.214749 4.30568,0.221175 1.48245,0.0064 3.00626,-0.05709 4.55217,-0.198955 0.77296,-0.07093 1.55132,-0.16127 2.33319,-0.272334 0.78188,-0.111065 1.56717,-0.242606 2.35335,-0.395842 0.78617,-0.153236 1.57318,-0.328102 2.35903,-0.525549 0.78584,-0.197448 1.57039,-0.41776 2.35128,-0.661459 0.74129,-0.231344 1.36681,-0.359392 1.90065,-0.417545 0.53385,-0.05815 0.97635,-0.04624 1.35134,0.0031 0.37499,0.04933 0.6825,0.135737 0.94723,0.226859 0.26473,0.09112 0.48629,0.187042 0.68937,0.254248 0.40615,0.134413 0.72773,0.265946 1.002,0.394808 0.27428,0.128862 0.50136,0.254694 0.71882,0.378272 0.43493,0.247153 0.81241,0.492278 1.16582,0.751375 0.35341,0.259097 0.68271,0.532295 1.02164,0.836641 0.43437,0.390057 1.39369,1.139045 2.5585,1.999361 1.16482,0.860317 2.53501,1.831816 3.79099,2.666504 1.25599,0.834689 2.45529,1.586632 3.252,2.045354 0.0775,0.04464 0.0751,0.03925 0.14469,0.07803 0,7.7e-5 0.002,-7.8e-5 0.002,0 0.0635,0.01929 0.0586,0.03099 0.0956,0.05064 -0.001,-1.8e-4 -0.004,1.8e-4 -0.004,0 0.21947,0.120014 0.48277,0.263228 0.50437,0.273368 0.003,0.0017 -0.0203,-0.04114 -0.006,-0.05064 0.10468,0.03526 0.23301,0.07559 0.30851,0.103353 0.25657,0.09428 0.44425,0.169608 0.64854,0.254248 0.40857,0.169287 0.84735,0.36346 1.32033,0.57981 0.64149,0.293421 1.32453,0.578961 2.04122,0.854211 0.7167,0.275251 1.46681,0.540224 2.24328,0.793233 1.55294,0.506019 3.2104,0.963354 4.90978,1.35599 1.69937,0.392636 3.4407,0.720688 5.16299,0.967383 0.86114,0.123347 1.71737,0.2262 2.56108,0.306958 0.84371,0.08076 1.67481,0.139535 2.48564,0.173633 1.3253,0.05573 2.62967,0.0669 3.90209,0.04082 1.27242,-0.02608 2.51332,-0.0897 3.71191,-0.183968 1.1986,-0.09426 2.35487,-0.219118 3.45871,-0.367936 1.103827,-0.148818 2.154827,-0.321336 3.142954,-0.51108 0.98813,-0.189745 1.9132,-0.396874 2.76469,-0.613916 0.85149,-0.217042 1.62947,-0.444183 2.32337,-0.674894 0.6939,-0.230712 1.30415,-0.464813 1.81953,-0.695565 0.51538,-0.230752 0.9362,-0.458247 1.25212,-0.675411 l 4.81417,-3.314527 6.00222,2.816366 c 0.48925,0.229592 1.01281,0.440118 1.56735,0.630969 0.55453,0.190852 1.13982,0.362487 1.75183,0.514698 0.61201,0.15221 1.25087,0.284757 1.91254,0.398425 0.66168,0.113668 1.34648,0.207961 2.05001,0.283187 0.70352,0.07523 1.4256,0.131583 2.16317,0.168465 0.73758,0.03688 1.49032,0.05459 2.25413,0.05323 1.52762,-0.0027 3.09979,-0.08209 4.6855,-0.237195 1.58571,-0.15511 3.1848,-0.385764 4.76612,-0.692464 0.79066,-0.15335 1.57704,-0.325666 2.35489,-0.516765 0.77785,-0.191099 1.54754,-0.401187 2.30477,-0.629935 0.75723,-0.228749 1.50207,-0.476292 2.23087,-0.742591 0.7288,-0.266299 1.44168,-0.551494 2.13424,-0.855245 0.69256,-0.30375 1.3648,-0.62628 2.01331,-0.967383 0.64852,-0.341103 1.273,-0.700647 1.86966,-1.079003 l 3.07836,-1.95337 8.9607,-0.118855 c 1.83291,-0.02438 3.62315,-0.06249 4.99401,-0.103353 0.68543,-0.02043 1.49927,-0.08087 1.97817,-0.113688 0.23945,-0.01641 0.39511,-0.02585 0.40928,-0.02015 0.0142,0.0057 -0.11289,0.02671 -0.43977,0.07131 2.25293,-0.307384 4.02529,-0.558312 5.20899,-0.734839 0.56751,-0.08463 0.98312,-0.149842 1.22834,-0.191202 0.0521,-0.01424 0.12654,-0.03616 0.17364,-0.04858 0.24379,-0.0642 0.45921,-0.1173 0.70331,-0.17415 0.4882,-0.113694 1.06516,-0.238729 1.68569,-0.366903 1.04893,-0.216662 2.06384,-0.486578 3.04012,-0.799951 0.97628,-0.313372 1.91358,-0.670552 2.80707,-1.061434 0.89348,-0.390881 1.74296,-0.815333 2.54351,-1.264522 0.80055,-0.449189 1.55253,-0.922987 2.24999,-1.411283 0.69746,-0.488296 1.34072,-0.991449 1.92495,-1.49965 0.58423,-0.508202 1.10907,-1.021234 1.56993,-1.53014 0.46086,-0.508905 0.8576,-1.013375 1.18494,-1.503784 0.32734,-0.490408 0.58527,-0.966841 0.76895,-1.419551 l 0.0863,-0.212907 v -1.42782 -1.437638 l -0.0878,-0.220659 c -0.18042,-0.447997 -0.45493,-0.910327 -0.81649,-1.36219 -0.36156,-0.451864 -0.81032,-0.893055 -1.34049,-1.299663 -0.26508,-0.203304 -0.55036,-0.398063 -0.85524,-0.580843 -0.30489,-0.18278 -0.62943,-0.353931 -0.97255,-0.510046 -0.34312,-0.156116 -0.70491,-0.297335 -1.08469,-0.420646 -0.37979,-0.123312 -0.77781,-0.228276 -1.19269,-0.312643 -0.72715,-0.147864 -1.79653,-0.364128 -2.37092,-0.480591 l -6.93963,-1.408182 -0.26716,-8.120952 c -0.0177,-0.539204 -0.0608,-1.053244 -0.13798,-1.546159 -0.0772,-0.492914 -0.18882,-0.96512 -0.34313,-1.421101 -0.15432,-0.455982 -0.3514,-0.895545 -0.60048,-1.323951 -0.24908,-0.428406 -0.55009,-0.84555 -0.91157,-1.255737 -0.36149,-0.410187 -0.78385,-0.813587 -1.27538,-1.214913 -0.49153,-0.401326 -1.05215,-0.800689 -1.69137,-1.20251 -0.63922,-0.401822 -1.35656,-0.805823 -2.16111,-1.217497 -0.80454,-0.411674 -1.69656,-0.831055 -2.68407,-1.261939 -0.65216,-0.284561 -1.58745,-0.617205 -2.93109,-1.00924 -1.34364,-0.392036 -3.09529,-0.843513 -5.38107,-1.365809 -0.63117,-0.144222 -1.80805,-0.311202 -3.24372,-0.446484 -1.43568,-0.135282 -3.13051,-0.238428 -4.79764,-0.254248 l -6.88279,-0.06666 -3.85351,-3.613216 c -0.97965,-0.919001 -1.33037,-1.267428 -1.68879,-1.557527 -0.35841,-0.290099 -0.72426,-0.521971 -1.73477,-1.208195 -0.63438,-0.430796 -1.25037,-0.830587 -1.85984,-1.204061 -0.60947,-0.373474 -1.21236,-0.720371 -1.82211,-1.044898 -0.60975,-0.324527 -1.22615,-0.626584 -1.86139,-0.910538 -0.63523,-0.283955 -1.28968,-0.549746 -1.97559,-0.801502 -0.6859,-0.251756 -1.40346,-0.489853 -2.16524,-0.717786 -0.76177,-0.227932 -1.5675,-0.445874 -2.43034,-0.658357 -1.72568,-0.424968 -3.67875,-0.827334 -5.95984,-1.240751 0.18245,0.03307 -0.64739,-0.02618 -1.89394,-0.09405 -1.24656,-0.06787 -2.90979,-0.144444 -4.39508,-0.146244 z"
       style="fill:#000000"
       id="path12"
       transform="translate(9.407962e-6,-2.9123342e-4)" /><g
       aria-label="Black"
       transform="matrix(0.95569164,0,0,1.0463626,0.89619714,-74.681252)"
       id="text5"
       style="font-size:48.5491px;font-family:'Arial Narrow';-inkscape-font-specification:'Arial Narrow';display:inline;stroke-width:0.191138"><path
         d="m 17.288533,226.96852 h 11.402401 q 4.670006,0 6.566455,0.8534 1.896449,0.8534 3.200258,3.01061 1.303809,2.15721 1.303809,4.88336 0,2.51279 -1.114164,4.55148 -1.114164,2.01497 -2.892085,2.9869 2.536501,0.90082 3.958838,3.08173 1.446042,2.18092 1.446042,5.31006 0,3.7929 -1.825332,6.42422 -1.825333,2.60762 -4.314422,3.22397 -1.73051,0.4267 -8.036203,0.4267 h -9.695597 z m 5.736759,5.78417 v 8.0362 h 3.792898 q 3.413609,0 4.2196,-0.11853 1.469748,-0.23705 2.299444,-1.23269 0.829697,-1.01934 0.829697,-2.74985 0,-1.54087 -0.687463,-2.48909 -0.663757,-0.97193 -1.635687,-1.20899 -0.948225,-0.23705 -5.499703,-0.23705 z m 0,13.82037 v 9.2926 h 5.333763 q 3.508431,0 4.504067,-0.35558 0.995636,-0.37929 1.659393,-1.44605 0.687463,-1.09045 0.687463,-2.74985 0,-1.7068 -0.734874,-2.79726 -0.711169,-1.11416 -1.920155,-1.51716 -1.185281,-0.4267 -4.883357,-0.4267 z"
         style="font-weight:bold;font-stretch:condensed;-inkscape-font-specification:'Arial Narrow Bold Condensed'"
         id="path26" /><path
         d="m 45.996033,261.72095 v -34.75243 h 5.475997 v 34.75243 z"
         style="font-weight:bold;font-stretch:condensed;-inkscape-font-specification:'Arial Narrow Bold Condensed'"
         id="path28" /><path
         d="m 61.143921,244.2262 -4.954474,-1.09045 q 0.900813,-3.81661 2.963202,-5.476 2.086094,-1.6831 5.973815,-1.6831 3.46102,0 5.286352,0.97193 1.825332,0.97193 2.607618,2.65503 0.782285,1.65939 0.782285,6.06864 l -0.04741,7.77544 q 0,3.27137 0.260761,4.88335 0.260762,1.58828 0.971931,3.38991 h -5.404881 l -0.711168,-2.74985 q -1.398631,1.65939 -3.010613,2.48909 -1.588276,0.82969 -3.389903,0.82969 -3.010613,0 -4.930768,-2.01498 -1.920155,-2.03868 -1.920155,-5.40488 0,-2.1335 0.782286,-3.72178 0.782285,-1.58827 2.204622,-2.5365 1.422337,-0.94822 4.551478,-1.6831 3.792898,-0.8771 5.286352,-1.63568 0,-2.0861 -0.308173,-2.72615 -0.284467,-0.66376 -1.090458,-1.06675 -0.782286,-0.4267 -2.228328,-0.4267 -1.469748,0 -2.32315,0.66375 -0.829697,0.66376 -1.35122,2.48909 z m 7.301329,5.40488 q -1.043047,0.4267 -3.247669,0.99564 -2.536501,0.66376 -3.318786,1.46975 -0.782286,0.80599 -0.782286,2.08609 0,1.44604 0.853402,2.44168 0.877108,0.97193 2.180917,0.97193 1.161575,0 2.299445,-0.78228 1.137869,-0.806 1.56457,-1.89645 0.450407,-1.09046 0.450407,-3.95884 z"
         style="font-weight:bold;font-stretch:condensed;-inkscape-font-specification:'Arial Narrow Bold Condensed'"
         id="path30" /><path
         d="m 97.200161,243.98915 -5.381175,1.18528 q -0.59264,-3.95884 -3.721781,-3.95884 -2.014977,0 -3.247669,1.7068 -1.232692,1.70681 -1.232692,5.76047 0,4.48036 1.232692,6.3294 1.232692,1.84904 3.29508,1.84904 1.540865,0 2.536501,-1.04305 0.995636,-1.06675 1.422337,-3.74549 l 5.381174,1.11417 q -1.659393,9.10295 -9.553362,9.10295 -5.049296,0 -7.490975,-3.84031 -2.441678,-3.84031 -2.441678,-9.24519 0,-6.47163 2.749851,-9.83783 2.773557,-3.3899 7.253918,-3.3899 3.62696,0 5.902699,1.92015 2.299444,1.92016 3.29508,6.09235 z"
         style="font-weight:bold;font-stretch:condensed;-inkscape-font-specification:'Arial Narrow Bold Condensed'"
         id="path32" /><path
         d="m 101.159,261.72095 v -34.75243 h 5.476 v 18.44296 l 6.37681,-8.8659 h 6.73239 l -7.06427,9.19778 7.56209,15.97759 h -5.87899 l -5.21524,-11.30758 -2.51279,3.24767 v 8.05991 z"
         style="font-weight:bold;font-stretch:condensed;-inkscape-font-specification:'Arial Narrow Bold Condensed'"
         id="path34" /></g><g
       aria-label="黑"
       transform="matrix(0.97927062,0,0,1.0211682,0.89619714,-74.681252)"
       id="text1"
       style="font-size:74.1333px;font-family:'Yu Gothic';-inkscape-font-specification:'Yu Gothic';display:inline;stroke-width:0.191039"><path
         d="m 153.26603,214.44698 h 51.8354 v 26.35207 h -23.16666 v 5.79166 h 23.74582 v 5.2125 h -23.74582 v 6.08125 h 29.2479 v 5.21249 h -63.7083 v -5.21249 h 28.95832 v -6.08125 h -23.74582 v -5.2125 h 23.74582 v -5.79166 h -23.16666 z m 5.79167,21.42915 h 17.37499 V 219.36989 H 159.0577 Z m 9.26666,-13.89999 q 2.60625,4.34375 4.05416,9.55624 l -5.21249,1.7375 q -1.44792,-5.50208 -4.34375,-9.55624 z m 13.61041,-2.60625 v 16.50624 h 17.37499 v -16.50624 z m 8.39791,2.31667 5.2125,2.02708 q -2.31666,5.79166 -5.2125,9.84583 l -4.92291,-2.60625 q 3.18541,-4.63333 4.92291,-9.26666 z m -35.90831,42.27914 5.21249,3.18542 q -4.34374,7.52916 -8.97708,12.16249 l -4.92291,-4.34374 q 5.50208,-5.2125 8.6875,-11.00417 z m 49.22914,0 8.6875,10.425 -4.63333,4.92291 -8.97708,-11.87291 z m -32.7229,0.57917 4.92291,11.58333 -6.08124,2.60625 q -1.7375,-6.66042 -4.34375,-11.58333 z m 17.08541,0 q 3.475,5.2125 5.79166,11.29375 l -5.79166,2.60624 q -2.31667,-6.37083 -5.50208,-11.29374 z"
         style="font-weight:bold;-inkscape-font-specification:'Yu Gothic Bold'"
         id="path37" /></g></g></svg>
