<?xml version="1.0" encoding="UTF-8" standalone="no"?>
<!-- Created with Inkscape (http://www.inkscape.org/) -->

<svg
   width="800"
   height="800"
   viewBox="0 0 211.66666 211.66667"
   version="1.1"
   id="svg1"
   xml:space="preserve"
   xmlns="http://www.w3.org/2000/svg"
   xmlns:svg="http://www.w3.org/2000/svg"><defs
     id="defs1"><filter
       style="color-interpolation-filters:sRGB"
       id="filter3-6"
       x="-0.15478837"
       y="-0.23064786"
       width="1.3095767"
       height="1.4612957"><feGaussianBlur
         stdDeviation="6"
         in="SourceGraphic"
         result="result0"
         id="feGaussianBlur1-2" /><feDiffuseLighting
         lighting-color="#ffffff"
         diffuseConstant="1"
         surfaceScale="4"
         result="result5"
         id="feDiffuseLighting1-4"><feDistantLight
           elevation="45"
           azimuth="235"
           id="feDistantLight1-4" /></feDiffuseLighting><feComposite
         k1="1.4"
         in2="SourceGraphic"
         in="result5"
         result="fbSourceGraphic"
         operator="arithmetic"
         id="feComposite1-1"
         k2="0"
         k3="0"
         k4="0" /><feGaussianBlur
         result="result0"
         in="fbSourceGraphic"
         stdDeviation="6"
         id="feGaussianBlur2-4" /><feSpecularLighting
         specularExponent="25"
         specularConstant="1"
         surfaceScale="4"
         lighting-color="#ffffff"
         result="result1"
         in="result0"
         id="feSpecularLighting2-3"><feDistantLight
           azimuth="235"
           elevation="45"
           id="feDistantLight2-1" /></feSpecularLighting><feComposite
         k3="1"
         k2="1"
         operator="arithmetic"
         in="fbSourceGraphic"
         in2="result1"
         result="result4"
         id="feComposite2-7"
         k1="0"
         k4="0" /><feComposite
         operator="in"
         result="result2"
         in2="SourceGraphic"
         in="result4"
         id="feComposite3-5" /><feGaussianBlur
         stdDeviation="1"
         id="feGaussianBlur1" /><feComposite
         id="feComposite1"
         in2="SourceGraphic"
         operator="atop" /></filter></defs><g
     id="layer1"
     transform="translate(-442.43713,-74.681252)"><path
       id="rect1"
       style="fill:#ffffff;stroke-width:0.413411;stroke-linecap:round;stroke-linejoin:round"
       d="M 442.43713,74.681252 H 654.10381 V 286.34792 H 442.43713 Z" /><path
       style="fill:#ffcc00;fill-opacity:1;filter:url(#filter3-6)"
       d="m 481.81291,216.768 c -2.18004,-0.658 -3.65703,-2.90724 -3.65703,-5.56913 0,-2.09322 0.94521,-3.93343 3.93719,-7.66526 1.03903,-1.29596 9.58526,-9.78496 9.85381,-9.78783 0.62537,-0.007 0.40249,10.21455 -0.28276,12.96784 -1.68787,6.78169 -6.02574,11.20903 -9.85121,10.05438 z m 3.26462,-3.45894 c 2.48034,-1.6259 4.59127,-7.004 4.74628,-12.09228 0.0768,-2.52228 0.1745,-2.52818 -2.69236,0.1628 -4.21711,3.9584 -6.03474,6.96235 -6.05453,10.00618 l -0.0106,1.63444 0.72752,0.57227 c 0.87117,0.68526 1.94773,0.59235 3.28371,-0.28341 z m 16.54261,3.34693 c -1.2699,-0.46795 -1.9116,-1.04703 -2.75496,-2.48611 l -0.66711,-1.13834 0.009,-1.64011 c 0.0135,-2.53993 1.14411,-4.62349 4.70322,-8.66727 1.78104,-2.02357 9.09361,-9.11707 9.14562,-8.87163 0.38717,1.82712 0.29756,9.96634 -0.13134,11.93004 -1.66991,7.64557 -6.1718,12.39618 -10.30414,10.87342 z m 3.75392,-3.54023 c 2.59206,-2.09793 4.06777,-6.1075 4.62375,-12.56289 0.16473,-1.9127 -0.0833,-1.79491 -3.6074,1.71324 l -3.26668,3.25188 c -0.90182,1.35593 -1.67972,2.71186 -1.97854,4.06779 -0.18658,1.00305 -0.35102,2.01875 -0.0468,3.30226 0.29508,0.77689 0.80328,1.18567 1.49172,1.28312 l 0.92557,-0.1502 c 0.50906,-0.0826 1.34534,-0.48995 1.8584,-0.9052 z m 16.35441,3.54223 c -1.26931,-0.47025 -1.91222,-1.05008 -2.75073,-2.4809 l -0.66288,-1.13112 0.0257,-1.71449 c 0.0315,-2.10215 0.39017,-2.9919 2.32324,-5.76381 1.32523,-1.90031 10.70107,-11.55906 11.22048,-11.55906 0.59266,0 0.69668,9.07753 0.1334,11.64177 -1.71778,7.81996 -6.13572,12.54636 -10.28923,11.00761 z m 3.71851,-3.53306 c 1.76749,-1.34813 3.12578,-3.92917 3.90097,-7.41268 0.51557,-2.31685 0.89029,-6.40581 0.60329,-6.58318 -0.12319,-0.0761 -1.69004,1.33022 -3.48189,3.12524 l -3.2579,3.26368 c -1.11405,1.4744 -1.81014,2.87913 -2.01388,4.20181 -0.27707,1.04129 -0.37015,2.08259 -0.0424,3.12388 0.3215,0.84379 0.85596,1.23126 1.53119,1.31707 l 0.93008,-0.17449 c 0.51154,-0.096 1.33531,-0.48356 1.83058,-0.86133 z m 16.07661,3.41531 c -3.50002,-1.66838 -4.27632,-5.62722 -1.84787,-9.42349 2.37398,-3.71112 11.87994,-13.61531 12.48609,-13.00916 0.334,0.334 0.4136,8.79663 0.10018,10.6498 -1.38938,8.21503 -6.48759,13.80911 -10.7384,11.78285 z m 3.69844,-3.17329 c 2.80942,-2.36501 4.25442,-5.88382 4.8325,-11.76795 0.28378,-2.88857 0.2262,-2.92147 -1.83055,-1.04573 -6.26264,5.71149 -8.72657,10.9772 -6.10235,13.04141 l 0.71066,0.559 0.93315,-0.17305 c 0.51324,-0.0952 1.1687,-0.37133 1.45659,-0.61368 z m 16.4099,3.17329 c -2.62767,-1.25255 -3.94079,-4.39946 -3.00956,-7.21246 0.84687,-2.55817 12.61435,-15.98903 13.35761,-15.24577 0.76223,0.76223 0.84627,8.0742 0.13342,11.60883 -1.57279,7.79867 -6.39975,12.79506 -10.48147,10.8494 z m 3.8531,-3.27119 c 2.39221,-1.76863 4.19734,-6.31137 4.63079,-11.65367 l 0.18784,-2.3151 h -0.37739 c -0.55949,0 -5.58392,5.03767 -6.69709,6.71473 -3.41935,5.15147 -1.82682,10.27249 2.25585,7.25404 z m 16.7491,3.58873 c -2.80081,-0.61389 -4.59881,-5.06945 -3.28375,-8.13736 1.20107,-2.80199 11.74803,-14.57952 13.05618,-14.57952 0.72079,0 0.90801,9.72712 0.22916,11.90625 -0.13599,0.43656 -0.40005,1.32953 -0.58678,1.98438 -1.58935,5.57358 -5.88433,9.60006 -9.41481,8.82625 z m 2.3589,-3.09865 c 2.98236,-1.2534 5.09944,-6.02692 5.63048,-12.69544 l 0.16508,-2.07304 -0.5216,0.27916 c -0.28689,0.15353 -1.84295,1.5998 -3.45792,3.21392 l -2.93632,2.93476 -0.9626,1.9477 c -2.17206,4.39486 -1.08702,7.72515 2.08288,6.39294 z M 491.52584,189.3309 c -2.4105,-0.67499 -4.22095,-4.17809 -3.54555,-6.86038 0.51759,-2.05551 3.65774,-6.46595 6.85536,-9.62856 3.99812,-3.95436 6.62261,-6.41915 6.72549,-6.31627 0.065,0.065 0.26657,1.45317 0.44801,3.0849 l 0.32989,2.96679 -0.32863,2.97655 c -0.98927,8.96011 -5.67906,15.12262 -10.48457,13.77697 z m 4.00885,-4.09012 c 2.42995,-2.36204 3.88676,-6.7163 4.1704,-12.46497 0.0598,-1.21174 -0.0909,-1.22648 -1.36552,-0.13354 -3.09657,2.65516 -5.38841,5.30506 -6.58001,7.60801 l -0.75295,1.45521 c -0.52001,1.82546 -0.30025,3.59076 -0.0184,4.07721 l 0.52917,0.41655 c 0.36085,0.28405 0.89511,0.3814 1.67965,0.30607 l 1.15048,-0.11049 z m 15.8264,3.97813 c -1.50014,-0.46126 -2.81998,-2.04286 -3.346,-4.0096 l -0.32172,-1.20286 0.31673,-1.41507 c 0.62071,-2.7731 3.80324,-6.92425 9.40154,-12.26296 2.13636,-2.0373 3.98086,-3.73733 4.0989,-3.77787 0.87654,-0.301 0.70868,9.85694 -0.21965,13.29143 -1.7798,6.58472 -6.01223,10.58149 -9.9298,9.37693 z m 2.94531,-3.0498 c 2.76849,-1.31373 4.84971,-6.01756 5.28203,-11.93809 0.22783,-3.12002 0.28136,-3.13001 -3.54352,0.66145 l -3.13624,3.10886 -0.95669,1.92271 c -2.3024,4.62729 -1.07836,7.87403 2.35442,6.24507 z m 16.63386,2.901 c -1.23059,-0.65021 -1.72275,-1.17224 -2.44156,-2.58975 l -0.66456,-1.31054 0.12725,-1.77851 c 0.21517,-3.0072 2.54463,-6.23298 9.24852,-12.80714 l 4.57768,-4.48909 0.2089,2.77813 c 0.23027,3.06224 0.0558,7.53105 -0.37578,9.62823 -1.53698,7.46763 -6.76273,12.63869 -10.68045,10.56867 z m 3.51627,-2.97325 c 2.44505,-1.25389 4.14355,-4.70802 4.94766,-10.0617 0.78889,-5.25237 0.78438,-5.25367 -3.46829,-1.001 l -3.25054,3.25053 -0.86523,1.84269 c -0.6286,1.33873 -0.89285,2.31995 -0.96624,3.58775 l -0.10102,1.74507 0.72469,0.57004 c 0.89332,0.70268 1.70334,0.7208 2.97897,0.0666 z m 16.42565,2.88308 c -1.34724,-0.7119 -2.27357,-1.91291 -2.75638,-3.5737 -0.99967,-3.43875 1.00756,-6.75888 8.63561,-14.28407 l 4.8276,-4.7625 0.24916,1.19062 c 0.42121,2.01277 0.32035,8.62213 -0.16554,10.84791 -1.70975,7.83208 -6.71152,12.73711 -10.79045,10.58174 z m 3.44058,-2.75941 c 2.0905,-1.08104 3.83054,-4.07515 4.78005,-8.22512 0.36551,-1.59748 0.76021,-6.21091 0.54287,-6.34523 -0.26718,-0.16513 -4.71694,4.08561 -5.93785,5.67227 -2.24013,2.91121 -2.97866,4.90187 -2.82473,7.61387 0.0791,1.39397 1.90742,2.07657 3.43966,1.28421 z m 16.8157,2.8904 c -4.14829,-1.82126 -4.24918,-6.48327 -0.25536,-11.79897 1.82715,-2.43191 10.50639,-10.90892 10.75587,-10.50526 0.84728,1.37093 0.57657,9.91669 -0.42168,13.31129 -1.95904,6.6619 -6.38776,10.61347 -10.07883,8.99294 z m 2.91233,-2.76894 c 1.94327,-0.73883 3.87587,-3.74458 4.85243,-7.54691 0.68046,-2.64943 1.06017,-7.01145 0.61034,-7.01145 -0.48926,0 -5.26595,4.72574 -6.55217,6.48228 -3.30702,4.51626 -2.63578,9.49239 1.0894,8.07608 z m 17.47906,2.97435 c -2.91537,-0.73256 -4.51776,-5.36497 -2.93571,-8.48698 1.66122,-3.27826 12.44677,-14.85405 13.16801,-14.13281 0.20858,0.20859 0.30772,1.8811 0.31271,5.27593 l 0.007,4.97052 -0.609,2.38124 c -1.74182,6.81072 -5.91496,11.00433 -9.94332,9.9921 z m 3.24659,-3.44367 c 2.82119,-1.90549 4.82302,-7.01182 4.82315,-12.30311 6e-5,-2.29113 0.0781,-2.31901 -3.52307,1.25883 l -3.06459,3.04476 -0.99921,2.02174 -0.9992,2.02175 -0.0949,1.74651 -0.0949,1.7465 0.56176,0.59531 c 0.77757,0.82402 2.04839,0.77444 3.39086,-0.13229 z m -65.95285,-22.31461 c -7.54919,-0.31746 -15.95845,-2.25817 -22.24524,-5.13381 -0.79786,-0.36495 -1.5186,-0.66354 -1.60164,-0.66354 -1.09096,0 -9.82344,-5.80358 -12.9302,-8.59337 -0.58209,-0.5227 -1.23693,-0.89462 -1.45521,-0.8265 -14.41725,4.49933 -29.80239,3.00985 -37.89971,-3.6692 -10.74993,-8.86704 -6.90845,-20.12292 8.39308,-24.59243 3.26123,-0.95259 7.41751,-1.74142 9.17543,-1.74142 h 1.00287 l 1.08718,-2.18281 c 3.45113,-6.92911 9.2012,-13.00481 16.12448,-17.03762 3.22325,-1.87754 6.36195,-3.308262 9.26042,-4.221199 2.3999,-0.755902 2.80808,-0.864106 4.36562,-1.157267 0.87313,-0.16434 2.16213,-0.411818 2.86446,-0.549951 1.72847,-0.339955 9.43332,-0.319066 10.97515,0.02976 4.33625,0.981026 4.44612,1.016534 7.07946,2.28806 l 1.86906,0.902491 2.58656,-2.540723 c 1.42261,-1.397398 2.97188,-2.803554 3.44282,-3.124791 3.48653,-2.378223 5.01441,-3.309066 7.29657,-4.445324 1.43399,-0.713967 2.77106,-1.298121 2.97127,-1.298121 0.20022,0 0.47714,-0.09762 0.61538,-0.216939 0.13825,-0.119315 1.14433,-0.490891 2.23574,-0.825723 1.0914,-0.334833 2.28203,-0.70252 2.64583,-0.817083 0.3638,-0.114563 1.37583,-0.333661 2.24896,-0.486884 0.87312,-0.153223 2.42094,-0.432053 3.43958,-0.619624 2.53894,-0.467512 12.5992,-0.45521 15.21354,0.0186 9.64028,1.74717 15.09368,3.765736 20.98859,7.768892 2.07136,1.406634 2.3581,1.637809 4.35464,3.510749 l 1.68973,1.585116 3.91762,0.03717 c 3.74256,0.03551 7.38144,0.371869 9.66297,0.893194 4.74844,1.085011 7.58213,1.91161 9.65729,2.81707 9.39009,4.097207 14.11802,9.746237 14.36147,17.159417 l 0.0695,2.11667 1.05274,0.21345 c 0.579,0.11739 1.64805,0.3345 2.37565,0.48246 5.50963,1.12037 9.96992,4.55882 11.79613,9.09367 l 0.63929,1.5875 v 2.91042 2.91041 l -0.64409,1.5875 c -2.86707,7.06646 -11.29132,12.94748 -21.59535,15.07583 -1.13137,0.23369 -2.12673,0.46571 -2.21192,0.51559 -0.13135,0.0769 -2.75642,0.4682 -7.29864,1.08793 -0.58208,0.0794 -4.12221,0.18514 -7.86695,0.23493 l -6.80861,0.0905 -1.26118,0.79975 c -12.00342,7.61171 -30.09356,9.4199 -41.35786,4.13389 l -2.05422,-0.96399 -1.22402,0.84215 c -5.26409,3.62179 -15.39527,5.50331 -27.00425,5.01512 z"
       id="path10" /><path
       d="m 559.94092,89.290572 c -1.4853,-0.0018 -3.15861,0.07542 -4.39819,0.141594 -1.23957,0.06617 -2.04548,0.12101 -1.79524,0.07493 -1.048,0.192979 -2.58866,0.470761 -3.50159,0.63097 -0.32177,0.05647 -0.8518,0.185163 -1.19631,0.26665 -0.17225,0.04074 -0.29842,0.06963 -0.32866,0.07183 -0.0302,0.0022 0.0352,-0.02216 0.24546,-0.08837 -0.4524,0.142463 -1.59821,0.496326 -2.69906,0.834057 -0.28883,0.08861 -0.5123,0.16702 -0.74052,0.24598 0.21843,-0.121577 0.45839,-0.25696 1.24023,-0.931726 -0.34019,0.293634 -0.60488,0.475843 -0.84336,0.622184 -0.23848,0.146342 -0.45056,0.256914 -0.68574,0.40721 -0.009,0.0034 -0.0318,0.01024 -0.0408,0.01344 -0.11433,0.04232 -0.19022,0.07548 -0.11162,0.04134 0.011,-0.0048 0.0393,0.0067 0.0413,0.01964 -0.30737,0.188458 -0.67321,0.367714 -1.04334,0.510046 -0.37014,0.142331 -0.74487,0.247714 -1.07022,0.286804 -0.38017,0.169881 -0.87078,0.395447 -1.41025,0.664042 -1.00575,0.50075 -1.75725,0.901785 -2.68201,1.467094 -0.92476,0.565309 -2.02264,1.294631 -3.72019,2.452564 0.41232,-0.28125 0.4116,-0.27592 0.24082,-0.139527 -0.17079,0.136394 -0.51156,0.404019 -0.7798,0.647506 -0.53648,0.486977 -1.22266,1.136267 -1.85932,1.761647 l -6.40219,6.289023 -6.68383,-3.22822 c -1.30403,-0.62966 -1.58593,-0.81539 -2.08256,-0.96584 -0.49664,-0.15044 -1.20778,-0.26574 -3.37034,-0.75499 0.46359,0.10489 0.46412,0.10952 0.24805,0.0832 -0.21607,-0.0263 -0.64916,-0.0837 -1.05317,-0.10284 -0.80801,-0.0382 -1.88293,-0.0638 -2.95692,-0.0667 -1.07401,-0.003 -2.40651,0.0849 -3.31298,0.14212 -0.45324,0.0286 -0.80007,0.0497 -0.95446,0.0481 -0.15439,-0.002 -0.11681,-0.0263 0.19895,-0.0884 -0.74422,0.14638 -2.02608,0.39142 -2.9254,0.5607 -0.72989,0.13737 -1.01139,0.18549 -1.4056,0.29248 -0.39421,0.10699 -0.90152,0.27277 -2.08308,0.64493 -0.55706,0.17545 -1.14146,0.38168 -1.74925,0.61805 -0.60778,0.23636 -1.23891,0.50305 -1.88825,0.79891 -1.29868,0.59172 -2.671,1.30058 -4.08089,2.12184 -0.7045,0.41037 -1.39549,0.84885 -2.07068,1.31258 -0.67518,0.46373 -1.33478,0.95277 -1.9761,1.46451 -0.64132,0.51174 -1.26469,1.04653 -1.86759,1.60093 -0.60289,0.55441 -1.18519,1.12859 -1.74511,1.72031 -0.55992,0.59173 -1.09734,1.20099 -1.60972,1.8247 -0.51239,0.6237 -0.99957,1.26169 -1.45986,1.91203 -0.4603,0.65033 -0.89343,1.31275 -1.29708,1.98437 -0.40365,0.67162 -0.7779,1.35262 -1.12035,2.04019 l -3.18378,6.39444 h -5.7087 c 0.25794,0 -0.83435,0.16418 -2.32543,0.42581 -0.74555,0.13082 -1.59066,0.28592 -2.41691,0.45734 -0.82625,0.17142 -1.63346,0.359 -2.3027,0.55449 -0.77086,0.22516 -1.48201,0.46635 -2.13682,0.7183 -0.65482,0.25195 -1.25318,0.51459 -1.79938,0.7829 -0.54619,0.26831 -1.04018,0.54224 -1.48518,0.81648 -0.44499,0.27425 -0.84096,0.54881 -1.19217,0.81856 -0.35122,0.26975 -0.65756,0.53479 -0.92243,0.78961 -0.26486,0.25483 -0.48844,0.49968 -0.67438,0.72916 -0.18593,0.22948 -0.33412,0.44347 -0.44855,0.63717 -0.11442,0.1937 -0.19512,0.36668 -0.24546,0.51418 -0.10068,0.295 -0.1883,0.59779 -0.2036,0.93483 -0.008,0.16851 0.003,0.34572 0.0387,0.53485 0.036,0.18913 0.0973,0.39019 0.19172,0.60668 0.0944,0.21649 0.22189,0.44809 0.38964,0.69866 0.16775,0.25058 0.37609,0.51991 0.63201,0.81133 0.25591,0.29141 0.55935,0.60514 0.91829,0.94412 0.35893,0.33898 0.77325,0.70329 1.25005,1.09658 0.30498,0.25156 0.64343,0.49583 1.01286,0.73174 0.36943,0.2359 0.76964,0.4634 1.19889,0.68161 0.8585,0.43642 1.83214,0.83567 2.90215,1.18907 1.07001,0.3534 2.23641,0.66113 3.48092,0.91519 1.24451,0.25406 2.56713,0.45433 3.94912,0.59273 1.38199,0.1384 2.82322,0.21475 4.30568,0.22118 1.48245,0.006 3.00626,-0.0571 4.55217,-0.19896 0.77296,-0.0709 1.55132,-0.16127 2.33319,-0.27233 0.78188,-0.11107 1.56717,-0.24261 2.35335,-0.39584 0.78617,-0.15324 1.57318,-0.32811 2.35903,-0.52555 0.78584,-0.19745 1.57039,-0.41776 2.35128,-0.66146 0.74129,-0.23135 1.36681,-0.35939 1.90065,-0.41755 0.53385,-0.0581 0.97635,-0.0462 1.35134,0.003 0.37499,0.0493 0.6825,0.13574 0.94723,0.22686 0.26473,0.0911 0.48629,0.18704 0.68937,0.25425 0.40615,0.13441 0.72773,0.26595 1.002,0.39481 0.27428,0.12886 0.50136,0.25469 0.71882,0.37827 0.43493,0.24715 0.81241,0.49228 1.16582,0.75137 0.35341,0.2591 0.68271,0.5323 1.02164,0.83665 0.43437,0.39005 1.39369,1.13904 2.5585,1.99936 1.16482,0.86031 2.53501,1.83181 3.79099,2.6665 1.25599,0.83469 2.45529,1.58663 3.252,2.04535 0.0775,0.0446 0.0751,0.0393 0.14469,0.078 0,8e-5 0.002,-7e-5 0.002,0 0.0635,0.0193 0.0586,0.031 0.0956,0.0506 -10e-4,-1.8e-4 -0.004,1.8e-4 -0.004,0 0.21947,0.12002 0.48277,0.26323 0.50437,0.27337 0.003,0.002 -0.0203,-0.0411 -0.006,-0.0506 0.10468,0.0353 0.23301,0.0756 0.30851,0.10336 0.25657,0.0943 0.44425,0.1696 0.64854,0.25424 0.40857,0.16929 0.84735,0.36346 1.32033,0.57981 0.64149,0.29342 1.32453,0.57896 2.04122,0.85421 0.7167,0.27526 1.46681,0.54023 2.24328,0.79324 1.55294,0.50602 3.2104,0.96335 4.90978,1.35599 1.69937,0.39263 3.4407,0.72069 5.16299,0.96738 0.86114,0.12335 1.71737,0.2262 2.56108,0.30696 0.84371,0.0808 1.67481,0.13953 2.48564,0.17363 1.3253,0.0557 2.62967,0.0669 3.90209,0.0408 1.27242,-0.0261 2.51332,-0.0897 3.71191,-0.18397 1.1986,-0.0943 2.35487,-0.21911 3.45871,-0.36793 1.10383,-0.14882 2.15483,-0.32134 3.14296,-0.51108 0.98813,-0.18975 1.9132,-0.39688 2.76469,-0.61392 0.85149,-0.21704 1.62947,-0.44418 2.32337,-0.67489 0.6939,-0.23071 1.30415,-0.46482 1.81953,-0.69557 0.51538,-0.23075 0.9362,-0.45824 1.25212,-0.67541 l 4.81417,-3.31453 6.00222,2.81637 c 0.48925,0.22959 1.01281,0.44012 1.56735,0.63097 0.55453,0.19085 1.13982,0.36249 1.75183,0.5147 0.61201,0.15221 1.25087,0.28475 1.91254,0.39842 0.66168,0.11367 1.34648,0.20796 2.05001,0.28319 0.70352,0.0752 1.4256,0.13158 2.16317,0.16846 0.73758,0.0369 1.49032,0.0546 2.25413,0.0532 1.52762,-0.003 3.09979,-0.0821 4.6855,-0.23719 1.58571,-0.15511 3.1848,-0.38576 4.76612,-0.69246 0.79066,-0.15335 1.57704,-0.32567 2.35489,-0.51677 0.77785,-0.1911 1.54754,-0.40119 2.30477,-0.62993 0.75723,-0.22875 1.50207,-0.4763 2.23087,-0.7426 0.7288,-0.26629 1.44168,-0.55149 2.13424,-0.85524 0.69256,-0.30375 1.3648,-0.62628 2.01331,-0.96738 0.64852,-0.34111 1.273,-0.70065 1.86966,-1.07901 l 3.07836,-1.95337 8.9607,-0.11885 c 1.83291,-0.0244 3.62315,-0.0625 4.99401,-0.10335 0.68543,-0.0204 1.49927,-0.0809 1.97817,-0.11369 0.23945,-0.0164 0.39511,-0.0259 0.40928,-0.0202 0.0142,0.006 -0.11289,0.0267 -0.43977,0.0713 2.25293,-0.30739 4.02529,-0.55832 5.20899,-0.73484 0.56751,-0.0846 0.98312,-0.14984 1.22834,-0.1912 0.0521,-0.0142 0.12654,-0.0362 0.17364,-0.0486 0.24379,-0.0642 0.45921,-0.1173 0.70331,-0.17415 0.4882,-0.1137 1.06516,-0.23873 1.68569,-0.36691 1.04893,-0.21666 2.06384,-0.48657 3.04012,-0.79995 0.97628,-0.31337 1.91358,-0.67055 2.80707,-1.06143 0.89348,-0.39088 1.74296,-0.81533 2.54351,-1.26452 0.80055,-0.44919 1.55253,-0.92299 2.24999,-1.41129 0.69746,-0.48829 1.34072,-0.99145 1.92495,-1.49965 0.58423,-0.5082 1.10907,-1.02123 1.56993,-1.53014 0.46086,-0.5089 0.8576,-1.01337 1.18494,-1.50378 0.32734,-0.49041 0.58527,-0.96684 0.76895,-1.41955 l 0.0863,-0.21291 v -1.42782 -1.43764 l -0.0878,-0.22066 c -0.18042,-0.44799 -0.45493,-0.91032 -0.81649,-1.36219 -0.36156,-0.45186 -0.81032,-0.89305 -1.34049,-1.29966 -0.26508,-0.2033 -0.55036,-0.39806 -0.85524,-0.58084 -0.30489,-0.18278 -0.62943,-0.35393 -0.97255,-0.51005 -0.34312,-0.15611 -0.70491,-0.29733 -1.08469,-0.42064 -0.37979,-0.12332 -0.77781,-0.22828 -1.19269,-0.31265 -0.72715,-0.14786 -1.79653,-0.36413 -2.37092,-0.48059 l -6.93963,-1.40818 -0.26716,-8.12095 c -0.0177,-0.53921 -0.0608,-1.05325 -0.13798,-1.54616 -0.0772,-0.49291 -0.18882,-0.96512 -0.34313,-1.4211 -0.15432,-0.45598 -0.3514,-0.89555 -0.60048,-1.32395 -0.24908,-0.42841 -0.55009,-0.84555 -0.91157,-1.25574 -0.36149,-0.41019 -0.78385,-0.81359 -1.27538,-1.21491 -0.49153,-0.40133 -1.05215,-0.80069 -1.69137,-1.20251 -0.63922,-0.40182 -1.35656,-0.80583 -2.16111,-1.2175 -0.80454,-0.41167 -1.69656,-0.83105 -2.68407,-1.26194 -0.65216,-0.28456 -1.58745,-0.6172 -2.93109,-1.00924 -1.34364,-0.39203 -3.09529,-0.84351 -5.38107,-1.36581 -0.63117,-0.14422 -1.80805,-0.3112 -3.24372,-0.44648 -1.43568,-0.13528 -3.13051,-0.23843 -4.79764,-0.25425 l -6.88279,-0.0667 -3.85351,-3.613223 c -0.97965,-0.919 -1.33037,-1.26742 -1.68879,-1.557523 -0.35841,-0.290099 -0.72426,-0.521971 -1.73477,-1.208195 -0.63438,-0.430796 -1.25037,-0.830587 -1.85984,-1.204061 -0.60947,-0.373474 -1.21236,-0.720371 -1.82211,-1.044898 -0.60975,-0.324527 -1.22615,-0.626584 -1.86139,-0.910538 -0.63523,-0.283955 -1.28968,-0.549746 -1.97559,-0.801502 -0.6859,-0.251756 -1.40346,-0.489853 -2.16524,-0.717786 -0.76177,-0.227932 -1.5675,-0.445874 -2.43034,-0.658357 -1.72568,-0.424968 -3.67875,-0.827334 -5.95984,-1.240751 0.18245,0.03307 -0.64739,-0.02618 -1.89394,-0.09405 -1.24656,-0.06787 -2.90979,-0.144444 -4.39508,-0.146244 z"
       style="fill:#ffcc00;fill-opacity:1"
       id="path11" /><g
       aria-label="Amber"
       transform="scale(0.906786,1.102796)"
       id="text4"
       style="font-weight:bold;font-stretch:condensed;font-size:49.0907px;font-family:'Arial Narrow';-inkscape-font-specification:'Arial Narrow Bold Condensed';fill:#ffcc00;stroke-width:0.193271"><path
         d="m 532.61792,249.58817 h -6.32809 l -2.51686,-7.98204 h -11.50563 l -2.37304,7.98204 h -6.18428 l 11.21799,-35.14012 h 6.16031 z m -10.71462,-13.90264 -3.95506,-13.03972 -3.90712,13.03972 z"
         id="path26" /><path
         d="m 535.23066,224.13195 h 5.08165 v 3.47566 q 1.3663,-2.03745 2.99626,-3.0442 1.62997,-1.00674 3.5236,-1.00674 2.01349,0 3.47566,1.00674 1.48615,1.00675 2.42098,3.0442 1.39026,-2.03745 2.97229,-3.0442 1.60599,-1.00674 3.40375,-1.00674 2.13333,0 3.66742,1.03071 1.55805,1.00675 2.34906,2.90038 0.81499,1.89364 0.81499,5.82473 v 16.27568 h -5.53709 v -14.54984 q 0,-3.81124 -0.67116,-5.05768 -0.67116,-1.27041 -2.25319,-1.27041 -1.84569,0 -2.97229,1.77378 -1.12659,1.74982 -1.12659,6.87941 v 12.22474 h -5.53708 v -13.95058 q 0,-4.14683 -0.45544,-5.34533 -0.59925,-1.58202 -2.42097,-1.58202 -1.22248,0 -2.25319,0.81498 -1.03071,0.81498 -1.48614,2.39701 -0.45543,1.55805 -0.45543,5.29738 v 12.36856 h -5.53709 z"
         id="path28" /><path
         d="m 571.18576,249.58817 v -35.14012 h 5.53709 v 12.65619 q 1.27041,-1.77378 2.78053,-2.66068 1.53408,-0.88689 3.2839,-0.88689 3.69139,0 6.23221,3.33184 2.5648,3.33184 2.5648,9.82773 0,6.47192 -2.61274,9.97155 -2.61273,3.47566 -6.13633,3.47566 -1.79776,0 -3.54757,-1.10263 -1.74982,-1.10262 -2.97229,-3.21199 v 3.73934 z m 5.48915,-13.27942 q 0,3.2839 0.62322,5.00974 0.62322,1.72585 1.77379,2.63671 1.15056,0.88689 2.42097,0.88689 1.82173,0 3.11611,-1.89363 1.29439,-1.91761 1.29439,-6.04046 0,-4.33858 -1.31836,-6.25619 -1.29438,-1.94157 -3.30787,-1.94157 -1.9176,0 -3.25993,1.86966 -1.34232,1.86967 -1.34232,5.72885 z"
         id="path30" /><path
         d="m 608.1476,241.48628 5.48915,1.1266 q -1.10262,3.83521 -3.42772,5.70487 -2.3251,1.8457 -5.65694,1.8457 -4.62622,0 -7.14308,-3.09214 -2.97228,-3.59551 -2.97228,-10.06743 0,-6.37604 2.99625,-10.21125 2.54083,-3.23596 6.5678,-3.23596 4.4824,0 7.02323,3.30787 2.92435,3.78727 2.92435,11.17005 l -0.024,0.76704 h -13.83073 q 0.0479,3.02023 1.34232,4.67417 1.31836,1.65393 3.16405,1.65393 2.66068,0 3.54757,-3.64345 z m 0.31161,-6.8075 q -0.0719,-2.97229 -1.27041,-4.45843 -1.1985,-1.51011 -2.85244,-1.51011 -1.74981,0 -2.94832,1.55805 -1.22247,1.58203 -1.1985,4.41049 z"
         id="path32" /><path
         d="m 623.72815,249.58817 h -5.53708 v -25.45622 h 5.12959 v 3.61948 q 1.31835,-2.54082 2.34907,-3.35581 1.05468,-0.83895 2.42097,-0.83895 1.89364,0 3.61948,1.27042 l -1.72584,5.87266 q -1.3663,-1.10262 -2.58877,-1.10262 -1.15056,0 -2.03745,0.86292 -0.86293,0.83895 -1.24645,3.06817 -0.38352,2.22922 -0.38352,8.19776 z"
         id="path34" /></g><g
       aria-label="黃"
       id="text6"
       style="font-size:71.0376px;font-family:'Yu Gothic';-inkscape-font-specification:'Yu Gothic';fill:#ffcc00;stroke-width:0.279676"><path
         d="m 588.0591,222.579 h 14.42951 v -4.71734 h 5.54982 v 4.71734 h 20.81179 v -4.71734 h 5.54981 v 4.71734 h 14.70701 v 4.99483 h -14.70701 v 8.60221 h -31.91142 v -8.60221 H 588.0591 Z m 40.79112,9.15719 v -4.16236 h -20.81179 v 4.16236 z m -41.62359,7.21475 h 62.43539 v 4.99484 h -62.43539 z m 7.49225,8.32472 h 48.00587 v 23.30922 h -48.00587 z m 5.54981,9.43468 h 15.81696 V 251.993 h -15.81696 z m 21.08929,-4.71734 v 4.71734 h 15.81696 V 251.993 Z m -21.08929,13.87453 h 15.81696 v -4.71734 h -15.81696 z m 21.08929,-4.71734 v 4.71734 h 15.81696 v -4.71734 z m -13.59705,9.98967 3.60738,4.16236 q -7.49224,3.88486 -21.64427,6.38228 l -2.49741,-5.27232 q 13.04206,-1.94244 20.5343,-5.27232 z m 19.70184,0 21.92176,4.71734 -2.49742,5.27232 -21.64427,-5.27232 z"
         style="font-weight:bold;-inkscape-font-specification:'Yu Gothic Bold'"
         id="path37" /></g></g></svg>
