<?xml version="1.0" encoding="UTF-8" standalone="no"?>
<!-- Created with Inkscape (http://www.inkscape.org/) -->

<svg
   width="800"
   height="800"
   viewBox="0 0 211.66666 211.66667"
   version="1.1"
   id="svg1"
   xml:space="preserve"
   xmlns="http://www.w3.org/2000/svg"
   xmlns:svg="http://www.w3.org/2000/svg"><defs
     id="defs1"><clipPath
       clipPathUnits="userSpaceOnUse"
       id="clipPath4"><rect
         style="fill:#ffffff;stroke-width:15.2"
         id="rect5"
         width="135.46666"
         height="135.46666"
         x="-1.7763568e-15"
         y="0" /></clipPath><clipPath
       clipPathUnits="userSpaceOnUse"
       id="clipPath5"><rect
         style="fill:#ffffff;stroke-width:15.2"
         id="rect6"
         width="135.46666"
         height="135.46666"
         x="-1.7763568e-15"
         y="0" /></clipPath><filter
       style="color-interpolation-filters:sRGB"
       id="filter16"
       x="-0.23104401"
       y="-0.44165771"
       width="1.462088"
       height="1.8833154"><feGaussianBlur
         stdDeviation="6"
         in="SourceGraphic"
         result="result0"
         id="feGaussianBlur3" /><feDiffuseLighting
         lighting-color="#ffffff"
         diffuseConstant="1"
         surfaceScale="4"
         result="result5"
         id="feDiffuseLighting3"><feDistantLight
           elevation="45"
           azimuth="235"
           id="feDistantLight3" /></feDiffuseLighting><feComposite
         k1="1.4"
         in2="SourceGraphic"
         in="result5"
         result="fbSourceGraphic"
         operator="arithmetic"
         id="feComposite4"
         k2="0"
         k3="0"
         k4="0" /><feGaussianBlur
         result="result0"
         in="fbSourceGraphic"
         stdDeviation="6"
         id="feGaussianBlur4" /><feSpecularLighting
         specularExponent="25"
         specularConstant="1"
         surfaceScale="4"
         lighting-color="#ffffff"
         result="result1"
         in="result0"
         id="feSpecularLighting4"><feDistantLight
           azimuth="235"
           elevation="45"
           id="feDistantLight4" /></feSpecularLighting><feComposite
         k3="1"
         k2="1"
         operator="arithmetic"
         in="fbSourceGraphic"
         in2="result1"
         result="result4"
         id="feComposite5"
         k1="0"
         k4="0" /><feComposite
         operator="in"
         result="result2"
         in2="SourceGraphic"
         in="result4"
         id="feComposite16" /><feGaussianBlur
         stdDeviation="1"
         id="feGaussianBlur1" /><feComposite
         id="feComposite1"
         in2="SourceGraphic"
         operator="atop" /></filter></defs><g
     id="layer1"><path
       id="rect3"
       clip-path="none"
       style="fill:#ffffff;stroke-width:15.2"
       transform="matrix(1.5624999,0,0,1.5624999,2.1066281e-7,2.1222835e-6)"
       d="M 0,0 H 135.46666 V 135.46666 H 0 Z" /><path
       style="fill:#000000;filter:url(#filter16)"
       d="m 25.576388,102.74652 c -0.09701,-0.097 -0.176389,-5.751314 -0.176389,-12.565115 V 77.792677 L 12.898437,77.723941 0.39687498,77.655204 V 67.73333 57.811455 L 12.898437,57.742719 25.399999,57.673982 V 45.150511 32.627039 l 4.564062,-0.173128 c 2.510234,-0.09522 7.200464,-0.173492 10.422734,-0.173937 5.098751,-7.04e-4 5.879502,0.05348 6.01927,0.417706 0.08833,0.230183 0.160599,5.871781 0.160599,12.536884 v 12.11837 l 1.785938,0.192251 c 0.982265,0.105738 6.548437,0.149374 12.36927,0.09697 l 10.583333,-0.09528 v 10.054166 10.054166 l -12.369271,0.06876 -12.36927,0.06876 v 12.146576 c 0,6.680618 -0.07227,12.334907 -0.160599,12.565097 -0.14262,0.37166 -1.307693,0.41851 -10.406944,0.41851 -5.635489,0 -10.32572,-0.0794 -10.422733,-0.17639 z m 92.030902,-5.217405 c -3.21436,-0.781675 -5.93355,-3.134904 -7.64692,-6.617746 -1.91272,-3.888096 -2.7643,-8.73417 -2.98034,-16.960331 -0.30103,-11.462493 1.32296,-19.028184 4.92887,-22.96209 2.53927,-2.770246 5.2836,-3.894969 9.49227,-3.890253 4.00241,0.0045 6.34385,0.960605 8.72044,3.560972 2.65213,2.901858 4.00229,6.853943 4.83859,14.163246 0.59892,5.23451 0.62984,9.399983 0.10787,14.531111 -0.54131,5.321257 -1.0696,7.881174 -2.23835,10.846336 -1.09868,2.78737 -3.24198,5.193531 -5.76499,6.472037 -2.28515,1.157973 -6.60826,1.549589 -9.45744,0.856718 z m 5.5555,-10.030663 c 1.46671,-1.466709 1.97868,-3.673545 2.27421,-9.802908 0.29811,-6.182792 -0.0405,-14.54853 -0.68711,-16.973672 -0.86909,-3.259763 -2.22536,-4.6075 -4.3027,-4.275637 -2.77126,0.442718 -3.76595,4.581748 -3.76595,15.670638 0,9.318047 0.66359,13.384564 2.50229,15.334147 0.72475,0.768464 1.05172,0.919809 1.98718,0.919809 0.91376,0 1.28015,-0.160453 1.99208,-0.872377 z M 86.783329,80.962496 c 0,-8.876771 -0.0949,-16.139583 -0.210887,-16.139583 -0.115988,0 -0.681534,0.485698 -1.256771,1.079329 -1.578664,1.629146 -3.985858,3.360757 -6.265531,4.507097 -1.124556,0.565487 -2.166353,1.028157 -2.315104,1.028157 -0.314139,0 -0.379261,-10.542602 -0.06797,-11.003314 0.106913,-0.158229 0.968293,-0.669788 1.914178,-1.136797 4.369011,-2.157099 7.472339,-5.768208 9.633145,-11.209367 l 0.394019,-0.992187 h 3.982251 3.982251 v 25.003124 25.003123 h -4.89479 -4.894791 z"
       id="path2"
       clip-path="none"
       transform="matrix(1.5624999,0,0,1.5624999,2.1066281e-7,2.1222835e-6)" /></g></svg>
