<?xml version="1.0" encoding="UTF-8" standalone="no"?>
<!-- Created with Inkscape (http://www.inkscape.org/) -->

<svg
   width="800"
   height="800"
   viewBox="0 0 211.66667 211.66667"
   version="1.1"
   id="svg1"
   xml:space="preserve"
   xmlns="http://www.w3.org/2000/svg"
   xmlns:svg="http://www.w3.org/2000/svg"><defs
     id="defs1"><filter
       style="color-interpolation-filters:sRGB"
       id="filter13"
       x="-0.2413515"
       y="-0.62543377"
       width="1.482703"
       height="2.2508675"><feGaussianBlur
         stdDeviation="6"
         in="SourceGraphic"
         result="result0"
         id="feGaussianBlur10" /><feDiffuseLighting
         lighting-color="#ffffff"
         diffuseConstant="1"
         surfaceScale="4"
         result="result5"
         id="feDiffuseLighting10"><feDistantLight
           elevation="45"
           azimuth="235"
           id="feDistantLight10" /></feDiffuseLighting><feComposite
         k1="1.4"
         in2="SourceGraphic"
         in="result5"
         result="fbSourceGraphic"
         operator="arithmetic"
         id="feComposite11"
         k2="0"
         k3="0"
         k4="0" /><feGaussianBlur
         result="result0"
         in="fbSourceGraphic"
         stdDeviation="6"
         id="feGaussianBlur11" /><feSpecularLighting
         specularExponent="25"
         specularConstant="1"
         surfaceScale="4"
         lighting-color="#ffffff"
         result="result1"
         in="result0"
         id="feSpecularLighting11"><feDistantLight
           azimuth="235"
           elevation="45"
           id="feDistantLight11" /></feSpecularLighting><feComposite
         k3="1"
         k2="1"
         operator="arithmetic"
         in="fbSourceGraphic"
         in2="result1"
         result="result4"
         id="feComposite12"
         k1="0"
         k4="0" /><feComposite
         operator="in"
         result="result2"
         in2="SourceGraphic"
         in="result4"
         id="feComposite13" /><feGaussianBlur
         stdDeviation="1"
         id="feGaussianBlur1" /><feComposite
         id="feComposite1"
         in2="SourceGraphic"
         operator="atop" /></filter></defs><g
     id="layer1"
     transform="translate(-37.203808,-80.76667)"><path
       id="rect2"
       clip-path="none"
       style="fill:#ffffff;stroke-width:0.264583;stroke-linecap:round;stroke-linejoin:round"
       transform="matrix(1.5624999,0,0,1.5624999,-20.927139,-45.431246)"
       d="M 37.203808,80.76667 H 172.67048 V 216.23335 H 37.203808 Z" /><g
       aria-label="NW"
       transform="matrix(1.5624999,0,0,1.5624999,-20.927139,-45.431246)"
       id="text1"
       clip-path="none"
       style="font-weight:900;font-size:28.9278px;font-family:Arial;-inkscape-font-specification:'Arial Heavy';display:inline;stroke-width:0.114182;stroke-linecap:round;stroke-linejoin:round"><path
         d="m 43.842026,177.30502 h 5.974833 l 7.796946,11.4553 v -11.4553 h 6.031333 v 20.70711 h -6.031333 l -7.754571,-11.37055 v 11.37055 h -6.017208 z"
         id="path25" /><path
         d="m 65.763873,177.30502 h 6.073708 l 2.18936,11.5683 3.192228,-11.5683 h 6.059583 l 3.206352,11.5683 2.18936,-11.5683 h 6.045458 l -4.562343,20.70711 h -6.271457 l -3.6301,-13.03728 -3.615974,13.03728 h -6.271457 z"
         id="path27" /></g><g
       aria-label="西北"
       transform="matrix(1.5624999,0,0,1.5624999,-20.927139,-45.431246)"
       id="text2"
       clip-path="none"
       style="font-size:35.6829px;font-family:'Microsoft YaHei';-inkscape-font-specification:'Microsoft YaHei';display:inline;stroke-width:0.105363;stroke-linecap:round;stroke-linejoin:round"><path
         d="m 130.99084,175.01066 v 22.4412 h -2.78773 v -2.64834 h -22.02304 v 2.64834 h -2.78772 v -22.4412 h 8.64195 v -5.85423 h -10.59336 v -2.64834 h 31.50131 v 2.64834 h -10.45398 v 5.85423 z m -11.29029,-5.85423 h -4.87852 v 5.85423 h 4.87852 z m -13.52048,22.99875 h 22.02304 v -5.43607 l -2.23018,0.13939 q -4.18159,0 -5.15729,-0.55755 -1.11509,-0.83632 -1.11509,-2.78773 V 177.659 h -4.87852 q 0,6.27238 -6.27239,9.89643 l -1.67263,-2.64834 q 5.15729,-2.78773 5.15729,-7.24809 h -5.85423 z m 16.3082,-14.49618 v 5.15729 q 0,0.83632 0.55755,1.11509 0.55754,0.13939 2.92711,0.13939 l 2.23018,-0.13939 V 177.659 Z"
         id="path30" /><path
         d="m 146.74149,165.67177 h 2.78773 v 31.36193 h -2.78773 v -7.66625 q -3.90281,2.78773 -8.64195,4.87852 l -1.11509,-3.0665 q 5.29668,-2.36957 9.75704,-5.15729 v -9.47827 h -9.33888 v -2.78773 h 9.33888 z m 8.2238,0 h 2.78772 v 10.45398 q 4.73914,-2.36957 8.92073,-5.43607 l 1.81202,2.50896 q -4.87852,3.48465 -10.73275,5.99361 v 13.52047 q 0,1.11509 3.90282,1.11509 2.64834,0 3.20589,-0.27877 0.55754,-0.41816 0.83631,-1.39386 0.27878,-0.97571 0.41816,-4.87852 l 2.92712,0.83631 q -0.13939,5.43607 -1.25448,6.82993 -1.11509,1.53325 -6.133,1.53325 -4.32097,0 -5.57545,-0.69693 -1.11509,-0.55754 -1.11509,-2.09079 z"
         id="path32" /></g><path
       style="fill:#000000;filter:url(#filter13)"
       d="m 141.84651,147.80852 c -4.7805,-0.69309 -7.97742,-2.06896 -10.32469,-4.44346 -2.81743,-2.85013 -4.0951,-6.08718 -4.0951,-10.3752 0,-5.07383 1.98311,-8.58133 6.19613,-10.95901 0.81223,-0.4584 1.47679,-0.8703 1.47679,-0.91534 0,-0.045 -0.51287,-0.38245 -1.1397,-0.7498 -1.4051,-0.82344 -3.133,-2.66614 -3.88828,-4.14662 -1.14502,-2.24443 -1.47815,-5.8364 -0.78556,-8.47021 0.29706,-1.12964 1.88075,-3.81715 2.85474,-4.84445 2.08513,-2.19926 6.12668,-4.115131 9.93782,-4.710965 2.85391,-0.446179 9.84452,-0.142484 12.46785,0.541644 5.77232,1.505341 9.3337,4.716701 10.5889,9.548231 1.07161,4.12479 -0.57505,8.74838 -4.12827,11.59165 l -1.52382,1.21936 1.55221,1.01421 c 6.30344,4.11867 7.82581,12.20817 3.55415,18.88585 -1.99032,3.11137 -4.89478,5.08117 -9.11713,6.18323 -1.88647,0.49238 -3.10186,0.5998 -7.54062,0.66647 -2.91042,0.0437 -5.64886,0.0277 -6.08542,-0.0356 z m 7.80172,-8.70408 c 4.05146,-2.12348 4.93789,-8.30706 1.68878,-11.78062 -1.82081,-1.94659 -3.90115,-2.51518 -6.21609,-1.69893 -4.38733,1.54696 -5.68443,8.40709 -2.26583,11.98362 1.91527,2.00376 4.66777,2.60989 6.79314,1.49593 z m 0.84676,-22.93482 c 1.34398,-1.02512 1.92303,-2.37565 1.9139,-4.46383 -0.009,-2.00444 -0.61046,-3.23358 -2.16235,-4.41726 -0.78008,-0.595 -1.27014,-0.73544 -2.84335,-0.81489 -2.71143,-0.13692 -4.17667,0.65062 -5.28778,2.84209 -0.69306,1.36694 -0.47087,4.12501 0.44364,5.50693 1.06452,1.6086 2.53323,2.23746 4.99661,2.13943 1.69883,-0.0676 2.14766,-0.18862 2.93933,-0.79247 z M 37.732974,135.82741 c 0,-0.13045 0.446485,-0.62246 0.992188,-1.09337 0.545703,-0.4709 2.486476,-2.29894 4.31283,-4.0623 1.826353,-1.76336 7.541352,-7.25274 12.699999,-12.19861 5.158646,-4.94587 11.764323,-11.34548 14.679281,-14.22135 2.914958,-2.87587 5.422218,-5.228861 5.571689,-5.228861 0.42488,0 38.208589,36.392681 38.208589,36.801911 0,0.14218 -15.560579,0.23975 -38.232286,0.23975 -22.366294,0 -38.23229,-0.0984 -38.23229,-0.23717 z"
       id="path10"
       clip-path="none"
       transform="matrix(1.5624999,0,0,1.5624999,-20.927139,-45.431246)" /></g></svg>
