<?xml version="1.0" encoding="UTF-8" standalone="no"?>
<!-- Created with Inkscape (http://www.inkscape.org/) -->

<svg
   width="800"
   height="800"
   viewBox="0 0 211.66667 211.66667"
   version="1.1"
   id="svg1"
   xml:space="preserve"
   xmlns="http://www.w3.org/2000/svg"
   xmlns:svg="http://www.w3.org/2000/svg"><defs
     id="defs1"><filter
       style="color-interpolation-filters:sRGB"
       id="filter4"
       x="-0.24021068"
       y="-0.61885805"
       width="1.4804214"
       height="2.2377161"><feGaussianBlur
         stdDeviation="6"
         in="SourceGraphic"
         result="result0"
         id="feGaussianBlur2" /><feDiffuseLighting
         lighting-color="#ffffff"
         diffuseConstant="1"
         surfaceScale="4"
         result="result5"
         id="feDiffuseLighting2"><feDistantLight
           elevation="45"
           azimuth="235"
           id="feDistantLight2" /></feDiffuseLighting><feComposite
         k1="1.4"
         in2="SourceGraphic"
         in="result5"
         result="fbSourceGraphic"
         operator="arithmetic"
         id="feComposite2"
         k2="0"
         k3="0"
         k4="0" /><feGaussianBlur
         result="result0"
         in="fbSourceGraphic"
         stdDeviation="6"
         id="feGaussianBlur3" /><feSpecularLighting
         specularExponent="25"
         specularConstant="1"
         surfaceScale="4"
         lighting-color="#ffffff"
         result="result1"
         in="result0"
         id="feSpecularLighting3"><feDistantLight
           azimuth="235"
           elevation="45"
           id="feDistantLight3" /></feSpecularLighting><feComposite
         k3="1"
         k2="1"
         operator="arithmetic"
         in="fbSourceGraphic"
         in2="result1"
         result="result4"
         id="feComposite3"
         k1="0"
         k4="0" /><feComposite
         operator="in"
         result="result2"
         in2="SourceGraphic"
         in="result4"
         id="feComposite4" /><feGaussianBlur
         stdDeviation="1"
         id="feGaussianBlur1" /><feComposite
         id="feComposite1"
         in2="SourceGraphic"
         operator="atop" /></filter></defs><g
     id="layer1"
     transform="translate(-37.203808,-80.76667)"><path
       id="rect2"
       clip-path="none"
       style="fill:#ffffff;stroke-width:0.264583;stroke-linecap:round;stroke-linejoin:round"
       transform="matrix(1.5624999,0,0,1.5624999,-20.927139,-45.431246)"
       d="M 37.203808,80.76667 H 172.67048 V 216.23335 H 37.203808 Z" /><path
       style="fill:#000000;filter:url(#filter4)"
       d="m 143.83089,147.7065 c -5.80442,-0.56908 -9.45388,-2.0304 -12.07049,-4.83328 -1.70099,-1.82208 -3.04292,-4.30591 -3.50683,-6.49093 -0.36737,-1.73032 -0.37661,-5.60776 -0.0171,-7.1673 0.71091,-3.0837 2.76014,-5.734 5.75106,-7.43791 0.89404,-0.50932 1.62906,-1.00089 1.63338,-1.09238 0.004,-0.0915 -0.36965,-0.32271 -0.83107,-0.51384 -0.46142,-0.19112 -1.51088,-1.00924 -2.33212,-1.81803 -4.03818,-3.97694 -4.18805,-11.02658 -0.32403,-15.24163 3.66419,-3.997088 8.16839,-5.675781 15.22899,-5.675781 9.03462,0 15.02047,2.706111 17.60065,7.956971 2.57497,5.24028 1.05717,10.77539 -4.04109,14.737 -0.42239,0.32822 -0.72005,0.62723 -0.66145,0.66446 3.52853,2.24188 4.95467,3.71251 6.25455,6.44969 0.83157,1.75105 0.96143,2.30465 1.07013,4.562 0.14886,3.09136 -0.1767,4.7817 -1.41801,7.36249 -1.68391,3.501 -4.6938,6.1063 -8.44597,7.31067 -3.46536,1.11232 -9.56728,1.65167 -13.89062,1.2278 z m 6.58214,-8.97954 c 1.08896,-0.55554 2.14813,-1.66826 2.87925,-3.02482 0.332,-0.61601 0.44816,-1.50601 0.45342,-3.47401 0.006,-2.41211 -0.0568,-2.75439 -0.71535,-3.87472 -1.76073,-2.99514 -5.17037,-4.25275 -7.83899,-2.89132 -1.29963,0.66302 -2.7899,2.32716 -3.24413,3.6226 -0.59554,1.69847 -0.46256,5.03362 0.25982,6.51617 1.58808,3.25924 5.22741,4.64566 8.20598,3.1261 z m -0.29948,-22.38392 c 2.02301,-0.84527 2.97775,-2.41142 2.97775,-4.8847 0,-2.62952 -1.70286,-5.04115 -3.84306,-5.44266 -4.02035,-0.75422 -7.01411,1.46808 -6.99904,5.19546 0.0101,2.49887 1.46907,4.6257 3.615,5.26982 1.21072,0.36341 3.20437,0.2987 4.24935,-0.13792 z M 72.922556,136.8006 c -1.67349,-1.62752 -4.233333,-4.09858 -5.688541,-5.49125 -1.455209,-1.39266 -6.098646,-5.87078 -10.31875,-9.95137 -4.220104,-4.0806 -10.262525,-9.90687 -13.427603,-12.94727 -3.165078,-3.04041 -5.754686,-5.65232 -5.754683,-5.80426 3e-6,-0.19095 11.857451,-0.2569 38.405156,-0.21362 21.122833,0.0344 38.448545,0.10602 38.501595,0.15907 0.1767,0.1767 -38.139101,37.2209 -38.489728,37.21234 -0.101606,-0.002 -1.553957,-1.33612 -3.227446,-2.96364 z"
       id="path1"
       clip-path="none"
       transform="matrix(1.5624999,0,0,1.5624999,-20.927139,-45.431246)" /><g
       aria-label="SW"
       transform="matrix(1.5624999,0,0,1.5624999,-20.927139,-45.431246)"
       id="text1"
       clip-path="none"
       style="font-weight:900;font-size:28.9278px;font-family:Arial;-inkscape-font-specification:'Arial Heavy';stroke-width:0.114182;stroke-linecap:round;stroke-linejoin:round"><path
         d="m 42.919326,191.13964 6.087833,-0.38137 q 0.197749,1.48311 0.805119,2.25998 0.988743,1.25712 2.824981,1.25712 1.370115,0 2.10461,-0.63562 0.74862,-0.64975 0.74862,-1.49724 0,-0.80512 -0.706245,-1.44074 -0.706245,-0.63562 -3.276977,-1.20062 -4.209221,-0.94637 -6.003084,-2.51423 -1.807987,-1.56786 -1.807987,-3.99735 0,-1.59611 0.918118,-3.0086 0.932244,-1.42662 2.782606,-2.23174 1.864487,-0.81924 5.09909,-0.81924 3.969097,0 6.045458,1.48311 2.090485,1.46899 2.485982,4.68947 l -6.031333,0.35312 q -0.240123,-1.39836 -1.016993,-2.03398 -0.762744,-0.63562 -2.118735,-0.63562 -1.115867,0 -1.680863,0.48025 -0.564996,0.46612 -0.564996,1.14411 0,0.49437 0.466121,0.88987 0.451997,0.40962 2.146986,0.76275 4.195095,0.90399 6.003083,1.83623 1.822112,0.91812 2.641357,2.28824 0.833369,1.37011 0.833369,3.0651 0,1.99161 -1.101743,3.67248 -1.101742,1.68086 -3.079228,2.5566 -1.977486,0.86162 -4.986091,0.86162 -5.282713,0 -7.316699,-2.03398 -2.033986,-2.03399 -2.302359,-5.16972 z"
         id="path25" /><path
         d="m 62.793063,177.28311 h 6.073708 l 2.18936,11.5683 3.192228,-11.5683 h 6.059583 l 3.206352,11.5683 2.18936,-11.5683 h 6.045458 l -4.562343,20.70711 h -6.271457 l -3.630099,-13.03729 -3.615975,13.03729 h -6.271457 z"
         id="path27" /></g><g
       aria-label="西南"
       transform="matrix(1.5624999,0,0,1.5624999,-20.927139,-45.431246)"
       id="text2"
       clip-path="none"
       style="font-size:35.6829px;font-family:'Microsoft YaHei';-inkscape-font-specification:'Microsoft YaHei';stroke-width:0.105363;stroke-linecap:round;stroke-linejoin:round"><path
         d="m 131.59588,174.89605 v 22.4412 h -2.78773 v -2.64834 h -22.02304 v 2.64834 h -2.78772 v -22.4412 h 8.64195 v -5.85423 h -10.59336 v -2.64834 h 31.50131 v 2.64834 h -10.45397 v 5.85423 z m -11.29029,-5.85423 h -4.87852 v 5.85423 h 4.87852 z m -13.52048,22.99875 h 22.02304 v -5.43607 l -2.23018,0.13939 q -4.18159,0 -5.15729,-0.55755 -1.11509,-0.83632 -1.11509,-2.78772 v -5.85423 h -4.87852 q 0,6.27238 -6.27239,9.89643 l -1.67263,-2.64834 q 5.15729,-2.78773 5.15729,-7.24809 h -5.85423 z m 16.30821,-14.49618 v 5.15729 q 0,0.83632 0.55754,1.11509 0.55755,0.13939 2.92711,0.13939 l 2.23018,-0.13939 v -6.27238 z"
         id="path30" /><path
         d="m 137.45011,168.62367 h 14.63556 v -3.34528 h 2.78773 v 3.34528 h 14.63556 v 2.64834 H 154.8734 v 3.34527 h 12.54477 v 19.09592 q 0,3.48466 -3.90282,3.48466 l -4.0422,-0.27877 -0.69694,-2.78773 4.59975,0.27878 q 1.39387,0 1.39387,-1.39387 v -15.89004 h -22.85936 v 20.21102 h -2.64834 v -22.71997 h 12.82354 v -3.34527 h -14.63556 z m 11.56906,9.19949 q 1.81202,1.95141 2.92711,4.04221 h 3.34528 l 1.9514,-4.18159 2.78773,0.69693 -1.81202,3.48466 h 4.32098 v 2.50895 h -7.80564 v 3.0665 h 8.64195 v 2.50895 h -8.64195 v 5.85423 h -2.64834 v -5.85423 h -8.78134 v -2.50895 h 8.78134 v -3.0665 h -7.80563 v -2.50895 h 4.73913 l -2.23018,-2.64834 z"
         id="path32" /></g></g></svg>
