<?xml version="1.0" encoding="UTF-8" standalone="no"?>
<!-- Created with Inkscape (http://www.inkscape.org/) -->

<svg
   width="800"
   height="800"
   viewBox="0 0 211.66667 211.66667"
   version="1.1"
   id="svg1"
   xml:space="preserve"
   xmlns="http://www.w3.org/2000/svg"
   xmlns:svg="http://www.w3.org/2000/svg"><defs
     id="defs1"><filter
       style="color-interpolation-filters:sRGB"
       id="filter3"
       x="-0.23223392"
       y="-0.39451542"
       width="1.4644678"
       height="1.7890308"><feGaussianBlur
         stdDeviation="6"
         in="SourceGraphic"
         result="result0"
         id="feGaussianBlur1" /><feDiffuseLighting
         lighting-color="#ffffff"
         diffuseConstant="1"
         surfaceScale="4"
         result="result5"
         id="feDiffuseLighting1"><feDistantLight
           elevation="45"
           azimuth="235"
           id="feDistantLight1" /></feDiffuseLighting><feComposite
         k1="1.4"
         in2="SourceGraphic"
         in="result5"
         result="fbSourceGraphic"
         operator="arithmetic"
         id="feComposite1"
         k2="0"
         k3="0"
         k4="0" /><feGaussianBlur
         result="result0"
         in="fbSourceGraphic"
         stdDeviation="6"
         id="feGaussianBlur2" /><feSpecularLighting
         specularExponent="25"
         specularConstant="1"
         surfaceScale="4"
         lighting-color="#ffffff"
         result="result1"
         in="result0"
         id="feSpecularLighting2"><feDistantLight
           azimuth="235"
           elevation="45"
           id="feDistantLight2" /></feSpecularLighting><feComposite
         k3="1"
         k2="1"
         operator="arithmetic"
         in="fbSourceGraphic"
         in2="result1"
         result="result4"
         id="feComposite2"
         k1="0"
         k4="0" /><feComposite
         operator="in"
         result="result2"
         in2="SourceGraphic"
         in="result4"
         id="feComposite3" /><feGaussianBlur
         stdDeviation="1"
         id="feGaussianBlur3" /><feComposite
         id="feComposite4"
         in2="SourceGraphic"
         operator="atop" /></filter></defs><g
     id="layer1"
     transform="translate(-37.418404,-80.76667)"><path
       id="rect2"
       clip-path="none"
       style="fill:#ffffff;stroke-width:0.264583;stroke-linecap:round;stroke-linejoin:round"
       transform="matrix(1.5624999,0,0,1.5624999,-21.047849,-45.431246)"
       d="M 37.418404,80.76667 H 172.88508 V 216.23335 H 37.418404 Z" /><path
       style="fill:#000000;filter:url(#filter3)"
       d="m 38.212154,187.59021 c 0,-0.17597 0.684609,-0.95872 1.521354,-1.73946 4.167653,-3.88868 7.505061,-7.05347 10.091452,-9.5695 1.5707,-1.52797 3.797331,-3.67214 4.948068,-4.76481 4.825048,-4.58161 15.072218,-14.46241 19.272418,-18.58338 l 4.515664,-4.43048 -4.365625,-4.24811 c -2.401094,-2.33647 -5.615781,-5.41812 -7.14375,-6.84813 -1.527968,-1.43 -4.220053,-4.01354 -5.982411,-5.74119 -1.762358,-1.72766 -4.389219,-4.27228 -5.83747,-5.65473 -1.448251,-1.38245 -5.483197,-5.26759 -8.966546,-8.63364 -3.48335,-3.36605 -6.720316,-6.47968 -7.193259,-6.91917 -1.838228,-1.70822 -4.8879,-1.5844 39.306408,-1.59587 23.720993,-0.006 40.322333,0.0882 40.547393,0.23057 0.39714,0.25114 -2.49687,3.18647 -13.94098,14.13998 -2.73669,2.61938 -7.12269,6.85177 -9.746659,9.40531 -2.623968,2.55354 -5.708687,5.5301 -6.85493,6.61458 -1.146242,1.08448 -3.765617,3.60013 -5.820833,5.59033 l -3.736755,3.61855 1.719792,1.63731 c 11.093525,10.56147 10.582178,10.0715 16.970307,16.261 2.403049,2.32834 6.681778,6.45258 9.508288,9.165 10.09377,9.68631 12.21271,11.81936 12.03187,12.11197 -0.27325,0.44213 -80.843796,0.39615 -80.843796,-0.0461 z m 107.023956,-5.86398 c -4.24981,-0.5865 -7.04869,-1.86886 -9.63453,-4.41425 -1.76475,-1.73712 -2.89314,-3.48631 -3.95857,-6.13641 -0.67457,-1.67789 -0.3491,-1.90317 3.14206,-2.17479 0.65484,-0.0509 1.54781,-0.15596 1.98437,-0.23336 0.80188,-0.14218 7.24701,-0.9643 8.17452,-1.04272 0.37046,-0.0313 0.61267,0.26888 0.92639,1.14822 1.09548,3.07054 2.32948,4.09794 4.92201,4.09794 1.22229,0 1.83097,-0.14953 2.64583,-0.65001 1.6856,-1.03526 2.2993,-1.88534 3.03265,-4.20076 0.80082,-2.5284 1.47899,-8.24354 0.97816,-8.24317 -0.12239,9e-5 -0.69882,0.40785 -1.28095,0.90614 -1.65294,1.41485 -4.38432,2.72525 -6.41905,3.07958 -2.62543,0.4572 -6.74929,0.18802 -8.74623,-0.5709 -3.25356,-1.23649 -6.15879,-3.52335 -8.03539,-6.32507 -0.91511,-1.36626 -1.13771,-1.78543 -1.82655,-3.43959 -1.03369,-2.48229 -1.32352,-7.79154 -0.60663,-11.1125 0.55619,-2.5765 2.45444,-6.06326 4.36953,-8.02606 1.4699,-1.50651 3.81179,-3.35102 4.25465,-3.35102 0.0973,0 0.5521,-0.17056 1.01066,-0.37903 1.62892,-0.74055 3.35553,-1.19829 6.02621,-1.59762 3.10451,-0.46419 5.09211,-0.50857 7.13267,-0.15926 5.79975,0.99285 5.33296,0.86342 8.39514,2.32774 1.11498,0.53317 2.61134,1.55154 3.5313,2.40325 1.52755,1.41425 3.66195,4.21123 3.66195,4.79874 0,0.1535 0.091,0.2791 0.20217,0.2791 0.21925,0 0.92575,1.47347 1.71265,3.57187 2.22878,5.94342 2.29661,18.62558 0.13657,25.53229 -1.33314,4.26267 -3.63098,7.65196 -6.77615,9.99472 -0.53008,0.39484 -1.02331,0.79188 -1.09607,0.8823 -0.20034,0.24896 -2.18423,1.22388 -3.73189,1.83391 -3.33927,1.31621 -9.49788,1.83965 -14.12748,1.20072 z m 7.48005,-27.01505 c 1.79198,-0.53216 2.86531,-1.4774 3.72279,-3.2785 0.64113,-1.34667 0.70341,-1.76045 0.70341,-4.67379 0,-3.00098 -0.0468,-3.28884 -0.76618,-4.71025 -0.7666,-1.51475 -2.23939,-2.93679 -3.67804,-3.55129 -0.99326,-0.42425 -3.70438,-0.40107 -4.75855,0.0407 -1.13314,0.47485 -2.50173,1.65185 -2.96707,2.5517 -0.43388,0.83905 -1.19109,4.26797 -1.19141,5.3952 -2.1e-4,0.74874 0.18959,1.61289 0.93822,4.27167 0.46278,1.64358 1.88813,3.11246 3.7108,3.82412 1.59918,0.62441 2.52758,0.65267 4.28603,0.13046 z"
       id="path1"
       clip-path="none"
       transform="matrix(1.5624999,0,0,1.5624999,-21.047849,-45.431246)" /></g></svg>
