<?xml version="1.0" encoding="UTF-8" standalone="no"?>
<!-- Created with Inkscape (http://www.inkscape.org/) -->

<svg
   width="800"
   height="800"
   viewBox="0 0 211.66666 211.66666"
   version="1.1"
   id="svg1"
   xml:space="preserve"
   xmlns="http://www.w3.org/2000/svg"
   xmlns:svg="http://www.w3.org/2000/svg"><defs
     id="defs1"><filter
       style="color-interpolation-filters:sRGB"
       id="filter122"
       x="-0.33289302"
       y="-0.16511516"
       width="1.665786"
       height="1.3302303"><feGaussianBlur
         stdDeviation="6"
         in="SourceGraphic"
         result="result0"
         id="feGaussianBlur120" /><feDiffuseLighting
         lighting-color="#ffffff"
         diffuseConstant="1"
         surfaceScale="4"
         result="result5"
         id="feDiffuseLighting120"><feDistantLight
           elevation="45"
           azimuth="235"
           id="feDistantLight120" /></feDiffuseLighting><feComposite
         k1="1.4"
         in2="SourceGraphic"
         in="result5"
         result="fbSourceGraphic"
         operator="arithmetic"
         id="feComposite120"
         k2="0"
         k3="0"
         k4="0" /><feGaussianBlur
         result="result0"
         in="fbSourceGraphic"
         stdDeviation="6"
         id="feGaussianBlur121" /><feSpecularLighting
         specularExponent="15.9070425"
         specularConstant="1"
         surfaceScale="4"
         lighting-color="#ffffff"
         result="result1"
         in="result0"
         id="feSpecularLighting121"><feDistantLight
           azimuth="252"
           elevation="61"
           id="feDistantLight121" /></feSpecularLighting><feComposite
         k3="1"
         k2="1"
         operator="arithmetic"
         in="fbSourceGraphic"
         in2="result1"
         result="result4"
         id="feComposite121"
         k1="0"
         k4="0" /><feComposite
         operator="in"
         result="result2"
         in2="SourceGraphic"
         in="result4"
         id="feComposite122" /><feGaussianBlur
         stdDeviation="1"
         id="feGaussianBlur1" /><feComposite
         id="feComposite1"
         in2="SourceGraphic"
         operator="atop" /></filter></defs><g
     id="layer1"
     transform="translate(0.89619714,-42.666664)"><path
       id="rect122"
       style="display:inline;fill:#ffba00;stroke-width:0.2"
       d="M -0.89619714,42.666664 H 210.77047 V 254.33334 H -0.89619714 Z" /><path
       id="path2"
       style="display:inline;fill:#000000;stroke:none;stroke-width:0.2;filter:url(#filter122)"
       d="m 65.424303,52.178745 c -0.438016,0.124632 -0.741557,0.694563 -0.741557,1.505334 0,0.54255 -0.105435,1.332002 -0.234095,1.753898 -0.128659,0.421898 -0.375476,1.600317 -0.548286,2.618962 -0.411618,2.426307 -0.794252,4.510674 -1.069186,5.820833 -0.21583,1.02851 -0.524387,2.639381 -1.051098,5.490105 -0.141157,0.763983 -0.370136,1.984375 -0.509013,2.711979 -0.138876,0.727603 -0.388751,2.096824 -0.555005,3.042708 -0.166254,0.945885 -0.405163,2.196043 -0.531234,2.778125 -0.126072,0.582083 -0.36616,1.832241 -0.533301,2.778125 -0.167142,0.945885 -0.407179,2.255573 -0.533817,2.910417 -0.126638,0.654843 -0.354963,1.845469 -0.506946,2.645833 -1.120669,5.901615 -1.359932,7.148444 -1.573547,8.202083 -0.332748,1.641241 -0.875599,4.532867 -1.614889,8.598963 -0.462843,2.54564 -0.830346,4.46642 -1.062467,5.55625 -0.123976,0.58209 -0.362026,1.83223 -0.529167,2.77812 -0.167141,0.94589 -0.407181,2.25557 -0.533818,2.91042 -0.126637,0.65484 -0.354963,1.84547 -0.506945,2.64583 -1.27116,6.69412 -1.825299,9.53977 -2.138888,10.98021 -0.704292,3.23509 -0.772273,4.46105 -0.252181,4.5651 0.345734,0.0692 2.051374,-1.06298 9.124508,-6.057 0.727604,-0.51373 4.562313,-3.21959 8.52196,-6.01307 3.959647,-2.79348 7.271067,-5.19459 7.358207,-5.33559 0.08714,-0.141 0.32981,-0.25632 0.539502,-0.25632 0.45218,0 0.510018,1.5118 0.142111,3.72174 -0.131636,0.79071 -0.375931,2.6878 -0.542603,4.21576 -0.166672,1.52797 -0.411103,3.55203 -0.543119,4.49792 -0.132016,0.94589 -0.363971,2.76159 -0.515731,4.0349 -0.590556,4.95492 -0.841065,7.015 -1.069702,8.79739 -0.130667,1.01865 -0.365188,2.89379 -0.520899,4.16667 -0.618875,5.05909 -0.81228,6.63185 -1.05885,8.59948 -0.141328,1.12778 -0.385573,3.12208 -0.542602,4.43177 -0.157031,1.30969 -0.392704,3.21469 -0.523483,4.23333 -0.130777,1.01865 -0.368792,2.92365 -0.529166,4.23334 -0.160375,1.30967 -0.39972,3.21468 -0.531751,4.23333 -0.13203,1.01865 -0.368372,2.98319 -0.525032,4.36562 -0.156661,1.38245 -0.393039,3.28745 -0.52555,4.23334 -0.13251,0.94588 -0.359262,2.67229 -0.503845,3.83646 -0.144583,1.16415 -0.406309,3.14671 -0.581876,4.40541 -0.175572,1.2587 -0.242322,2.4887 -0.148312,2.73368 0.382969,0.998 1.173255,-0.005 1.767851,-2.2443 0.173901,-0.65485 0.408928,-1.48828 0.522449,-1.85209 0.11352,-0.3638 0.44791,-1.49489 0.743107,-2.51354 0.903522,-3.11781 3.009416,-10.22008 3.49126,-11.77396 0.202706,-0.6537 0.854563,-2.88227 1.896008,-6.48229 0.294683,-1.01864 0.628228,-2.14974 0.74104,-2.51354 0.26275,-0.84733 1.16206,-3.87504 1.807641,-6.08542 1.027275,-3.51722 1.678512,-5.70725 1.888257,-6.35 0.118719,-0.3638 0.347836,-1.1377 0.509013,-1.71979 0.161177,-0.58208 0.524319,-1.83224 0.806669,-2.77812 0.282352,-0.94589 0.882059,-2.96995 1.332735,-4.49792 0.450676,-1.52797 1.050094,-3.55203 1.332219,-4.49792 0.282126,-0.94587 0.767092,-2.61276 1.07797,-3.70416 0.310878,-1.09141 0.662758,-2.28203 0.781865,-2.64584 0.260837,-0.79671 1.219065,-4.00404 1.580782,-5.29166 0.143079,-0.50933 0.49942,-1.72972 0.791683,-2.71198 0.292262,-0.98227 0.770205,-2.58961 1.062467,-3.57188 0.292263,-0.98226 0.666711,-2.26219 0.831991,-2.84427 0.165281,-0.58208 0.473261,-1.59411 0.684196,-2.24896 0.210934,-0.65484 0.599321,-1.96453 0.863513,-2.91041 0.264191,-0.94589 0.85806,-2.96995 1.319816,-4.49792 0.85767,-2.83806 1.10019,-3.66323 1.553393,-5.29167 0.141748,-0.50932 0.634505,-2.176195 1.095024,-3.704163 0.460519,-1.527967 0.93677,-3.135312 1.058333,-3.571875 0.121564,-0.436561 0.597815,-2.043907 1.058334,-3.571875 0.460518,-1.527967 0.936768,-3.135313 1.058333,-3.571875 0.121564,-0.436562 0.594723,-2.043907 1.051611,-3.571875 1.69887,-5.681462 1.86633,-6.451134 1.48725,-6.832657 -0.28837,-0.290218 -0.63758,-0.111178 -2.038633,1.04438 -0.929955,0.767005 -1.750385,1.463163 -1.823145,1.547193 -0.07276,0.08403 -2.33495,1.990689 -5.027083,4.236434 -2.692132,2.245744 -4.954323,4.152437 -5.027083,4.237467 -0.07276,0.08503 -1.620575,1.394971 -3.439584,2.910933 -1.819009,1.515963 -3.366823,2.820805 -3.439583,2.899565 -0.07276,0.07876 -0.69473,0.595246 -1.382344,1.147734 -0.687614,0.552487 -1.40199,1.150689 -1.5875,1.329634 -0.18551,0.178944 -1.825731,1.567462 -3.644739,3.0856 -1.819009,1.518136 -3.366824,2.8249 -3.439584,2.9037 -0.827601,0.89587 -6.105828,5.03793 -6.419763,5.03793 -0.13287,0 -0.169045,-0.44648 -0.08061,-0.99218 0.08843,-0.54571 0.282221,-4.80219 0.430465,-9.458858 0.148244,-4.656662 0.38223,-11.621826 0.520381,-15.478125 0.138152,-3.856298 0.366954,-10.7024 0.50798,-15.213541 0.141027,-4.511142 0.334911,-9.182708 0.430981,-10.381279 0.150162,-1.873387 0.113887,-2.202302 -0.256832,-2.344559 -0.16957,-0.06507 -0.330451,-0.07307 -0.476456,-0.03152 z m -8.707996,0.778764 c -0.266659,-0.05293 -0.528909,0.191981 -0.701249,0.655257 -0.43786,1.177035 -1.806096,4.929033 -2.947624,8.082194 -0.276583,0.763983 -0.871895,2.371329 -1.322917,3.571875 -0.451021,1.200546 -1.189189,3.165079 -1.64021,4.365625 -0.451021,1.200546 -1.046334,2.807892 -1.322916,3.571875 -1.059777,2.927346 -1.620416,4.450856 -1.825729,4.960937 -0.117147,0.291041 -0.450788,1.184011 -0.741556,1.984375 -0.634501,1.74651 -2.134383,5.742617 -2.432927,6.482292 -0.117469,0.291041 -0.451305,1.184011 -0.742073,1.984375 -0.29077,0.800363 -0.909631,2.467241 -1.37511,3.704167 -0.465481,1.236925 -1.072689,2.874037 -1.349272,3.638021 -1.528185,4.221198 -1.769935,4.863578 -2.341459,6.217708 -0.138192,0.32742 -0.424543,1.13109 -0.636137,1.78594 -0.336156,1.04033 -1.37982,3.84066 -2.021582,5.42396 -0.117968,0.29105 -0.452338,1.18401 -0.743107,1.98437 -0.29077,0.80036 -0.897733,2.43747 -1.348755,3.63802 -0.451021,1.20055 -1.189189,3.16508 -1.64021,4.36563 -0.451021,1.20054 -1.057985,2.83765 -1.348755,3.63802 -0.290769,0.80036 -0.629954,1.69333 -0.753959,1.98437 -0.124005,0.29104 -0.398704,1.06495 -0.610299,1.71979 -0.367404,1.13705 -1.497863,4.15213 -2.083077,5.55625 -0.499878,1.19939 -0.689247,1.70031 -1.351855,3.57188 -0.360641,1.01864 -1.024251,2.83436 -1.474329,4.03489 -0.450076,1.20055 -1.186515,3.16508 -1.636592,4.36563 -0.450078,1.20055 -1.113171,3.01625 -1.473812,4.0349 -0.360641,1.01863 -0.766588,2.11997 -0.901754,2.44739 -0.50481,1.22283 -0.73789,1.82653 -1.303796,3.37344 -0.319415,0.87312 -0.682148,1.82562 -0.806153,2.11667 -0.124004,0.29104 -0.398703,1.06494 -0.610298,1.71979 -0.211595,0.65484 -0.705601,2.02406 -1.097608,3.04271 -0.392005,1.01863 -1.058156,2.77481 -1.480529,3.9026 -0.422374,1.12779 -1.136996,3.03279 -1.588017,4.23333 -0.451021,1.20055 -1.057985,2.83766 -1.348755,3.63802 -0.290769,0.80037 -0.62441,1.69334 -0.741557,1.98438 -0.117148,0.29104 -0.474335,1.24354 -0.79375,2.11667 -0.3194141,0.87311 -0.6754488,1.82562 -0.7911661,2.11666 -1.0158109,2.55488 -1.3255005,3.42846 -1.3255005,3.73931 0,0.78599 0.5719667,0.5896 10.3187496,-3.54449 8.434937,-3.57766 9.659742,-4.11287 9.976136,-4.35839 0.690956,-0.53618 0.941758,0.0933 0.750858,1.88464 -0.102572,0.96251 -0.298443,3.5357 -0.435115,5.71852 -0.234738,3.74904 -0.428263,6.65409 -1.022677,15.34583 -0.139327,2.03729 -0.381306,5.60917 -0.537952,7.9375 -0.156645,2.32833 -0.39914,5.90021 -0.538468,7.9375 -0.139327,2.03729 -0.370204,5.43057 -0.513147,7.54062 -0.142944,2.11005 -0.376234,5.50334 -0.518831,7.54063 -0.780479,11.15064 -0.819899,12.13443 -0.490926,12.33775 0.360942,0.22307 1.003036,-0.20114 1.003039,-0.66249 1e-6,-0.16409 0.340581,-1.36974 0.75706,-2.67943 0.416478,-1.30968 1.003124,-3.21468 1.303279,-4.23333 0.300156,-1.01864 0.920746,-3.10224 1.379244,-4.63021 0.458499,-1.52797 1.079911,-3.61156 1.380795,-4.63021 0.300883,-1.01864 0.759254,-2.56645 1.019059,-3.43958 0.259806,-0.87312 0.731408,-2.48048 1.047998,-3.57188 0.31659,-1.0914 0.673094,-2.28203 0.7922,-2.64583 0.260838,-0.79671 1.219064,-4.00406 1.580782,-5.29167 0.264184,-0.94042 0.628579,-2.16898 2.11925,-7.14375 2.05792,-6.86783 3.163228,-10.57237 3.946529,-13.22916 0.321778,-1.09141 0.68175,-2.28203 0.800468,-2.64584 0.118719,-0.3638 0.347836,-1.1377 0.509013,-1.71979 0.285876,-1.03243 0.475704,-1.67446 2.110982,-7.14375 1.350335,-4.51626 2.419351,-8.12496 2.978113,-10.05416 0.295032,-1.01865 0.63285,-2.14974 0.750859,-2.51355 0.235879,-0.72717 0.886758,-2.89658 2.143538,-7.14375 1.336825,-4.51766 2.370469,-7.96058 2.915584,-9.71258 0.613249,-1.97099 0.64237,-2.68866 0.11834,-2.88975 -0.215841,-0.0828 -2.210141,0.64861 -4.431771,1.62574 -2.221631,0.97714 -4.991531,2.18974 -6.155697,2.69493 -1.164165,0.5052 -2.771511,1.21898 -3.571875,1.58595 -2.549594,1.16901 -5.353602,2.22371 -5.506124,2.07119 -0.135617,-0.13562 0.130051,-1.50785 0.744658,-3.84214 0.22873,-0.86873 0.540373,-2.20407 1.480529,-6.35 0.214494,-0.94589 0.504738,-2.16628 0.644922,-2.71198 0.481055,-1.87264 0.751041,-2.97833 1.017509,-4.16719 0.146774,-0.65484 0.504734,-2.20266 0.795817,-3.43958 0.291084,-1.23693 0.706344,-3.02287 0.922941,-3.96875 0.607742,-2.65401 1.742071,-7.43649 2.008147,-8.46667 0.131546,-0.50932 0.359655,-1.46182 0.506429,-2.11667 0.287819,-1.28411 0.922728,-3.98762 2.019515,-8.59895 0.380726,-1.60072 0.867027,-3.68433 1.08107,-4.63021 0.214043,-0.94589 0.496356,-2.13651 0.627352,-2.64584 0.130996,-0.50932 0.372505,-1.52135 0.536402,-2.248954 0.163897,-0.727605 0.402022,-1.739636 0.529166,-2.248959 0.127144,-0.509322 0.36527,-1.521355 0.529167,-2.248958 0.163897,-0.727603 0.402022,-1.739636 0.529167,-2.248958 0.127145,-0.509323 0.35202,-1.461825 0.499711,-2.116667 0.147691,-0.654843 0.638264,-2.738439 1.090373,-4.630208 0.452107,-1.891769 1.053323,-4.42185 1.335835,-5.622396 1.291272,-5.487284 1.606992,-6.82958 2.115633,-8.995833 0.298976,-1.273307 0.663512,-2.850886 0.810287,-3.50573 0.146775,-0.654842 0.372873,-1.607344 0.502295,-2.116666 0.247946,-0.975751 1.18278,-4.953704 1.585433,-6.746875 0.130705,-0.582084 0.438104,-1.83224 0.683679,-2.778125 0.599795,-2.310254 0.626613,-3.53553 0.07906,-3.644222 z" /><g
       aria-label="Thunderstorm"
       transform="scale(0.68184294,1.4666134)"
       id="text122"
       style="font-size:41.8538px;font-family:'Arial Narrow';-inkscape-font-specification:'Arial Narrow';display:inline;stroke-width:0.136369"><path
         d="m 104.93159,163.1214 v -26.4243 h -8.092829 v -3.5355 h 19.475919 v 3.5355 h -8.1337 v 26.4243 z"
         id="path25" /><path
         d="m 119.15534,163.1214 v -29.9598 h 3.00415 v 10.74956 q 1.0627,-1.49186 2.39106,-2.22757 1.34881,-0.75615 2.96329,-0.75615 2.84066,0 4.47557,1.81884 1.65535,1.79841 1.65535,6.6214 v 13.75372 h -3.00415 v -13.75372 q 0,-2.82022 -1.00139,-4.04641 -1.00138,-1.22618 -2.75891,-1.22618 -1.9619,0 -3.35158,1.5736 -1.36924,1.57361 -1.36924,5.57915 v 11.87356 z"
         id="path27" /><path
         d="m 149.91216,163.1214 v -3.18808 q -1.04226,1.83927 -2.45237,2.75891 -1.41011,0.91964 -3.18808,0.91964 -2.10495,0 -3.59681,-1.124 -1.49186,-1.14444 -2.00277,-2.88154 -0.49048,-1.73709 -0.49048,-4.74125 v -13.44717 h 3.00416 v 12.03706 q 0,3.35157 0.32698,4.49601 0.34742,1.12401 1.24662,1.81884 0.91964,0.67441 2.08452,0.67441 2.16626,0 3.55594,-1.77797 1.18531,-1.53273 1.18531,-5.62002 v -11.62833 h 3.02459 v 21.70349 z"
         id="path29" /><path
         d="m 157.33058,163.1214 v -21.70349 h 2.71805 v 3.0859 q 0.98094,-1.7984 2.39106,-2.67717 1.43055,-0.8992 3.26983,-0.8992 1.43055,0 2.6363,0.57222 1.22618,0.55178 1.96189,1.47142 0.75615,0.89921 1.12401,2.35019 0.36785,1.45099 0.36785,4.45514 v 13.34499 h -3.02459 v -13.20193 q 0,-2.39106 -0.40873,-3.49463 -0.40873,-1.10357 -1.28749,-1.69623 -0.85833,-0.61309 -2.00277,-0.61309 -2.16626,0 -3.45376,1.61448 -1.28749,1.61448 -1.28749,5.53827 v 11.85313 z"
         id="path31" /><path
         d="m 187.96478,163.1214 v -2.73848 q -0.81745,1.5736 -2.10495,2.4115 -1.28749,0.81745 -2.77935,0.81745 -3.14721,0 -5.45653,-2.96328 -2.28888,-2.98372 -2.28888,-8.37893 0,-3.699 1.02182,-6.27399 1.02182,-2.57499 2.71805,-3.82161 1.71666,-1.24662 3.80117,-1.24662 1.49186,0 2.75892,0.79702 1.28749,0.77658 2.12539,2.1867 V 133.1616 h 3.02459 v 29.9598 z m -9.54381,-10.83131 q 0,4.20991 1.45099,6.25355 1.47142,2.04364 3.41288,2.04364 1.92102,0 3.33114,-1.96189 1.41011,-1.9619 1.41011,-5.92657 0,-4.55732 -1.41011,-6.64184 -1.41012,-2.10495 -3.55594,-2.10495 -1.90059,0 -3.26983,2.02321 -1.36924,2.00277 -1.36924,6.31485 z"
         id="path33" /><path
         d="m 207.68594,156.13214 3.10633,0.47004 q -0.77658,3.47419 -2.82022,5.25216 -2.02321,1.75753 -5.02737,1.75753 -3.78073,0 -6.13092,-2.8611 -2.32976,-2.88153 -2.32976,-8.29719 0,-5.62001 2.35019,-8.56286 2.37063,-2.96328 5.98788,-2.96328 3.45375,0 5.76307,2.90197 2.30931,2.90197 2.30931,8.39937 l -0.0204,0.98095 h -13.28368 q 0.18393,3.65812 1.69622,5.51784 1.5123,1.85971 3.67856,1.85971 3.39245,0 4.72082,-4.45514 z m -9.91167,-5.947 h 9.9321 q -0.20436,-2.82023 -1.20575,-4.2099 -1.45098,-2.02321 -3.69899,-2.02321 -2.02321,0 -3.45376,1.69622 -1.43055,1.67579 -1.5736,4.53689 z"
         id="path35" /><path
         d="m 214.59345,163.1214 v -21.70349 h 2.71804 v 3.29027 q 1.04226,-2.28888 1.90059,-3.02459 0.87877,-0.75615 1.9619,-0.75615 1.51229,0 3.0859,1.18531 l -1.02182,3.41289 q -1.12401,-0.79703 -2.1867,-0.79703 -0.96051,0 -1.75753,0.67441 -0.79702,0.6744 -1.12401,1.88015 -0.57222,2.10495 -0.57222,4.47558 v 11.36265 z"
         id="path37" /><path
         d="m 224.87297,156.64305 2.98371,-0.57222 q 0.26568,2.28888 1.45099,3.41288 1.18531,1.10357 3.14721,1.10357 1.9619,0 3.02459,-0.96051 1.08313,-0.98095 1.08313,-2.47281 0,-1.28749 -0.91964,-2.00277 -0.63353,-0.49047 -3.06546,-1.22618 -3.51507,-1.08313 -4.70038,-1.83928 -1.18531,-0.75615 -1.83928,-2.02321 -0.65396,-1.26706 -0.65396,-2.88153 0,-2.77936 1.77797,-4.51645 1.77797,-1.7371 4.92517,-1.7371 1.98234,0 3.4742,0.71527 1.51229,0.71528 2.30931,1.92103 0.79702,1.20575 1.10357,3.45375 l -2.94284,0.49048 q -0.40873,-3.55594 -3.86249,-3.55594 -1.9619,0 -2.92241,0.79702 -0.96051,0.77659 -0.96051,2.00277 0,1.20575 0.91964,1.90059 0.55178,0.40873 3.26983,1.30793 3.73986,1.20575 4.84343,1.92102 1.10357,0.69484 1.71666,1.92103 0.61309,1.20575 0.61309,2.88153 0,3.10634 -1.98233,5.02737 -1.9619,1.92102 -5.37478,1.92102 -6.3966,0 -7.41842,-6.98926 z"
         id="path39" /><path
         d="m 249.90759,159.83113 0.40873,3.2494 q -1.24662,0.32698 -2.248,0.32698 -1.57361,0 -2.53412,-0.61309 -0.96051,-0.63353 -1.32837,-1.71666 -0.34742,-1.08313 -0.34742,-4.31209 v -12.48666 h -2.20713 v -2.8611 h 2.20713 v -5.37478 l 3.00416,-2.20713 v 7.58191 h 3.04502 v 2.8611 h -3.04502 v 12.69102 q 0,1.75754 0.26567,2.26845 0.38829,0.73571 1.45099,0.73571 0.51091,0 1.32836,-0.14306 z"
         id="path41" /><path
         d="m 251.60381,152.26966 q 0,-5.62002 2.35019,-8.48112 2.37063,-2.8611 5.98788,-2.8611 3.55593,0 5.947,2.8611 2.39106,2.8611 2.39106,8.25632 0,5.84481 -2.35019,8.70591 -2.35019,2.8611 -5.98787,2.8611 -3.57638,0 -5.96744,-2.8611 -2.37063,-2.88153 -2.37063,-8.48111 z m 3.0859,0 q 0,4.2099 1.53274,6.27398 1.53273,2.04364 3.80117,2.04364 2.12539,0 3.63769,-2.06408 1.53273,-2.08451 1.53273,-6.25354 0,-4.18947 -1.53273,-6.23311 -1.53274,-2.06408 -3.80118,-2.06408 -2.14582,0 -3.65812,2.06408 -1.5123,2.06408 -1.5123,6.23311 z"
         id="path43" /><path
         d="m 271.81543,163.1214 v -21.70349 h 2.71805 v 3.29027 q 1.04226,-2.28888 1.90059,-3.02459 0.87876,-0.75615 1.96189,-0.75615 1.5123,0 3.0859,1.18531 l -1.02182,3.41289 q -1.124,-0.79703 -2.1867,-0.79703 -0.96051,0 -1.75753,0.67441 -0.79702,0.6744 -1.124,1.88015 -0.57222,2.10495 -0.57222,4.47558 v 11.36265 z"
         id="path45" /><path
         d="m 283.28027,163.1214 v -21.70349 h 2.69761 v 3.04503 q 0.8992,-1.69622 2.30932,-2.61586 1.41011,-0.91964 3.0859,-0.91964 1.88015,0 3.16764,0.98095 1.30793,0.96051 1.85972,2.82022 1.06269,-1.90058 2.43193,-2.84066 1.38968,-0.96051 3.06547,-0.96051 2.55455,0 4.02597,1.7371 1.47143,1.73709 1.47143,5.5587 v 14.89816 h -3.00416 v -13.67197 q 0,-2.32975 -0.34742,-3.29027 -0.32698,-0.98094 -1.08313,-1.51229 -0.75615,-0.53135 -1.69622,-0.53135 -1.94146,0 -3.16765,1.55317 -1.22618,1.53273 -1.22618,4.84343 v 12.60928 h -3.0246 v -14.10114 q 0,-2.6976 -0.83789,-3.80117 -0.81746,-1.10357 -2.26844,-1.10357 -2.06408,0 -3.26983,1.67579 -1.18531,1.65535 -1.18531,6.06962 v 11.26047 z"
         id="path47" /></g><g
       aria-label="雷暴"
       transform="scale(0.98223649,1.0180848)"
       id="text123"
       style="font-size:56.6918px;font-family:'Arial Narrow';-inkscape-font-specification:'Arial Narrow';stroke-width:0.184714"><path
         d="m 140.91481,159.66742 v 22.58814 h -4.2076 v -1.55017 h -30.78187 v 1.55017 h -4.2076 v -22.58814 z m -34.98947,8.63664 h 13.50859 v -4.6505 h -13.50859 z m 17.71618,-4.6505 v 4.6505 h 13.06569 v -4.6505 z m -17.71618,13.06569 h 13.50859 v -4.6505 h -13.50859 z m 17.71618,0 h 13.06569 v -4.6505 h -13.06569 z m -4.42904,-40.96868 H 99.281766 v -3.76469 h 44.290464 v 3.76469 h -19.93071 v 3.32178 h 22.36669 v 10.85117 h -4.42905 v -7.08648 h -17.93764 v 13.28714 h -4.42904 v -13.28714 h -17.93764 v 6.86503 h -4.42905 v -10.62972 h 22.36669 z m -15.72312,10.40826 h 13.50859 v 3.54324 h -13.50859 z m 22.36669,0 h 13.50859 v 3.54324 h -13.50859 z m -22.58814,6.86502 h 13.50859 v 3.54324 h -13.50859 z m 22.80959,0 h 13.50859 v 3.54324 H 126.0775 Z"
         id="path50" /><path
         d="m 159.0739,132.20733 h 38.31125 v 16.16602 h -8.41519 v 2.87888 h 10.62972 v 3.76469 h -10.62972 v 2.87888 h 13.28714 v 3.98615 h -10.62971 q 4.6505,3.98614 11.95843,6.20066 l -2.21453,4.2076 q -9.30099,-3.54324 -15.05875,-10.40826 h -17.27329 q -4.87195,6.64357 -13.95149,10.62971 l -2.87888,-3.54324 q 7.30792,-3.10033 11.51552,-7.08647 h -9.74391 v -3.98615 h 13.5086 v -2.87888 h -10.62972 v -3.76469 h 10.62972 v -2.87888 h -8.41519 z m 3.98614,6.42212 h 30.11752 v -2.65743 h -30.11752 z m 0,5.97921 h 30.11752 v -2.65743 h -30.11752 z m 21.70233,6.64357 v -2.87888 h -13.06569 v 2.87888 z m -13.06569,6.64357 h 13.06569 v -2.87888 h -13.06569 z m 4.42905,5.31486 h 4.42904 v 5.53631 l 2.43598,0.88581 3.32179,-4.6505 3.76469,2.21452 -3.32179,4.2076 10.62971,5.31485 -2.65743,3.32179 q -6.86502,-4.2076 -14.17295,-7.30793 0,6.86502 -1.10726,7.97228 -0.88581,1.32872 -4.6505,1.32872 l -4.6505,-0.44291 -0.8858,-4.20759 5.5363,0.66436 q 1.32872,0 1.32872,-1.99308 v -3.32178 q -7.08648,3.76469 -15.94457,6.86502 l -1.77162,-3.98614 10.85117,-3.98614 -3.76469,-4.2076 3.54323,-2.21452 4.2076,4.6505 2.87888,-1.32871 z"
         id="path52" /></g></g></svg>
