<?xml version="1.0" encoding="UTF-8" standalone="no"?>
<!-- Created with Inkscape (http://www.inkscape.org/) -->

<svg
   width="800"
   height="800"
   viewBox="0 0 211.66667 211.66667"
   version="1.1"
   id="svg1"
   xml:space="preserve"
   xmlns="http://www.w3.org/2000/svg"
   xmlns:svg="http://www.w3.org/2000/svg"><defs
     id="defs1"><filter
       style="color-interpolation-filters:sRGB"
       id="filter48"
       x="-0.0059826507"
       y="-0.0028099561"
       width="1.0244292"
       height="1.0173281"><feFlood
         result="flood"
         in="SourceGraphic"
         flood-opacity="0.498039"
         flood-color="rgb(0,0,0)"
         id="feFlood47" /><feGaussianBlur
         result="blur"
         in="SourceGraphic"
         stdDeviation="0.100000"
         id="feGaussianBlur47" /><feOffset
         result="offset"
         in="blur"
         dx="0.5"
         dy="1"
         id="feOffset47" /><feComposite
         result="comp1"
         operator="in"
         in="flood"
         in2="offset"
         id="feComposite47" /><feComposite
         result="comp2"
         operator="over"
         in="SourceGraphic"
         in2="comp1"
         id="feComposite48" /></filter><filter
       style="color-interpolation-filters:sRGB"
       id="filter46"
       x="-0.013025187"
       y="-0.013415913"
       width="1.0362665"
       height="1.0268389"><feFlood
         result="flood"
         in="SourceGraphic"
         flood-opacity="0.839216"
         flood-color="rgb(0,0,0)"
         id="feFlood45" /><feGaussianBlur
         result="blur"
         in="SourceGraphic"
         stdDeviation="0.500000"
         id="feGaussianBlur45" /><feOffset
         result="offset"
         in="blur"
         dx="1.000000"
         dy="0.000000"
         id="feOffset45" /><feComposite
         result="comp1"
         operator="in"
         in="flood"
         in2="offset"
         id="feComposite45" /><feComposite
         result="comp2"
         operator="over"
         in="SourceGraphic"
         in2="comp1"
         id="feComposite46" /></filter><filter
       style="color-interpolation-filters:sRGB"
       id="filter50"
       x="-0.018042555"
       y="-0.020020847"
       width="1.0505156"
       height="1.0400424"><feFlood
         result="flood"
         in="SourceGraphic"
         flood-opacity="0.839216"
         flood-color="rgb(0,0,0)"
         id="feFlood46" /><feGaussianBlur
         result="blur"
         in="SourceGraphic"
         stdDeviation="0.500000"
         id="feGaussianBlur46" /><feOffset
         result="offset"
         in="blur"
         dx="1.000000"
         dy="0.000000"
         id="feOffset46" /><feComposite
         result="comp1"
         operator="in"
         in="flood"
         in2="offset"
         id="feComposite49" /><feComposite
         result="comp2"
         operator="over"
         in="SourceGraphic"
         in2="comp1"
         id="feComposite50" /></filter></defs><g
     id="layer1"
     transform="translate(-37.418404,-80.76667)"><path
       id="rect1"
       style="fill:#ffffff;stroke-width:0.413411;stroke-linecap:round;stroke-linejoin:round"
       d="M 37.418404,80.76667 H 249.08508 V 292.43334 H 37.418404 Z" /><path
       style="fill:#1592cf;fill-opacity:1;stroke:#000000;stroke-width:0.148069;stroke-linecap:round;stroke-linejoin:round;filter:url(#filter46)"
       d="m 44.456057,193.70355 0.288702,-63.71447 c 23.112969,-29.5807 68.403551,-46.931474 95.580831,-8.98613 8.65041,12.07785 -13.08503,30.34899 -35.35787,13.49955 17.74938,2.08417 17.13001,-18.84674 0.069,-13.91162 -24.021511,6.94854 -23.82849,67.27925 31.00576,73.5706 z"
       id="path2"
       transform="matrix(1.5624999,0,0,1.5624999,-21.047849,-45.431246)" /><path
       style="fill:#10d0fb;fill-opacity:1;stroke:#000000;stroke-width:0.1;stroke-linecap:round;stroke-linejoin:round;filter:url(#filter50)"
       d="m 44.437198,193.88447 0.203811,-46.29492 c 21.455535,-25.13065 56.739941,-16.51223 67.475921,-0.67587 6.33125,9.33906 -6.96503,18.63751 -24.961118,8.72186 12.530293,1.34655 13.153518,-11.34472 0.04872,-8.98809 -22.030196,3.96168 -16.750807,43.32745 21.888728,47.53288 z"
       id="path1"
       transform="matrix(1.5624999,0,0,1.5624999,-21.047849,-45.431246)" /><g
       aria-label="Tsunami"
       transform="scale(1.0259786,0.97467918)"
       id="text1"
       style="font-size:42.7016px;line-height:1;font-family:'Arial Rounded MT';-inkscape-font-specification:'Arial Rounded MT';display:inline;fill:#ff0000;stroke-width:0.168116;stroke-linecap:round;stroke-linejoin:round"><path
         d="m 72.159119,258.41445 h 6.960361 q 0.939435,0 1.494556,-0.0427 0.555121,-0.0854 0.896733,-0.42701 0.213508,-0.21351 0.384315,-0.51242 0.170806,-0.34162 0.170806,-0.64053 0,-0.34161 -0.170806,-0.64052 -0.170807,-0.29891 -0.384315,-0.51242 -0.341612,-0.38432 -0.896733,-0.42702 -0.555121,-0.0854 -1.494556,-0.0854 H 61.142107 q -0.939436,0 -1.537258,0.0854 -0.555121,0.0427 -0.896733,0.42702 -0.213508,0.21351 -0.384315,0.55512 -0.128105,0.29891 -0.128105,0.59782 0,0.34162 0.170807,0.64053 0.170806,0.29891 0.384314,0.51242 0.341613,0.34161 0.896734,0.42701 0.55512,0.0427 1.494556,0.0427 h 6.917659 v 24.42532 q 0,1.06754 0.0427,1.75076 0.0854,0.64053 0.555121,1.02484 0.597822,0.59782 1.451854,0.59782 0.51242,0 0.896734,-0.2135 0.384314,-0.17081 0.597822,-0.38432 0.427016,-0.38431 0.469718,-1.06754 0.0854,-0.68322 0.0854,-1.70806 z"
         id="path33" /><path
         d="m 97.780003,279.25283 q 0,-1.70806 -0.768629,-2.8183 -0.768629,-1.15295 -1.964274,-1.87887 -1.152943,-0.72593 -2.562095,-1.15295 -1.366452,-0.42701 -2.6475,-0.68322 -1.921572,-0.42702 -3.159918,-0.81133 -1.238346,-0.42702 -1.964274,-0.89673 -0.683225,-0.46972 -0.982136,-0.98214 -0.25621,-0.55512 -0.25621,-1.19565 0,-1.49455 1.366451,-2.30588 1.409153,-0.81133 3.45883,-0.81133 2.13508,0 3.288023,0.76863 1.152943,0.76862 1.622661,1.79346 0.427016,0.89674 0.725927,1.28105 0.341613,0.38432 1.110241,0.38432 0.555121,0 0.854032,-0.17081 0.298912,-0.21351 0.469718,-0.46972 0.170806,-0.25621 0.213508,-0.51242 0.0427,-0.25621 0.0427,-0.38431 0,-0.29891 -0.298912,-1.15295 -0.298911,-0.89673 -1.195644,-1.79346 -0.896734,-0.93944 -2.562096,-1.66537 -1.622661,-0.72592 -4.355563,-0.72592 -1.622661,0 -2.861008,0.29891 -1.238346,0.25621 -2.177781,0.76863 -1.537258,0.85403 -2.39129,2.30588 -0.854032,1.45186 -0.854032,2.94641 0,1.32375 0.555121,2.34859 0.597823,0.98214 1.366451,1.62266 0.469718,0.38432 0.939436,0.68323 0.512419,0.29891 1.281047,0.59782 0.768629,0.29891 1.878871,0.64052 1.152943,0.34162 2.861007,0.76863 0.81133,0.21351 1.708064,0.46972 0.939435,0.25621 1.665362,0.72593 0.725928,0.42701 1.195645,1.11024 0.512419,0.64052 0.512419,1.66536 0,1.36645 -1.323749,2.4767 -1.281048,1.06754 -3.843144,1.06754 -2.562096,0 -3.885846,-1.02484 -1.281048,-1.02484 -1.921572,-2.5194 -0.256209,-0.59782 -0.640524,-1.02484 -0.341612,-0.42701 -1.06754,-0.42701 -0.683225,0 -1.152943,0.46972 -0.469717,0.46971 -0.469717,1.06754 0,1.15294 0.597822,2.13508 0.640524,0.98213 1.281048,1.62266 1.195645,1.15294 2.818305,1.75076 1.665363,0.59782 4.184757,0.59782 3.117217,0 4.953386,-0.81133 1.87887,-0.81133 2.818305,-1.92157 0.982137,-1.15294 1.238347,-2.30588 0.298911,-1.19565 0.298911,-1.92158 z"
         id="path35" /><path
         d="m 102.56251,277.92908 q 0,1.28105 0.17081,2.434 0.1708,1.15294 0.89673,2.60479 0.42702,0.89674 1.19565,1.53726 0.76862,0.59782 1.66536,0.98214 0.89673,0.38431 1.83617,0.55512 0.98213,0.1708 1.83617,0.1708 1.57995,0 2.7329,-0.42701 1.15294,-0.38432 2.00697,-0.93944 0.85403,-0.59782 1.40916,-1.28104 0.59782,-0.68323 1.02483,-1.19565 0,1.40915 0.0427,2.00698 0.0427,0.59782 0.25621,1.02483 0.1281,0.29892 0.51241,0.55512 0.42702,0.25621 0.98214,0.25621 0.42702,0 0.72593,-0.1708 0.34161,-0.12811 0.55512,-0.34161 0.38431,-0.34162 0.42702,-0.93944 0.0854,-0.59782 0.0854,-1.49456 v -17.12334 q 0,-0.98213 -0.0854,-1.57996 -0.0427,-0.59782 -0.42702,-0.98213 -0.64052,-0.51242 -1.36645,-0.51242 -0.46972,0 -0.81133,0.1708 -0.29891,0.17081 -0.51242,0.38432 -0.38432,0.34161 -0.46972,0.98214 -0.0427,0.59782 -0.0427,1.53725 v 6.91766 q 0,1.87887 -0.0854,3.03182 -0.0854,1.15294 -0.21351,1.87887 -0.12811,0.72592 -0.34161,1.15294 -0.17081,0.38431 -0.34162,0.76863 -0.72592,1.36645 -2.22048,2.22048 -1.45186,0.85403 -3.07452,0.85403 -1.15294,0 -2.22048,-0.55512 -1.06754,-0.59782 -1.70806,-1.66536 -0.55512,-0.89673 -0.64053,-2.00698 -0.0854,-1.15294 -0.0854,-2.26318 v -10.33379 q 0,-0.98213 -0.0854,-1.57996 -0.0427,-0.59782 -0.42702,-0.98213 -0.59782,-0.51242 -1.32375,-0.51242 -0.81133,0 -1.36645,0.55512 -0.38431,0.34161 -0.46972,0.93943 -0.0427,0.59783 -0.0427,1.57996 z"
         id="path37" /><path
         d="m 145.56301,271.56655 q 0,-0.51242 -0.0427,-1.23835 0,-0.76863 -0.1281,-1.53726 -0.12811,-0.81133 -0.42702,-1.57996 -0.29891,-0.76863 -0.85403,-1.40915 -1.15294,-1.32375 -2.6902,-2.00698 -1.49456,-0.72592 -3.54423,-0.72592 -1.49456,0 -2.6048,0.38431 -1.11024,0.38432 -1.96427,0.98214 -0.81133,0.55512 -1.40916,1.23835 -0.59782,0.64052 -1.02484,1.19564 0,-0.68323 -0.0427,-1.15294 0,-0.46972 -0.0427,-0.81133 0,-0.34162 -0.0854,-0.55512 -0.0854,-0.25621 -0.21351,-0.46972 -0.1281,-0.29891 -0.55512,-0.55512 -0.38432,-0.25621 -0.89673,-0.25621 -0.46972,0 -0.81133,0.1708 -0.29892,0.17081 -0.51242,0.34162 -0.34162,0.34161 -0.42702,0.93943 -0.0427,0.59782 -0.0427,1.49456 v 17.16604 q 0,0.93944 0.0427,1.57996 0.0854,0.59782 0.46972,0.93944 0.59782,0.51241 1.32375,0.51241 0.72592,0 1.32375,-0.51241 0.38431,-0.34162 0.46971,-0.93944 0.0854,-0.64052 0.0854,-1.57996 v -7.04576 q 0,-1.75077 0.0427,-2.86101 0.0854,-1.11024 0.21351,-1.83617 0.1281,-0.72593 0.29891,-1.15294 0.21351,-0.46972 0.46972,-0.89674 0.76862,-1.40915 2.22048,-2.22048 1.45185,-0.85403 3.07451,-0.85403 1.15295,0 2.22049,0.55512 1.06754,0.51242 1.66536,1.57996 0.34161,0.59782 0.51242,1.57996 0.17081,0.98214 0.17081,2.6048 v 10.54729 q 0,0.93944 0.0427,1.57996 0.0854,0.59782 0.46971,0.93944 0.55513,0.51241 1.36646,0.51241 0.72592,0 1.32375,-0.51241 0.38431,-0.34162 0.42701,-0.93944 0.0854,-0.64052 0.0854,-1.57996 z"
         id="path39" /><path
         d="m 166.27329,282.58356 q 0.17081,0.59782 0.34161,1.23834 0.21351,0.64053 0.51242,1.19565 0.29891,0.51242 0.68323,0.85403 0.38431,0.34161 0.93943,0.34161 0.72593,0 1.23835,-0.46971 0.55512,-0.42702 0.55512,-0.98214 0,-0.51242 -0.21351,-1.11024 -0.1708,-0.64053 -0.2135,-0.81133 -0.21351,-0.51242 -0.42702,-1.32375 -0.17081,-0.81133 -0.17081,-2.34859 0,-0.38431 0,-1.32375 0.0427,-0.98214 0.0427,-2.09238 0.0427,-1.11024 0.0427,-2.09238 0.0427,-1.02483 0.0427,-1.45185 0,-1.92157 -0.21351,-3.58693 -0.21351,-1.66537 -1.11024,-2.90371 -0.89674,-1.23835 -2.7329,-1.92158 -1.79347,-0.72592 -4.95339,-0.72592 -3.03181,0 -4.91068,0.76863 -1.83617,0.76863 -2.86101,1.79346 -1.02484,0.98214 -1.36645,2.00698 -0.34161,0.98214 -0.34161,1.45185 0,0.68323 0.46971,1.15295 0.51242,0.42701 1.19565,0.42701 0.85403,0 1.19564,-0.51242 0.34162,-0.55512 0.64053,-1.28104 0.34161,-0.85404 0.98213,-1.45186 0.68323,-0.59782 1.49456,-0.93943 0.85403,-0.38432 1.79347,-0.51242 0.98213,-0.17081 1.96427,-0.17081 1.83617,0 2.81831,0.46972 1.02483,0.46972 1.49455,1.28105 0.46972,0.81133 0.55512,1.83616 0.12811,1.02484 0.17081,2.13508 -0.72593,0.25621 -1.19565,0.38432 -0.42701,0.1281 -0.89673,0.25621 -0.34161,0.0854 -1.23835,0.25621 -0.85403,0.1708 -1.83616,0.34161 -0.98214,0.17081 -1.87888,0.34161 -0.89673,0.17081 -1.28104,0.25621 -0.98214,0.21351 -2.26319,0.55512 -1.23834,0.29891 -2.34859,1.02484 -1.11024,0.68323 -1.87887,1.87887 -0.76862,1.19565 -0.76862,3.07452 0,1.15294 0.42701,2.30588 0.42702,1.11025 1.32375,2.00698 0.89673,0.89673 2.22048,1.45185 1.36645,0.55512 3.20262,0.55512 1.79347,0 3.20262,-0.42701 1.45186,-0.38432 2.5194,-0.93944 1.11024,-0.59782 1.83617,-1.19564 0.76863,-0.64053 1.19564,-1.06754 z m -0.29891,-8.41222 q 0,1.87887 -0.17081,3.37343 -0.1281,1.45185 -0.76862,2.5621 -0.46972,0.85403 -1.23835,1.45185 -0.76863,0.59782 -1.70807,0.98214 -0.89673,0.38431 -1.87887,0.59782 -0.93943,0.17081 -1.83616,0.17081 -1.15295,0 -1.96428,-0.34162 -0.81133,-0.38431 -1.32375,-0.89673 -0.46972,-0.55512 -0.72592,-1.19565 -0.21351,-0.64052 -0.21351,-1.23834 0,-0.29891 0.0854,-0.76863 0.12811,-0.46972 0.42702,-0.93944 0.29891,-0.51242 0.85403,-0.93943 0.55512,-0.42702 1.49455,-0.68323 1.32375,-0.34161 2.90371,-0.59782 1.57996,-0.29891 3.58694,-0.76863 0.85403,-0.21351 1.45185,-0.38431 0.59782,-0.21351 1.02484,-0.38432 z"
         id="path41" /><path
         d="m 205.38794,270.49901 q 0,-0.81133 -0.1281,-1.92158 -0.0854,-1.15294 -0.68323,-2.39129 -0.46972,-0.89673 -1.19564,-1.49455 -0.68323,-0.59782 -1.53726,-0.93944 -0.81133,-0.38431 -1.66536,-0.51242 -0.85404,-0.1708 -1.62266,-0.1708 -1.53726,0 -2.69021,0.46972 -1.15294,0.42701 -2.00697,1.02483 -0.81133,0.59783 -1.32375,1.28105 -0.51242,0.68323 -0.81133,1.11024 -0.17081,-0.46971 -0.42702,-0.93943 -0.2135,-0.51242 -0.72592,-1.06754 -0.59783,-0.64053 -1.32375,-0.98214 -0.72593,-0.38431 -1.45186,-0.55512 -0.68322,-0.21351 -1.32375,-0.25621 -0.64052,-0.0854 -1.02484,-0.0854 -2.39129,0 -4.05665,1.06754 -1.66536,1.02484 -2.6475,2.51939 0,-1.32375 -0.0427,-1.70806 0,-0.42702 -0.0854,-0.76863 -0.0854,-0.34161 -0.51242,-0.72593 -0.38432,-0.38431 -1.02484,-0.38431 -0.64052,0 -0.98214,0.29891 -0.29891,0.25621 -0.46971,0.68322 -0.17081,0.42702 -0.21351,0.98214 0,0.55512 0,1.06754 v 17.03794 q 0,0.98214 0.0427,1.57996 0.0854,0.55512 0.42702,0.93943 0.64052,0.55512 1.40915,0.55512 0.46972,0 0.81133,-0.1708 0.34161,-0.17081 0.55512,-0.38432 0.34161,-0.38431 0.38431,-0.93943 0.0854,-0.59782 0.0854,-1.57996 v -8.92464 q 0,-1.45185 0.1281,-2.7329 0.12811,-1.28105 0.81133,-2.60479 0.51242,-1.11025 1.79347,-1.83617 1.28105,-0.72593 2.7756,-0.72593 1.45186,0 2.26319,0.59782 0.81133,0.55512 1.15294,1.36645 0.38432,0.81133 0.42702,1.66537 0.0854,0.85403 0.0854,1.36645 v 11.82834 q 0,0.98214 0.0427,1.57996 0.0854,0.55512 0.42702,0.93943 0.64052,0.55512 1.40915,0.55512 0.46972,0 0.81133,-0.1708 0.34161,-0.17081 0.55512,-0.38432 0.34162,-0.38431 0.38432,-0.93943 0.0854,-0.59782 0.0854,-1.57996 v -10.29109 q 0,-0.98213 0.1281,-2.00697 0.12811,-1.06754 0.85404,-2.22048 0.68322,-1.15295 1.92157,-1.70807 1.28105,-0.59782 2.51939,-0.59782 1.49456,0 2.30589,0.59782 0.81133,0.55512 1.15294,1.40915 0.38432,0.81133 0.42702,1.75077 0.0854,0.93944 0.0854,1.66536 v 11.35863 q 0,0.51242 0,1.06754 0.0427,0.55512 0.21351,1.02484 0.21351,0.42701 0.55512,0.72592 0.38432,0.29891 1.11024,0.29891 0.46972,0 0.76863,-0.1708 0.34161,-0.17081 0.59782,-0.38432 0.34162,-0.38431 0.38432,-0.93943 0.0854,-0.59782 0.0854,-1.57996 z"
         id="path43" /><path
         d="m 215.16653,266.10074 q 0,-0.55512 -0.0427,-1.19564 0,-0.64053 -0.21351,-0.98214 -0.2135,-0.34161 -0.55512,-0.59782 -0.29891,-0.25621 -1.02484,-0.25621 -0.85403,0 -1.40915,0.55512 -0.34161,0.38431 -0.42701,0.93943 -0.0854,0.55512 -0.0854,1.53726 v 17.08064 q 0,0.51242 0.0427,1.06754 0.0427,0.51242 0.21351,0.98214 0.17081,0.42701 0.55512,0.68322 0.38432,0.29891 1.06754,0.29891 0.51242,0 0.98214,-0.29891 0.51242,-0.29891 0.72593,-0.89673 0.0854,-0.21351 0.1281,-0.55512 0.0427,-0.38432 0.0427,-1.28105 z m 0.17081,-8.79653 q 0,-0.85403 -0.59782,-1.45185 -0.59782,-0.59783 -1.45186,-0.59783 -0.85403,0 -1.45185,0.59783 -0.59782,0.59782 -0.59782,1.45185 0,0.85403 0.59782,1.49456 0.59782,0.59782 1.45185,0.59782 0.85404,0 1.45186,-0.59782 0.59782,-0.64053 0.59782,-1.49456 z"
         id="path45" /></g><g
       aria-label="海
嘯"
       transform="matrix(1.5624999,0,0,1.5624999,-21.047849,-45.431246)"
       id="text2"
       style="font-size:46.5459px;line-height:1;font-family:'MKai HK';-inkscape-font-specification:'MKai HK';fill:#ff0000;stroke-width:0.183251;stroke-linecap:round;stroke-linejoin:round;filter:url(#filter48)"><path
         d="m 152.51869,103.64276 q -1.90838,0.83782 -3.9564,1.30328 -2.04802,0.46546 -4.14259,0.83783 -0.55855,0.0465 -1.25674,0.13963 -0.65164,0.0465 -1.30328,0.0465 -0.65165,0 -1.25674,-0.0931 -0.6051,-0.13964 -1.07056,-0.55855 l -0.74473,0.93092 q -0.88438,1.1171 -1.58256,1.90838 -0.65165,0.74473 -1.34983,1.34983 -0.69819,0.6051 -1.44293,1.07055 -0.74473,0.41892 -1.76874,0.83783 0.93092,-1.30328 1.95493,-2.56002 1.02401,-1.30329 1.95492,-2.65312 0.97747,-1.34983 1.76875,-2.74621 0.79128,-1.39638 1.30328,-2.88584 0.23273,-0.41892 0.0931,-0.884376 -0.0931,-0.512005 -0.23272,-0.930918 -0.13964,-0.418913 -0.18619,-0.698189 0,-0.325821 0.41891,-0.325821 1.07056,-0.09309 1.95493,0.418913 0.88437,0.512005 1.67565,1.163648 0.18619,0.279275 -0.0465,0.744733 -0.18618,0.46546 -0.6051,0.97746 -0.37236,0.51201 -0.88437,1.11711 -0.46546,0.55855 -0.83783,1.1171 l -0.97746,1.44292 q 2.51348,-0.13964 4.84077,-0.97746 2.37384,-0.83783 4.74769,-1.58256 0.74473,-0.0931 1.53601,-0.0931 0.83783,0 1.39638,0.51201 0.18618,0.23273 0.27927,0.55855 0.13964,0.27928 -0.27927,0.51201 z m -21.73694,3.16512 q -0.46546,0.41891 -0.93092,0.37236 -0.41891,-0.0931 -0.83782,-0.46546 -0.41891,-0.37236 -0.83783,-0.93091 -0.41891,-0.55855 -0.93092,-1.07056 l -1.95492,-2.65312 q 1.53601,-0.0931 2.93239,0.23273 1.39637,0.27928 2.32729,1.53602 0.55855,0.65164 0.55855,1.58256 0.0465,0.88437 -0.32582,1.39638 z m 29.32392,11.21756 q 0.23273,0.37237 0.0465,0.69819 -0.18618,0.32582 -0.74473,0.18618 -1.1171,-0.0931 -2.04802,-0.23273 -0.93092,-0.13964 -1.95493,-0.27927 -1.02401,-0.13964 -2.28075,-0.13964 -1.21019,-0.0466 -2.88584,0.13964 -0.0931,2.00147 -0.27928,3.90985 -0.18618,1.86184 -0.512,3.9564 0.88437,0.0465 1.86183,0.0931 1.02401,0.0465 1.90839,0.23273 0.93091,0.18619 1.67565,0.69819 0.79128,0.46546 1.25674,1.44292 0,0.46546 -0.0931,0.6051 -0.41892,0.32582 -0.93092,0.27928 -0.51201,-0.0466 -1.16365,-0.27928 -0.65164,-0.27927 -1.44292,-0.6051 -0.79128,-0.32582 -1.76875,-0.512 l -1.48947,-0.27928 q -0.23273,1.7222 -0.46545,3.21167 -0.18619,1.44292 -0.6051,2.65312 -0.41891,1.16364 -1.16365,2.09456 -0.69819,0.93092 -1.95493,1.62911 -0.46546,0.23273 -0.69819,-0.23273 -0.18618,-0.41891 -0.37236,-0.79128 -0.37237,-0.88437 -0.74474,-1.48947 -0.37236,-0.55855 -0.79128,-1.02401 -0.37236,-0.46546 -0.83782,-0.83783 -0.41892,-0.41891 -0.93092,-0.88437 1.44292,0.37237 2.51348,0.55855 1.1171,0.18619 2.14111,0.23273 1.07055,-0.37236 1.44292,-1.95492 0.37237,-1.58257 0.51201,-3.4444 -1.95493,-0.0465 -4.0495,-0.18618 -2.09456,-0.13964 -4.14258,-0.0465 -2.00148,0.0465 -3.90986,0.512 -1.90838,0.46546 -3.53749,1.67566 -0.27927,0.23273 -0.512,0 -0.18618,-0.23273 -0.27928,-0.46546 0,-0.37237 -0.13963,-0.69819 -0.0931,-0.37237 -0.13964,-0.69819 -0.0465,-0.37237 0.0465,-0.6051 0.13964,-0.27927 0.6051,-0.41891 0.88437,-0.512 1.53602,-1.25674 0.65164,-0.79128 1.1171,-1.67565 0.512,-0.88437 0.88437,-1.81529 0.41891,-0.93092 0.79128,-1.81529 -1.1171,0.13964 -1.86184,0.32582 -0.74473,0.18618 -1.30328,0.37237 -0.55855,0.13964 -0.97747,0.23273 -0.41891,0.0465 -0.79128,0 -0.41891,-0.0931 -1.02401,-0.55855 -0.60509,-0.46546 -0.83782,-0.74474 l 7.12152,-0.97746 q 0.23273,-0.88437 0.46546,-1.90838 0.23273,-1.02401 0.37237,-2.09457 0.13964,-1.07055 0.13964,-2.14111 0,-1.07056 -0.32583,-2.04802 -0.0931,-0.27928 0.41892,-0.23273 0.512,0.0466 1.25674,0.23273 0.74473,0.13964 1.58256,0.23273 0.83782,0.0931 1.39637,-0.13964 1.7222,-0.41891 3.4444,-0.79128 1.7222,-0.37237 3.3513,-0.97746 0.51201,-0.23273 1.39638,0.41891 0.93092,0.65164 2.42039,1.95493 0.23273,0.55855 -0.23273,1.1171 -0.41891,0.55855 -0.65164,1.07056 -0.32582,0.83782 -0.41892,1.48946 -0.0931,0.6051 -0.32582,1.86184 l 2.00148,-0.23273 q 1.34983,-0.13964 2.37384,-0.32582 1.07055,-0.23273 1.95492,-0.18618 0.93092,0 1.76875,0.41891 0.88437,0.41891 1.81529,1.48947 z m -33.79232,-3.07203 q -0.65165,0.32582 -1.25674,0.13964 -0.6051,-0.18619 -1.1171,-0.6051 -0.51201,-0.41891 -0.97747,-0.93092 -0.41891,-0.55855 -0.79128,-0.97746 -0.46546,-0.69819 -0.74473,-1.07056 -0.23273,-0.37237 -0.32582,-0.88437 1.07055,-0.23273 2.09456,0.0465 1.02401,0.23273 1.95493,0.74473 0.41891,0.23273 0.83782,0.69819 0.46546,0.41891 0.69819,0.93092 0.27928,0.512 0.23273,1.02401 -0.0465,0.512 -0.60509,0.88437 z m 2.65311,1.30328 q -0.512,2.00148 -1.02401,3.4444 -0.512,1.39638 -1.02401,3.11858 -0.79128,2.51347 -1.48947,4.98041 -0.69818,2.46693 -1.25674,5.0735 -0.0931,0.32582 -0.32582,0.32582 -0.18618,-0.0465 -0.37236,-0.32582 -0.79128,-1.16365 -1.48947,-2.37384 -0.65165,-1.21019 -0.88437,-2.56003 0,-0.23273 0.0931,-0.27927 0.13963,-0.0931 0.27927,-0.0931 0.18619,0 0.32582,0 0.18619,-0.0466 0.27928,-0.18619 1.07055,-1.1171 1.86184,-2.32729 0.83782,-1.21019 1.53601,-2.46693 0.69819,-1.25674 1.34983,-2.56003 0.65164,-1.34983 1.34983,-2.69966 0.23273,-0.51201 0.37237,-0.88437 0.18618,-0.41892 0.41891,-0.18619 z m 19.17691,0.88438 q 0,-0.65165 0,-1.53602 0.0465,-0.88437 0.0465,-1.76874 0,-0.88438 -0.0931,-1.58256 -0.0466,-0.69819 -0.27928,-0.97747 l -0.41891,-0.23273 q -1.16365,-0.0465 -2.23421,0.13964 -1.07055,0.13964 -2.09456,0.37237 -1.02401,0.18618 -2.04802,0.37237 -0.97746,0.18618 -1.95493,0.23272 -0.37236,1.7222 -0.69819,3.30476 -0.27927,1.53602 -0.74473,3.16512 1.95493,-0.27927 3.3513,-0.46545 1.39638,-0.18619 2.56003,-0.32583 1.16365,-0.18618 2.2342,-0.32582 1.07056,-0.18618 2.37384,-0.37236 z m 0,1.48946 q -1.48947,0.13964 -2.74621,0.27928 -1.25673,0.0931 -2.51347,0.23273 -1.25674,0.13964 -2.60657,0.32582 -1.30329,0.18618 -2.9324,0.41891 l -0.32582,0.93092 q -0.60509,1.76875 -1.16364,3.07203 -0.55856,1.25674 -1.53602,2.60657 l 0.79128,-0.13964 q 1.67565,-0.27927 3.16512,-0.37236 1.48947,-0.13964 2.93239,-0.13964 1.48947,0 3.02549,0.0931 1.53601,0.0466 3.25821,0.13964 0.13964,-1.16365 0.23273,-2.00148 0.13964,-0.88437 0.23273,-1.67565 0.0931,-0.83782 0.13964,-1.7222 0.0465,-0.88437 0.0465,-2.04802 z m -4.09604,-3.9564 q 0.37237,0.65165 0.13964,1.30329 -0.18618,0.6051 -0.69819,0.74473 -0.37236,0.18619 -0.65164,0.0931 -0.27928,-0.0931 -0.512,-0.32582 -0.23273,-0.23273 -0.41892,-0.55855 -0.13964,-0.32582 -0.23273,-0.55855 -0.18618,-0.55855 -0.37236,-1.1171 -0.18619,-0.6051 -0.18619,-1.16365 0.93092,0 1.7222,0.41892 0.79128,0.37236 1.21019,1.16364 z m -1.02401,7.63353 q 0.46546,1.02401 0.41892,1.67565 -0.0465,0.65165 -0.37237,0.93092 -0.27928,0.27928 -0.69819,0.23273 -0.37237,-0.0466 -0.6051,-0.32582 -0.55855,-0.74474 -0.93091,-1.7222 -0.32582,-0.97746 -0.23273,-2.04802 -0.0931,-0.6051 0.41891,-0.27927 0.55855,0.27927 1.44292,0.88437 l 0.55855,0.65164 z"
         id="path48" /><path
         d="m 156.52163,154.33124 q -1.67565,-0.0465 -3.21166,0.0465 -1.48947,0.0465 -3.11858,0.37237 -0.18618,0.69819 -0.37237,1.30329 -0.18618,0.60509 -0.37236,1.16364 0.32582,0.32583 0.60509,0.46546 0.32583,0.13964 0.51201,0.6051 0.23273,0.69819 -0.74474,0.69819 -1.6291,0.18618 -3.02548,0.55855 -1.34983,0.37237 -2.88584,0.74473 v 1.90839 q 0.41891,-0.0465 0.97746,-0.18619 0.55855,-0.13964 1.1171,-0.27927 0.55855,-0.18619 1.07056,-0.32582 0.55855,-0.13964 0.93091,-0.13964 0.46546,0 0.88438,0.18618 0.46546,0.13964 0.69819,0.37237 0.27927,0.23273 0.23272,0.46546 0,0.23273 -0.512,0.37236 -0.83783,0.13964 -2.14111,0.41892 -1.30329,0.27927 -3.21167,0.55855 v 6.65606 q 1.25674,-0.23273 2.09457,-0.512 0.88437,-0.32582 1.58256,-0.46546 0.74473,-0.18619 1.39637,-0.18619 0.69819,0 1.62911,0.41892 0.23273,0.13964 0.37237,0.46546 0.13964,0.32582 -0.27928,0.41891 -1.86183,0.32582 -3.39785,0.65164 -1.48947,0.27928 -3.3513,0.6051 0,0.97746 0,2.51348 0.0465,1.48947 -0.0465,3.02548 -0.0465,1.48947 -0.27927,2.65312 -0.23273,1.16364 -0.74474,1.39637 -0.74473,-1.48946 -0.97746,-2.32729 -0.18619,-0.88437 -0.13964,-1.76875 0.0931,-0.88437 0.23273,-2.04801 0.18618,-1.16365 0.13964,-3.16513 -0.93092,0.13964 -1.62911,0.32583 -0.65164,0.13963 -1.25674,0.27927 -0.60509,0.0931 -1.16365,0.13964 -0.55855,0 -1.25673,-0.18619 -0.23273,-0.0931 -0.46546,-0.23272 -0.18619,-0.18619 -0.27928,-0.32583 1.62911,-0.37236 3.07203,-0.69818 1.44292,-0.32583 2.93239,-0.69819 v -6.65607 q -0.55855,0.18619 -1.25674,0.37237 -0.69819,0.13964 -1.44292,0.18618 -0.69819,0.0465 -1.34983,-0.13963 -0.65164,-0.18619 -1.16365,-0.65165 1.07056,-0.23273 2.37384,-0.41891 1.30329,-0.23273 2.8393,-0.6051 v -1.95492 q -0.83782,0.0931 -1.81529,0.41891 -0.93092,0.32582 -1.86183,0.6051 -0.93092,0.27927 -1.7222,0.37236 -0.74474,0.0465 -1.2102,-0.37236 l -0.79128,-0.6051 q 1.34983,-0.37237 3.39785,-0.83783 2.04802,-0.512 4.00295,-1.02401 v -2.7462 q -1.86183,0.46545 -3.30476,0.93091 -1.44292,0.41892 -2.51348,0.74474 -1.02401,0.32582 -1.81529,0.46546 -0.74473,0.13963 -1.30328,0 -0.65164,-0.0931 -1.34983,-0.41892 -0.65164,-0.32582 -0.79128,-0.60509 0.97746,-0.0931 2.46693,-0.37237 1.48947,-0.32582 3.07203,-0.65164 1.58256,-0.37237 3.02548,-0.74474 1.48947,-0.41891 2.42039,-0.69819 v -2.65311 q -0.79128,0.23273 -1.48947,0.512 -0.65164,0.23273 -1.30328,0.37237 -0.6051,0.0931 -1.16365,-0.0931 -0.55855,-0.18618 -1.16365,-0.83783 1.16365,-0.32582 2.37384,-0.65164 1.2102,-0.32582 2.69966,-0.74473 -0.0465,-2.04802 -0.37236,-3.4444 -0.27928,-1.44292 -1.1171,-2.79275 -0.27928,-0.46546 -0.0931,-0.69819 0.18619,-0.23273 0.6051,-0.23273 0.46546,-0.0465 1.07056,0.13964 0.60509,0.13963 1.1171,0.41891 0.512,0.23273 0.83782,0.55855 0.32582,0.32582 0.18619,0.65164 -0.0931,0.97747 -0.23273,2.09457 -0.13964,1.1171 -0.0931,2.8393 0.83782,-0.27928 1.44292,-0.46546 0.6051,-0.23273 1.07055,-0.41892 0.46546,-0.18618 0.88438,-0.32582 0.41891,-0.18618 0.93091,-0.46546 0.27928,-0.13963 0.97747,0 0.74473,0.13964 1.44292,0.41892 0.69819,0.27927 1.1171,0.65164 0.46546,0.32582 0.23273,0.6051 -0.512,0.65164 -0.83782,1.21019 -0.32583,0.55855 -0.55855,1.34983 0.97746,-0.18618 1.81529,-0.41891 0.83782,-0.27928 1.58256,-0.41891 0.74473,-0.18619 1.34983,-0.23273 0.60509,-0.0465 1.16364,0.18618 1.7222,0.74473 1.62911,1.44292 -0.0466,0.65164 -1.62911,0.6051 z m -2.56002,22.94713 q 0.13964,1.95492 -0.0465,3.58403 -0.18618,1.67565 -0.69818,2.2342 -0.13964,0.0931 -0.37237,-0.0931 -0.18619,-0.18618 -0.37237,-0.512 -0.18618,-0.32582 -0.32582,-0.69819 -0.13964,-0.32582 -0.23273,-0.55855 -0.27928,-0.79128 -0.27928,-1.39638 0,-0.65164 0.0931,-1.25674 0.0931,-0.65164 0.18618,-1.30328 0.13964,-0.65165 0.13964,-1.39638 v -1.1171 q -0.83783,0.23273 -1.90838,0.32582 -1.02401,0.0931 -1.86184,-0.0931 0,0.79128 0,1.7222 0.0465,0.88437 -0.0465,1.81529 -0.0465,0.88437 -0.27927,1.67565 -0.23273,0.79128 -0.79128,1.34983 -0.51201,-0.6051 -0.6051,-1.58256 -0.0465,-1.02401 -0.0465,-2.14111 0.0465,-1.16365 0,-2.3273 0,-1.16365 -0.46546,-2.04802 0.69819,0.0465 1.1171,0.18619 0.41891,0.0931 0.97746,0.18618 0.55855,0.0465 1.44293,0 0.88437,-0.0465 2.46693,-0.27928 0.0465,-1.95492 -0.0466,-3.49094 -0.0465,-1.53601 -0.23273,-3.30476 -2.18765,0.18619 -3.21166,0.27928 -1.02401,0.0931 -1.48947,0.6051 -0.18619,0.0931 -0.6051,-0.23273 -0.41891,-0.37237 -0.88437,-0.74474 0.23273,-0.46546 0.512,-1.34983 0.27928,-0.88437 0,-1.58256 0.0931,-0.13964 0.32582,-0.0931 0.27928,0.0465 0.55855,0.18618 0.27928,0.0931 0.51201,0.23273 0.27928,0.13964 0.37237,0.18619 0.23273,0.13963 0.23273,0.32582 0.0465,0.18618 -0.0466,0.41891 -0.0931,0.18618 -0.23273,0.46546 -0.0931,0.23273 -0.0931,0.512 0.93092,-0.0931 2.04802,-0.18618 1.1171,-0.0931 2.04802,-0.23273 l -0.37237,-3.07203 q 0.0931,-0.37237 0.55855,-0.18618 0.46546,0.13963 0.93092,0.60509 0.512,0.41892 0.79128,0.97747 0.32582,0.55855 0.0465,0.93092 -0.0931,1.16364 -0.13964,2.8393 0,1.6291 0.0465,3.3513 0.0465,1.7222 0.0931,3.39785 0.0931,1.62911 0.18618,2.88585 z m -22.94713,-15.3136 q 0.13964,0.46545 -0.41891,0.74473 -0.55855,0.27928 -1.48947,0.55855 -0.93092,0.27928 -2.09457,0.6051 -1.1171,0.32582 -2.18765,0.83782 -0.0465,0.6051 -0.0465,1.07056 0,0.46546 -0.0465,1.25674 -0.0465,0.55855 -0.18619,1.02401 -0.0931,0.46546 -0.41891,0.23273 -0.6051,-0.65164 -0.88437,-1.48947 -0.27928,-0.83783 -0.41892,-1.76874 -0.13963,-0.97747 -0.23273,-1.90839 -0.0465,-0.97746 -0.23273,-1.86183 -0.23272,-1.07056 -0.60509,-2.00148 -0.37237,-0.97746 -1.16365,-1.76874 -0.512,-0.51201 -0.46546,-0.79128 0.0931,-0.27928 1.02401,-0.0465 0.79128,0.0931 1.76875,0.23273 0.97746,0.0931 2.14111,-0.41891 1.25674,-0.512 1.81529,-0.97746 0.55855,-0.51201 0.88437,-0.79128 0.37237,-0.27928 0.74473,-0.27928 0.37237,0 1.2102,0.46546 l 1.25674,0.69819 q 0.37236,0.18618 0.13963,0.46546 -0.18618,0.27927 -0.60509,0.83782 -0.37237,0.55855 -0.74474,1.48947 -0.32582,0.88437 -0.32582,2.28075 0.0465,0.41891 0.27928,0.55855 0.23273,0.0931 0.46546,0.18619 0.27927,0.0465 0.512,0.13963 0.23273,0.0931 0.32582,0.41892 z m 9.26264,13.26558 q 0.13963,0.18618 -0.18619,0.512 -0.27927,0.27928 -0.46546,0.65164 -0.18618,0.6051 -0.37236,1.44293 -0.13964,0.83782 -0.27928,1.6291 -0.0931,0.79128 -0.23273,1.39638 -0.13964,0.6051 -0.32582,0.74474 -0.27928,-0.0931 -0.51201,-0.65165 -0.18618,-0.55855 -0.18618,-1.07055 l 0.0931,-3.58404 q -0.0465,-0.32582 -0.41891,-0.27927 -0.37237,0.0465 -0.83783,0.18618 -0.41891,0.0931 -0.93091,0.18618 -0.46546,0.0465 -0.83783,-0.13963 -0.18618,1.30328 -0.51201,2.56002 -0.27927,1.25674 -0.55855,2.14111 -0.27927,0.88437 -0.55855,1.2102 -0.27927,0.37236 -0.512,-0.13964 -0.55855,-1.44292 -0.55855,-2.42039 0,-1.02401 0.55855,-2.2342 0.65164,-1.34983 1.1171,-3.90986 0.46546,-2.60657 0.0931,-6.51642 0,-0.6051 -0.18618,-1.30329 -0.18619,-0.69819 -0.46546,-1.39637 -0.0466,-0.27928 0.32582,-0.18619 0.41891,0.0466 0.88437,0.32582 0.46546,0.23273 0.83783,0.6051 0.41891,0.32582 0.37237,0.55855 l -0.0931,3.25821 q 0.41892,0 0.97747,-0.0931 0.60509,-0.0931 1.02401,-0.27927 0.0931,-0.88438 0.0931,-1.58256 0,-0.74474 -0.0931,-1.39638 0.27927,0.0465 0.65164,0.13964 0.41891,0.0931 0.74473,0.23273 0.37237,0.13963 0.6051,0.32582 0.23273,0.13963 0.13964,0.32582 -0.23273,0.65164 -0.41891,1.48947 -0.18619,0.79128 0.0465,1.34983 -2.09456,0.60509 -3.86331,0.60509 0,1.07056 -0.13964,2.28075 -0.13963,1.2102 -0.23273,1.81529 l -0.18618,1.39638 q 1.21019,0.0465 1.86184,-0.0931 0.69819,-0.18618 1.07055,-0.37237 0.37237,-0.23273 0.51201,-0.41891 0.18618,-0.23273 0.37237,-0.27928 0.23272,-0.0465 0.55855,0.18619 0.32582,0.18618 1.02401,0.79128 z m 8.14553,-23.8315 q 0,-0.37237 -0.51201,-0.37237 -0.512,0 -1.21019,0.18618 -0.69819,0.13964 -1.48947,0.41892 -0.74473,0.23273 -1.30328,0.37236 v 2.74621 q 1.07055,-0.23273 2.14111,-0.46546 1.07055,-0.23273 2.14111,-0.55855 l 0.23273,-2.32729 z m -0.32582,3.86331 q -1.07056,0.18618 -2.14111,0.37236 -1.07056,0.18619 -2.00148,0.41892 v 2.7462 l 3.21167,-0.88437 q 0.27927,-0.13963 0.41891,-0.46546 0.13964,-0.32582 0.23273,-0.69818 0.13964,-0.41892 0.18618,-0.79128 0.0465,-0.41892 0.0931,-0.69819 z m -20.71293,6.60951 q 0.27928,-0.18618 0.41891,-0.93091 0.13964,-0.79128 0.0931,-1.62911 -0.0465,-0.83783 -0.27928,-1.44292 -0.23273,-0.6051 -0.69819,-0.51201 l -2.97893,1.02401 q 0.27927,0.83783 0.41891,2.18766 0.18618,1.30328 0.18618,2.65312 1.44292,-0.37237 2.8393,-1.34984 z"
         id="path50" /></g></g></svg>
