<?xml version="1.0" encoding="UTF-8" standalone="no"?>
<!-- Created with Inkscape (http://www.inkscape.org/) -->

<svg
   width="800"
   height="800"
   viewBox="0 0 211.66667 211.66667"
   version="1.1"
   id="svg1"
   xml:space="preserve"
   inkscape:version="1.3 (0e150ed6c4, 2023-07-21)"
   sodipodi:docname="cold.svg"
   xmlns:inkscape="http://www.inkscape.org/namespaces/inkscape"
   xmlns:sodipodi="http://sodipodi.sourceforge.net/DTD/sodipodi-0.dtd"
   xmlns="http://www.w3.org/2000/svg"
   xmlns:svg="http://www.w3.org/2000/svg"><sodipodi:namedview
     id="namedview1"
     pagecolor="#ffffff"
     bordercolor="#000000"
     borderopacity="0.25"
     inkscape:showpageshadow="2"
     inkscape:pageopacity="0.0"
     inkscape:pagecheckerboard="0"
     inkscape:deskcolor="#d1d1d1"
     inkscape:document-units="px"
     inkscape:zoom="0.61647025"
     inkscape:cx="557.2045"
     inkscape:cy="463.93155"
     inkscape:window-width="1440"
     inkscape:window-height="878"
     inkscape:window-x="2993"
     inkscape:window-y="-6"
     inkscape:window-maximized="1"
     inkscape:current-layer="layer1"
     showgrid="false" /><defs
     id="defs1"><filter
       inkscape:label="Combined Lighting"
       inkscape:menu="Bevels"
       inkscape:menu-tooltip="Basic specular bevel to use for building textures"
       style="color-interpolation-filters:sRGB"
       id="filter11"
       x="-0.64551771"
       y="-2.1335122"
       width="2.2910354"
       height="5.2670243"><feGaussianBlur
         stdDeviation="6"
         in="SourceGraphic"
         result="result0"
         id="feGaussianBlur8" /><feDiffuseLighting
         lighting-color="#ffffff"
         diffuseConstant="1"
         surfaceScale="4"
         result="result5"
         id="feDiffuseLighting8"><feDistantLight
           elevation="45"
           azimuth="235"
           id="feDistantLight8" /></feDiffuseLighting><feComposite
         k1="1.4"
         in2="SourceGraphic"
         in="result5"
         result="fbSourceGraphic"
         operator="arithmetic"
         id="feComposite9"
         k2="0"
         k3="0"
         k4="0" /><feGaussianBlur
         result="result0"
         in="fbSourceGraphic"
         stdDeviation="6"
         id="feGaussianBlur9" /><feSpecularLighting
         specularExponent="25"
         specularConstant="1"
         surfaceScale="4"
         lighting-color="#ffffff"
         result="result1"
         in="result0"
         id="feSpecularLighting9"><feDistantLight
           azimuth="235"
           elevation="45"
           id="feDistantLight9" /></feSpecularLighting><feComposite
         k3="1"
         k2="1"
         operator="arithmetic"
         in="fbSourceGraphic"
         in2="result1"
         result="result4"
         id="feComposite10"
         k1="0"
         k4="0" /><feComposite
         operator="in"
         result="result2"
         in2="SourceGraphic"
         in="result4"
         id="feComposite11" /><feGaussianBlur
         stdDeviation="1"
         id="feGaussianBlur1" /><feComposite
         id="feComposite1"
         in2="SourceGraphic"
         operator="atop" /></filter></defs><g
     inkscape:label="Layer 1"
     inkscape:groupmode="layer"
     id="layer1"
     transform="translate(-37.203808,-80.76667)"><rect
       style="fill:#ffffff;stroke-width:0.413411;stroke-linecap:round;stroke-linejoin:round"
       id="rect1"
       width="211.66667"
       height="211.66667"
       x="37.203808"
       y="80.905106"
       inkscape:label="bg" /><path
       style="display:inline;fill:#0000ff;stroke:#cccccc;stroke-width:0.15625;stroke-linejoin:round"
       d="M 143.03712,116.42291 65.309812,87.405853 84.967084,180.36922 37.835739,174.10322 143.03712,285.78083 248.26593,174.12418 203.37176,184.35099 221.01721,87.280113 Z"
       id="path1"
       sodipodi:nodetypes="ccccccccc"
       inkscape:label="arrow" /><path
       id="path5"
       style="fill:none;stroke:#0000ff;stroke-width:4.6875;stroke-linecap:round;stroke-linejoin:round;stroke-dasharray:none"
       d="m 191.90935,281.55219 40.42497,-28.92986 m -59.86689,30.28908 63.30478,-60.10397 M 52.377992,252.84055 93.04006,281.84447 m -44.415535,-60.1687 63.924755,60.90703"
       inkscape:label="lines" /><text
       xml:space="preserve"
       style="font-style:normal;font-variant:normal;font-weight:normal;font-stretch:normal;font-size:19.7556px;font-family:'Arial Rounded MT Bold';-inkscape-font-specification:'Arial Rounded MT Bold, ';fill:#f9f9f9;stroke:none;stroke-width:3;stroke-linecap:round;stroke-linejoin:round;stroke-dasharray:none;filter:url(#filter11)"
       x="77.187614"
       y="182.27432"
       id="text5"
       inkscape:label="english"
       transform="matrix(1.5624999,0,0,1.5624999,-20.927139,-45.292814)"><tspan
         sodipodi:role="line"
         id="tspan5"
         style="font-style:normal;font-variant:normal;font-weight:normal;font-stretch:normal;font-size:19.7556px;font-family:'Arial Rounded MT Bold';-inkscape-font-specification:'Arial Rounded MT Bold, ';fill:#f9f9f9;stroke:none;stroke-width:3"
         x="77.187614"
         y="182.27432">COLD</tspan></text><text
       xml:space="preserve"
       style="font-style:normal;font-variant:normal;font-weight:normal;font-stretch:normal;font-size:79.375px;font-family:'Arial Rounded MT Bold';-inkscape-font-specification:'Arial Rounded MT Bold, ';display:none;fill:#f9f9f9;stroke:none;stroke-width:4.6875;stroke-linecap:round;stroke-linejoin:round;stroke-dasharray:none"
       x="105.01345"
       y="189.73247"
       id="text6"
       inkscape:label="chinese"><tspan
         sodipodi:role="line"
         id="tspan6"
         style="font-style:normal;font-variant:normal;font-weight:normal;font-stretch:normal;font-size:79.375px;font-family:'Segoe UI Symbol';-inkscape-font-specification:'Segoe UI Symbol';stroke-width:4.6875"
         x="-20.927139"
         y="-45.292812">冷</tspan></text><path
       style="fill:#f9f9f9;filter:url(#filter11)"
       d="m 105.73089,158.10601 c -1.02715,-0.3671 -1.05834,-0.68284 -1.05834,-10.71487 v -9.73902 l -2.71197,-0.0405 c -1.49159,-0.0223 -3.366831,-0.0131 -4.167196,0.0204 -1.690936,0.0708 -2.768662,-0.27588 -3.443894,-1.10792 l -0.480215,-0.59174 -0.169327,0.79375 c -0.823525,3.8604 -3.625517,13.01354 -4.981207,16.27188 -1.380483,3.31792 -1.99987,3.96875 -3.777036,3.96875 -2.289436,0 -3.552486,-1.01223 -3.552486,-2.84702 0,-0.41615 0.604144,-2.23777 1.342541,-4.04804 1.603913,-3.93219 2.865739,-7.67267 4.100385,-12.15494 1.060279,-3.84925 1.505897,-4.83335 2.40701,-5.31561 0.919408,-0.49205 2.609245,-0.36616 3.696584,0.27538 1.133887,0.66901 1.062692,0.67547 1.26092,-0.11434 0.370694,-1.47696 0.45335,-1.48416 16.101951,-1.40255 13.94002,0.0727 14.37991,0.0905 15.39781,0.62448 0.68354,0.35857 1.25846,0.94795 1.65365,1.69527 0.5887,1.11325 0.60581,1.3501 0.60581,8.38852 0,7.86105 -0.0889,8.44515 -1.51197,9.93084 -1.21801,1.27162 -2.87584,1.62467 -6.80535,1.44926 -3.82371,-0.17068 -5.78968,-0.63883 -7.01596,-1.67067 -0.69914,-0.58829 -0.8063,-0.85289 -0.8063,-1.99099 0,-1.64278 0.58081,-2.81023 1.5147,-3.04463 0.39123,-0.0982 1.60946,-0.0131 2.70717,0.18917 1.09771,0.20223 2.76975,0.37014 3.71563,0.37313 l 1.71979,0.005 0.0726,-4.61054 c 0.0399,-2.53579 -0.0217,-4.70478 -0.13686,-4.81998 -0.1152,-0.1152 -2.56071,-0.24311 -5.43447,-0.28426 l -5.22504,-0.0748 -0.0621,9.74649 -0.0621,9.74649 -0.74236,0.6384 c -0.60576,0.52094 -1.01958,0.63457 -2.24896,0.61752 -0.82863,-0.0115 -1.68519,-0.0847 -1.90347,-0.16272 z M 87.142332,126.56812 c -0.35416,-0.42089 -1.144077,-2.22399 -1.755371,-4.00688 -0.611294,-1.78289 -1.701329,-4.49218 -2.422301,-6.02064 -0.720972,-1.52846 -1.310858,-3.03683 -1.310858,-3.35195 0,-1.09439 1.993072,-2.52401 3.5188,-2.52401 1.803322,0 2.889338,1.53392 5.108745,7.21577 1.350705,3.4579 1.691205,4.09065 1.691205,3.14275 0,-1.28804 0.735567,-2.10246 2.711568,-3.00224 6.31242,-2.87439 10.3016,-5.07722 14.05222,-7.75969 1.58703,-1.13505 3.19635,-1.24441 4.707,-0.31985 3.63834,2.22677 8.89099,5.31822 10.67608,6.2834 3.48978,1.8869 4.8462,2.83883 5.30253,3.72129 0.39952,0.77257 0.39998,0.92438 0.006,1.95592 -0.2349,0.61508 -0.71782,1.39145 -1.07314,1.72525 -0.55751,0.52376 -0.82851,0.58532 -1.97771,0.44921 l -1.33168,-0.15772 v 0.89882 c 0,0.56854 -0.23457,1.17162 -0.63833,1.64118 l -0.63833,0.74236 -12.52468,0.07 c -9.80043,0.0548 -12.667613,-0.004 -13.181759,-0.2702 -0.628399,-0.32541 -0.876805,-0.81825 -1.181346,-2.34381 -0.13269,-0.6647 -0.178577,-0.6811 -1.167252,-0.4172 -1.226856,0.32746 -2.572028,-0.10921 -2.828824,-0.9183 -0.08995,-0.28341 -0.302266,-0.46615 -0.471818,-0.40609 -0.316898,0.11224 -0.319041,0.30698 -0.01753,1.59267 0.368169,1.56992 -1.149635,2.82518 -3.416072,2.82518 -0.991168,0 -1.302323,-0.1296 -1.837191,-0.76526 z m 31.970398,-5.55175 c -0.0787,-0.12737 -1.00848,-0.74253 -2.06613,-1.36702 -1.05765,-0.62449 -2.78831,-1.71594 -3.8459,-2.42545 l -1.9229,-1.29003 -2.57502,1.69542 c -1.41626,0.93248 -3.2001,2.02801 -3.96408,2.43451 -0.76398,0.40651 -1.38906,0.83924 -1.38906,0.96163 0,0.1224 3.5789,0.22254 7.95311,0.22254 4.47945,0 7.8906,-0.10115 7.80998,-0.2316 z"
       id="path6"
       sodipodi:nodetypes="cscccscsssssssssssssssssscccccscccsscccsssssssssssssscsscccscssssccssscsssss"
       inkscape:label="chinese"
       transform="matrix(1.5624999,0,0,1.5624999,-20.927139,-45.292814)" /></g></svg>
