<?xml version="1.0" encoding="UTF-8" standalone="no"?>
<!-- Created with Inkscape (http://www.inkscape.org/) -->

<svg
   width="800"
   height="800"
   viewBox="0 0 211.66666 211.66666"
   version="1.1"
   id="svg1"
   xml:space="preserve"
   inkscape:version="1.3 (0e150ed6c4, 2023-07-21)"
   sodipodi:docname="fire_r.svg"
   xmlns:inkscape="http://www.inkscape.org/namespaces/inkscape"
   xmlns:sodipodi="http://sodipodi.sourceforge.net/DTD/sodipodi-0.dtd"
   xmlns="http://www.w3.org/2000/svg"
   xmlns:svg="http://www.w3.org/2000/svg"><sodipodi:namedview
     id="namedview1"
     pagecolor="#ffffff"
     bordercolor="#000000"
     borderopacity="0.25"
     inkscape:showpageshadow="2"
     inkscape:pageopacity="0.0"
     inkscape:pagecheckerboard="0"
     inkscape:deskcolor="#d1d1d1"
     inkscape:document-units="px"
     inkscape:zoom="0.61647026"
     inkscape:cx="352.81507"
     inkscape:cy="463.93154"
     inkscape:window-width="1390"
     inkscape:window-height="764"
     inkscape:window-x="3035"
     inkscape:window-y="32"
     inkscape:window-maximized="0"
     inkscape:current-layer="layer1"><inkscape:page
       x="0"
       y="0"
       width="211.66666"
       height="211.66666"
       id="page5"
       margin="0"
       bleed="0"
       inkscape:label="fire_r" /></sodipodi:namedview><defs
     id="defs1"><filter
       inkscape:label="Combined Lighting"
       inkscape:menu="Bevels"
       inkscape:menu-tooltip="Basic specular bevel to use for building textures"
       style="color-interpolation-filters:sRGB"
       id="filter5"
       x="-0.26116321"
       y="-0.18434802"
       width="1.5223264"
       height="1.368696"><feGaussianBlur
         stdDeviation="6"
         in="SourceGraphic"
         result="result0"
         id="feGaussianBlur3" /><feDiffuseLighting
         lighting-color="#ffffff"
         diffuseConstant="1"
         surfaceScale="4"
         result="result5"
         id="feDiffuseLighting3"><feDistantLight
           elevation="45"
           azimuth="235"
           id="feDistantLight3" /></feDiffuseLighting><feComposite
         k1="1.4"
         in2="SourceGraphic"
         in="result5"
         result="fbSourceGraphic"
         operator="arithmetic"
         id="feComposite3"
         k2="0"
         k3="0"
         k4="0" /><feGaussianBlur
         result="result0"
         in="fbSourceGraphic"
         stdDeviation="6"
         id="feGaussianBlur4" /><feSpecularLighting
         specularExponent="25"
         specularConstant="1"
         surfaceScale="4"
         lighting-color="#ffffff"
         result="result1"
         in="result0"
         id="feSpecularLighting4"><feDistantLight
           azimuth="235"
           elevation="45"
           id="feDistantLight4" /></feSpecularLighting><feComposite
         k3="1"
         k2="1"
         operator="arithmetic"
         in="fbSourceGraphic"
         in2="result1"
         result="result4"
         id="feComposite4"
         k1="0"
         k4="0" /><feComposite
         operator="in"
         result="result2"
         in2="SourceGraphic"
         in="result4"
         id="feComposite5" /><feGaussianBlur
         stdDeviation="1"
         id="feGaussianBlur1" /><feComposite
         id="feComposite1"
         in2="SourceGraphic"
         operator="atop" /></filter><clipPath
       clipPathUnits="userSpaceOnUse"
       id="clipPath2"><rect
         style="fill:#ffffff;stroke-width:0.275833"
         id="rect3"
         width="199.72815"
         height="224.31879"
         x="2.1917257"
         y="-107.15611" /></clipPath><clipPath
       clipPathUnits="userSpaceOnUse"
       id="clipPath3"><rect
         style="fill:#ffffff;stroke-width:0.275833"
         id="rect4"
         width="177.79953"
         height="251.98479"
         x="1.9510909"
         y="-120.37203" /></clipPath><clipPath
       clipPathUnits="userSpaceOnUse"
       id="clipPath4"><rect
         style="fill:#ffffff;stroke-width:0.275833"
         id="rect5"
         width="211.66667"
         height="211.66667"
         x="2.3227334"
         y="-101.11224" /></clipPath><clipPath
       clipPathUnits="userSpaceOnUse"
       id="clipPath5"><rect
         style="fill:#ffffff;stroke-width:0.275833"
         id="rect6"
         width="211.66667"
         height="211.66667"
         x="2.3227334"
         y="-101.11224" /></clipPath></defs><g
     inkscape:label="fire_r"
     inkscape:groupmode="layer"
     id="layer1"
     transform="translate(-2.3227334,101.11224)"><rect
       style="fill:#ffffff;stroke-width:0.275833"
       id="rect1"
       width="211.66667"
       height="211.66667"
       x="2.3227334"
       y="-101.11224"
       clip-path="url(#clipPath5)"
       inkscape:label="bg" /><path
       id="path2"
       style="fill:#ff0000;filter:url(#filter5)"
       d="m 88.140751,-91.745887 c -0.08733,0.05161 -0.217065,0.161303 -0.38964,0.31626 -1.666564,1.496417 -3.734594,5.395668 -4.897893,9.235095 -0.663812,2.190904 -0.722732,2.751368 -0.735872,7.011459 -0.01611,5.223522 0.433791,7.911911 2.145605,12.821956 2.552864,7.322453 3.216233,12.492794 2.326473,18.134294 -0.218034,1.382446 -0.471936,3.108855 -0.564306,3.836458 -0.197288,1.554111 0.07368,1.429376 0.716235,-0.329696 0.252655,-0.691673 0.763847,-2.076397 1.135848,-3.076814 1.453019,-3.907582 1.841976,-6.094119 1.864486,-10.484115 0.02076,-4.049109 0.0084,-4.141248 -0.990121,-7.276042 -2.775369,-8.713247 -3.704892,-14.562279 -3.117639,-19.622575 0.343655,-2.961233 1.262351,-6.835238 2.162659,-9.11934 0.486602,-1.234522 0.606166,-1.60178 0.344165,-1.44694 z m -52.877393,11.006564 c -0.415093,0 -0.50821,0.459766 -0.236678,1.16737 0.225229,0.586938 0.633553,0.250906 0.633553,-0.521415 0,-0.397694 -0.152489,-0.645955 -0.396875,-0.645955 z m 0.531234,2.128552 c -0.137256,0.03241 -0.254618,0.259224 -0.220658,0.649573 0.02532,0.29104 0.181496,1.12448 0.347265,1.852083 0.450593,1.977752 0.973439,5.872224 1.033529,7.698755 0.126153,3.834718 -0.967458,9.234099 -2.660819,13.134082 -1.354914,3.120502 -2.98865,7.894492 -3.690731,10.784871 -2.352293,9.684092 -1.819728,18.179572 1.394747,22.246188 0.579122,0.732645 1.312473,1.436862 1.629874,1.564762 0.317401,0.127901 0.797564,0.240397 1.066602,0.249597 0.689268,0.02363 1.868001,-1.328359 2.239656,-2.568835 0.407256,-1.359287 0.412689,-8.598287 0.01189,-15.860014 -0.482498,-8.741905 0.236585,-14.350756 2.527494,-19.712492 0.553288,-1.294893 0.554455,-5.381545 0.0026,-8.541081 -0.451499,-2.584895 -1.800264,-6.934904 -3.035473,-9.789583 -0.125933,-0.291042 -0.264012,-0.826823 -0.306442,-1.190625 -0.04522,-0.38769 -0.202258,-0.549689 -0.339514,-0.517281 z m 20.314006,4.519104 c -0.268299,-0.06903 -0.360699,0.06083 -0.22996,0.401526 0.370329,0.965064 0.723584,10.328238 0.567407,15.043526 -0.206551,6.236156 -1.140655,15.721499 -2.018998,20.505208 -0.355029,1.933588 -2.105027,10.733327 -2.367815,11.90625 -0.11411,0.509323 -0.31821,1.467441 -0.453719,2.129069 -0.135509,0.661628 -0.69713,1.971317 -1.247985,2.910417 -0.886776,1.511775 -3.869973,7.520254 -4.985743,10.041764 -1.025512,2.3175385 -2.746144,7.1104987 -3.371887,9.3927087 -1.909671,6.9649388 -2.417294,10.2131936 -2.566768,16.4248373 -0.100105,4.160004 -0.03221,5.923435 0.313676,8.129219 1.296791,8.269846 4.766925,14.507973 10.157002,18.259868 2.513245,1.749404 3.640637,2.270178 7.908045,3.65404 4.904346,1.590412 7.216416,2.855455 9.230961,5.049305 2.292763,2.496829 3.017308,4.553145 3.004468,8.525061 -0.0094,2.907776 -0.519573,5.688922 -2.309937,12.585795 -0.585525,2.25557 -1.147526,4.607058 -1.248502,5.22552 -0.121853,0.746338 -0.08666,1.12448 0.104386,1.12448 0.158311,0 0.287838,-0.178594 0.287838,-0.396875 0,-0.218281 0.09359,-0.396875 0.207739,-0.396875 0.114146,0 0.418912,-0.358101 0.677478,-0.795817 0.258566,-0.437717 1.385364,-1.899122 2.50424,-3.247347 1.118877,-1.348226 2.486603,-3.011082 3.039091,-3.695382 0.552487,-0.6843 1.15253,-1.395788 1.333252,-1.581299 0.661479,-0.679007 3.911214,-5.004185 5.186763,-6.902938 2.818123,-4.194986 4.917785,-9.283787 5.642033,-13.675134 0.462427,-2.803842 0.158843,-8.694818 -0.606164,-11.768274 -0.982574,-3.947546 -1.6979,-5.523996 -3.45457,-7.611422 C 79.195493,24.512994 74.659273,18.486782 73.157686,16.181376 70.28842,11.776151 68.120083,7.0379628 67.246936,3.265885 66.664314,0.74890771 66.586557,-4.9283849 67.103792,-7.1851567 c 0.764282,-3.3346723 0.959972,-4.0123563 2.25671,-7.8052083 1.616801,-3.229777 1.354054,-6.411785 1.349788,-9.921875 -0.0072,-6.024729 -0.145771,-7.573143 -1.345654,-15.035775 -2.606185,-16.209095 -7.483258,-29.798963 -11.969295,-33.351969 -0.574247,-0.454812 -1.018445,-0.722651 -1.286743,-0.791683 z m 59.329712,20.943424 c -0.0985,-0.06552 -0.30556,0.03308 -0.55346,0.341582 -0.85959,1.069735 -1.9548,3.755284 -2.22053,5.445145 -0.34823,2.214498 0.006,4.971705 1.04696,8.158159 1.06248,3.251286 1.43156,6.055751 1.08004,8.2057 -0.15465,0.945885 -0.28219,1.928151 -0.28319,2.182813 -10e-4,0.254661 0.117,0.463021 0.26252,0.463021 0.14552,0 0.26451,-0.20836 0.26458,-0.463021 7e-5,-0.254662 0.24946,-1.117866 0.55397,-1.918229 0.34131,-0.897062 0.6072,-2.368539 0.6935,-3.836459 0.12727,-2.164147 0.0538,-2.690493 -0.80873,-5.772774 -1.23539,-4.414823 -1.4304,-6.583526 -0.84956,-9.450069 0.24647,-1.216384 0.56865,-2.436673 0.71571,-2.711462 0.18684,-0.349105 0.19673,-0.578884 0.0982,-0.644406 z m -29.771827,14.213086 c -0.145519,0 -0.264583,0.357189 -0.264583,0.79375 0,0.436563 0.119064,0.79375 0.264583,0.79375 0.145521,0 0.264584,-0.357187 0.264584,-0.79375 0,-0.436561 -0.119063,-0.79375 -0.264584,-0.79375 z m -0.529166,2.116667 c -0.145521,0 -0.264584,0.178594 -0.264584,0.396875 0,0.218281 0.119063,0.396875 0.264584,0.396875 0.145521,0 0.264583,-0.178594 0.264583,-0.396875 0,-0.218281 -0.119062,-0.396875 -0.264583,-0.396875 z m 18.586983,4.240051 c -0.10914,0.0037 -0.59626,0.98593 -1.08263,2.182813 -3.317907,8.16491 -3.213896,7.999034 -9.784411,15.623336 -2.796895,3.245464 -4.632231,6.1409712 -6.485392,10.2329667 -0.952243,2.1026625 -2.27303,9.2538238 -1.914095,10.3631917 0.06268,0.1937265 0.189476,1.2454032 0.282153,2.3368083 0.551867,6.4990113 3.808894,14.6033893 9.782349,24.3416663 2.163301,3.526742 2.582789,4.88711 2.569869,8.334375 -0.01479,3.945851 -0.700667,6.467335 -3.022555,11.1125 -3.238458,6.478859 -8.368276,13.121672 -15.937528,20.6375 -1.758662,1.746249 -3.372603,3.404605 -3.586345,3.685047 -0.235993,0.309637 0.234874,0.11043 1.198893,-0.506946 1.77704,-1.138051 10.426752,-6.220809 10.586434,-6.220809 0.05641,0 0.63213,-0.357187 1.278992,-0.79375 0.646862,-0.436562 1.239502,-0.79375 1.317232,-0.79375 0.194288,0 4.37383,-2.783913 6.818706,-4.541842 8.630328,-6.205432 14.105458,-12.989294 15.873448,-19.667533 0.71035,-2.683191 0.87076,-7.180787 0.35243,-9.87795 -1.04312,-5.428054 -4.20242,-11.879487 -8.5726,-17.506425 -4.353573,-5.60556 -6.926452,-14.4889567 -6.121072,-21.1341105 0.38742,-3.1965873 0.993079,-5.1478186 2.575036,-8.2976845 2.084066,-4.149614 3.047786,-6.983662 3.666446,-10.784872 0.50425,-3.098182 0.63647,-8.739022 0.20464,-8.724532 z m 22.15885,3.962032 c -0.14552,0 -0.26458,0.274051 -0.26458,0.608749 0,0.334697 -0.10147,0.721651 -0.22531,0.859896 -0.12384,0.138244 -0.55055,1.084585 -0.94827,2.10323 -0.39772,1.018644 -0.9036,2.268803 -1.12447,2.778125 -0.22088,0.509323 -0.49289,1.164167 -0.6041,1.455209 -0.11122,0.291041 -0.32587,0.826823 -0.47749,1.190625 -1.78241,4.276618 -3.15198,8.617621 -3.75585,11.9062497 -0.17368,0.9458844 -0.41326,2.2369626 -0.53226,2.8690755 -0.11899,0.6321129 -0.23347,2.7838496 -0.25477,4.78162027 -0.0463,4.34041033 0.61009,8.54468173 1.96681,12.59974753 1.35998,4.064837 1.72362,5.958802 1.71462,8.936406 -0.008,2.834241 -0.13808,3.447889 -1.97042,9.310026 -0.76025,2.432238 -1.025,3.78677 -1.13171,5.78931 -0.11042,2.072024 -0.0677,2.590349 0.20463,2.499589 0.18894,-0.06298 0.38397,-0.380659 0.43357,-0.705383 0.0496,-0.324724 1.16399,-2.670394 2.47685,-5.212602 4.81965,-9.332663 7.25489,-16.167605 7.96179,-22.346956 0.39471,-3.4503155 0.15404,-5.5378944 -1.35289,-11.73416748 -2.05018,-8.43009122 -2.48247,-11.80973652 -2.49907,-19.53937552 -0.0105,-4.890878 0.0692,-6.618629 0.31677,-6.866248 0.39489,-0.39509 0.44072,-1.283126 0.0662,-1.283126 z m -11.64167,0.926042 c -0.14552,-0.08994 -0.26458,0.08174 -0.26458,0.381372 0,0.29963 0.11906,0.54467 0.26458,0.54467 0.14552,0 0.26459,-0.17168 0.26459,-0.381372 0,-0.209693 -0.11907,-0.45473 -0.26459,-0.54467 z m -95.001433,9.270235 c -0.156468,0.0967 -0.220914,0.342018 -0.143144,0.54467 0.252108,0.656983 1.719597,9.9264219 2.169377,13.7035561 0.360253,3.0253189 0.385104,4.13285856 0.142627,6.2652507 -0.420542,3.6983117 -0.792168,4.7631644 -3.036507,8.6940432 -4.568749,8.001994 -7.052628,14.915575 -7.994344,22.250321 -0.3965354,3.088493 -0.4138849,3.937545 -0.129191,6.343799 0.561588,4.746597 1.17967,6.884406 3.093868,10.698572 1.119745,2.231171 1.988418,3.391751 4.435905,5.927803 4.670331,4.839335 11.023403,7.705033 18.63142,8.403622 1.067167,0.09799 3.924671,0.0266 6.35,-0.158647 5.071477,-0.387359 7.025793,-0.194378 9.562724,0.944129 1.698724,0.762342 3.091866,2.086455 3.934644,3.739823 0.480066,0.941797 1.32214,3.512505 2.300118,7.023344 0.632956,2.272248 0.850327,2.099272 1.746146,-1.389063 C 62.819533,64.774357 61.512602,58.859332 56.262077,56.27867 54.94773,55.63266 54.263482,55.407437 51.402942,54.678767 45.747155,53.238061 40.762112,50.534142 36.888065,46.80638 33.325624,43.378455 31.199436,40.104251 29.871439,36.000321 28.811213,32.723883 28.673991,31.400936 29.074589,28.320686 29.617926,24.14288 29.54459,12.858885 28.949532,9.0867183 28.392708,5.5569302 28.440106,5.7939299 27.572872,2.2075517 c -1.385656,-5.730275 -2.835059,-9.5949512 -6.400126,-17.0656247 -0.72916,-1.527968 -1.398548,-2.993798 -1.487248,-3.257683 -0.0887,-0.263885 -0.288981,-0.401074 -0.445451,-0.304374 z"
       sodipodi:nodetypes="sssssssssssssssssssssssssscsscsssssssssssssssssssssssssssssssssssccsssssssscssscssssssssssssssssssssssssssssssssssssssssssscsssscssscsssscsssssssssssssssssssssssssssssss"
       clip-path="url(#clipPath4)"
       inkscape:label="flame" /><text
       xml:space="preserve"
       style="font-style:normal;font-variant:normal;font-weight:bold;font-stretch:condensed;font-size:37.2587px;font-family:'Arial Narrow';-inkscape-font-specification:'Arial Narrow Bold Condensed';fill:#ff0000;stroke:#ff0000;stroke-width:1.4;stroke-dasharray:none"
       x="110.22485"
       y="118.53663"
       id="text5"
       transform="scale(1.1904793,0.83999781)"
       clip-path="url(#clipPath3)"
       inkscape:label="english"><tspan
         sodipodi:role="line"
         id="tspan5"
         x="110.22485"
         y="118.53663"
         style="font-style:normal;font-variant:normal;font-weight:bold;font-stretch:condensed;font-family:'Arial Narrow';-inkscape-font-specification:'Arial Narrow Bold Condensed';stroke:#ff0000;stroke-width:1.4;stroke-dasharray:none">Red</tspan></text><text
       xml:space="preserve"
       style="font-style:normal;font-variant:normal;font-weight:500;font-stretch:normal;font-size:69.488px;font-family:'Yu Gothic';-inkscape-font-specification:'Yu Gothic Medium';fill:#ff0000;stroke:none;stroke-width:0.179067"
       x="126.91736"
       y="61.012794"
       id="text2"
       transform="scale(1.0597738,0.94359758)"
       clip-path="url(#clipPath2)"
       inkscape:label="chinese"><tspan
         sodipodi:role="line"
         id="tspan2"
         style="font-style:normal;font-variant:normal;font-weight:bold;font-stretch:normal;font-family:'Yu Gothic';-inkscape-font-specification:'Yu Gothic Bold';fill:#ff0000;stroke:none;stroke-width:0.179067"
         x="126.91736"
         y="61.012794">紅</tspan></text></g></svg>
