<?xml version="1.0" encoding="UTF-8" standalone="no"?>
<!-- Created with Inkscape (http://www.inkscape.org/) -->

<svg
   width="800"
   height="800"
   viewBox="0 0 211.66667 211.66667"
   version="1.1"
   id="svg1"
   xml:space="preserve"
   inkscape:version="1.3 (0e150ed6c4, 2023-07-21)"
   sodipodi:docname="frost.svg"
   xmlns:inkscape="http://www.inkscape.org/namespaces/inkscape"
   xmlns:sodipodi="http://sodipodi.sourceforge.net/DTD/sodipodi-0.dtd"
   xmlns="http://www.w3.org/2000/svg"
   xmlns:svg="http://www.w3.org/2000/svg"><sodipodi:namedview
     id="namedview1"
     pagecolor="#ffffff"
     bordercolor="#000000"
     borderopacity="0.25"
     inkscape:showpageshadow="2"
     inkscape:pageopacity="0.0"
     inkscape:pagecheckerboard="0"
     inkscape:deskcolor="#d1d1d1"
     inkscape:document-units="px"
     inkscape:zoom="0.61647026"
     inkscape:cx="437.16626"
     inkscape:cy="369.84753"
     inkscape:window-width="1440"
     inkscape:window-height="878"
     inkscape:window-x="2993"
     inkscape:window-y="-6"
     inkscape:window-maximized="1"
     inkscape:current-layer="layer1" /><defs
     id="defs1"><filter
       inkscape:label="Combined Lighting"
       inkscape:menu="Bevels"
       inkscape:menu-tooltip="Basic specular bevel to use for building textures"
       style="color-interpolation-filters:sRGB"
       id="filter4"
       x="-0.27830214"
       y="-0.27902929"
       width="1.5566043"
       height="1.5580586"><feGaussianBlur
         stdDeviation="6"
         in="SourceGraphic"
         result="result0"
         id="feGaussianBlur2" /><feDiffuseLighting
         lighting-color="#ffffff"
         diffuseConstant="1"
         surfaceScale="4"
         result="result5"
         id="feDiffuseLighting2"><feDistantLight
           elevation="45"
           azimuth="235"
           id="feDistantLight2" /></feDiffuseLighting><feComposite
         k1="1.4"
         in2="SourceGraphic"
         in="result5"
         result="fbSourceGraphic"
         operator="arithmetic"
         id="feComposite2"
         k2="0"
         k3="0"
         k4="0" /><feGaussianBlur
         result="result0"
         in="fbSourceGraphic"
         stdDeviation="6"
         id="feGaussianBlur3" /><feSpecularLighting
         specularExponent="25"
         specularConstant="1"
         surfaceScale="4"
         lighting-color="#ffffff"
         result="result1"
         in="result0"
         id="feSpecularLighting3"><feDistantLight
           azimuth="235"
           elevation="45"
           id="feDistantLight3" /></feSpecularLighting><feComposite
         k3="1"
         k2="1"
         operator="arithmetic"
         in="fbSourceGraphic"
         in2="result1"
         result="result4"
         id="feComposite3"
         k1="0"
         k4="0" /><feComposite
         operator="in"
         result="result2"
         in2="SourceGraphic"
         in="result4"
         id="feComposite4" /><feGaussianBlur
         stdDeviation="1"
         id="feGaussianBlur1" /><feComposite
         id="feComposite1"
         in2="SourceGraphic"
         operator="atop" /></filter><clipPath
       clipPathUnits="userSpaceOnUse"
       id="clipPath2"><rect
         style="fill:#ffffff;stroke-width:0.264583;stroke-linecap:round;stroke-linejoin:round"
         id="rect3"
         width="135.46667"
         height="135.46667"
         x="37.203808"
         y="80.76667" /></clipPath></defs><g
     inkscape:label="Layer 1"
     inkscape:groupmode="layer"
     id="layer1"
     transform="translate(-37.203808,-80.76667)"><rect
       style="fill:#ffffff;stroke-width:0.413411;stroke-linecap:round;stroke-linejoin:round"
       id="rect1"
       width="211.66667"
       height="211.66667"
       x="37.203808"
       y="80.76667"
       inkscape:label="bg" /><path
       style="fill:#ff0000;filter:url(#filter4)"
       d="M 69.569405,184.29533 49.068817,163.78881 52.05241,152.71494 c 1.640976,-6.09062 3.985562,-14.80349 5.210191,-19.36193 3.136974,-11.67675 3.98152,-14.78478 4.814875,-17.71931 0.401747,-1.41468 1.031916,-3.73819 1.400377,-5.16335 l 0.669928,-2.59119 12.106697,-3.26927 c 6.658684,-1.79809 18.842395,-5.070879 27.074912,-7.272854 8.23252,-2.201975 15.36792,-4.156972 15.85645,-4.344437 0.62609,-0.240254 6.95354,5.71911 21.43979,20.192591 l 20.55156,20.53344 -1.4272,5.3902 c -0.78495,2.96461 -2.69472,10.02992 -4.24391,15.70069 -1.5492,5.67076 -3.45161,12.7442 -4.22757,15.71874 -0.77597,2.97454 -2.17154,8.32881 -3.10127,11.89838 -0.92973,3.56956 -1.94579,6.74549 -2.25792,7.05762 -0.31213,0.31213 -7.21723,2.34632 -15.34465,4.52042 -8.12743,2.17409 -20.48651,5.49286 -27.46463,7.37503 -6.978121,1.88218 -12.766816,3.42214 -12.863769,3.42214 -0.09695,0 -9.401543,-9.22793 -20.676866,-20.50652 z m 38.797445,7.21648 c 2.82937,-0.79289 8.81784,-2.40938 13.3077,-3.5922 l 8.16338,-2.15059 -0.38959,-6.51655 -0.3896,-6.51655 6.53128,0.39048 6.53127,0.39047 0.74558,-3.0771 c 0.41007,-1.69241 1.08821,-4.23458 1.50699,-5.64927 1.81979,-6.1476 5.03561,-18.87602 4.81612,-19.06253 -0.1321,-0.11226 -2.74804,-1.42211 -5.81318,-2.91078 -3.78354,-1.83758 -5.43534,-2.92614 -5.14431,-3.39018 0.23576,-0.37594 1.77905,-2.65641 3.42952,-5.06771 1.65047,-2.41131 3.00085,-4.58605 3.00085,-4.83275 0,-0.59169 -19.57316,-20.18034 -20.16437,-20.18034 -0.25121,0 -2.77235,1.557 -5.60254,3.46001 l -5.14578,3.46002 -2.69166,-5.7319 c -1.65099,-3.51579 -3.02315,-5.73218 -3.54905,-5.73261 -1.80767,-0.001 -27.146658,7.23848 -27.074261,7.73576 0.04196,0.28823 0.258263,3.19966 0.48067,6.46985 l 0.404377,5.9458 -6.557457,-0.39204 -6.557457,-0.39204 -1.264727,4.73487 c -0.695599,2.60419 -2.362375,8.80157 -3.703946,13.77197 l -2.439219,9.03709 5.6367,2.82863 c 3.100185,1.55574 5.6367,3.04257 5.6367,3.30406 0,0.26149 -1.569653,2.73976 -3.488118,5.50727 l -3.488118,5.03183 10.219967,10.21997 10.219968,10.21996 5.081644,-3.4676 c 2.794905,-1.90718 5.375237,-3.35494 5.734073,-3.21725 0.358835,0.1377 1.794678,2.71857 3.190762,5.73526 1.396082,3.01669 2.795552,5.39341 3.109922,5.2816 0.31438,-0.11181 2.88654,-0.85202 5.71591,-1.64491 z"
       id="path1"
       sodipodi:nodetypes="scssssccssscssssssssssscccccscssssssscscsscccsscssscccsssss"
       clip-path="url(#clipPath2)"
       transform="matrix(1.5624999,0,0,1.5624999,-20.927139,-45.431246)"
       inkscape:label="snowflake" /><text
       xml:space="preserve"
       style="font-style:normal;font-variant:normal;font-weight:900;font-stretch:normal;font-size:30.5614px;line-height:1;font-family:Arial;-inkscape-font-specification:'Arial Heavy';fill:#ff0000;stroke-width:0.12032;stroke-linecap:round;stroke-linejoin:round"
       x="93.240189"
       y="226.68712"
       id="text1"
       inkscape:label="english"><tspan
         sodipodi:role="line"
         id="tspan1"
         x="93.240189"
         y="226.68712"
         style="font-style:normal;font-variant:normal;font-weight:900;font-stretch:normal;font-family:Arial;-inkscape-font-specification:'Arial Heavy';stroke-width:0.12032">Frost</tspan></text><text
       xml:space="preserve"
       style="font-style:normal;font-variant:normal;font-weight:normal;font-stretch:normal;font-size:68.4178px;line-height:1;font-family:'Segoe UI Symbol';-inkscape-font-specification:'Segoe UI Symbol';fill:#ff0000;stroke-width:0.269362;stroke-linecap:round;stroke-linejoin:round"
       x="113.29338"
       y="198.60019"
       id="text2"
       inkscape:label="chinese"><tspan
         sodipodi:role="line"
         id="tspan2"
         x="113.29338"
         y="198.60019"
         style="font-style:normal;font-variant:normal;font-weight:normal;font-stretch:normal;font-family:'Segoe UI Symbol';-inkscape-font-specification:'Segoe UI Symbol';stroke-width:0.269362">霜</tspan></text></g></svg>
