<?xml version="1.0" encoding="UTF-8" standalone="no"?>
<!-- Created with Inkscape (http://www.inkscape.org/) -->

<svg
   width="800"
   height="800"
   viewBox="0 0 211.66667 211.66667"
   version="1.1"
   id="svg1"
   xml:space="preserve"
   inkscape:version="1.3 (0e150ed6c4, 2023-07-21)"
   sodipodi:docname="hot.svg"
   xmlns:inkscape="http://www.inkscape.org/namespaces/inkscape"
   xmlns:sodipodi="http://sodipodi.sourceforge.net/DTD/sodipodi-0.dtd"
   xmlns="http://www.w3.org/2000/svg"
   xmlns:svg="http://www.w3.org/2000/svg"><sodipodi:namedview
     id="namedview1"
     pagecolor="#ffffff"
     bordercolor="#000000"
     borderopacity="0.25"
     inkscape:showpageshadow="2"
     inkscape:pageopacity="0.0"
     inkscape:pagecheckerboard="0"
     inkscape:deskcolor="#d1d1d1"
     inkscape:document-units="px"
     inkscape:zoom="0.46573482"
     inkscape:cx="608.71549"
     inkscape:cy="541.08044"
     inkscape:window-width="1440"
     inkscape:window-height="878"
     inkscape:window-x="2993"
     inkscape:window-y="-6"
     inkscape:window-maximized="1"
     inkscape:current-layer="layer1" /><defs
     id="defs1"><filter
       inkscape:label="Combined Lighting"
       inkscape:menu="Bevels"
       inkscape:menu-tooltip="Basic specular bevel to use for building textures"
       style="color-interpolation-filters:sRGB"
       id="filter14"
       x="-0.80758891"
       y="-2.6658517"
       width="2.6151902"
       height="6.3317034"><feGaussianBlur
         stdDeviation="6"
         in="SourceGraphic"
         result="result0"
         id="feGaussianBlur11" /><feDiffuseLighting
         lighting-color="#ffffff"
         diffuseConstant="1"
         surfaceScale="4"
         result="result5"
         id="feDiffuseLighting11"><feDistantLight
           elevation="45"
           azimuth="235"
           id="feDistantLight11" /></feDiffuseLighting><feComposite
         k1="1.4"
         in2="SourceGraphic"
         in="result5"
         result="fbSourceGraphic"
         operator="arithmetic"
         id="feComposite12"
         k2="0"
         k3="0"
         k4="0" /><feGaussianBlur
         result="result0"
         in="fbSourceGraphic"
         stdDeviation="6"
         id="feGaussianBlur12" /><feSpecularLighting
         specularExponent="25"
         specularConstant="1"
         surfaceScale="4"
         lighting-color="#ffffff"
         result="result1"
         in="result0"
         id="feSpecularLighting12"><feDistantLight
           azimuth="235"
           elevation="45"
           id="feDistantLight12" /></feSpecularLighting><feComposite
         k3="1"
         k2="1"
         operator="arithmetic"
         in="fbSourceGraphic"
         in2="result1"
         result="result4"
         id="feComposite13"
         k1="0"
         k4="0" /><feComposite
         operator="in"
         result="result2"
         in2="SourceGraphic"
         in="result4"
         id="feComposite14" /><feGaussianBlur
         stdDeviation="1"
         id="feGaussianBlur1" /><feComposite
         id="feComposite1"
         in2="SourceGraphic"
         operator="atop" /></filter></defs><g
     inkscape:label="Layer 1"
     inkscape:groupmode="layer"
     id="layer1"
     transform="translate(-37.203808,-80.76667)"><rect
       style="fill:#ffffff;stroke-width:0.413411;stroke-linecap:round;stroke-linejoin:round"
       id="rect1"
       width="211.66667"
       height="211.66667"
       x="37.203808"
       y="80.76667"
       inkscape:label="bg" /><path
       style="display:inline;fill:#ff0000;stroke:none;stroke-width:0.15625"
       d="M 38.368854,199.4623 143.03713,88.625292 247.31705,199.44188 l -44.44841,-10.47809 16.98605,96.42207 -76.81756,-28.24497 -77.902175,28.87264 20.324638,-93.24488 z"
       id="path1"
       sodipodi:nodetypes="ccccccccc"
       inkscape:label="arrow" /><path
       id="path5"
       style="fill:none;stroke:#ff0000;stroke-width:3.90625;stroke-linecap:round;stroke-dasharray:none"
       d="m 229.89734,88.625292 c 27.53303,31.669058 -29.54818,50.615468 -2.19683,80.171578 M 188.105,88.625292 c 13.23055,22.759468 -6.90333,24.844828 0.22192,41.184268 M 98.087431,88.574355 c 13.018529,24.602215 -6.462795,24.944095 0.313833,41.307205 M 56.504543,88.625292 C 83.683727,120.23174 26.639242,140.06076 54.30771,168.95377"
       inkscape:label="lines" /><path
       style="font-size:18.3444px;font-family:'Arial Rounded MT Bold';-inkscape-font-specification:'Arial Rounded MT Bold, ';fill:#ffff00;stroke:#ff0000;stroke-width:10;stroke-linecap:round;stroke-linejoin:round;filter:url(#filter14)"
       d="m 59.12568,174.258 2.9738,8.80495 2.982756,-8.86765 q 0.232888,-0.69867 0.349332,-0.96739 0.116444,-0.27767 0.385161,-0.49264 0.268717,-0.22393 0.734492,-0.22393 0.340375,0 0.627006,0.17018 0.295589,0.17019 0.456819,0.45682 0.170187,0.27768 0.170187,0.56431 0,0.19706 -0.05374,0.42994 -0.05374,0.22394 -0.134359,0.44787 -0.08061,0.21497 -0.16123,0.44786 l -3.179815,8.58102 q -0.170187,0.49265 -0.340375,0.94051 -0.170187,0.4389 -0.394118,0.77928 -0.22393,0.33142 -0.600134,0.54639 -0.367246,0.21497 -0.90468,0.21497 -0.537433,0 -0.913637,-0.21497 -0.367246,-0.20602 -0.600134,-0.54639 -0.223931,-0.34933 -0.394118,-0.78824 -0.170187,-0.4389 -0.340375,-0.93155 l -3.126072,-8.50936 q -0.08062,-0.23289 -0.170187,-0.45682 -0.08061,-0.22393 -0.143316,-0.48369 -0.05374,-0.25976 -0.05374,-0.43891 0,-0.45682 0.367246,-0.83302 0.367246,-0.3762 0.922594,-0.3762 0.68075,0 0.958424,0.42099 0.286631,0.41203 0.582219,1.32567 z m 19.329696,0.52847 h -5.992385 v 3.2246 h 5.517652 q 0.609091,0 0.90468,0.27768 0.304545,0.26871 0.304545,0.71658 0,0.44786 -0.295588,0.73449 -0.295589,0.27767 -0.913637,0.27767 h -5.517652 v 3.73517 h 6.198401 q 0.627006,0 0.940509,0.29558 0.32246,0.28664 0.32246,0.77033 0,0.46577 -0.32246,0.76136 -0.313503,0.28663 -0.940509,0.28663 H 71.43291 q -0.868851,0 -1.254012,-0.38516 -0.376203,-0.38516 -0.376203,-1.24505 v -9.87087 q 0,-0.57326 0.170187,-0.93155 0.170187,-0.36725 0.528476,-0.52848 0.367247,-0.17018 0.931552,-0.17018 h 7.022466 q 0.635963,0 0.940508,0.28663 0.313503,0.27767 0.313503,0.73449 0,0.46578 -0.313503,0.75241 -0.304545,0.27767 -0.940508,0.27767 z m 7.156824,5.46391 h -0.931552 v 4.21885 q 0,0.83303 -0.367246,1.22714 -0.367246,0.39412 -0.958423,0.39412 -0.635963,0 -0.985295,-0.41203 -0.349332,-0.41203 -0.349332,-1.20923 v -10.10375 q 0,-0.85989 0.385161,-1.24505 0.38516,-0.38516 1.245054,-0.38516 h 4.326341 q 0.895722,0 1.531686,0.0806 0.635963,0.0717 1.146525,0.30455 0.618048,0.25976 1.092781,0.74345 0.474733,0.48369 0.716578,1.12861 0.250803,0.63596 0.250803,1.35254 0,1.46899 -0.833022,2.34679 -0.824065,0.87781 -2.508024,1.24506 0.707621,0.3762 1.352541,1.11069 0.644921,0.7345 1.146525,1.56752 0.510562,0.82406 0.788236,1.49586 0.286632,0.66283 0.286632,0.91363 0,0.25976 -0.170188,0.51952 -0.16123,0.2508 -0.447861,0.39412 -0.286631,0.15227 -0.662835,0.15227 -0.447861,0 -0.752407,-0.21497 -0.304546,-0.20602 -0.528476,-0.52848 -0.214974,-0.32246 -0.591177,-0.94946 l -1.06591,-1.77353 q -0.573263,-0.97634 -1.030081,-1.4869 -0.447862,-0.51057 -0.913637,-0.69867 -0.465776,-0.1881 -1.173397,-0.1881 z m 1.522728,-5.51765 h -2.45428 v 3.60976 h 2.382623 q 0.958423,0 1.6123,-0.16123 0.653878,-0.17019 0.994253,-0.5643 0.349331,-0.40308 0.349331,-1.10174 0,-0.54639 -0.277674,-0.95843 -0.277674,-0.42099 -0.770321,-0.627 -0.465776,-0.19706 -1.836232,-0.19706 z m 10.327682,9.7365 v -4.16511 l -3.206687,-4.97126 q -0.420989,-0.67179 -0.600134,-1.04799 -0.170187,-0.37621 -0.170187,-0.65388 0,-0.45682 0.349332,-0.78824 0.358289,-0.33141 0.877808,-0.33141 0.546391,0 0.824065,0.3135 0.286631,0.30455 0.850936,1.22714 l 2.45428,3.98597 2.481157,-3.98597 q 0.22393,-0.36725 0.3762,-0.61805 0.15227,-0.2508 0.33142,-0.46577 0.1881,-0.22394 0.41203,-0.34038 0.22393,-0.11644 0.54639,-0.11644 0.5016,0 0.83302,0.33141 0.34038,0.32246 0.34038,0.75241 0,0.34933 -0.17019,0.69866 -0.17019,0.34934 -0.58222,0.96739 l -3.2873,5.04291 v 4.16511 q 0,0.81511 -0.376207,1.21819 -0.376203,0.40307 -0.958423,0.40307 -0.591177,0 -0.958423,-0.39412 -0.367247,-0.40307 -0.367247,-1.22714 z m 20.38665,-10.34559 v 3.76203 h 5.74158 v -3.76203 q 0,-0.80615 0.35829,-1.20923 0.36725,-0.40307 0.95842,-0.40307 0.60014,0 0.96738,0.40307 0.37621,0.39412 0.37621,1.20923 v 10.34559 q 0,0.81511 -0.37621,1.21819 -0.3762,0.40307 -0.96738,0.40307 -0.60013,0 -0.95842,-0.40307 -0.35829,-0.41204 -0.35829,-1.21819 v -4.41591 h -5.74158 v 4.41591 q 0,0.81511 -0.3762,1.21819 -0.37621,0.40307 -0.96738,0.40307 -0.60014,0 -0.95843,-0.40307 -0.35829,-0.41204 -0.35829,-1.21819 v -10.34559 q 0,-0.80615 0.34933,-1.20923 0.35829,-0.40307 0.96739,-0.40307 0.60013,0 0.96738,0.40307 0.3762,0.39412 0.3762,1.20923 z m 17.03664,-1.6123 q 2.04225,0 3.50228,0.83302 1.46898,0.82406 2.22139,2.35575 0.75241,1.52273 0.75241,3.58289 0,1.52273 -0.41204,2.76778 -0.41203,1.24506 -1.23609,2.15869 -0.82407,0.91364 -2.02434,1.39733 -1.20026,0.48369 -2.74986,0.48369 -1.54065,0 -2.75883,-0.49264 -1.21818,-0.50161 -2.03329,-1.40629 -0.81511,-0.90468 -1.2361,-2.17661 -0.41203,-1.27192 -0.41203,-2.74986 0,-1.51378 0.42995,-2.77674 0.4389,-1.26297 1.26297,-2.14974 0.82406,-0.88676 2.00641,-1.35254 1.18236,-0.47473 2.68717,-0.47473 z m 3.77995,6.75375 q 0,-1.44212 -0.46577,-2.49907 -0.46578,-1.05695 -1.33463,-1.59439 -0.85989,-0.54639 -1.97955,-0.54639 -0.79719,0 -1.47794,0.30455 -0.67179,0.29559 -1.16444,0.86885 -0.48369,0.57326 -0.77032,1.46898 -0.27767,0.88677 -0.27767,1.99747 0,1.11965 0.27767,2.02433 0.28663,0.90468 0.79719,1.50481 0.51952,0.59118 1.18236,0.88677 0.67179,0.29559 1.46898,0.29559 1.02113,0 1.87206,-0.51056 0.8599,-0.51057 1.3615,-1.57648 0.51056,-1.06591 0.51056,-2.62446 z m 12.79988,-4.3353 h -2.90214 v 9.53944 q 0,0.82407 -0.36725,1.22714 -0.36725,0.39412 -0.94947,0.39412 -0.59117,0 -0.96738,-0.40307 -0.36724,-0.40308 -0.36724,-1.21819 v -9.53944 h -2.90214 q -0.68075,0 -1.01217,-0.29559 -0.33142,-0.30455 -0.33142,-0.79719 0,-0.51057 0.34038,-0.80615 0.34933,-0.29559 1.00321,-0.29559 h 8.45562 q 0.6897,0 1.02112,0.30454 0.34038,0.30455 0.34038,0.7972 0,0.49264 -0.34038,0.79719 -0.34037,0.29559 -1.02112,0.29559 z"
       id="text8"
       inkscape:label="english_bg"
       aria-label="VERY  HOT"
       transform="matrix(1.5624999,0,0,1.5624999,-20.927139,-45.431246)" /><text
       xml:space="preserve"
       style="font-weight:bold;font-stretch:condensed;font-size:28.6631px;font-family:'Arial Narrow';-inkscape-font-specification:'Arial Narrow Bold Condensed';fill:#ffff00;stroke:none;stroke-width:3.19019;stroke-linecap:round;stroke-dasharray:none"
       x="66.180367"
       y="244.98524"
       id="text6"
       inkscape:label="english"><tspan
         sodipodi:role="line"
         id="tspan6"
         x="66.180367"
         y="244.98524"
         style="font-style:normal;font-variant:normal;font-weight:normal;font-stretch:normal;font-size:28.6631px;font-family:'Arial Rounded MT Bold';-inkscape-font-specification:'Arial Rounded MT Bold, ';fill:#ffff00;stroke:none;stroke-width:3.19019">VERY  HOT</tspan></text><path
       d="m 129.08012,141.70368 q -0.57051,4.83691 -1.51309,6.49883 -0.76894,1.31464 -2.18281,1.28984 -2.70371,-0.0744 -4.26641,-5.90352 -1.66191,-5.97793 -1.73632,-15.94941 l -4.11758,0.0992 q -0.29766,5.97793 -1.46348,10.26914 1.86035,1.98437 3.96875,4.81211 0.17363,0.27285 0.17363,0.37207 0,0.14883 -0.37207,0.5457 l -0.91777,0.91778 q -0.39687,0.39687 -0.5209,0.39687 -0.12402,0 -0.29765,-0.22324 -2.23243,-3.07578 -3.00137,-3.96875 -1.95957,5.03535 -6.30039,8.92969 -0.54571,0.5705 -0.76895,0.5705 -0.19843,0 -0.74414,-0.5705 -0.74414,-0.74414 -1.63711,-1.11622 5.43223,-4.41523 7.4166,-10.0707 -1.21543,-1.26504 -3.54707,-3.24941 -0.19843,-0.14883 -0.19843,-0.24805 0,-0.0992 0.39687,-0.49609 l 0.76895,-0.81856 q 0.32246,-0.37207 0.47129,-0.37207 0.0992,0 0.22324,0.12403 1.31465,1.01699 2.70371,2.33164 0.74414,-3.44786 0.96738,-8.08633 h -0.29765 q -2.23243,0.0744 -3.74551,0.17363 -0.12403,0 -0.76895,0.0496 -0.19844,0.0248 -0.27285,0.0248 -0.39687,0 -0.39687,-0.39688 l -0.0992,-2.08359 q 0,-0.34727 0.39687,-0.34727 l 2.00918,0.0496 q 1.16582,0 2.70371,-0.0496 h 0.57051 q 0.0496,-1.0666 0.0496,-3.39824 0,-3.94395 -0.24805,-5.65547 1.73633,0.0992 2.72852,0.24805 0.76894,0.0992 0.76894,0.47129 0,0.37207 -0.24804,0.96738 -0.24805,0.62012 -0.24805,3.44785 0,1.36426 -0.0992,3.81992 l 2.6293,-0.0496 q 1.68672,-0.0496 2.90215,-0.12402 0.19843,0 0.64492,-0.0248 0.17363,-0.0248 0.22324,-0.0248 0.39688,0 0.39688,0.44648 -0.0248,0.99219 -0.0248,1.90997 0,1.16582 0.0744,3.79511 0.0992,5.23379 1.06661,9.92188 1.01699,5.2834 2.23242,5.2834 0.64492,0 1.36426,-6.8709 0.5705,0.5705 1.5875,1.0666 0.64492,0.32246 0.64492,0.84336 0,0.14883 -0.0496,0.42168 z m -23.14277,-8.28477 q -0.27286,1.16582 -0.96739,1.78594 -1.01699,0.86816 -3.81992,0.86816 -2.306835,0 -3.100585,-0.49609 -0.570508,-0.39688 -0.719336,-0.84336 -0.198437,-0.47129 -0.198437,-1.51309 v -3.24941 h -7.267774 q 1.314649,0.49609 2.108399,0.91777 0.446484,0.22325 0.446484,0.4961 0,0.24804 -0.347266,0.47129 -0.396875,0.24804 -0.768945,0.86816 -2.257226,3.49746 -5.853906,5.08496 -0.545703,0.22324 -0.719336,0.22324 -0.272852,0 -0.644922,-0.69453 -0.496094,-0.81855 -1.016992,-1.26504 4.34082,-1.5875 6.201172,-4.73769 0.297656,-0.5457 0.545703,-1.36426 l -6.077148,0.0992 q -0.372071,0 -0.372071,-0.39688 v -1.68671 q 0,-0.39688 0.372071,-0.39688 l 6.250781,0.0992 h 3.447851 v -4.11758 h -1.984375 l -5.481836,0.0992 q -0.421679,0 -0.421679,-0.39687 v -1.68672 q 0,-0.39688 0.421679,-0.39688 l 5.481836,0.0992 h 1.984375 v -0.19844 q 0,-3.59668 -0.297656,-4.98574 1.612305,0.0744 2.926953,0.24805 0.669727,0.0744 0.669727,0.42168 0,0.22324 -0.297657,0.84336 -0.272851,0.64492 -0.272851,3.42304 v 0.24805 h 2.033984 l 5.432227,-0.0992 q 0.42168,0 0.42168,0.39688 v 1.68672 q 0,0.39687 -0.42168,0.39687 l -5.432227,-0.0992 h -2.033984 v 4.11758 h 3.050976 l 6.250785,-0.0992 q 0.42168,0 0.42168,0.39688 v 1.68671 q 0,0.39688 -0.42168,0.39688 l -5.878714,-0.0992 v 2.90215 q 0,0.81855 0.496094,1.01699 0.29766,0.0992 1.41387,0.0992 1.51308,0 1.93476,-0.5209 0.44649,-0.47129 0.5209,-1.86035 0.44648,0.32246 1.31465,0.69453 0.76894,0.27285 0.76894,0.5457 0,0.12403 -0.0992,0.57051 z m -1.5875,10.93887 q -0.17364,0.71934 -0.29766,1.51309 -0.0744,0.76894 -0.22324,0.89296 -0.12403,0.12403 -0.74414,0.22325 -8.60723,1.53789 -15.602152,2.33164 -1.885156,0.24804 -2.133203,0.37207 -0.396875,0.19843 -0.719336,0.19843 -0.347265,0 -0.496093,-0.49609 -0.372071,-1.19062 -0.620118,-2.70371 0.892969,0.0248 1.513086,0.0248 1.5875,0 3.522266,-0.17363 3.100586,-0.29765 4.836914,-0.5209 v -4.41523 h -1.537891 l -5.13457,0.0992 q -0.396875,0 -0.396875,-0.34727 v -1.73633 q 0,-0.39687 0.396875,-0.39687 l 5.13457,0.0992 h 1.537891 V 138.107 q 0,-2.85254 -0.248047,-4.06797 1.761133,0.0992 2.877344,0.24805 0.570507,0.0992 0.570507,0.47129 0,0.19843 -0.248046,0.69453 -0.272852,0.44648 -0.272852,2.60449 v 1.26504 h 1.389062 l 5.109768,-0.0992 q 0.42168,0 0.42168,0.39687 v 1.73633 q 0,0.34727 -0.42168,0.34727 l -5.109768,-0.0992 H 96.06508 v 4.11758 q 3.447852,-0.44649 8.28477,-1.36426 z m -12.129496,8.73125 q -2.455665,4.46484 -6.151563,8.08633 -0.248047,0.19843 -0.347266,0.19843 -0.124023,0 -0.570507,-0.34726 l -1.463477,-1.19063 q -0.322461,-0.19843 -0.322461,-0.34726 0,-0.12403 0.198438,-0.29766 4.067968,-3.54707 5.953125,-7.51582 0.09922,-0.24805 0.223242,-0.24805 0.09922,0 0.694531,0.29766 l 1.364258,0.64492 q 0.496094,0.24805 0.496094,0.42168 0,0.0992 -0.07441,0.29766 z m 34.280076,5.85391 q 0.12402,0.14882 0.12402,0.27285 0,0.19843 -0.47128,0.47129 l -1.5379,0.91777 q -0.39687,0.24805 -0.5457,0.24805 -0.17363,0 -0.32246,-0.29766 -2.23242,-4.2416 -5.33301,-7.71426 -0.17363,-0.22324 -0.17363,-0.32246 0,-0.17363 0.5457,-0.44648 l 1.26504,-0.64493 q 0.42168,-0.24804 0.5209,-0.24804 0.0992,0 0.34727,0.24804 3.42304,3.74551 5.58105,7.51583 z m -13.09687,0.59531 q 0.0248,0.14883 0.0248,0.22324 0,0.24805 -0.5457,0.39687 l -1.61231,0.44649 q -0.37207,0.12402 -0.5457,0.12402 -0.22324,0 -0.32246,-0.37207 -0.84336,-3.94394 -2.33164,-7.36699 -0.0744,-0.17363 -0.0744,-0.27285 0,-0.19844 0.5209,-0.34727 l 1.51309,-0.34726 q 0.24805,-0.0496 0.37207,-0.0496 0.24805,0 0.39687,0.29765 1.46348,3.05098 2.6045,7.26778 z m -11.78223,0.66972 q 0,0.0992 0,0.14883 0,0.29766 -0.57051,0.34727 l -1.736326,0.19844 q -0.297656,0.0248 -0.37207,0.0248 -0.372071,0 -0.372071,-0.42168 -0.148828,-4.06797 -1.091406,-7.66465 -0.02481,-0.14883 -0.02481,-0.22324 0,-0.27285 0.545704,-0.34727 l 1.5875,-0.14882 q 0.223242,-0.0248 0.297656,-0.0248 0.248043,0 0.347263,0.32246 0.99219,3.39824 1.38907,7.78867 z"
       id="text9"
       style="font-size:50.8px;font-family:'Segoe UI Symbol';-inkscape-font-specification:'Segoe UI Symbol';fill:#ffff00;stroke:#ff0000;stroke-width:12;stroke-linecap:round;stroke-linejoin:round;filter:url(#filter14)"
       inkscape:label="chinese_bg"
       aria-label="熱"
       transform="matrix(1.5624999,0,0,1.5624999,-20.927139,-45.431246)" /><text
       xml:space="preserve"
       style="font-style:normal;font-variant:normal;font-weight:normal;font-stretch:normal;font-size:79.375px;font-family:'Segoe UI';-inkscape-font-specification:'Segoe UI';display:none;fill:#ffff00;stroke:#ffff00;stroke-width:3.90625;stroke-linecap:round;stroke-dasharray:none"
       x="103.55595"
       y="201.87062"
       id="text7"
       inkscape:label="chinese"><tspan
         sodipodi:role="line"
         id="tspan7"
         x="103.55595"
         y="201.87062"
         style="font-style:normal;font-variant:normal;font-weight:normal;font-stretch:normal;font-size:79.375px;font-family:'Segoe UI';-inkscape-font-specification:'Segoe UI';fill:#ffff00;stroke:#ffff00;stroke-width:3.90625">熱</tspan></text><path
       d="m 180.76054,175.98074 q -0.89143,7.55767 -2.36421,10.15442 -1.20147,2.05413 -3.41064,2.01538 -4.22454,-0.11625 -6.66626,-9.22425 -2.59674,-9.34052 -2.713,-24.92096 l -6.43372,0.155 q -0.46509,9.34052 -2.28669,16.04554 2.9068,3.10057 6.20117,7.51892 0.2713,0.42632 0.2713,0.58136 0,0.23254 -0.58136,0.85265 l -1.43402,1.43403 q -0.6201,0.62011 -0.8139,0.62011 -0.19378,0 -0.46508,-0.34881 -3.48817,-4.80591 -4.68964,-6.20117 -3.06183,7.86773 -9.84436,13.95264 -0.85267,0.8914 -1.20148,0.8914 -0.31005,0 -1.16272,-0.8914 -1.16272,-1.16272 -2.55799,-1.7441 8.48786,-6.89879 11.58844,-15.73546 -1.89911,-1.97663 -5.5423,-5.07721 -0.31004,-0.23254 -0.31004,-0.38757 0,-0.155 0.62011,-0.77514 l 1.20148,-1.279 q 0.50385,-0.58136 0.73639,-0.58136 0.155,0 0.34881,0.19379 2.05414,1.58905 4.22455,3.64319 1.16272,-5.38728 1.51153,-12.63489 h -0.46508 q -3.48817,0.11625 -5.85235,0.2713 -0.1938,0 -1.20149,0.0775 -0.31006,0.0388 -0.42633,0.0388 -0.62011,0 -0.62011,-0.62013 l -0.155,-3.25561 q 0,-0.54261 0.62011,-0.54261 l 3.13935,0.0775 q 1.82159,0 4.22454,-0.0775 h 0.89142 q 0.0775,-1.66656 0.0775,-5.30975 0,-6.16242 -0.38757,-8.83667 2.71301,0.155 4.26331,0.38758 1.20147,0.155 1.20147,0.73639 0,0.58136 -0.38756,1.51153 -0.38758,0.96894 -0.38758,5.38727 0,2.13165 -0.155,5.96862 l 4.10828,-0.0775 q 2.6355,-0.0775 4.53461,-0.19378 0.31004,0 1.00768,-0.0388 0.2713,-0.0387 0.34882,-0.0387 0.62012,0 0.62012,0.69763 -0.0387,1.55029 -0.0387,2.98432 0,1.8216 0.11625,5.92986 0.155,8.1778 1.66658,15.50294 1.58905,8.25531 3.48816,8.25531 1.00768,0 2.13165,-10.73578 0.89141,0.89141 2.48047,1.66656 1.00769,0.50385 1.00769,1.31775 0,0.23255 -0.0775,0.65888 z m -36.16058,-12.94495 q -0.42634,1.82159 -1.51155,2.79053 -1.58904,1.3565 -5.96862,1.3565 -3.60443,0 -4.84467,-0.77514 -0.89141,-0.62013 -1.12396,-1.31775 -0.31006,-0.73639 -0.31006,-2.3642 v -5.07721 h -11.35589 q 2.05414,0.77514 3.29437,1.43402 0.69763,0.34883 0.69763,0.77515 0,0.38757 -0.5426,0.73639 -0.62012,0.38757 -1.20148,1.3565 -3.52691,5.46479 -9.14672,7.94525 -0.85267,0.34882 -1.12397,0.34882 -0.42633,0 -1.00769,-1.08521 -0.77514,-1.27898 -1.58905,-1.97662 6.78253,-2.48047 9.68933,-7.40264 0.46509,-0.85266 0.85266,-2.13166 l -9.49554,0.155 q -0.58136,0 -0.58136,-0.62012 v -2.63549 q 0,-0.62012 0.58136,-0.62012 l 9.76685,0.155 h 5.38726 v -6.43372 h -3.10058 l -8.56537,0.155 q -0.65887,0 -0.65887,-0.62011 v -2.6355 q 0,-0.62012 0.65887,-0.62012 l 8.56537,0.155 h 3.10058 v -0.31007 q 0,-5.61981 -0.46508,-7.79022 2.51922,0.11625 4.57336,0.38758 1.04645,0.11625 1.04645,0.65888 0,0.34881 -0.46509,1.31775 -0.42633,1.00769 -0.42633,5.3485 v 0.38758 h 3.1781 l 8.48785,-0.155 q 0.65888,0 0.65888,0.62012 v 2.6355 q 0,0.62011 -0.65888,0.62011 l -8.48785,-0.155 h -3.1781 v 6.43372 h 4.76715 l 9.76685,-0.155 q 0.65887,0 0.65887,0.62012 v 2.63549 q 0,0.62012 -0.65887,0.62012 l -9.18549,-0.155 v 4.53461 q 0,1.27899 0.77515,1.58905 0.46509,0.155 2.20917,0.155 2.36419,0 3.02306,-0.81391 0.69764,-0.73639 0.81391,-2.90679 0.69762,0.50384 2.05414,1.0852 1.20147,0.42633 1.20147,0.85265 0,0.1938 -0.155,0.89143 z m -2.48047,17.09198 q -0.27131,1.12397 -0.46509,2.3642 -0.11625,1.20147 -0.34882,1.39525 -0.19379,0.1938 -1.16271,0.34883 -13.4488,2.40295 -24.37836,3.64319 -2.94556,0.38756 -3.33313,0.58136 -0.62012,0.31005 -1.12397,0.31005 -0.5426,0 -0.77514,-0.77515 -0.58136,-1.86034 -0.96894,-4.22454 1.39527,0.0387 2.3642,0.0387 2.48047,0 5.50354,-0.2713 4.84467,-0.46508 7.55768,-0.8139 v -6.8988 h -2.40296 l -8.02276,0.155 q -0.62012,0 -0.62012,-0.54261 v -2.71302 q 0,-0.62011 0.62012,-0.62011 l 8.02276,0.155 h 2.40296 v -1.89904 q 0,-4.4571 -0.38757,-6.35621 2.75177,0.155 4.49584,0.38758 0.89142,0.155 0.89142,0.73639 0,0.31005 -0.38757,1.08521 -0.42633,0.69762 -0.42633,4.06951 v 1.97663 h 2.17041 l 7.98401,-0.155 q 0.65888,0 0.65888,0.62011 v 2.71301 q 0,0.54261 -0.65888,0.54261 l -7.98401,-0.155 h -2.17041 v 6.43372 q 5.38727,-0.69764 12.94495,-2.13166 z m -18.95234,13.64258 q -3.83697,6.97631 -9.61181,12.63489 -0.38758,0.31004 -0.5426,0.31004 -0.19379,0 -0.89142,-0.54259 l -2.28668,-1.86036 q -0.50385,-0.31005 -0.50385,-0.54259 0,-0.1938 0.31006,-0.4651 6.3562,-5.54229 9.30176,-11.74346 0.15503,-0.38758 0.34881,-0.38758 0.15503,0 1.08521,0.46509 l 2.13165,1.00769 q 0.77515,0.38758 0.77515,0.65887 0,0.155 -0.11627,0.4651 z m 53.56262,9.14673 q 0.19378,0.23253 0.19378,0.42633 0,0.31005 -0.73637,0.73639 l -2.40297,1.43402 q -0.62011,0.38757 -0.85266,0.38757 -0.2713,0 -0.50384,-0.46509 -3.48816,-6.6275 -8.33283,-12.05353 -0.2713,-0.34881 -0.2713,-0.50384 0,-0.2713 0.85266,-0.69763 l 1.97662,-1.0077 q 0.65888,-0.38756 0.81391,-0.38756 0.155,0 0.54261,0.38756 5.3485,5.85236 8.72039,11.74348 z m -20.46386,0.93017 q 0.0388,0.23255 0.0388,0.34882 0,0.38757 -0.85265,0.62011 l -2.51924,0.69764 q -0.58136,0.19378 -0.85265,0.19378 -0.34882,0 -0.50385,-0.58136 -1.31775,-6.16241 -3.64319,-11.51092 -0.11625,-0.2713 -0.11625,-0.42633 0,-0.31006 0.81391,-0.54261 l 2.3642,-0.54259 q 0.38758,-0.0775 0.58136,-0.0775 0.38758,0 0.62011,0.46507 2.28669,4.76716 4.06953,11.35591 z m -18.40973,1.04644 q 0,0.155 0,0.23255 0,0.46509 -0.89142,0.54261 l -2.71301,0.31006 q -0.46509,0.0387 -0.58136,0.0387 -0.58136,0 -0.58136,-0.65888 -0.23255,-6.3562 -1.70532,-11.97601 -0.0388,-0.23255 -0.0388,-0.34881 0,-0.42633 0.85266,-0.54261 l 2.48047,-0.23253 q 0.34882,-0.0387 0.46509,-0.0387 0.38757,0 0.5426,0.50384 1.55029,5.30975 2.17042,12.1698 z"
       id="text1"
       style="font-size:50.8px;font-family:'Segoe UI';-inkscape-font-specification:'Segoe UI';fill:#ffff00;stroke:#ffff00;stroke-width:3.90625;stroke-linecap:round"
       inkscape:label="chinese"
       aria-label="熱" /></g></svg>
