<?xml version="1.0" encoding="UTF-8" standalone="no"?>
<!-- Created with Inkscape (http://www.inkscape.org/) -->

<svg
   width="800"
   height="800"
   viewBox="0 0 211.66667 211.66667"
   version="1.1"
   id="svg1"
   xml:space="preserve"
   inkscape:version="1.3 (0e150ed6c4, 2023-07-21)"
   sodipodi:docname="landslide.svg"
   inkscape:export-filename="landslide_4096.png"
   inkscape:export-xdpi="655.35999"
   inkscape:export-ydpi="655.35999"
   xmlns:inkscape="http://www.inkscape.org/namespaces/inkscape"
   xmlns:sodipodi="http://sodipodi.sourceforge.net/DTD/sodipodi-0.dtd"
   xmlns="http://www.w3.org/2000/svg"
   xmlns:svg="http://www.w3.org/2000/svg"><sodipodi:namedview
     id="namedview1"
     pagecolor="#ffffff"
     bordercolor="#000000"
     borderopacity="0.25"
     inkscape:showpageshadow="2"
     inkscape:pageopacity="0.0"
     inkscape:pagecheckerboard="0"
     inkscape:deskcolor="#d1d1d1"
     inkscape:document-units="px"
     inkscape:zoom="0.4359103"
     inkscape:cx="283.31517"
     inkscape:cy="428.98734"
     inkscape:window-width="1440"
     inkscape:window-height="878"
     inkscape:window-x="2993"
     inkscape:window-y="-6"
     inkscape:window-maximized="1"
     inkscape:current-layer="layer1"
     showgrid="false" /><defs
     id="defs1"><filter
       inkscape:label="Combined Lighting"
       inkscape:menu="Bevels"
       inkscape:menu-tooltip="Basic specular bevel to use for building textures"
       style="color-interpolation-filters:sRGB"
       id="filter48"
       x="-0.20460851"
       y="-0.2563154"
       width="1.409217"
       height="1.5126308"><feGaussianBlur
         stdDeviation="6"
         in="SourceGraphic"
         result="result0"
         id="feGaussianBlur45" /><feDiffuseLighting
         lighting-color="#ffffff"
         diffuseConstant="1"
         surfaceScale="4"
         result="result5"
         id="feDiffuseLighting45"><feDistantLight
           elevation="45"
           azimuth="235"
           id="feDistantLight45" /></feDiffuseLighting><feComposite
         k1="1.4"
         in2="SourceGraphic"
         in="result5"
         result="fbSourceGraphic"
         operator="arithmetic"
         id="feComposite46"
         k2="0"
         k3="0"
         k4="0" /><feGaussianBlur
         result="result0"
         in="fbSourceGraphic"
         stdDeviation="6"
         id="feGaussianBlur46" /><feSpecularLighting
         specularExponent="25"
         specularConstant="1"
         surfaceScale="4"
         lighting-color="#ffffff"
         result="result1"
         in="result0"
         id="feSpecularLighting46"><feDistantLight
           azimuth="235"
           elevation="45"
           id="feDistantLight46" /></feSpecularLighting><feComposite
         k3="1"
         k2="1"
         operator="arithmetic"
         in="fbSourceGraphic"
         in2="result1"
         result="result4"
         id="feComposite47"
         k1="0"
         k4="0" /><feComposite
         operator="in"
         result="result2"
         in2="SourceGraphic"
         in="result4"
         id="feComposite48" /><feGaussianBlur
         stdDeviation="1"
         id="feGaussianBlur1" /><feComposite
         id="feComposite1"
         in2="SourceGraphic"
         operator="atop" /></filter><clipPath
       clipPathUnits="userSpaceOnUse"
       id="clipPath2"><rect
         style="fill:#ffffff;stroke-width:0.0750001"
         id="rect3"
         width="158.75"
         height="158.75"
         x="23.797052"
         y="79.009033" /></clipPath><clipPath
       clipPathUnits="userSpaceOnUse"
       id="clipPath3"><rect
         style="fill:#ffffff;stroke-width:0.0750001"
         id="rect4"
         width="158.75"
         height="158.75"
         x="23.797052"
         y="79.009033" /></clipPath><clipPath
       clipPathUnits="userSpaceOnUse"
       id="clipPath4"><rect
         style="fill:#ffffff;stroke-width:0.0750001"
         id="rect5"
         width="158.75"
         height="158.75"
         x="23.797052"
         y="79.009033" /></clipPath></defs><g
     inkscape:label="Layer 1"
     inkscape:groupmode="layer"
     id="layer1"
     transform="translate(-23.797052,-79.009033)"><rect
       style="fill:#ffffff;stroke-width:0.075"
       id="rect1"
       width="158.75"
       height="158.75"
       x="23.797052"
       y="79.009033"
       clip-path="url(#clipPath4)"
       transform="matrix(1.3333334,0,0,1.3333334,-7.9323513,-26.336346)"
       inkscape:label="bg" /><path
       style="display:inline;fill:#7f6633;fill-opacity:1;filter:url(#filter48)"
       d="m 28.113828,218.97177 c -0.680686,-0.27425 -1.141977,-1.04181 -1.14127,-1.89899 2.78e-4,-0.33699 0.573208,-1.56521 1.273177,-2.72937 0.699969,-1.16417 1.663881,-2.82982 2.142026,-3.70145 0.478145,-0.87163 1.316704,-2.35991 1.863465,-3.30729 0.546761,-0.94738 1.708909,-2.97267 2.582551,-4.50064 1.943216,-3.39861 4.065791,-7.07997 4.497169,-7.7998 0.176193,-0.29402 0.405983,-0.71317 0.510644,-0.93145 0.104661,-0.21828 1.106963,-2.00422 2.227338,-3.96875 1.120375,-1.96453 2.302925,-4.04812 2.627889,-4.63021 0.324964,-0.58208 1.276898,-2.24895 2.11541,-3.70416 1.867577,-3.24112 5.976276,-10.46351 6.773269,-11.90625 0.321551,-0.58209 1.297305,-2.30849 2.168341,-3.83646 0.871036,-1.52797 2.29495,-4.02828 3.164252,-5.55625 0.869302,-1.52797 2.058501,-3.61156 2.642664,-4.63021 0.584164,-1.01864 2.582555,-4.53099 4.440869,-7.80521 1.858314,-3.27422 4.771233,-8.3939 6.473154,-11.37708 1.70192,-2.98318 3.425639,-6.01927 3.830487,-6.74688 0.404848,-0.7276 1.695014,-2.98979 2.867035,-5.02708 1.172022,-2.03729 2.415976,-4.2315 2.764342,-4.87601 0.348367,-0.64452 1.220723,-2.16621 1.93857,-3.38156 0.717847,-1.21534 1.305176,-2.26136 1.305176,-2.32449 0,-0.0631 0.515195,-0.98222 1.144878,-2.04241 0.629683,-1.06019 2.0233,-3.47542 3.096926,-5.3672 2.005454,-3.53368 3.991976,-6.65272 5.350312,-8.400516 1.424584,-1.833038 2.903488,-1.241331 5.13294,2.053676 1.563868,2.31131 4.854788,8.20827 5.374868,9.63113 0.44107,1.20672 0.3043,2.47347 -0.3351,3.1036 -0.11617,0.11449 -0.45155,0.74811 -0.74529,1.40805 -0.43579,0.9791 -0.5306,1.73546 -0.51518,4.11031 0.0104,1.60073 0.12246,3.34625 0.24906,3.87892 0.1399,0.58866 0.95237,1.83388 2.0716,3.175 3.41594,4.09317 4.23552,5.59955 4.5941,8.44389 0.20146,1.59805 1.64744,4.89075 3.34169,7.60953 0.63542,1.01965 7.33027,14.35006 7.99476,15.91871 0.33904,0.80036 0.78631,1.81239 0.99393,2.24895 0.20762,0.43657 0.44287,1.32954 0.52278,1.98438 0.16935,1.38783 0.75572,3.10015 1.94801,5.68854 1.63362,3.54651 1.86038,4.51051 2.11614,8.99583 0.13276,2.32834 0.36596,4.8799 0.51823,5.67015 0.28538,1.48109 0.45931,1.75881 2.25785,3.60502 1.86989,1.91944 3.23948,4.21287 3.43106,5.74544 0.3318,2.65426 0.9793,4.87793 1.62231,5.57138 0.3485,0.37584 1.49694,1.18717 2.55211,1.80295 1.09485,0.63896 3.05435,2.20789 4.56431,3.65455 5.22125,5.00241 5.2691,5.03906 6.57997,5.03906 1.68727,0 4.8508,0.6589 6.32276,1.31691 1.06843,0.47762 1.70723,0.55663 4.18199,0.51724 3.53255,-0.0562 3.5507,-0.0443 5.33394,3.51952 2.27226,4.54109 2.41013,5.27184 1.08939,5.77398 -0.84815,0.32247 -137.05605,0.30567 -137.856902,-0.017 z M 163.76164,205.73364 c -2.36851,-0.27211 -4.49054,-1.33722 -6.03846,-3.03088 -1.56328,-1.71049 -5.48948,-7.49704 -6.18038,-9.10884 -0.59208,-1.38127 -1.04687,-5.58494 -0.72547,-6.7056 0.12162,-0.42404 1.2086,-1.78783 2.41552,-3.03063 4.65462,-4.79301 4.65975,-4.7972 7.22149,-5.8918 0.83397,-0.35634 1.69029,-0.49731 4.1025,-0.67534 2.03007,-0.14983 2.46672,-0.0918 4.51348,0.60002 4.47361,1.51206 7.66885,3.85996 9.13276,6.71087 0.68654,1.337 0.74515,1.71116 0.8874,5.66488 0.0838,2.32834 0.39167,3.49692 0.367,4.56754 -0.0202,0.87786 -0.47188,3.01991 -1.35292,4.64776 -1.6497,3.04807 -5.66417,5.61598 -9.58042,6.12824 -2.29319,0.29996 -3.05627,0.3198 -4.7625,0.12378 z m -23.40063,-8.77931 c -0.9626,-1.37431 -0.058,-2.6873 1.37912,-2.00171 0.8049,0.38399 1.1129,1.56312 0.57698,2.20887 -0.4714,0.568 -1.48861,0.46027 -1.9561,-0.20716 z m -4.49632,-3.6962 c -1.03535,-0.89057 -1.23591,-2.64552 -0.4036,-3.53148 0.88779,-0.945 1.95216,-0.8585 3.0593,0.24863 0.63121,0.63122 0.89958,1.1412 0.89958,1.70949 0,0.88653 -0.8574,1.88885 -1.61575,1.88885 -0.2517,0 -0.63114,0.0666 -0.84319,0.14795 -0.21206,0.0814 -0.70541,-0.12717 -1.09634,-0.46344 z m 5.37623,-0.44714 c -1.20585,-1.20585 -1.26754,-1.54035 -0.34852,-1.88976 1.59901,-0.60794 3.29007,0.19406 3.29007,1.56034 0,1.66079 -1.44801,1.82296 -2.94155,0.32942 z m -4.59908,-6.10399 c -1.29412,-0.58622 -2.35013,-1.67294 -2.89638,-2.98061 -1.0741,-2.57133 -0.0578,-4.44027 2.41458,-4.44027 3.10355,0 6.17035,2.16629 6.17035,4.35856 0,0.853 -1.76751,2.67194 -2.91042,2.99511 -0.50932,0.14402 -1.10464,0.32593 -1.32292,0.40424 -0.21828,0.0783 -0.87312,-0.0734 -1.45521,-0.33703 z m 19.52725,-15.24923 c -1.60429,-0.77632 -3.72131,-2.97533 -4.53893,-4.71474 -1.99475,-4.24364 1.23985,-10.21108 5.53482,-10.21108 1.46717,0 2.30593,0.4421 3.98542,2.10064 0.81939,0.80918 1.99886,1.88795 2.62105,2.39728 2.13462,1.74741 3.25273,5.47703 2.3546,7.85413 -0.40773,1.07915 -1.53154,2.15797 -2.86025,2.74571 -1.78787,0.79087 -5.28195,0.70621 -7.09671,-0.17194 z m -27.0883,-6.25957 c -1.26156,-1.38123 -1.69316,-3.75741 -0.89061,-4.90321 0.53484,-0.76359 1.09671,-0.74208 2.38178,0.0912 1.43744,0.93206 2.34692,2.36413 2.35734,3.7119 0.0114,1.47972 -0.45112,1.95889 -1.89102,1.95889 -0.98573,0 -1.29844,-0.13719 -1.95749,-0.85875 z m 8.61547,-1.29364 c -1.50278,-0.80511 -3.93843,-2.72538 -4.45306,-3.51081 -0.67908,-1.0364 -0.56089,-2.39507 0.28979,-3.3314 1.53716,-1.69193 5.7811,-1.64004 7.84888,0.096 1.93328,1.62308 2.00826,4.89098 0.15106,6.58353 -0.9931,0.90504 -2.3441,0.96234 -3.83667,0.16271 z m -8.95623,-7.12723 c -0.85767,-0.67464 -0.90511,-1.45085 -0.10183,-1.66612 1.06869,-0.2864 1.69527,-0.17632 2.20547,0.38745 0.49538,0.54739 0.49245,0.56203 -0.23833,1.19062 -0.89997,0.77412 -0.98784,0.77827 -1.86531,0.0881 z m -0.30955,-8.66464 c -1.77103,-0.66083 -2.38121,-0.99971 -4.00874,-2.22633 -2.11938,-1.59731 -3.13122,-3.09026 -3.67871,-5.42785 -1.01114,-4.31728 3.25416,-10.16801 9.68111,-13.27962 1.63834,-0.7932 2.50039,-1.07652 4.89479,-1.60868 3.32578,-0.73917 6.76236,1.82393 8.66815,6.46497 0.59915,1.45908 0.80269,2.44615 0.91778,4.45065 0.14343,2.49831 0.12265,2.62699 -0.69101,4.27976 -1.42188,2.88827 -4.57154,5.51019 -8.63034,7.18429 -1.66097,0.68509 -5.51805,0.77288 -7.15303,0.16281 z m -13.61676,-14.00628 c -0.21828,-0.0715 -0.7243,-0.43514 -1.12448,-0.80801 -0.88792,-0.82733 -0.98096,-2.11973 -0.20328,-2.82353 0.66893,-0.60537 2.60538,-0.39336 3.73154,0.40854 0.94419,0.67232 1.06473,2.01757 0.24709,2.75753 -0.52174,0.47216 -1.89478,0.71326 -2.65087,0.46547 z m -2.74244,-5.37491 c -0.81612,-0.64196 -0.89033,-1.31146 -0.21329,-1.92417 0.7028,-0.63602 1.51593,-0.53764 2.14278,0.25926 1.32344,1.68248 -0.21716,3.01183 -1.92949,1.66491 z m -1.06923,-4.75422 c -2.74853,-0.82217 -4.32856,-5.46287 -2.48696,-7.30446 0.62427,-0.62428 0.66142,-0.62895 1.66582,-0.20928 2.32333,0.97075 4.36823,3.21568 4.36823,4.79554 0,1.09165 -0.62174,2.09741 -1.61366,2.61035 -0.82786,0.42811 -0.85731,0.42975 -1.93343,0.10785 z"
       id="path1"
       sodipodi:nodetypes="sssssssssssssssssssssssssssssssssssssssssssssssssssssssssscssssssssssssssscssssscssssscssssssssssscsssssscssscsssccsssssssssscsssscssssssssss"
       clip-path="url(#clipPath3)"
       transform="matrix(1.3333334,0,0,1.3333334,-7.9323513,-26.336346)"
       inkscape:label="mountain" /><path
       id="path5"
       style="display:inline;fill:#7f6633;fill-opacity:1"
       d="m 96.648419,104.85758 c -0.480617,0.73792 -0.919311,1.37712 -1.37821,2.07895 -0.458899,0.70183 -0.938006,1.46629 -1.498617,2.45411 -1.088701,1.91834 -2.468388,4.31104 -3.146578,5.4529 -0.233032,0.39235 -0.41721,0.7135 -0.586011,1.00976 -0.04723,0.12883 -0.0807,0.17775 -0.122989,0.21135 -0.0094,0.0167 -0.02831,0.0482 -0.03721,0.0641 -0.06869,0.12255 -0.105456,0.18963 -0.134876,0.24443 -0.02129,0.0475 -0.05154,0.1249 -0.06821,0.1602 -0.07371,0.15626 -0.121523,0.24671 -0.173633,0.34571 -0.104213,0.19801 -0.214385,0.39707 -0.345715,0.63097 -0.262661,0.46779 -0.601987,1.05494 -0.976685,1.6893 -0.690512,1.16907 -1.590364,2.74794 -1.843815,3.21686 -0.458663,0.84857 -1.646538,2.93512 -2.829801,4.99195 -1.165129,2.0253 -2.481029,4.3336 -2.832385,4.96507 -0.463382,0.83281 -2.149644,3.80356 -3.855062,6.79286 -1.69862,2.9774 -4.613283,8.09788 -6.468856,11.36727 -1.860179,3.27752 -3.847825,6.77183 -4.451408,7.82433 -0.577211,1.00653 -1.768254,3.09268 -2.634464,4.61522 -0.870458,1.53 -2.294028,4.03041 -3.166215,5.56038 -0.864186,1.51596 -1.860042,3.27975 -2.134754,3.77703 -0.898794,1.62702 -4.93021,8.70984 -6.818188,11.98635 -0.831177,1.44249 -1.802523,3.14405 -2.082044,3.64474 -0.366124,0.65582 -1.52648,2.6991 -2.650484,4.67 -0.55504,0.97324 -1.080385,1.90352 -1.476396,2.60914 -0.396009,0.70563 -0.925501,1.75139 -0.58601,1.04335 -0.25935,0.5409 -0.462806,0.89239 -0.730705,1.33945 -0.284994,0.47556 -2.508488,4.32597 -4.445207,7.71323 -0.87703,1.5339 -2.035964,3.55484 -2.591573,4.51755 -0.519882,0.90082 -1.363904,2.39817 -1.810742,3.21273 -0.145952,0.26607 -0.404602,0.69268 -0.595829,1.02939 0.0416,0 0.05568,0.002 0.09767,0.002 3.787246,0.0306 9.171721,0.0571 15.615068,0.078 12.886692,0.0419 30.012098,0.0642 47.137174,0.0661 17.125071,0.002 34.251791,-0.0156 47.144411,-0.0543 4.34426,-0.0131 7.31252,-0.0334 10.53114,-0.0511 -0.22962,-0.0624 -0.47685,-0.11262 -0.71521,-0.16899 -0.23835,-0.0564 -0.46784,-0.11889 -0.66197,-0.20567 -0.0853,-0.0381 -1.05912,-0.25848 -2.05982,-0.46922 -1.00071,-0.21074 -2.02828,-0.41186 -2.22106,-0.41186 -0.1755,0 -0.48404,-0.0407 -0.86868,-0.11782 -0.38463,-0.0771 -0.84535,-0.19052 -1.32601,-0.3359 -0.48067,-0.14539 -0.98127,-0.32282 -1.44488,-0.52762 -0.4636,-0.2048 -0.89025,-0.4371 -1.2237,-0.69246 -0.66689,-0.51073 -1.30812,-1.07415 -2.10891,-1.82263 -0.80079,-0.74848 -1.76114,-1.68203 -3.067,-2.93315 -0.62681,-0.60053 -1.46787,-1.29879 -2.18488,-1.86604 -0.717,-0.56725 -1.30995,-1.0035 -1.44022,-1.07952 -0.6712,-0.3917 -1.31652,-0.8096 -1.90634,-1.22628 -0.29491,-0.20835 -0.53894,-0.36227 -0.81132,-0.57413 -0.27238,-0.21185 -0.57311,-0.48165 -0.98134,-0.9219 -0.39108,-0.42176 -0.69171,-0.80401 -0.92862,-1.16066 -0.23692,-0.35664 -0.41,-0.6875 -0.54622,-1.00665 -0.13622,-0.31916 -0.23554,-0.62657 -0.32453,-0.93586 -0.089,-0.3093 -0.1678,-0.62069 -0.26303,-0.94775 -0.19048,-0.65413 -0.3556,-1.34026 -0.49765,-2.05724 -0.14204,-0.71698 -0.261,-1.46481 -0.35812,-2.24172 0.012,0.0961 0.01,0.14436 -0.006,0.15296 -0.0157,0.009 -0.045,-0.0224 -0.0868,-0.0858 -0.0836,-0.12683 -0.21782,-0.38219 -0.39687,-0.70435 -0.17905,-0.32217 -0.40288,-0.71151 -0.66508,-1.10536 -0.26219,-0.39386 -0.56299,-0.7924 -0.89607,-1.1343 -0.46525,-0.47758 -0.87206,-0.88215 -1.25315,-1.31206 -0.38109,-0.42992 -0.73645,-0.88518 -1.09864,-1.46348 -0.1811,-0.28915 -0.33829,-0.59042 -0.47491,-0.89297 -0.13661,-0.30255 -0.25282,-0.60621 -0.3514,-0.90124 -0.19716,-0.59005 -0.32454,-1.14429 -0.40824,-1.57871 -0.17558,-0.9112 -0.29031,-1.88102 -0.37879,-2.92954 -0.0885,-1.04852 -0.15071,-2.17573 -0.22066,-3.40237 -0.0621,-1.08957 -0.0995,-1.87159 -0.14521,-2.48461 -0.0457,-0.61302 -0.0998,-1.05725 -0.19482,-1.47123 -0.095,-0.41397 -0.23127,-0.79742 -0.44131,-1.28984 -0.21005,-0.49242 -0.49392,-1.09363 -0.88471,-1.942 -0.32056,-0.69592 -0.61179,-1.35007 -0.87229,-1.97559 -0.2605,-0.62552 -0.49023,-1.22267 -0.68885,-1.80351 -0.19862,-0.58084 -0.36583,-1.14552 -0.50075,-1.70739 -0.13491,-0.56187 -0.23757,-1.12068 -0.30695,-1.6893 -0.002,-0.0131 -0.0953,-0.28048 -0.15142,-0.46612 -0.028,-0.0928 -0.0469,-0.16532 -0.0398,-0.17518 0.007,-0.01 0.04,0.0428 0.11473,0.19998 -0.29864,-0.62794 -0.7175,-1.58667 -1.08211,-2.44739 0.036,0.085 -2.04702,-4.23476 -3.87315,-7.87084 -0.91306,-1.81803 -1.82529,-3.62001 -2.54248,-5.01778 -0.7172,-1.39778 -1.56216,-2.88638 -1.21904,-2.33578 -0.49432,-0.79322 -0.96574,-1.56033 -1.4025,-2.32285 -0.43676,-0.76252 -0.83911,-1.52026 -1.19373,-2.29443 -0.35462,-0.77418 -0.66162,-1.56497 -0.9095,-2.39314 -0.12394,-0.41409 -0.23292,-0.83778 -0.32557,-1.27331 -0.0926,-0.43552 -0.1691,-0.88288 -0.22737,-1.34514 -0.0669,-0.5309 -0.11654,-0.85219 -0.19741,-1.12861 -0.0809,-0.27641 -0.19299,-0.50796 -0.38447,-0.85989 -0.19148,-0.35194 -0.50384,-0.82957 -0.97358,-1.46503 -0.46974,-0.63547 -1.09686,-1.42877 -1.9172,-2.41174 -0.66604,-0.79808 -1.25016,-1.57104 -1.75183,-2.33991 -0.25083,-0.38443 -0.489729,-0.69515 -0.714682,-1.11466 -0.112477,-0.20976 -0.221351,-0.44666 -0.326595,-0.73381 -0.105245,-0.28714 -0.20687,-0.62429 -0.304374,-1.03456 -0.135329,-0.5694 -0.195507,-0.96007 -0.22841,-1.30999 -0.0329,-0.34993 -0.03853,-0.65911 -0.0646,-1.06506 -0.05212,-0.81189 -0.08402,-1.72149 -0.08992,-2.62671 -0.0041,-0.6287 0.0081,-1.22856 0.04031,-1.79989 0.03216,-0.57133 0.08444,-1.11395 0.159163,-1.62832 0.07472,-0.51438 0.171985,-1.00047 0.295589,-1.45831 0.123605,-0.45784 0.273363,-0.8876 0.452169,-1.28933 0.192603,-0.43272 0.38669,-0.83442 0.58808,-1.21491 0.02,-0.0379 0.046,-0.0798 0.0661,-0.11731 -0.16619,-0.29708 -0.785516,-1.6125 -1.667605,-3.19308 -0.717675,-1.286 -1.346691,-2.28786 -1.970939,-3.30265 z m 15.134991,14.3552 c -0.26145,0.0146 -0.48824,0.048 -0.67541,0.0868 -0.18717,0.0388 -0.33479,0.0829 -0.43718,0.11885 -0.20477,0.0718 -0.22942,0.11086 -0.032,0.009 -0.14567,0.0753 -0.28111,0.17253 -0.40308,0.28784 -0.12196,0.11531 -0.23052,0.24866 -0.32246,0.39584 -0.0919,0.14717 -0.16714,0.30811 -0.22272,0.47904 -0.0556,0.17092 -0.0915,0.3519 -0.10439,0.53847 0.21179,-0.007 -0.0465,0.0465 0.24185,0.0103 0.23429,-0.0294 0.46412,-0.0829 0.68161,-0.14986 0.21748,-0.067 0.42277,-0.14733 0.60823,-0.23151 0.37091,-0.16837 0.6624,-0.35097 0.8139,-0.46664 0.303,-0.23131 0.2596,-0.22239 0.11886,-0.0816 0.22751,-0.22751 0.38026,-0.40693 0.48111,-0.54622 0.10084,-0.13929 0.14977,-0.23865 0.17001,-0.30644 0.0202,-0.0678 0.0117,-0.10378 -0.003,-0.11679 -0.0143,-0.013 -0.0344,-0.003 -0.0372,0.0222 -0.0315,-0.0111 -0.0715,-0.0228 -0.0868,-0.0284 -0.13087,-0.0195 -0.33911,-0.0459 -0.79169,-0.0207 z m 24.83363,11.23239 c -0.10879,-0.0326 -0.15692,-0.006 -0.21291,0.006 -1.1378,0.25288 -1.728,0.38585 -2.21382,0.5426 -0.48581,0.15675 -0.86724,0.33729 -1.58698,0.68575 -0.62441,0.30231 -1.22323,0.64118 -1.78852,1.00511 -0.56529,0.36392 -1.09709,0.75311 -1.58802,1.15496 -0.49092,0.40186 -0.94072,0.81639 -1.34203,1.23249 -0.40132,0.4161 -0.75412,0.83357 -1.05059,1.24023 -0.29646,0.40666 -0.52312,0.78851 -0.69608,1.13482 -0.17296,0.3463 -0.29219,0.65722 -0.3731,0.9219 -0.0809,0.26468 -0.12385,0.48314 -0.14418,0.64493 -0.0203,0.16178 -0.0181,0.26674 -0.009,0.30437 0.0858,0.36651 0.14657,0.63814 0.21342,0.85783 0.0669,0.21969 0.13997,0.38734 0.25012,0.54519 0.11014,0.15784 0.25763,0.30632 0.47335,0.4873 0.21573,0.18099 0.49957,0.39459 0.88315,0.68368 0.75066,0.56575 1.03736,0.8006 1.33636,0.96842 0.29899,0.16781 0.61028,0.26859 1.40973,0.56689 -0.11566,-0.0431 -0.12844,-0.0579 -0.0672,-0.0558 0.0613,0.002 0.1967,0.021 0.37724,0.0444 0.36108,0.0469 0.90295,0.11249 1.39526,0.10129 0.49232,-0.0112 1.03124,-0.0959 1.40198,-0.15917 0.37074,-0.0632 0.5733,-0.10496 0.39274,-0.0305 0.40007,-0.16501 0.78437,-0.34246 1.15187,-0.52916 0.3675,-0.18671 0.71821,-0.38269 1.0511,-0.58498 0.66579,-0.40458 1.26048,-0.8343 1.7756,-1.26452 0.51512,-0.43022 0.95051,-0.86068 1.29863,-1.26762 0.34812,-0.40695 0.6088,-0.79025 0.7736,-1.125 0.23065,-0.46852 0.34539,-0.58958 0.40049,-0.60823 -0.0281,-0.003 -0.0676,-0.0406 -0.10749,-0.20619 -0.0399,-0.16554 -0.0801,-0.45852 -0.10955,-0.971 -0.0506,-0.88074 -0.0759,-1.31672 -0.1447,-1.66915 -0.0688,-0.35243 -0.18101,-0.62132 -0.40566,-1.1684 -0.16865,-0.41071 -0.35113,-0.78435 -0.53898,-1.12087 -0.18786,-0.33652 -0.38092,-0.63615 -0.57206,-0.89813 -0.19114,-0.26198 -0.38012,-0.48626 -0.55862,-0.67335 -0.1785,-0.18708 -0.34668,-0.33672 -0.49661,-0.44855 -0.29987,-0.22365 -0.46947,-0.31513 -0.57826,-0.34778 z m 20.43958,31.21877 c -7.9e-4,0.0159 -0.0612,0.0326 -0.16898,0.1328 -0.10776,0.10016 -0.26283,0.28372 -0.45217,0.63304 -0.11108,0.20493 -0.19475,0.42124 -0.25528,0.63614 -0.0605,0.2149 -0.0977,0.42813 -0.11576,0.62735 -0.018,0.19922 -0.0169,0.3842 -5.2e-4,0.54209 0.0164,0.15788 0.0477,0.28892 0.0904,0.37982 0.0471,0.10027 0.63939,0.70691 1.19786,1.27796 0.55847,0.57104 1.08314,1.10651 0.99529,1.06401 -0.0842,-0.0408 0.0914,0.008 0.38809,0.0698 0.29671,0.0615 0.71453,0.13551 1.11414,0.14521 0.3996,0.01 0.81475,-0.049 1.09657,-0.0951 0.28183,-0.0461 0.43034,-0.0795 0.29611,-0.0202 0.0634,-0.028 0.11407,-0.0998 0.17157,-0.1664 -0.007,-0.036 -4.6e-4,-0.0988 -0.01,-0.21291 -0.009,-0.11407 -0.0349,-0.27941 -0.10749,-0.52141 -0.0949,-0.31661 -0.25609,-0.62085 -0.39946,-0.85111 -0.14337,-0.23027 -0.26892,-0.38655 -0.29352,-0.4067 -0.90329,-0.73944 -2.02133,-1.77525 -2.96675,-2.70887 -0.45701,-0.45129 -0.46624,-0.43565 -0.58032,-0.52555 z m 9.12502,20.49229 c -0.16037,-0.0237 -0.31421,0.0514 -1.25573,0.12092 -1.15281,0.0851 -1.7462,0.14267 -2.0681,0.18603 -0.3219,0.0434 -0.37231,0.0725 -0.43976,0.10129 -0.63799,0.27256 -0.92641,0.38408 -1.11466,0.47594 -0.18825,0.0919 -0.27634,0.16407 -0.51418,0.35812 -0.47614,0.38847 -1.64159,1.54706 -3.96875,3.94343 -0.40967,0.42182 -0.776,0.8495 -1.08211,1.21853 0.0146,0.32217 0.0275,0.64911 0.0703,1.04489 0.0594,0.54892 0.20295,1.19597 0.30128,1.63453 0.0492,0.21928 0.0869,0.38644 0.0971,0.46302 0.0102,0.0766 -0.007,0.0628 -0.0682,-0.0801 -0.0761,-0.17745 0.20156,0.30312 0.64751,1.048 0.44596,0.74487 1.06025,1.75405 1.65726,2.63395 0.59701,0.87989 1.266,1.80565 1.82263,2.55178 0.55663,0.74612 1.00089,1.31262 1.14774,1.47329 0.17924,0.19612 0.37428,0.3751 0.58497,0.53537 0.21069,0.16027 0.43678,0.30168 0.67955,0.42323 0.24276,0.12155 0.50175,0.22339 0.77721,0.30334 0.27546,0.0799 0.56765,0.13816 0.87643,0.17364 0.75015,0.0862 1.09099,0.12943 1.51671,0.11523 0.42571,-0.0142 0.9363,-0.0858 2.02623,-0.22841 0.27765,-0.0363 0.56777,-0.10207 0.86403,-0.1912 0.29626,-0.0891 0.59844,-0.20183 0.90072,-0.33228 0.60456,-0.26089 1.20903,-0.59262 1.76217,-0.94981 0.55313,-0.3572 1.0552,-0.73969 1.45624,-1.10123 0.20052,-0.18077 0.37573,-0.35628 0.51935,-0.52089 0.14361,-0.16462 0.25556,-0.31831 0.32969,-0.45527 0.15198,-0.28081 0.31767,-0.89565 0.45475,-1.44436 0.13708,-0.54871 0.24555,-1.03128 0.28319,-1.048 -0.0116,-0.0831 -0.0765,-0.48005 -0.14986,-1.17822 -0.0733,-0.69817 -0.15516,-1.69759 -0.20154,-2.98586 -0.0704,-1.95786 -0.14475,-2.9714 -0.18345,-3.21841 -0.0194,-0.1235 0.0129,-0.0711 0.0145,-0.0568 0.002,0.0143 -0.0274,-0.01 -0.16898,-0.28525 -0.15576,-0.30332 -0.3973,-0.64342 -0.72916,-1.00252 -0.33186,-0.35911 -0.75422,-0.73738 -1.27175,-1.11621 -0.51754,-0.37884 -1.13001,-0.75835 -1.84279,-1.12087 -0.35638,-0.18125 -0.73763,-0.35823 -1.14463,-0.52865 -0.40699,-0.17041 -0.83983,-0.3343 -1.29863,-0.48937 -0.96137,-0.32495 -1.12689,-0.44707 -1.28726,-0.47077 z"
       clip-path="url(#clipPath2)"
       transform="matrix(1.3333334,0,0,1.3333334,-7.9323513,-26.336346)"
       inkscape:label="face" /></g></svg>
