<?xml version="1.0" encoding="UTF-8" standalone="no"?>
<!-- Created with Inkscape (http://www.inkscape.org/) -->

<svg
   width="800"
   height="800"
   viewBox="0 0 211.66667 211.66667"
   version="1.1"
   id="svg1"
   xml:space="preserve"
   inkscape:version="1.3 (0e150ed6c4, 2023-07-21)"
   sodipodi:docname="monsoon.svg"
   xmlns:inkscape="http://www.inkscape.org/namespaces/inkscape"
   xmlns:sodipodi="http://sodipodi.sourceforge.net/DTD/sodipodi-0.dtd"
   xmlns="http://www.w3.org/2000/svg"
   xmlns:svg="http://www.w3.org/2000/svg"><sodipodi:namedview
     id="namedview1"
     pagecolor="#ffffff"
     bordercolor="#000000"
     borderopacity="0.25"
     inkscape:showpageshadow="2"
     inkscape:pageopacity="0.0"
     inkscape:pagecheckerboard="0"
     inkscape:deskcolor="#d1d1d1"
     inkscape:document-units="px"
     inkscape:zoom="0.61647026"
     inkscape:cx="344.70438"
     inkscape:cy="386.06891"
     inkscape:window-width="1500"
     inkscape:window-height="930"
     inkscape:window-x="-6"
     inkscape:window-y="-6"
     inkscape:window-maximized="1"
     inkscape:current-layer="layer1" /><defs
     id="defs1" /><g
     inkscape:label="Layer 1"
     inkscape:groupmode="layer"
     id="layer1"
     transform="translate(-37.203808,-80.76667)"><rect
       style="fill:#ffffff;stroke-width:0.413411;stroke-linecap:round;stroke-linejoin:round"
       id="rect1"
       width="211.66667"
       height="211.66667"
       x="37.203808"
       y="80.76667"
       inkscape:label="bg" /><path
       style="fill:#ff0000;stroke-width:1.5625"
       d="M 132.14018,241.14233 C 114.63579,236.89221 105.05911,229.81659 73.119903,197.53585 L 46.47659,170.60762 46.7791,162.45335 c 0.16638,-4.48484 0.627897,-8.47914 1.025592,-8.87618 0.397695,-0.39707 15.002729,13.45771 32.455633,30.7884 40.492175,40.20861 45.462865,43.61159 63.717805,43.62202 8.52708,0.005 9.81096,-0.23186 13.71947,-2.52963 24.43425,-14.36458 20.27867,-52.80236 -5.72315,-52.93715 -8.40508,-0.0436 -13.87703,3.1225 -17.3128,10.01717 -5.50536,11.04781 0.29521,24.49525 8.30284,19.24843 2.15819,-1.41409 2.42475,-2.20692 2.42475,-7.21153 0,-6.81664 1.94299,-9.38575 7.09835,-9.38575 8.69548,0 11.57734,13.62769 4.82297,22.80683 -10.05339,13.66252 -35.34507,8.63747 -39.12651,-7.7738 -4.22687,-18.3444 3.57711,-32.96968 21.0326,-39.41676 21.9312,-8.10017 45.68344,5.97938 49.70622,29.4642 5.35495,31.26206 -25.11589,58.56152 -56.78269,50.87273 z M 85.1817,153.52204 c -4.702152,-2.30764 -28.22229,-23.78543 -28.22229,-25.77165 0,-0.37338 0.811091,-1.67827 1.802422,-2.89977 l 1.802422,-2.22089 11.132795,11.43497 c 11.898327,12.22128 16.953494,15.60675 23.528103,15.75687 10.100648,0.23064 16.296628,-13.03865 9.337698,-19.99759 -5.922892,-5.92289 -16.113247,0.0994 -13.165672,7.7807 1.079479,2.81308 3.987879,1.75364 4.308276,-1.56936 0.260759,-2.70445 0.620598,-3.05742 3.117019,-3.05742 4.073247,0 4.670987,6.37342 0.92756,9.89019 -5.931396,5.57226 -15.513105,0.75942 -15.50556,-7.78836 0.01313,-14.90812 21.049247,-18.95066 28.050707,-5.39055 8.31331,16.1008 -10.02424,32.21958 -27.11348,23.83286 z m 74.36131,-4.18261 c -6.4568,-1.24322 -13.19138,-4.96434 -20.82772,-11.50814 -6.93103,-5.9394 -45.65328,-45.617564 -44.959977,-46.069882 0.199894,-0.130406 1.845116,-0.920357 3.656046,-1.755431 l 3.292601,-1.518317 24.45932,24.21143 c 24.86446,24.61247 28.67798,27.62773 36.55942,28.90672 13.14811,2.13364 23.85501,-11.89419 17.88703,-23.43499 -5.68002,-10.98393 -21.05008,-8.15481 -21.05008,3.87463 0,5.98826 5.87367,7.80831 6.42687,1.99147 0.84935,-8.9306 9.56577,-7.48455 9.56577,1.58697 0,4.2575 -6.46083,9.70587 -11.5095,9.70587 -13.61884,0 -18.03606,-17.32069 -6.90877,-27.09058 13.38336,-11.750745 33.50872,-1.84149 33.44949,16.46975 -0.0519,16.05258 -14.22742,27.67522 -30.0405,24.6305 z"
       id="path1"
       sodipodi:nodetypes="sscssscsssssssssssssccssssssscsssssscsssssssscs"
       inkscape:label="swirls" /><text
       xml:space="preserve"
       style="font-style:normal;font-variant:normal;font-weight:normal;font-stretch:normal;font-size:45.4484px;font-family:Arial;-inkscape-font-specification:Arial;fill:#000000;stroke-width:0.17893;stroke-linecap:round;stroke-linejoin:round"
       x="39.100494"
       y="282.21759"
       id="text1"
       inkscape:label="english"><tspan
         sodipodi:role="line"
         id="tspan1"
         x="39.100494"
         y="282.21759"
         style="font-style:normal;font-variant:normal;font-weight:normal;font-stretch:normal;font-size:45.4484px;font-family:Arial;-inkscape-font-specification:Arial;fill:#000000;stroke-width:0.17893">Monsoons</tspan></text><text
       xml:space="preserve"
       style="font-style:normal;font-variant:normal;font-weight:normal;font-stretch:normal;font-size:51.3878px;line-height:1;font-family:'Segoe UI Symbol';-inkscape-font-specification:'Segoe UI Symbol';fill:#000000;stroke-width:0.202314;stroke-linecap:round;stroke-linejoin:round"
       x="201.0519"
       y="128.72627"
       id="text2"
       transform="scale(0.98408587,1.0161715)"
       inkscape:label="chinese"><tspan
         sodipodi:role="line"
         id="tspan2"
         x="201.0519"
         y="128.72627"
         style="font-style:normal;font-variant:normal;font-weight:normal;font-stretch:normal;line-height:1;font-family:'Segoe UI Symbol';-inkscape-font-specification:'Segoe UI Symbol';fill:#000000;stroke-width:0.202314">季</tspan><tspan
         sodipodi:role="line"
         x="201.0519"
         y="180.11407"
         style="font-style:normal;font-variant:normal;font-weight:normal;font-stretch:normal;line-height:1;font-family:'Segoe UI Symbol';-inkscape-font-specification:'Segoe UI Symbol';fill:#000000;stroke-width:0.202314"
         id="tspan3">候</tspan><tspan
         sodipodi:role="line"
         x="201.0519"
         y="231.50191"
         style="font-style:normal;font-variant:normal;font-weight:normal;font-stretch:normal;line-height:1;font-family:'Segoe UI Symbol';-inkscape-font-specification:'Segoe UI Symbol';fill:#000000;stroke-width:0.202314"
         id="tspan4">風</tspan></text></g></svg>
