<?xml version="1.0" encoding="UTF-8" standalone="no"?>
<!-- Created with Inkscape (http://www.inkscape.org/) -->

<svg
   width="800"
   height="800"
   viewBox="0 0 211.66667 211.66667"
   version="1.1"
   id="svg1"
   xml:space="preserve"
   inkscape:version="1.3 (0e150ed6c4, 2023-07-21)"
   sodipodi:docname="nt_flood.svg"
   inkscape:export-filename="..\nt_flood_layer1.png"
   inkscape:export-xdpi="96"
   inkscape:export-ydpi="96"
   xmlns:inkscape="http://www.inkscape.org/namespaces/inkscape"
   xmlns:sodipodi="http://sodipodi.sourceforge.net/DTD/sodipodi-0.dtd"
   xmlns="http://www.w3.org/2000/svg"
   xmlns:svg="http://www.w3.org/2000/svg"><sodipodi:namedview
     id="namedview1"
     pagecolor="#ffffff"
     bordercolor="#000000"
     borderopacity="0.25"
     inkscape:showpageshadow="2"
     inkscape:pageopacity="0.0"
     inkscape:pagecheckerboard="0"
     inkscape:deskcolor="#d1d1d1"
     inkscape:document-units="px"
     inkscape:zoom="0.8718206"
     inkscape:cx="372.2096"
     inkscape:cy="416.37007"
     inkscape:window-width="1500"
     inkscape:window-height="930"
     inkscape:window-x="-6"
     inkscape:window-y="-6"
     inkscape:window-maximized="1"
     inkscape:current-layer="g1" /><defs
     id="defs1" /><g
     inkscape:label="Layer 1"
     inkscape:groupmode="layer"
     id="layer1"
     transform="translate(-35.886715,-87.529221)"><rect
       style="fill:#ffffff;stroke-width:0.413411;stroke-linecap:round;stroke-linejoin:round"
       id="rect1"
       width="211.66667"
       height="211.66667"
       x="35.886715"
       y="87.529221"
       inkscape:label="bg" /><g
       id="g17"
       style="display:inline;stroke:none"
       transform="matrix(1.5624999,0,0,1.5624999,-20.186275,-49.235181)"
       inkscape:label="NT"><path
         style="fill:#a7f3cd;fill-opacity:1;stroke:none;stroke-width:0.1;stroke-linecap:round;stroke-linejoin:round"
         d="m 70.787338,134.72093 64.642022,-6.82838 27.1618,19.87818 -33.99018,-11.68412 z"
         id="path1" /><path
         style="fill:#40e692;fill-opacity:1;stroke:none;stroke-width:0.1;stroke-linecap:round;stroke-linejoin:round"
         d="m 162.59116,147.77073 v 8.8582 l -33.07973,-6.43033 -0.91045,-14.11199"
         id="path2"
         sodipodi:nodetypes="cccc" /><path
         style="fill:#01d859;fill-opacity:1;stroke:none;stroke-width:0.1;stroke-linecap:round;stroke-linejoin:round"
         d="m 128.60098,136.08661 0.91045,14.11199 -58.774021,-2.37788 0.04993,-13.09979"
         id="path3" /><path
         style="fill:#01d859;fill-opacity:1;stroke:none;stroke-width:0.1;stroke-linecap:round;stroke-linejoin:round"
         d="m 54.127322,161.56462 -0.05,11.80275 14.642486,-0.85838 1.9676,-11.05166"
         id="path6" /><path
         style="fill:#40e692;fill-opacity:1;stroke:none;stroke-width:0.1;stroke-linecap:round;stroke-linejoin:round"
         d="m 64.857089,165.96383 v 9.54949 l 18.884395,-0.83023 -0.214596,-5.17844"
         id="path7" /><path
         style="fill:#01d859;fill-opacity:1;stroke:none;stroke-width:0.1;stroke-linecap:round;stroke-linejoin:round"
         d="m 114.86834,142.45976 -0.0105,7.78884 -25.536848,24.43449 h -5.579481 l -0.214595,-5.17844 z"
         id="path8" /><path
         style="fill:#40e692;fill-opacity:1;stroke:none;stroke-width:0.1;stroke-linecap:round;stroke-linejoin:round"
         d="m 91.547991,167.41235 v 8.15097 l 23.370349,3.16893 11.09843,-0.42918 8.90571,-2.36056 6.65246,-3.75542 2.17278,-1.58263 -10e-6,-3.48718 -16.65796,3.46035 -20.49386,-1.60946 z"
         id="path9"
         sodipodi:nodetypes="ccccccccccc" /><path
         style="fill:#01d859;fill-opacity:1;stroke:none;stroke-width:0.1;stroke-linecap:round;stroke-linejoin:round"
         d="m 124.30763,157.96039 0.19632,8.62633 -4.09703,1.97265 -6.56283,-0.26555 0.15534,-2.0081 z"
         id="path10"
         sodipodi:nodetypes="cccccc" /><path
         style="fill:#40e692;fill-opacity:1;stroke:none;stroke-width:0.1;stroke-linecap:round;stroke-linejoin:round"
         d="m 150.80254,158.56029 2.70307,4.63121 -24.95463,1.11909 -4.04703,2.27613 -0.19632,-8.62633 z"
         id="path11"
         sodipodi:nodetypes="cccccc" /><path
         style="fill:#40e692;fill-opacity:1;stroke:none;stroke-width:0.1;stroke-linecap:round;stroke-linejoin:round"
         d="m 118.51015,148.11215 -3.65041,0.72875 0.009,-6.38114 h 3.528 z"
         id="path17"
         sodipodi:nodetypes="ccccc" /><path
         style="fill:#01d859;fill-opacity:1;stroke:none;stroke-width:0.1;stroke-linecap:round;stroke-linejoin:round"
         d="m 151.76822,151.69324 2.32539,5.9516 -0.588,5.54666 -2.70307,-4.63121 z"
         id="path12"
         sodipodi:nodetypes="ccccc" /><path
         style="fill:#40e692;fill-opacity:1;stroke:none;stroke-width:0.1;stroke-linecap:round;stroke-linejoin:round"
         d="m 66.573854,147.07944 0.05365,9.44219 12.500181,1.53589 4.935694,-7.80892 z"
         id="path13" /><path
         style="fill:#a7f3cd;fill-opacity:1;stroke:none;stroke-width:0.1;stroke-linecap:round;stroke-linejoin:round"
         d="m 98.745774,137.37642 16.008766,3.67974 3.90735,0.1138 -0.26555,1.2898 h -3.528 l -31.341452,27.04489 -18.669799,-3.54082 5.830319,-4.5065 -16.560086,0.10729 0.214595,-7.83273 23.283599,1.53066 6.43786,-5.01395 -17.489522,-3.16916 7.940027,-6.86706 16.845737,3.11164 z"
         id="path4" /><path
         style="fill:#01d859;fill-opacity:1;stroke:none;stroke-width:0.1;stroke-linecap:round;stroke-linejoin:round"
         d="m 141.0921,145.46992 -0.0536,5.25764 -0.75116,1.09289 -0.10722,-4.95566"
         id="path14" /><path
         style="fill:#40e692;fill-opacity:1;stroke:none;stroke-width:0.1;stroke-linecap:round;stroke-linejoin:round"
         d="m 138.14141,146.91849 0.0268,5.90137 2.1191,-0.99941 -0.10727,-4.95566 z"
         id="path15" /><path
         style="fill:#01d859;fill-opacity:1;stroke:none;stroke-width:0.1;stroke-linecap:round;stroke-linejoin:round"
         d="m 132.40098,151.90783 5.74043,-4.98934 0.0268,5.90137 z"
         id="path16" /><path
         style="fill:#a7f3cd;fill-opacity:1;stroke:none;stroke-width:0.1;stroke-linecap:round;stroke-linejoin:round"
         d="m 121.83216,141.49996 -28.004693,23.47542 c 0,0 -4.29191,3.23439 -0.965679,4.57927 3.326228,1.34487 23.827482,4.8857 23.827482,4.8857 14.68468,1.17073 20.49349,-3.78946 27.05844,-7.32307 l -15.19673,-5.12346 c -5.32209,4.74195 -8.32651,6.58313 -14.55155,4.2919 l 10.3082,-8.32533 26.49491,0.5999 0.96568,-6.86705 -19.36724,0.21459 5.74043,-4.98934 2.03866,-0.0537 0.91203,-1.39487 -3.27258,-0.26824 z"
         id="path5"
         sodipodi:nodetypes="ccsccccccccccccc" /></g><g
       id="g1"
       inkscape:label="flooding"><path
         style="fill:#0358fa;fill-opacity:1;stroke:none;stroke-width:1.5625"
         d="m 51.596349,234.91557 c 0,-0.86715 8.225863,-4.5604 16.001243,-7.18423 5.239365,-1.76803 15.864169,-4.62266 20.172257,-5.41977 8.297874,-1.53534 26.844711,-2.15789 36.411751,-1.2222 2.48379,0.24292 8.8878,1.16512 14.23115,2.04934 13.2085,2.18574 18.33156,2.8541 24.80955,3.23664 11.05676,0.65296 21.62968,-0.89226 29.14063,-4.25889 0.68213,-0.30575 2.26344,-0.98734 3.514,-1.51464 1.25057,-0.52731 3.11093,-1.44756 4.13411,-2.04501 3.92791,-2.29353 9.34163,-5.5143 10.23194,-6.08725 2.10166,-1.35249 0.79466,0.59176 -2.75401,4.09679 -6.92815,6.84294 -15.1558,11.31011 -25.04791,13.59969 -13.25891,3.06881 -25.71705,2.75753 -50.6429,-1.26544 -11.01303,-1.77746 -17.60278,-2.20261 -29.70115,-1.91618 -5.833551,0.13812 -12.187758,0.44461 -14.120457,0.68109 -9.923682,1.2143 -22.169113,3.70877 -32.452795,6.61084 -2.965325,0.83683 -3.927409,0.99343 -3.927409,0.63922 z"
         id="path18"
         sodipodi:nodetypes="sssssssssssssscss" /><path
         style="fill:#6798fc;fill-opacity:1;stroke:none;stroke-width:1.5625"
         d="m 39.607418,250.26077 c 0,-0.4819 4.810489,-2.66737 9.921873,-4.50762 5.396209,-1.9428 14.149615,-4.453 18.396809,-5.27561 1.364257,-0.26423 3.596679,-0.7335 4.960937,-1.04281 3.472328,-0.78727 12.059116,-1.64772 15.395046,-1.85136 8.433604,-0.78017 16.767727,0.0459 25.119277,1.03226 2.95589,0.34668 7.51375,1.01185 10.12858,1.47815 14.99864,2.67471 21.01856,3.33456 30.59243,3.35328 9.10825,0.0178 13.51647,-0.58025 19.699,-2.6725 5.29621,-1.7923 12.63242,-5.37596 16.33972,-7.98175 1.09266,-0.76802 2.08913,-1.39639 2.21434,-1.39639 0.12532,0 0.77597,-0.40538 1.4461,-0.90082 3.24086,-2.39606 0.32067,1.22839 -3.76242,4.6698 -6.47149,5.45448 -14.48975,9.29925 -23.12097,11.08653 -12.78441,2.64731 -29.274,2.06683 -51.46973,-1.81186 -8.44955,-1.47654 -11.3413,-1.67459 -24.184565,-1.65628 -13.534974,0.0192 -13.905151,0.0503 -29.145505,2.44608 -5.058037,0.79509 -14.937,3.08698 -21.600747,5.0113 -0.511597,0.14765 -0.930175,0.15656 -0.930175,0.0197 z"
         id="path19"
         sodipodi:nodetypes="sssssscsssssssscscss" /><path
         style="fill:#3179fd;fill-opacity:1;stroke:none;stroke-width:1.5625"
         d="m 74.127271,264.6537 c 3.110242,-2.62069 18.076637,-7.95444 28.938799,-10.31325 20.50983,-5.81821 38.04387,-3.98247 57.6709,-0.20163 11.36484,2.18927 12.39386,2.03939 19.72981,2.68655 8.83733,0.77959 12.06662,0.77172 18.36006,-0.0448 10.71947,-1.39076 18.44255,-4.58312 31.13201,-12.86854 1.12341,-0.7335 2.12638,-1.24983 2.22882,-1.14738 0.32562,0.32561 -2.7245,3.771 -5.40478,6.10518 -15.7141,13.68492 -36.00019,16.57082 -73.28063,10.4249 -17.04707,-2.81033 -30.58294,-2.97494 -49.68603,-0.60425 -4.774844,0.59255 -17.689389,3.30361 -23.694493,4.974 -2.614827,0.72736 -5.219319,1.40423 -5.78776,1.50417 -1.017264,0.17888 -1.020517,0.17077 -0.206706,-0.51495 z"
         id="path20"
         sodipodi:nodetypes="cssscssssssscc" /></g></g></svg>
