<?xml version="1.0" encoding="UTF-8" standalone="no"?>
<!-- Created with Inkscape (http://www.inkscape.org/) -->

<svg
   width="800"
   height="800"
   viewBox="0 0 211.66667 211.66667"
   version="1.1"
   id="svg1"
   xml:space="preserve"
   inkscape:version="1.3 (0e150ed6c4, 2023-07-21)"
   sodipodi:docname="T3.svg"
   inkscape:export-filename="T3.png"
   inkscape:export-xdpi="190.51163"
   inkscape:export-ydpi="190.51163"
   xmlns:inkscape="http://www.inkscape.org/namespaces/inkscape"
   xmlns:sodipodi="http://sodipodi.sourceforge.net/DTD/sodipodi-0.dtd"
   xmlns="http://www.w3.org/2000/svg"
   xmlns:svg="http://www.w3.org/2000/svg"><sodipodi:namedview
     id="namedview1"
     pagecolor="#ffffff"
     bordercolor="#000000"
     borderopacity="0.25"
     inkscape:showpageshadow="2"
     inkscape:pageopacity="0.0"
     inkscape:pagecheckerboard="0"
     inkscape:deskcolor="#d1d1d1"
     inkscape:document-units="px"
     inkscape:zoom="0.61647026"
     inkscape:cx="571.80374"
     inkscape:cy="350.38187"
     inkscape:window-width="1500"
     inkscape:window-height="930"
     inkscape:window-x="-6"
     inkscape:window-y="-6"
     inkscape:window-maximized="1"
     inkscape:current-layer="layer1" /><defs
     id="defs1"><clipPath
       clipPathUnits="userSpaceOnUse"
       id="clipPath6"><rect
         style="fill:#ffffff;stroke:none;stroke-width:15.3188"
         id="rect7"
         width="123.94032"
         height="150.38751"
         x="33.294022"
         y="115.00366"
         clip-path="none" /></clipPath><clipPath
       clipPathUnits="userSpaceOnUse"
       id="clipPath7"><rect
         style="fill:#ffffff;stroke:none;stroke-width:15.3188"
         id="rect8"
         width="136.52499"
         height="136.52499"
         x="36.674641"
         y="104.40278"
         clip-path="none" /></clipPath><clipPath
       clipPathUnits="userSpaceOnUse"
       id="clipPath8"><rect
         style="fill:#ffffff;stroke:none;stroke-width:15.3188"
         id="rect9"
         width="136.52499"
         height="136.52499"
         x="36.674641"
         y="104.40278"
         clip-path="none" /></clipPath><filter
       inkscape:label="Combined Lighting"
       inkscape:menu="Bevels"
       inkscape:menu-tooltip="Basic specular bevel to use for building textures"
       style="color-interpolation-filters:sRGB"
       id="filter7"
       x="-0.87515666"
       y="-0.56658026"
       width="2.7503133"
       height="2.1331605"><feGaussianBlur
         stdDeviation="6"
         in="SourceGraphic"
         result="result0"
         id="feGaussianBlur4" /><feDiffuseLighting
         lighting-color="#ffffff"
         diffuseConstant="1"
         surfaceScale="4"
         result="result5"
         id="feDiffuseLighting4"><feDistantLight
           elevation="45"
           azimuth="235"
           id="feDistantLight4" /></feDiffuseLighting><feComposite
         k1="1.4"
         in2="SourceGraphic"
         in="result5"
         result="fbSourceGraphic"
         operator="arithmetic"
         id="feComposite5"
         k2="0"
         k3="0"
         k4="0" /><feGaussianBlur
         result="result0"
         in="fbSourceGraphic"
         stdDeviation="6"
         id="feGaussianBlur5" /><feSpecularLighting
         specularExponent="25"
         specularConstant="1"
         surfaceScale="4"
         lighting-color="#ffffff"
         result="result1"
         in="result0"
         id="feSpecularLighting5"><feDistantLight
           azimuth="235"
           elevation="45"
           id="feDistantLight5" /></feSpecularLighting><feComposite
         k3="1"
         k2="1"
         operator="arithmetic"
         in="fbSourceGraphic"
         in2="result1"
         result="result4"
         id="feComposite6"
         k1="0"
         k4="0" /><feComposite
         operator="in"
         result="result2"
         in2="SourceGraphic"
         in="result4"
         id="feComposite7" /><feGaussianBlur
         stdDeviation="1"
         id="feGaussianBlur1" /><feComposite
         id="feComposite1"
         in2="SourceGraphic"
         operator="atop" /></filter></defs><g
     inkscape:label="Layer 1"
     inkscape:groupmode="layer"
     id="layer1"
     transform="translate(-36.674641,-104.40278)"><rect
       style="fill:#ffffff;stroke:none;stroke-width:15.3188"
       id="rect3"
       width="136.52499"
       height="136.52499"
       x="36.674641"
       y="104.40278"
       clip-path="url(#clipPath8)"
       transform="matrix(1.5503876,0,0,1.5503876,-20.185267,-57.461992)"
       inkscape:label="white_bg" /><path
       id="path1"
       style="display:inline;fill:#000000;stroke:none;stroke-width:0.19566;filter:url(#filter7)"
       d="M 116.04671,206.73272 V 187.8579 H 89.173414 V 146.38963 H 69.423715 V 187.8579 H 42.789162 v 18.87482 z"
       clip-path="url(#clipPath7)"
       transform="matrix(1.5503876,0,0,1.5503876,-20.185267,-57.461992)"
       inkscape:label="T_dark_filter" /><path
       d="m 116.73244,211.55755 11.20682,-1.86948 c 0.31538,2.52306 0.79152,3.40829 2.1744,4.7426 1.38283,1.33431 2.32767,2.21757 4.29274,2.21757 2.11064,0 3.55396,-0.84955 4.9853,-2.45072 0.96858,-1.83756 1.27131,-2.54972 1.27131,-5.26686 0,-2.57158 -0.3794,-3.70316 -1.52322,-5.19425 -1.28422,-1.67412 -1.76025,-2.42334 -3.74958,-2.42334 -1.31006,0 -2.80596,0.42188 -4.62548,0.93134 l 0.43933,-9.58699 c 2.76566,0.0728 4.18753,-1.10662 5.64314,-2.36815 1.45561,-1.28579 1.70127,-2.73328 1.70127,-4.84392 0,-1.79525 -0.46485,-2.558 -1.5323,-3.62545 -1.06745,-1.06745 -1.93565,-1.76832 -3.70664,-1.76832 -1.74673,0 -2.06782,0.77365 -3.30509,1.98666 -1.23727,1.21301 -1.57607,2.98401 -1.84293,5.31298 l -10.94529,-2.05366 c 0.65503,-3.22661 2.12461,-5.91639 3.43466,-7.83294 1.33431,-1.94081 3.17808,-3.22068 5.53132,-4.31239 2.3775,-1.11597 5.03399,-1.67396 7.96947,-1.67396 5.02186,0 9.63349,1.24659 12.66602,4.44894 2.49879,2.6201 3.16375,5.93442 3.16375,9.23381 0,4.68221 -1.93955,8.33471 -7.05845,11.12464 3.05679,0.65502 5.26467,1.26079 7.08418,3.54125 1.84377,2.28046 2.37603,5.97953 2.37603,9.20614 0,4.68221 -1.71034,8.67301 -5.13103,11.9724 -3.42069,3.29939 -7.67835,5.54004 -12.77299,5.54004 -4.82777,0 -8.8307,-1.97379 -12.00879,-4.73946 -3.17809,-2.78992 -5.22849,-5.76035 -5.73795,-10.24848 z"
       id="path2"
       style="font-weight:bold;font-size:74.5273px;display:inline;fill:#000000;stroke:none;stroke-width:0.192054;filter:url(#filter7)"
       transform="matrix(1.7078112,0,0,1.4074749,-20.185267,-57.461992)"
       aria-label="3"
       sodipodi:nodetypes="ccsscssscccssssccccscsccssscc"
       clip-path="url(#clipPath6)"
       inkscape:label="three_dark_filter" /></g></svg>
