<?xml version="1.0" encoding="UTF-8" standalone="no"?>
<!-- Created with Inkscape (http://www.inkscape.org/) -->

<svg
   width="800"
   height="800"
   viewBox="0 0 211.66667 211.66667"
   version="1.1"
   id="svg1"
   xml:space="preserve"
   inkscape:version="1.3 (0e150ed6c4, 2023-07-21)"
   sodipodi:docname="T8NE.svg"
   xmlns:inkscape="http://www.inkscape.org/namespaces/inkscape"
   xmlns:sodipodi="http://sodipodi.sourceforge.net/DTD/sodipodi-0.dtd"
   xmlns="http://www.w3.org/2000/svg"
   xmlns:svg="http://www.w3.org/2000/svg"><sodipodi:namedview
     id="namedview1"
     pagecolor="#ffffff"
     bordercolor="#000000"
     borderopacity="0.25"
     inkscape:showpageshadow="2"
     inkscape:pageopacity="0.0"
     inkscape:pagecheckerboard="0"
     inkscape:deskcolor="#d1d1d1"
     inkscape:document-units="px"
     inkscape:zoom="0.61647026"
     inkscape:cx="354.43721"
     inkscape:cy="381.20249"
     inkscape:window-width="1500"
     inkscape:window-height="930"
     inkscape:window-x="-6"
     inkscape:window-y="-6"
     inkscape:window-maximized="1"
     inkscape:current-layer="layer1" /><defs
     id="defs1"><filter
       inkscape:label="Combined Lighting"
       inkscape:menu="Bevels"
       inkscape:menu-tooltip="Basic specular bevel to use for building textures"
       style="color-interpolation-filters:sRGB"
       id="filter10"
       x="-0.24091322"
       y="-0.42144731"
       width="1.4818264"
       height="1.8428946"><feGaussianBlur
         stdDeviation="6"
         in="SourceGraphic"
         result="result0"
         id="feGaussianBlur7" /><feDiffuseLighting
         lighting-color="#ffffff"
         diffuseConstant="1"
         surfaceScale="4"
         result="result5"
         id="feDiffuseLighting7"><feDistantLight
           elevation="45"
           azimuth="235"
           id="feDistantLight7" /></feDiffuseLighting><feComposite
         k1="1.4"
         in2="SourceGraphic"
         in="result5"
         result="fbSourceGraphic"
         operator="arithmetic"
         id="feComposite8"
         k2="0"
         k3="0"
         k4="0" /><feGaussianBlur
         result="result0"
         in="fbSourceGraphic"
         stdDeviation="6"
         id="feGaussianBlur8" /><feSpecularLighting
         specularExponent="25"
         specularConstant="1"
         surfaceScale="4"
         lighting-color="#ffffff"
         result="result1"
         in="result0"
         id="feSpecularLighting8"><feDistantLight
           azimuth="235"
           elevation="45"
           id="feDistantLight8" /></feSpecularLighting><feComposite
         k3="1"
         k2="1"
         operator="arithmetic"
         in="fbSourceGraphic"
         in2="result1"
         result="result4"
         id="feComposite9"
         k1="0"
         k4="0" /><feComposite
         operator="in"
         result="result2"
         in2="SourceGraphic"
         in="result4"
         id="feComposite10" /><feGaussianBlur
         stdDeviation="1"
         id="feGaussianBlur1" /><feComposite
         id="feComposite1"
         in2="SourceGraphic"
         operator="atop" /></filter></defs><g
     inkscape:label="Layer 1"
     inkscape:groupmode="layer"
     id="layer1"
     transform="translate(-37.203808,-80.76667)"><rect
       style="fill:#ffffff;stroke-width:0.264583;stroke-linecap:round;stroke-linejoin:round"
       id="rect1"
       width="135.46667"
       height="135.46667"
       x="37.203808"
       y="80.76667"
       inkscape:label="bg"
       clip-path="none"
       transform="matrix(1.5624999,0,0,1.5624999,-20.927139,-45.431246)" /><path
       style="fill:#000000;filter:url(#filter10)"
       d="m 140.25901,159.33438 c -2.11066,-0.32524 -4.97127,-1.20549 -6.60047,-2.03107 -2.02627,-1.0268 -4.48327,-3.64711 -5.57461,-5.94516 -3.38672,-7.13148 -1.47563,-14.63976 4.57207,-17.9627 0.90398,-0.4967 1.64174,-0.96262 1.63945,-1.03538 -0.002,-0.0728 -0.72565,-0.60854 -1.60748,-1.19063 -1.72578,-1.13916 -2.77377,-2.44462 -3.88304,-4.83701 -0.616,-1.32854 -0.70245,-1.85167 -0.70914,-4.29111 -0.007,-2.48529 0.0689,-2.9415 0.71844,-4.32807 1.65474,-3.53245 4.48046,-6.13963 8.20146,-7.56717 6.42592,-2.46527 16.77775,-1.80213 22.28929,1.42785 3.62165,2.12243 5.96122,6.11479 5.95401,10.16023 -0.007,3.90041 -1.57031,7.02185 -4.79254,9.56887 l -1.28416,1.01507 1.35863,0.83598 c 3.97871,2.44812 6.28518,6.52593 6.30225,11.14227 0.009,2.56087 -0.39913,4.30622 -1.57851,6.74282 -1.46986,3.03672 -3.21992,4.8688 -5.91662,6.1939 -3.68044,1.80848 -5.56566,2.16546 -11.94528,2.26192 -3.05594,0.0462 -6.27062,-0.0261 -7.14375,-0.16061 z m 8.74149,-8.68591 c 1.34613,-0.61147 3.10804,-2.59129 3.51506,-3.9498 0.4802,-1.60273 0.38399,-4.76062 -0.18291,-6.00423 -1.11914,-2.45504 -3.46558,-4.0933 -5.87013,-4.09845 -2.3795,-0.005 -4.85495,1.81919 -5.70844,4.20688 -0.41281,1.15485 -0.4607,4.29085 -0.0861,5.63958 0.68271,2.4582 3.57555,4.70889 6.03742,4.69722 0.67461,-0.003 1.70742,-0.22423 2.29513,-0.4912 z m 0.1967,-22.88602 c 1.02962,-0.44055 2.17139,-1.61591 2.55435,-2.6295 0.41057,-1.08666 0.34396,-3.48811 -0.12808,-4.61787 -0.86656,-2.07396 -2.66677,-3.23626 -5.01242,-3.23626 -3.47352,0 -5.51078,2.01913 -5.52058,5.47145 -0.006,2.11265 0.98233,3.84506 2.71588,4.76061 1.36412,0.72044 4.0068,0.84376 5.39085,0.25157 z M 37.63004,159.13083 c -0.07379,-0.11939 1.258636,-1.50498 2.960948,-3.07909 1.702311,-1.57411 4.46433,-4.18814 6.137819,-5.80895 6.083557,-5.89206 11.098021,-10.71752 16.658161,-16.03029 3.12208,-2.98318 6.679285,-6.46575 7.9049,-7.73906 1.225614,-1.27331 2.352784,-2.31511 2.50482,-2.31511 0.28947,0 1.613665,1.22946 8.395528,7.79487 2.260656,2.1885 5.356281,5.1614 6.879166,6.60645 1.522885,1.44505 4.733412,4.5436 7.134506,6.88567 2.401094,2.34207 6.536042,6.32459 9.188762,8.85005 2.65273,2.52545 4.75906,4.69541 4.68074,4.82214 -0.18133,0.2934 -72.264056,0.30666 -72.44535,0.0133 z m 1.822726,-40.72244 c 2.46309,-2.37081 4.548101,-4.38117 19.711457,-19.005728 6.184635,-5.964876 12.000333,-11.584885 12.923774,-12.488908 1.551155,-1.518541 1.719483,-1.615313 2.210948,-1.271077 0.292581,0.204932 6.26407,5.901322 13.269975,12.658645 20.04683,19.335528 22.52186,21.737908 22.61579,21.951908 0.0485,0.11052 -16.322589,0.19905 -36.38021,0.19673 l -36.468401,-0.004 z"
       id="path7"
       sodipodi:nodetypes="cssscssccsscscscsssccsscsccccssssssscsssssssssscccsssssccc"
       inkscape:label="icon"
       clip-path="none"
       transform="matrix(1.5624999,0,0,1.5624999,-20.927139,-45.431246)" /><text
       xml:space="preserve"
       style="font-style:normal;font-variant:normal;font-weight:900;font-stretch:normal;font-size:28.9278px;font-family:Arial;-inkscape-font-specification:'Arial Heavy';display:inline;fill:#000000;stroke:none;stroke-width:0.114182;stroke-linecap:round;stroke-linejoin:round;stroke-dasharray:none"
       x="39.642258"
       y="210.35136"
       id="text1"
       inkscape:label="english"
       clip-path="none"
       transform="matrix(1.5624999,0,0,1.5624999,-20.927139,-45.431246)"><tspan
         sodipodi:role="line"
         id="tspan1"
         x="39.642258"
         y="210.35136"
         style="font-style:normal;font-variant:normal;font-weight:900;font-stretch:normal;font-size:28.9278px;font-family:Arial;-inkscape-font-specification:'Arial Heavy';fill:#000000;stroke:none;stroke-width:0.114182;stroke-dasharray:none">NE</tspan></text><text
       xml:space="preserve"
       style="font-style:normal;font-variant:normal;font-weight:normal;font-stretch:normal;font-size:35.6829px;font-family:'Microsoft YaHei';-inkscape-font-specification:'Microsoft YaHei';display:inline;fill:#000000;stroke:none;stroke-width:0.105363;stroke-linecap:round;stroke-linejoin:round;stroke-dasharray:none"
       x="99.350143"
       y="205.88748"
       id="text2"
       inkscape:label="chinese"
       clip-path="none"
       transform="matrix(1.5624999,0,0,1.5624999,-20.927139,-45.431246)"><tspan
         sodipodi:role="line"
         id="tspan2"
         style="font-style:normal;font-variant:normal;font-weight:normal;font-stretch:normal;font-size:35.6829px;font-family:'Microsoft YaHei';-inkscape-font-specification:'Microsoft YaHei';fill:#000000;stroke:none;stroke-width:0.105363"
         x="99.350143"
         y="205.88748">東北</tspan></text></g></svg>
