<?xml version="1.0" encoding="UTF-8" standalone="no"?>
<!-- Created with Inkscape (http://www.inkscape.org/) -->

<svg
   width="800"
   height="800"
   viewBox="0 0 211.66667 211.66667"
   version="1.1"
   id="svg1"
   xml:space="preserve"
   inkscape:version="1.3 (0e150ed6c4, 2023-07-21)"
   sodipodi:docname="T8NW.svg"
   xmlns:inkscape="http://www.inkscape.org/namespaces/inkscape"
   xmlns:sodipodi="http://sodipodi.sourceforge.net/DTD/sodipodi-0.dtd"
   xmlns="http://www.w3.org/2000/svg"
   xmlns:svg="http://www.w3.org/2000/svg"><sodipodi:namedview
     id="namedview1"
     pagecolor="#ffffff"
     bordercolor="#000000"
     borderopacity="0.25"
     inkscape:showpageshadow="2"
     inkscape:pageopacity="0.0"
     inkscape:pagecheckerboard="0"
     inkscape:deskcolor="#d1d1d1"
     inkscape:document-units="px"
     inkscape:zoom="0.8718206"
     inkscape:cx="275.85951"
     inkscape:cy="307.40269"
     inkscape:window-width="1500"
     inkscape:window-height="930"
     inkscape:window-x="-6"
     inkscape:window-y="-6"
     inkscape:window-maximized="1"
     inkscape:current-layer="layer1" /><defs
     id="defs1"><filter
       inkscape:label="Combined Lighting"
       inkscape:menu="Bevels"
       inkscape:menu-tooltip="Basic specular bevel to use for building textures"
       style="color-interpolation-filters:sRGB"
       id="filter13"
       x="-0.2413515"
       y="-0.62543377"
       width="1.482703"
       height="2.2508675"><feGaussianBlur
         stdDeviation="6"
         in="SourceGraphic"
         result="result0"
         id="feGaussianBlur10" /><feDiffuseLighting
         lighting-color="#ffffff"
         diffuseConstant="1"
         surfaceScale="4"
         result="result5"
         id="feDiffuseLighting10"><feDistantLight
           elevation="45"
           azimuth="235"
           id="feDistantLight10" /></feDiffuseLighting><feComposite
         k1="1.4"
         in2="SourceGraphic"
         in="result5"
         result="fbSourceGraphic"
         operator="arithmetic"
         id="feComposite11"
         k2="0"
         k3="0"
         k4="0" /><feGaussianBlur
         result="result0"
         in="fbSourceGraphic"
         stdDeviation="6"
         id="feGaussianBlur11" /><feSpecularLighting
         specularExponent="25"
         specularConstant="1"
         surfaceScale="4"
         lighting-color="#ffffff"
         result="result1"
         in="result0"
         id="feSpecularLighting11"><feDistantLight
           azimuth="235"
           elevation="45"
           id="feDistantLight11" /></feSpecularLighting><feComposite
         k3="1"
         k2="1"
         operator="arithmetic"
         in="fbSourceGraphic"
         in2="result1"
         result="result4"
         id="feComposite12"
         k1="0"
         k4="0" /><feComposite
         operator="in"
         result="result2"
         in2="SourceGraphic"
         in="result4"
         id="feComposite13" /><feGaussianBlur
         stdDeviation="1"
         id="feGaussianBlur1" /><feComposite
         id="feComposite1"
         in2="SourceGraphic"
         operator="atop" /></filter></defs><g
     inkscape:label="Layer 1"
     inkscape:groupmode="layer"
     id="layer1"
     transform="translate(-37.203808,-80.76667)"><rect
       style="fill:#ffffff;stroke-width:0.264583;stroke-linecap:round;stroke-linejoin:round"
       id="rect2"
       width="135.46667"
       height="135.46667"
       x="37.203808"
       y="80.76667"
       inkscape:label="bg"
       clip-path="none"
       transform="matrix(1.5624999,0,0,1.5624999,-20.927139,-45.431246)" /><text
       xml:space="preserve"
       style="font-style:normal;font-variant:normal;font-weight:900;font-stretch:normal;font-size:28.9278px;font-family:Arial;-inkscape-font-specification:'Arial Heavy';display:inline;fill:#000000;stroke:none;stroke-width:0.114182;stroke-linecap:round;stroke-linejoin:round;stroke-dasharray:none"
       x="41.680916"
       y="198.01213"
       id="text1"
       inkscape:label="english"
       clip-path="none"
       transform="matrix(1.5624999,0,0,1.5624999,-20.927139,-45.431246)"><tspan
         sodipodi:role="line"
         id="tspan1"
         x="41.680916"
         y="198.01213"
         style="font-style:normal;font-variant:normal;font-weight:900;font-stretch:normal;font-size:28.9278px;font-family:Arial;-inkscape-font-specification:'Arial Heavy';fill:#000000;stroke:none;stroke-width:0.114182;stroke-dasharray:none">NW</tspan></text><text
       xml:space="preserve"
       style="font-style:normal;font-variant:normal;font-weight:normal;font-stretch:normal;font-size:35.6829px;font-family:'Microsoft YaHei';-inkscape-font-specification:'Microsoft YaHei';display:inline;fill:#000000;stroke:none;stroke-width:0.105363;stroke-linecap:round;stroke-linejoin:round;stroke-dasharray:none"
       x="99.350143"
       y="194.24597"
       id="text2"
       inkscape:label="chinese"
       clip-path="none"
       transform="matrix(1.5624999,0,0,1.5624999,-20.927139,-45.431246)"><tspan
         sodipodi:role="line"
         id="tspan2"
         style="font-style:normal;font-variant:normal;font-weight:normal;font-stretch:normal;font-size:35.6829px;font-family:'Microsoft YaHei';-inkscape-font-specification:'Microsoft YaHei';fill:#000000;stroke:none;stroke-width:0.105363"
         x="99.350143"
         y="194.24597">西北</tspan></text><path
       style="fill:#000000;filter:url(#filter13)"
       d="m 141.84651,147.80852 c -4.7805,-0.69309 -7.97742,-2.06896 -10.32469,-4.44346 -2.81743,-2.85013 -4.0951,-6.08718 -4.0951,-10.3752 0,-5.07383 1.98311,-8.58133 6.19613,-10.95901 0.81223,-0.4584 1.47679,-0.8703 1.47679,-0.91534 0,-0.045 -0.51287,-0.38245 -1.1397,-0.7498 -1.4051,-0.82344 -3.133,-2.66614 -3.88828,-4.14662 -1.14502,-2.24443 -1.47815,-5.8364 -0.78556,-8.47021 0.29706,-1.12964 1.88075,-3.81715 2.85474,-4.84445 2.08513,-2.19926 6.12668,-4.115131 9.93782,-4.710965 2.85391,-0.446179 9.84452,-0.142484 12.46785,0.541644 5.77232,1.505341 9.3337,4.716701 10.5889,9.548231 1.07161,4.12479 -0.57505,8.74838 -4.12827,11.59165 l -1.52382,1.21936 1.55221,1.01421 c 6.30344,4.11867 7.82581,12.20817 3.55415,18.88585 -1.99032,3.11137 -4.89478,5.08117 -9.11713,6.18323 -1.88647,0.49238 -3.10186,0.5998 -7.54062,0.66647 -2.91042,0.0437 -5.64886,0.0277 -6.08542,-0.0356 z m 7.80172,-8.70408 c 4.05146,-2.12348 4.93789,-8.30706 1.68878,-11.78062 -1.82081,-1.94659 -3.90115,-2.51518 -6.21609,-1.69893 -4.38733,1.54696 -5.68443,8.40709 -2.26583,11.98362 1.91527,2.00376 4.66777,2.60989 6.79314,1.49593 z m 0.84676,-22.93482 c 1.34398,-1.02512 1.92303,-2.37565 1.9139,-4.46383 -0.009,-2.00444 -0.61046,-3.23358 -2.16235,-4.41726 -0.78008,-0.595 -1.27014,-0.73544 -2.84335,-0.81489 -2.71143,-0.13692 -4.17667,0.65062 -5.28778,2.84209 -0.69306,1.36694 -0.47087,4.12501 0.44364,5.50693 1.06452,1.6086 2.53323,2.23746 4.99661,2.13943 1.69883,-0.0676 2.14766,-0.18862 2.93933,-0.79247 z M 37.732974,135.82741 c 0,-0.13045 0.446485,-0.62246 0.992188,-1.09337 0.545703,-0.4709 2.486476,-2.29894 4.31283,-4.0623 1.826353,-1.76336 7.541352,-7.25274 12.699999,-12.19861 5.158646,-4.94587 11.764323,-11.34548 14.679281,-14.22135 2.914958,-2.87587 5.422218,-5.228861 5.571689,-5.228861 0.42488,0 38.208589,36.392681 38.208589,36.801911 0,0.14218 -15.560579,0.23975 -38.232286,0.23975 -22.366294,0 -38.23229,-0.0984 -38.23229,-0.23717 z"
       id="path10"
       sodipodi:nodetypes="ssssssssssssscsssssssssssscsssssssssssssss"
       inkscape:label="icon"
       clip-path="none"
       transform="matrix(1.5624999,0,0,1.5624999,-20.927139,-45.431246)" /></g></svg>
