<?xml version="1.0" encoding="UTF-8" standalone="no"?>
<!-- Created with Inkscape (http://www.inkscape.org/) -->

<svg
   width="800"
   height="800"
   viewBox="0 0 211.66667 211.66667"
   version="1.1"
   id="svg1"
   xml:space="preserve"
   inkscape:version="1.3 (0e150ed6c4, 2023-07-21)"
   sodipodi:docname="T8SE.svg"
   xmlns:inkscape="http://www.inkscape.org/namespaces/inkscape"
   xmlns:sodipodi="http://sodipodi.sourceforge.net/DTD/sodipodi-0.dtd"
   xmlns="http://www.w3.org/2000/svg"
   xmlns:svg="http://www.w3.org/2000/svg"><sodipodi:namedview
     id="namedview1"
     pagecolor="#ffffff"
     bordercolor="#000000"
     borderopacity="0.25"
     inkscape:showpageshadow="2"
     inkscape:pageopacity="0.0"
     inkscape:pagecheckerboard="0"
     inkscape:deskcolor="#d1d1d1"
     inkscape:document-units="px"
     inkscape:zoom="0.61647026"
     inkscape:cx="424.18916"
     inkscape:cy="389.31318"
     inkscape:window-width="1440"
     inkscape:window-height="878"
     inkscape:window-x="2993"
     inkscape:window-y="-6"
     inkscape:window-maximized="1"
     inkscape:current-layer="layer1" /><defs
     id="defs1"><filter
       inkscape:label="Combined Lighting"
       inkscape:menu="Bevels"
       inkscape:menu-tooltip="Basic specular bevel to use for building textures"
       style="color-interpolation-filters:sRGB"
       id="filter7"
       x="-0.24041033"
       y="-0.41964865"
       width="1.4808207"
       height="1.8392973"><feGaussianBlur
         stdDeviation="6"
         in="SourceGraphic"
         result="result0"
         id="feGaussianBlur4" /><feDiffuseLighting
         lighting-color="#ffffff"
         diffuseConstant="1"
         surfaceScale="4"
         result="result5"
         id="feDiffuseLighting4"><feDistantLight
           elevation="45"
           azimuth="235"
           id="feDistantLight4" /></feDiffuseLighting><feComposite
         k1="1.4"
         in2="SourceGraphic"
         in="result5"
         result="fbSourceGraphic"
         operator="arithmetic"
         id="feComposite5"
         k2="0"
         k3="0"
         k4="0" /><feGaussianBlur
         result="result0"
         in="fbSourceGraphic"
         stdDeviation="6"
         id="feGaussianBlur5" /><feSpecularLighting
         specularExponent="25"
         specularConstant="1"
         surfaceScale="4"
         lighting-color="#ffffff"
         result="result1"
         in="result0"
         id="feSpecularLighting5"><feDistantLight
           azimuth="235"
           elevation="45"
           id="feDistantLight5" /></feSpecularLighting><feComposite
         k3="1"
         k2="1"
         operator="arithmetic"
         in="fbSourceGraphic"
         in2="result1"
         result="result4"
         id="feComposite6"
         k1="0"
         k4="0" /><feComposite
         operator="in"
         result="result2"
         in2="SourceGraphic"
         in="result4"
         id="feComposite7" /><feGaussianBlur
         stdDeviation="1"
         id="feGaussianBlur1" /><feComposite
         id="feComposite1"
         in2="SourceGraphic"
         operator="atop" /></filter></defs><g
     inkscape:label="Layer 1"
     inkscape:groupmode="layer"
     id="layer1"
     transform="translate(-37.203808,-80.76667)"><rect
       style="fill:#ffffff;stroke-width:0.264583;stroke-linecap:round;stroke-linejoin:round"
       id="rect2"
       width="135.46667"
       height="135.46667"
       x="37.203808"
       y="80.76667"
       inkscape:label="bg"
       clip-path="none"
       transform="matrix(1.5624999,0,0,1.5624999,-20.927139,-45.431246)" /><path
       style="fill:#000000;filter:url(#filter7)"
       d="m 71.693478,158.49147 c -1.288538,-1.19865 -4.366859,-4.15559 -6.840713,-6.57097 -2.473854,-2.41539 -7.294911,-7.06038 -10.713459,-10.3222 -9.890514,-9.43708 -16.267103,-15.69336 -16.359586,-16.0509 -0.06813,-0.2634 7.351598,-0.33073 36.446352,-0.33073 20.092544,0 36.531898,0.10031 36.531898,0.22291 0,0.1226 -1.16086,1.32738 -2.57969,2.6773 -1.41882,1.34991 -5.61578,5.3906 -9.326559,8.97932 -5.909673,5.71527 -16.424543,15.83219 -22.508255,21.6564 -1.102033,1.05503 -2.071982,1.91823 -2.155443,1.91823 -0.08346,0 -1.206006,-0.98071 -2.494545,-2.17936 z m 71.074652,-0.85814 c -4.18743,-0.45591 -5.61769,-0.79874 -7.88817,-1.8908 -4.15297,-1.9975 -6.88712,-5.89889 -7.62926,-10.88627 -0.87453,-5.87699 1.22481,-10.69847 5.83122,-13.3924 0.96422,-0.5639 1.75313,-1.10953 1.75313,-1.21251 0,-0.10298 -0.30644,-0.32687 -0.68098,-0.49752 -4.22821,-1.9265 -6.65738,-8.06746 -5.15188,-13.02399 0.71089,-2.34045 1.5678,-3.63688 3.72239,-5.63165 2.0019,-1.85341 4.53965,-3.16376 7.59711,-3.92274 3.35816,-0.83361 10.2134,-0.81459 13.82795,0.0384 3.44691,0.8134 5.99184,2.07551 8.03047,3.98254 3.31831,3.10412 4.57693,7.24845 3.48016,11.45925 -0.62539,2.40102 -1.37466,3.6072 -3.58232,5.76684 l -2.05997,2.01515 1.00847,0.56679 c 2.54692,1.43145 4.70007,4.01498 5.87105,7.04457 0.50833,1.31517 0.61359,2.08676 0.61359,4.49792 0,3.35195 -0.38448,4.79735 -2.02291,7.60484 -2.79082,4.78214 -6.72462,6.78714 -14.89023,7.58934 -3.3978,0.3338 -3.82894,0.32787 -7.82982,-0.10773 z m 7.1841,-9.07691 c 3.34732,-1.73895 4.6691,-6.2743 2.91142,-9.98967 -1.22987,-2.59968 -3.07698,-3.82508 -5.76573,-3.82508 -3.66742,0 -6.17745,2.90238 -6.17745,7.14307 0,3.09271 1.58692,5.66411 4.23333,6.85956 1.66944,0.75412 3.09244,0.6984 4.79843,-0.18788 z m -0.15727,-22.77875 c 3.29447,-1.49647 4.05381,-5.98408 1.4928,-8.82226 -1.18779,-1.31634 -2.25562,-1.79291 -4.01729,-1.79291 -3.31508,0 -5.55625,2.20323 -5.55625,5.46218 0,1.82777 0.74985,3.54255 1.91053,4.36902 1.8487,1.31639 4.3097,1.62908 6.17021,0.78397 z m -77.533862,-5.76309 c -1.018646,-0.96854 -5.071065,-4.86749 -9.005377,-8.66434 -3.934311,-3.79685 -11.28642,-10.88642 -16.33802,-15.754594 -5.051599,-4.868177 -9.184727,-8.946067 -9.184727,-9.061978 0,-0.115912 16.371093,-0.210748 36.380207,-0.210748 20.009113,0 36.380209,0.09723 36.380209,0.216057 0,0.250363 -5.78104,5.949303 -14.278338,14.075563 -6.26435,5.99082 -12.665358,12.17618 -18.409294,17.78911 -1.898698,1.85539 -3.506268,3.37309 -3.572378,3.37267 -0.06611,-4.1e-4 -0.953637,-0.7932 -1.972282,-1.76174 z"
       id="path4"
       sodipodi:nodetypes="ssssssssssscsssssssscssscsssssccssssssssssssssssssssss"
       inkscape:label="icon"
       clip-path="none"
       transform="matrix(1.5624999,0,0,1.5624999,-20.927139,-45.431246)" /><text
       xml:space="preserve"
       style="font-style:normal;font-variant:normal;font-weight:900;font-stretch:normal;font-size:28.9278px;font-family:Arial;-inkscape-font-specification:'Arial Heavy';display:inline;fill:#000000;stroke:none;stroke-width:0.114182;stroke-linecap:round;stroke-linejoin:round;stroke-dasharray:none"
       x="40.171425"
       y="208.76389"
       id="text1"
       inkscape:label="english"
       clip-path="none"
       transform="matrix(1.5624999,0,0,1.5624999,-20.927139,-45.431246)"><tspan
         sodipodi:role="line"
         id="tspan1"
         x="40.171425"
         y="208.76389"
         style="font-style:normal;font-variant:normal;font-weight:900;font-stretch:normal;font-size:28.9278px;font-family:Arial;-inkscape-font-specification:'Arial Heavy';fill:#000000;stroke:none;stroke-width:0.114182;stroke-dasharray:none">SE</tspan></text><text
       xml:space="preserve"
       style="font-style:normal;font-variant:normal;font-weight:normal;font-stretch:normal;font-size:35.6829px;font-family:'Microsoft YaHei';-inkscape-font-specification:'Microsoft YaHei';display:inline;fill:#000000;stroke:none;stroke-width:0.105363;stroke-linecap:round;stroke-linejoin:round;stroke-dasharray:none"
       x="98.820976"
       y="204.3"
       id="text2"
       inkscape:label="chinese"
       clip-path="none"
       transform="matrix(1.5624999,0,0,1.5624999,-20.927139,-45.431246)"><tspan
         sodipodi:role="line"
         id="tspan2"
         style="font-style:normal;font-variant:normal;font-weight:normal;font-stretch:normal;font-size:35.6829px;font-family:'Microsoft YaHei';-inkscape-font-specification:'Microsoft YaHei';fill:#000000;stroke:none;stroke-width:0.105363"
         x="98.820976"
         y="204.3">東南</tspan></text></g></svg>
