<?xml version="1.0" encoding="UTF-8" standalone="no"?>
<!-- Created with Inkscape (http://www.inkscape.org/) -->

<svg
   width="800"
   height="800"
   viewBox="0 0 211.66667 211.66667"
   version="1.1"
   id="svg1"
   xml:space="preserve"
   inkscape:version="1.3 (0e150ed6c4, 2023-07-21)"
   sodipodi:docname="T8SW.svg"
   xmlns:inkscape="http://www.inkscape.org/namespaces/inkscape"
   xmlns:sodipodi="http://sodipodi.sourceforge.net/DTD/sodipodi-0.dtd"
   xmlns="http://www.w3.org/2000/svg"
   xmlns:svg="http://www.w3.org/2000/svg"><sodipodi:namedview
     id="namedview1"
     pagecolor="#ffffff"
     bordercolor="#000000"
     borderopacity="0.25"
     inkscape:showpageshadow="2"
     inkscape:pageopacity="0.0"
     inkscape:pagecheckerboard="0"
     inkscape:deskcolor="#d1d1d1"
     inkscape:document-units="px"
     inkscape:zoom="0.4359103"
     inkscape:cx="260.37467"
     inkscape:cy="550.57199"
     inkscape:window-width="1440"
     inkscape:window-height="878"
     inkscape:window-x="2993"
     inkscape:window-y="-6"
     inkscape:window-maximized="1"
     inkscape:current-layer="layer1"
     showgrid="false" /><defs
     id="defs1"><filter
       inkscape:label="Combined Lighting"
       inkscape:menu="Bevels"
       inkscape:menu-tooltip="Basic specular bevel to use for building textures"
       style="color-interpolation-filters:sRGB"
       id="filter4"
       x="-0.24021068"
       y="-0.61885805"
       width="1.4804214"
       height="2.2377161"><feGaussianBlur
         stdDeviation="6"
         in="SourceGraphic"
         result="result0"
         id="feGaussianBlur2" /><feDiffuseLighting
         lighting-color="#ffffff"
         diffuseConstant="1"
         surfaceScale="4"
         result="result5"
         id="feDiffuseLighting2"><feDistantLight
           elevation="45"
           azimuth="235"
           id="feDistantLight2" /></feDiffuseLighting><feComposite
         k1="1.4"
         in2="SourceGraphic"
         in="result5"
         result="fbSourceGraphic"
         operator="arithmetic"
         id="feComposite2"
         k2="0"
         k3="0"
         k4="0" /><feGaussianBlur
         result="result0"
         in="fbSourceGraphic"
         stdDeviation="6"
         id="feGaussianBlur3" /><feSpecularLighting
         specularExponent="25"
         specularConstant="1"
         surfaceScale="4"
         lighting-color="#ffffff"
         result="result1"
         in="result0"
         id="feSpecularLighting3"><feDistantLight
           azimuth="235"
           elevation="45"
           id="feDistantLight3" /></feSpecularLighting><feComposite
         k3="1"
         k2="1"
         operator="arithmetic"
         in="fbSourceGraphic"
         in2="result1"
         result="result4"
         id="feComposite3"
         k1="0"
         k4="0" /><feComposite
         operator="in"
         result="result2"
         in2="SourceGraphic"
         in="result4"
         id="feComposite4" /><feGaussianBlur
         stdDeviation="1"
         id="feGaussianBlur1" /><feComposite
         id="feComposite1"
         in2="SourceGraphic"
         operator="atop" /></filter></defs><g
     inkscape:label="Layer 1"
     inkscape:groupmode="layer"
     id="layer1"
     transform="translate(-37.203808,-80.76667)"><rect
       style="fill:#ffffff;stroke-width:0.264583;stroke-linecap:round;stroke-linejoin:round"
       id="rect2"
       width="135.46667"
       height="135.46667"
       x="37.203808"
       y="80.76667"
       clip-path="none"
       transform="matrix(1.5624999,0,0,1.5624999,-20.927139,-45.431246)" /><path
       style="fill:#000000;filter:url(#filter4)"
       d="m 143.83089,147.7065 c -5.80442,-0.56908 -9.45388,-2.0304 -12.07049,-4.83328 -1.70099,-1.82208 -3.04292,-4.30591 -3.50683,-6.49093 -0.36737,-1.73032 -0.37661,-5.60776 -0.0171,-7.1673 0.71091,-3.0837 2.76014,-5.734 5.75106,-7.43791 0.89404,-0.50932 1.62906,-1.00089 1.63338,-1.09238 0.004,-0.0915 -0.36965,-0.32271 -0.83107,-0.51384 -0.46142,-0.19112 -1.51088,-1.00924 -2.33212,-1.81803 -4.03818,-3.97694 -4.18805,-11.02658 -0.32403,-15.24163 3.66419,-3.997088 8.16839,-5.675781 15.22899,-5.675781 9.03462,0 15.02047,2.706111 17.60065,7.956971 2.57497,5.24028 1.05717,10.77539 -4.04109,14.737 -0.42239,0.32822 -0.72005,0.62723 -0.66145,0.66446 3.52853,2.24188 4.95467,3.71251 6.25455,6.44969 0.83157,1.75105 0.96143,2.30465 1.07013,4.562 0.14886,3.09136 -0.1767,4.7817 -1.41801,7.36249 -1.68391,3.501 -4.6938,6.1063 -8.44597,7.31067 -3.46536,1.11232 -9.56728,1.65167 -13.89062,1.2278 z m 6.58214,-8.97954 c 1.08896,-0.55554 2.14813,-1.66826 2.87925,-3.02482 0.332,-0.61601 0.44816,-1.50601 0.45342,-3.47401 0.006,-2.41211 -0.0568,-2.75439 -0.71535,-3.87472 -1.76073,-2.99514 -5.17037,-4.25275 -7.83899,-2.89132 -1.29963,0.66302 -2.7899,2.32716 -3.24413,3.6226 -0.59554,1.69847 -0.46256,5.03362 0.25982,6.51617 1.58808,3.25924 5.22741,4.64566 8.20598,3.1261 z m -0.29948,-22.38392 c 2.02301,-0.84527 2.97775,-2.41142 2.97775,-4.8847 0,-2.62952 -1.70286,-5.04115 -3.84306,-5.44266 -4.02035,-0.75422 -7.01411,1.46808 -6.99904,5.19546 0.0101,2.49887 1.46907,4.6257 3.615,5.26982 1.21072,0.36341 3.20437,0.2987 4.24935,-0.13792 z M 72.922556,136.8006 c -1.67349,-1.62752 -4.233333,-4.09858 -5.688541,-5.49125 -1.455209,-1.39266 -6.098646,-5.87078 -10.31875,-9.95137 -4.220104,-4.0806 -10.262525,-9.90687 -13.427603,-12.94727 -3.165078,-3.04041 -5.754686,-5.65232 -5.754683,-5.80426 3e-6,-0.19095 11.857451,-0.2569 38.405156,-0.21362 21.122833,0.0344 38.448545,0.10602 38.501595,0.15907 0.1767,0.1767 -38.139101,37.2209 -38.489728,37.21234 -0.101606,-0.002 -1.553957,-1.33612 -3.227446,-2.96364 z"
       id="path1"
       sodipodi:nodetypes="csscscsssssscssssccssccssssssssssssscscscs"
       clip-path="none"
       transform="matrix(1.5624999,0,0,1.5624999,-20.927139,-45.431246)"
       inkscape:label="icon" /><text
       xml:space="preserve"
       style="font-style:normal;font-variant:normal;font-weight:900;font-stretch:normal;font-size:28.9278px;font-family:Arial;-inkscape-font-specification:'Arial Heavy';fill:#000000;stroke:none;stroke-width:0.114182;stroke-linecap:round;stroke-linejoin:round;stroke-dasharray:none"
       x="41.916458"
       y="197.99022"
       id="text1"
       clip-path="none"
       transform="matrix(1.5624999,0,0,1.5624999,-20.927139,-45.431246)"><tspan
         sodipodi:role="line"
         id="tspan1"
         x="41.916458"
         y="197.99022"
         style="font-style:normal;font-variant:normal;font-weight:900;font-stretch:normal;font-size:28.9278px;font-family:Arial;-inkscape-font-specification:'Arial Heavy';fill:#000000;stroke:none;stroke-width:0.114182;stroke-dasharray:none">SW</tspan></text><text
       xml:space="preserve"
       style="font-style:normal;font-variant:normal;font-weight:normal;font-stretch:normal;font-size:35.6829px;font-family:'Microsoft YaHei';-inkscape-font-specification:'Microsoft YaHei';fill:#000000;stroke:none;stroke-width:0.105363;stroke-linecap:round;stroke-linejoin:round;stroke-dasharray:none"
       x="99.955185"
       y="194.13136"
       id="text2"
       clip-path="none"
       transform="matrix(1.5624999,0,0,1.5624999,-20.927139,-45.431246)"><tspan
         sodipodi:role="line"
         id="tspan2"
         style="font-style:normal;font-variant:normal;font-weight:normal;font-stretch:normal;font-size:35.6829px;font-family:'Microsoft YaHei';-inkscape-font-specification:'Microsoft YaHei';fill:#000000;stroke:none;stroke-width:0.105363"
         x="99.955185"
         y="194.13136">西南</tspan></text></g></svg>
