<?xml version="1.0" encoding="UTF-8" standalone="no"?>
<!-- Created with Inkscape (http://www.inkscape.org/) -->

<svg
   width="800"
   height="800"
   viewBox="0 0 211.66666 211.66666"
   version="1.1"
   id="svg1"
   xml:space="preserve"
   inkscape:version="1.3 (0e150ed6c4, 2023-07-21)"
   sodipodi:docname="thunderstorm.svg"
   inkscape:export-filename="thunderstorm.4096.png"
   inkscape:export-xdpi="491.51999"
   inkscape:export-ydpi="491.51999"
   xmlns:inkscape="http://www.inkscape.org/namespaces/inkscape"
   xmlns:sodipodi="http://sodipodi.sourceforge.net/DTD/sodipodi-0.dtd"
   xmlns="http://www.w3.org/2000/svg"
   xmlns:svg="http://www.w3.org/2000/svg"><sodipodi:namedview
     id="namedview1"
     pagecolor="#ffffff"
     bordercolor="#000000"
     borderopacity="0.25"
     inkscape:showpageshadow="2"
     inkscape:pageopacity="0.0"
     inkscape:pagecheckerboard="0"
     inkscape:deskcolor="#d1d1d1"
     inkscape:document-units="px"
     inkscape:zoom="0.61647026"
     inkscape:cx="369.03646"
     inkscape:cy="468.79796"
     inkscape:window-width="1440"
     inkscape:window-height="878"
     inkscape:window-x="2993"
     inkscape:window-y="-6"
     inkscape:window-maximized="1"
     inkscape:current-layer="layer1" /><defs
     id="defs1"><filter
       inkscape:label="Combined Lighting"
       inkscape:menu="Bevels"
       inkscape:menu-tooltip="Basic specular bevel to use for building textures"
       style="color-interpolation-filters:sRGB"
       id="filter122"
       x="-0.33289302"
       y="-0.16511516"
       width="1.665786"
       height="1.3302303"><feGaussianBlur
         stdDeviation="6"
         in="SourceGraphic"
         result="result0"
         id="feGaussianBlur120" /><feDiffuseLighting
         lighting-color="#ffffff"
         diffuseConstant="1"
         surfaceScale="4"
         result="result5"
         id="feDiffuseLighting120"><feDistantLight
           elevation="45"
           azimuth="235"
           id="feDistantLight120" /></feDiffuseLighting><feComposite
         k1="1.4"
         in2="SourceGraphic"
         in="result5"
         result="fbSourceGraphic"
         operator="arithmetic"
         id="feComposite120"
         k2="0"
         k3="0"
         k4="0" /><feGaussianBlur
         result="result0"
         in="fbSourceGraphic"
         stdDeviation="6"
         id="feGaussianBlur121" /><feSpecularLighting
         specularExponent="15.9070425"
         specularConstant="1"
         surfaceScale="4"
         lighting-color="#ffffff"
         result="result1"
         in="result0"
         id="feSpecularLighting121"><feDistantLight
           azimuth="252"
           elevation="61"
           id="feDistantLight121" /></feSpecularLighting><feComposite
         k3="1"
         k2="1"
         operator="arithmetic"
         in="fbSourceGraphic"
         in2="result1"
         result="result4"
         id="feComposite121"
         k1="0"
         k4="0" /><feComposite
         operator="in"
         result="result2"
         in2="SourceGraphic"
         in="result4"
         id="feComposite122" /><feGaussianBlur
         stdDeviation="1"
         id="feGaussianBlur1" /><feComposite
         id="feComposite1"
         in2="SourceGraphic"
         operator="atop" /></filter></defs><g
     inkscape:label="Layer 1"
     inkscape:groupmode="layer"
     id="layer1"
     transform="translate(0.89619714,-42.666664)"><rect
       style="display:inline;fill:#ffba00;fill-opacity:1;stroke:none;stroke-width:0.2"
       id="rect122"
       width="211.66667"
       height="211.66667"
       x="-0.89619714"
       y="42.666664"
       inkscape:label="bg" /><path
       id="path2"
       style="display:inline;fill:#000000;stroke:none;stroke-width:0.2;filter:url(#filter122)"
       d="m 65.424303,52.178745 c -0.438016,0.124632 -0.741557,0.694563 -0.741557,1.505334 0,0.54255 -0.105435,1.332002 -0.234095,1.753898 -0.128659,0.421898 -0.375476,1.600317 -0.548286,2.618962 -0.411618,2.426307 -0.794252,4.510674 -1.069186,5.820833 -0.21583,1.02851 -0.524387,2.639381 -1.051098,5.490105 -0.141157,0.763983 -0.370136,1.984375 -0.509013,2.711979 -0.138876,0.727603 -0.388751,2.096824 -0.555005,3.042708 -0.166254,0.945885 -0.405163,2.196043 -0.531234,2.778125 -0.126072,0.582083 -0.36616,1.832241 -0.533301,2.778125 -0.167142,0.945885 -0.407179,2.255573 -0.533817,2.910417 -0.126638,0.654843 -0.354963,1.845469 -0.506946,2.645833 -1.120669,5.901615 -1.359932,7.148444 -1.573547,8.202083 -0.332748,1.641241 -0.875599,4.532867 -1.614889,8.598963 -0.462843,2.54564 -0.830346,4.46642 -1.062467,5.55625 -0.123976,0.58209 -0.362026,1.83223 -0.529167,2.77812 -0.167141,0.94589 -0.407181,2.25557 -0.533818,2.91042 -0.126637,0.65484 -0.354963,1.84547 -0.506945,2.64583 -1.27116,6.69412 -1.825299,9.53977 -2.138888,10.98021 -0.704292,3.23509 -0.772273,4.46105 -0.252181,4.5651 0.345734,0.0692 2.051374,-1.06298 9.124508,-6.057 0.727604,-0.51373 4.562313,-3.21959 8.52196,-6.01307 3.959647,-2.79348 7.271067,-5.19459 7.358207,-5.33559 0.08714,-0.141 0.32981,-0.25632 0.539502,-0.25632 0.45218,0 0.510018,1.5118 0.142111,3.72174 -0.131636,0.79071 -0.375931,2.6878 -0.542603,4.21576 -0.166672,1.52797 -0.411103,3.55203 -0.543119,4.49792 -0.132016,0.94589 -0.363971,2.76159 -0.515731,4.0349 -0.590556,4.95492 -0.841065,7.015 -1.069702,8.79739 -0.130667,1.01865 -0.365188,2.89379 -0.520899,4.16667 -0.618875,5.05909 -0.81228,6.63185 -1.05885,8.59948 -0.141328,1.12778 -0.385573,3.12208 -0.542602,4.43177 -0.157031,1.30969 -0.392704,3.21469 -0.523483,4.23333 -0.130777,1.01865 -0.368792,2.92365 -0.529166,4.23334 -0.160375,1.30967 -0.39972,3.21468 -0.531751,4.23333 -0.13203,1.01865 -0.368372,2.98319 -0.525032,4.36562 -0.156661,1.38245 -0.393039,3.28745 -0.52555,4.23334 -0.13251,0.94588 -0.359262,2.67229 -0.503845,3.83646 -0.144583,1.16415 -0.406309,3.14671 -0.581876,4.40541 -0.175572,1.2587 -0.242322,2.4887 -0.148312,2.73368 0.382969,0.998 1.173255,-0.005 1.767851,-2.2443 0.173901,-0.65485 0.408928,-1.48828 0.522449,-1.85209 0.11352,-0.3638 0.44791,-1.49489 0.743107,-2.51354 0.903522,-3.11781 3.009416,-10.22008 3.49126,-11.77396 0.202706,-0.6537 0.854563,-2.88227 1.896008,-6.48229 0.294683,-1.01864 0.628228,-2.14974 0.74104,-2.51354 0.26275,-0.84733 1.16206,-3.87504 1.807641,-6.08542 1.027275,-3.51722 1.678512,-5.70725 1.888257,-6.35 0.118719,-0.3638 0.347836,-1.1377 0.509013,-1.71979 0.161177,-0.58208 0.524319,-1.83224 0.806669,-2.77812 0.282352,-0.94589 0.882059,-2.96995 1.332735,-4.49792 0.450676,-1.52797 1.050094,-3.55203 1.332219,-4.49792 0.282126,-0.94587 0.767092,-2.61276 1.07797,-3.70416 0.310878,-1.09141 0.662758,-2.28203 0.781865,-2.64584 0.260837,-0.79671 1.219065,-4.00404 1.580782,-5.29166 0.143079,-0.50933 0.49942,-1.72972 0.791683,-2.71198 0.292262,-0.98227 0.770205,-2.58961 1.062467,-3.57188 0.292263,-0.98226 0.666711,-2.26219 0.831991,-2.84427 0.165281,-0.58208 0.473261,-1.59411 0.684196,-2.24896 0.210934,-0.65484 0.599321,-1.96453 0.863513,-2.91041 0.264191,-0.94589 0.85806,-2.96995 1.319816,-4.49792 0.85767,-2.83806 1.10019,-3.66323 1.553393,-5.29167 0.141748,-0.50932 0.634505,-2.176195 1.095024,-3.704163 0.460519,-1.527967 0.93677,-3.135312 1.058333,-3.571875 0.121564,-0.436561 0.597815,-2.043907 1.058334,-3.571875 0.460518,-1.527967 0.936768,-3.135313 1.058333,-3.571875 0.121564,-0.436562 0.594723,-2.043907 1.051611,-3.571875 1.69887,-5.681462 1.86633,-6.451134 1.48725,-6.832657 -0.28837,-0.290218 -0.63758,-0.111178 -2.038633,1.04438 -0.929955,0.767005 -1.750385,1.463163 -1.823145,1.547193 -0.07276,0.08403 -2.33495,1.990689 -5.027083,4.236434 -2.692132,2.245744 -4.954323,4.152437 -5.027083,4.237467 -0.07276,0.08503 -1.620575,1.394971 -3.439584,2.910933 -1.819009,1.515963 -3.366823,2.820805 -3.439583,2.899565 -0.07276,0.07876 -0.69473,0.595246 -1.382344,1.147734 -0.687614,0.552487 -1.40199,1.150689 -1.5875,1.329634 -0.18551,0.178944 -1.825731,1.567462 -3.644739,3.0856 -1.819009,1.518136 -3.366824,2.8249 -3.439584,2.9037 -0.827601,0.89587 -6.105828,5.03793 -6.419763,5.03793 -0.13287,0 -0.169045,-0.44648 -0.08061,-0.99218 0.08843,-0.54571 0.282221,-4.80219 0.430465,-9.458858 0.148244,-4.656662 0.38223,-11.621826 0.520381,-15.478125 0.138152,-3.856298 0.366954,-10.7024 0.50798,-15.213541 0.141027,-4.511142 0.334911,-9.182708 0.430981,-10.381279 0.150162,-1.873387 0.113887,-2.202302 -0.256832,-2.344559 -0.16957,-0.06507 -0.330451,-0.07307 -0.476456,-0.03152 z m -8.707996,0.778764 c -0.266659,-0.05293 -0.528909,0.191981 -0.701249,0.655257 -0.43786,1.177035 -1.806096,4.929033 -2.947624,8.082194 -0.276583,0.763983 -0.871895,2.371329 -1.322917,3.571875 -0.451021,1.200546 -1.189189,3.165079 -1.64021,4.365625 -0.451021,1.200546 -1.046334,2.807892 -1.322916,3.571875 -1.059777,2.927346 -1.620416,4.450856 -1.825729,4.960937 -0.117147,0.291041 -0.450788,1.184011 -0.741556,1.984375 -0.634501,1.74651 -2.134383,5.742617 -2.432927,6.482292 -0.117469,0.291041 -0.451305,1.184011 -0.742073,1.984375 -0.29077,0.800363 -0.909631,2.467241 -1.37511,3.704167 -0.465481,1.236925 -1.072689,2.874037 -1.349272,3.638021 -1.528185,4.221198 -1.769935,4.863578 -2.341459,6.217708 -0.138192,0.32742 -0.424543,1.13109 -0.636137,1.78594 -0.336156,1.04033 -1.37982,3.84066 -2.021582,5.42396 -0.117968,0.29105 -0.452338,1.18401 -0.743107,1.98437 -0.29077,0.80036 -0.897733,2.43747 -1.348755,3.63802 -0.451021,1.20055 -1.189189,3.16508 -1.64021,4.36563 -0.451021,1.20054 -1.057985,2.83765 -1.348755,3.63802 -0.290769,0.80036 -0.629954,1.69333 -0.753959,1.98437 -0.124005,0.29104 -0.398704,1.06495 -0.610299,1.71979 -0.367404,1.13705 -1.497863,4.15213 -2.083077,5.55625 -0.499878,1.19939 -0.689247,1.70031 -1.351855,3.57188 -0.360641,1.01864 -1.024251,2.83436 -1.474329,4.03489 -0.450076,1.20055 -1.186515,3.16508 -1.636592,4.36563 -0.450078,1.20055 -1.113171,3.01625 -1.473812,4.0349 -0.360641,1.01863 -0.766588,2.11997 -0.901754,2.44739 -0.50481,1.22283 -0.73789,1.82653 -1.303796,3.37344 -0.319415,0.87312 -0.682148,1.82562 -0.806153,2.11667 -0.124004,0.29104 -0.398703,1.06494 -0.610298,1.71979 -0.211595,0.65484 -0.705601,2.02406 -1.097608,3.04271 -0.392005,1.01863 -1.058156,2.77481 -1.480529,3.9026 -0.422374,1.12779 -1.136996,3.03279 -1.588017,4.23333 -0.451021,1.20055 -1.057985,2.83766 -1.348755,3.63802 -0.290769,0.80037 -0.62441,1.69334 -0.741557,1.98438 -0.117148,0.29104 -0.474335,1.24354 -0.79375,2.11667 -0.3194141,0.87311 -0.6754488,1.82562 -0.7911661,2.11666 -1.0158109,2.55488 -1.3255005,3.42846 -1.3255005,3.73931 0,0.78599 0.5719667,0.5896 10.3187496,-3.54449 8.434937,-3.57766 9.659742,-4.11287 9.976136,-4.35839 0.690956,-0.53618 0.941758,0.0933 0.750858,1.88464 -0.102572,0.96251 -0.298443,3.5357 -0.435115,5.71852 -0.234738,3.74904 -0.428263,6.65409 -1.022677,15.34583 -0.139327,2.03729 -0.381306,5.60917 -0.537952,7.9375 -0.156645,2.32833 -0.39914,5.90021 -0.538468,7.9375 -0.139327,2.03729 -0.370204,5.43057 -0.513147,7.54062 -0.142944,2.11005 -0.376234,5.50334 -0.518831,7.54063 -0.780479,11.15064 -0.819899,12.13443 -0.490926,12.33775 0.360942,0.22307 1.003036,-0.20114 1.003039,-0.66249 1e-6,-0.16409 0.340581,-1.36974 0.75706,-2.67943 0.416478,-1.30968 1.003124,-3.21468 1.303279,-4.23333 0.300156,-1.01864 0.920746,-3.10224 1.379244,-4.63021 0.458499,-1.52797 1.079911,-3.61156 1.380795,-4.63021 0.300883,-1.01864 0.759254,-2.56645 1.019059,-3.43958 0.259806,-0.87312 0.731408,-2.48048 1.047998,-3.57188 0.31659,-1.0914 0.673094,-2.28203 0.7922,-2.64583 0.260838,-0.79671 1.219064,-4.00406 1.580782,-5.29167 0.264184,-0.94042 0.628579,-2.16898 2.11925,-7.14375 2.05792,-6.86783 3.163228,-10.57237 3.946529,-13.22916 0.321778,-1.09141 0.68175,-2.28203 0.800468,-2.64584 0.118719,-0.3638 0.347836,-1.1377 0.509013,-1.71979 0.285876,-1.03243 0.475704,-1.67446 2.110982,-7.14375 1.350335,-4.51626 2.419351,-8.12496 2.978113,-10.05416 0.295032,-1.01865 0.63285,-2.14974 0.750859,-2.51355 0.235879,-0.72717 0.886758,-2.89658 2.143538,-7.14375 1.336825,-4.51766 2.370469,-7.96058 2.915584,-9.71258 0.613249,-1.97099 0.64237,-2.68866 0.11834,-2.88975 -0.215841,-0.0828 -2.210141,0.64861 -4.431771,1.62574 -2.221631,0.97714 -4.991531,2.18974 -6.155697,2.69493 -1.164165,0.5052 -2.771511,1.21898 -3.571875,1.58595 -2.549594,1.16901 -5.353602,2.22371 -5.506124,2.07119 -0.135617,-0.13562 0.130051,-1.50785 0.744658,-3.84214 0.22873,-0.86873 0.540373,-2.20407 1.480529,-6.35 0.214494,-0.94589 0.504738,-2.16628 0.644922,-2.71198 0.481055,-1.87264 0.751041,-2.97833 1.017509,-4.16719 0.146774,-0.65484 0.504734,-2.20266 0.795817,-3.43958 0.291084,-1.23693 0.706344,-3.02287 0.922941,-3.96875 0.607742,-2.65401 1.742071,-7.43649 2.008147,-8.46667 0.131546,-0.50932 0.359655,-1.46182 0.506429,-2.11667 0.287819,-1.28411 0.922728,-3.98762 2.019515,-8.59895 0.380726,-1.60072 0.867027,-3.68433 1.08107,-4.63021 0.214043,-0.94589 0.496356,-2.13651 0.627352,-2.64584 0.130996,-0.50932 0.372505,-1.52135 0.536402,-2.248954 0.163897,-0.727605 0.402022,-1.739636 0.529166,-2.248959 0.127144,-0.509322 0.36527,-1.521355 0.529167,-2.248958 0.163897,-0.727603 0.402022,-1.739636 0.529167,-2.248958 0.127145,-0.509323 0.35202,-1.461825 0.499711,-2.116667 0.147691,-0.654843 0.638264,-2.738439 1.090373,-4.630208 0.452107,-1.891769 1.053323,-4.42185 1.335835,-5.622396 1.291272,-5.487284 1.606992,-6.82958 2.115633,-8.995833 0.298976,-1.273307 0.663512,-2.850886 0.810287,-3.50573 0.146775,-0.654842 0.372873,-1.607344 0.502295,-2.116666 0.247946,-0.975751 1.18278,-4.953704 1.585433,-6.746875 0.130705,-0.582084 0.438104,-1.83224 0.683679,-2.778125 0.599795,-2.310254 0.626613,-3.53553 0.07906,-3.644222 z"
       inkscape:label="lightning" /><text
       xml:space="preserve"
       style="font-style:normal;font-variant:normal;font-weight:normal;font-stretch:normal;font-size:41.8538px;font-family:'Arial Narrow';-inkscape-font-specification:'Arial Narrow';display:inline;fill:#000000;fill-opacity:1;stroke:none;stroke-width:0.136369"
       x="95.980431"
       y="163.1214"
       id="text122"
       transform="scale(0.68184294,1.4666134)"
       inkscape:label="english"><tspan
         sodipodi:role="line"
         id="tspan122"
         style="font-style:normal;font-variant:normal;font-weight:normal;font-stretch:normal;font-size:41.8538px;font-family:'Arial Narrow';-inkscape-font-specification:'Arial Narrow';fill:#000000;stroke-width:0.136369"
         x="95.980431"
         y="163.1214">Thunderstorm</tspan></text><text
       xml:space="preserve"
       style="font-style:normal;font-variant:normal;font-weight:normal;font-stretch:normal;font-size:56.6918px;font-family:'Arial Narrow';-inkscape-font-specification:'Arial Narrow';fill:#000000;fill-opacity:1;stroke:none;stroke-width:0.184714"
       x="93.0811"
       y="176.9407"
       id="text123"
       transform="scale(0.98223649,1.0180848)"
       inkscape:label="chinese"><tspan
         sodipodi:role="line"
         id="tspan123"
         style="stroke-width:0.184714"
         x="93.0811"
         y="176.9407">雷暴</tspan></text></g></svg>
